<?xml version="1.0" standalone="no"?>
<!DOCTYPE svg PUBLIC "-//W3C//DTD SVG 1.1//EN" "http://www.w3.org/Graphics/SVG/1.1/DTD/svg11.dtd" >
<svg xmlns="http://www.w3.org/2000/svg" xmlns:xlink="http://www.w3.org/1999/xlink" version="1.1">
<metadata>
Created by FontForge 20170731 at Thu May 19 13:14:22 2022
 By Aleksey,,,
Copyright (c) 2022 Garena Online. All rights reserved.
</metadata>
<defs>
<font id="GFF-Latin-Bold" horiz-adv-x="600" >
  <font-face 
    font-family="GFF Latin"
    font-weight="700"
    font-stretch="normal"
    units-per-em="1000"
    panose-1="2 12 8 4 2 2 4 8 2 3"
    ascent="760"
    descent="-240"
    x-height="494"
    cap-height="700"
    bbox="-658 -200 6274 997"
    underline-thickness="50"
    underline-position="-150"
    unicode-range="U+000D-FEFF"
  />
<missing-glyph horiz-adv-x="616" 
d="M536 0h-456v700h456v-700zM148 636v-572h319v572h-319z" />
    <glyph glyph-name="fl" unicode="fl" horiz-adv-x="609" 
d="M598 110v-110h-57q-66 0 -96.5 10t-42.5 39t-12 91v253h-181v-393h-129v393h-67v101h67v76q0 67 36 98.5t105 31.5h99v-98h-77q-20 0 -27 -9.5t-7 -35.5v-63h181v206h129v-547q0 -20 3.5 -28.5t11.5 -11.5t25 -3h39z" />
    <glyph glyph-name="f_f" unicode="ff" horiz-adv-x="633" 
d="M558 602q-19 0 -26.5 -9.5t-7.5 -35.5v-63h97v-101h-97v-393h-129v393h-186v-393h-129v393h-67v101h67v76q0 67 36 98.5t105 31.5h103v-98h-81q-20 0 -27 -9.5t-7 -35.5v-63h186v76q0 67 36 98.5t105 31.5h106v-98h-84z" />
    <glyph glyph-name=".notdef" horiz-adv-x="616" 
d="M536 0h-456v700h456v-700zM148 636v-572h319v572h-319z" />
    <glyph glyph-name=".null" horiz-adv-x="0" 
 />
    <glyph glyph-name="nonmarkingreturn" horiz-adv-x="333" 
 />
    <glyph glyph-name="NULL" horiz-adv-x="0" 
 />
    <glyph glyph-name="NULL" horiz-adv-x="0" 
 />
    <glyph glyph-name="CR" unicode="&#xd;" horiz-adv-x="227" 
 />
    <glyph glyph-name="space" unicode=" " horiz-adv-x="227" 
 />
    <glyph glyph-name="exclam" unicode="!" horiz-adv-x="342" 
d="M108 247l-10 453h145l-10 -453h-125zM90 0v161h163v-161h-163z" />
    <glyph glyph-name="quotedbl" unicode="&#x22;" horiz-adv-x="369" 
d="M53 446v254h103v-254h-103zM213 446v254h102v-254h-102z" />
    <glyph glyph-name="numbersign" unicode="#" horiz-adv-x="651" 
d="M630 543v-106h-106l-29 -157h105v-106h-124l-32 -174h-113l32 174h-140l-32 -174h-113l32 174h-90v106h109l29 157h-108v106h127l29 157h113l-29 -157h140l29 157h113l-29 -157h87zM242 280h140l29 157h-140z" />
    <glyph glyph-name="dollar" unicode="$" horiz-adv-x="596" 
d="M399 399q44 -7 73 -22.5t44.5 -46t15.5 -78.5v-93q0 -71 -41 -107t-115 -36h-32v-123h-87v123h-179v120h283q21 0 33 10t12 30v65q0 22 -11 32t-34 14l-164 26q-43 7 -72 23t-45 48t-16 83v69q0 71 42 109.5t114 38.5h37v120h87v-120h165v-77l-42 -43h-232q-21 0 -33 -10
t-12 -30v-48q0 -22 11.5 -34.5t33.5 -16.5z" />
    <glyph glyph-name="percent" unicode="%" horiz-adv-x="773" 
d="M49 601q0 40 12 61.5t37 29.5t67 8h53q42 0 66.5 -8t36.5 -29.5t12 -61.5v-131q0 -40 -12 -61t-36.5 -29t-66.5 -8h-53q-43 0 -67.5 8t-36.5 29t-12 61v131zM221 0h-99l430 700h100zM149 477q0 -12 7 -18t19 -6h33q12 0 19 6t7 18v117q0 12 -7 18t-19 6h-33q-12 0 -19 -6
t-7 -18v-117zM441 226q0 40 12 61.5t36.5 29.5t66.5 8h54q42 0 66 -8t36 -29.5t12 -61.5v-131q0 -40 -12 -61t-36 -29t-66 -8h-54q-42 0 -66.5 8t-36.5 29t-12 61v131zM541 102q0 -12 6.5 -18t18.5 -6h34q12 0 19 6t7 18v117q0 12 -7 18t-19 6h-34q-12 0 -18.5 -6t-6.5 -18
v-117z" />
    <glyph glyph-name="ampersand" unicode="&#x26;" horiz-adv-x="690" 
d="M688 0h-159l-73 77l-77 -77h-143q-69 0 -110 16.5t-59 51t-18 91.5v58q0 51 11.5 81t37.5 49t76 38l-3 3q-27 30 -40 50.5t-18 42t-5 52.5v49q0 124 146 124h116q52 0 84 -12t47 -39t15 -73v-66q0 -44 -10 -70t-37 -46.5t-81 -41.5l-24 -9l102 -110l90 89l83 -78l-95 -95
zM235 527q0 -21 4 -34.5t13.5 -25.5t31.5 -36l4 -5l54 20q28 11 38 24.5t10 41.5v61q0 17 -7.5 24t-24.5 7h-92q-17 0 -24 -7t-7 -24v-46zM330 105l53 52l-133 147l-7 -3q-29 -11 -44 -22.5t-20 -25.5t-5 -36v-53q0 -33 17 -46t54 -13h85z" />
    <glyph glyph-name="quotesingle" unicode="'" horiz-adv-x="209" 
d="M53 446v254h103v-254h-103z" />
    <glyph glyph-name="parenleft" unicode="(" horiz-adv-x="389" 
d="M203 -165q-53 45 -86 92.5t-49 106t-16 134.5v274q0 76 16 134.5t49 106t86 92.5h144q-66 -57 -103 -103.5t-54 -100.5t-17 -129v-274q0 -75 17 -129t54 -100.5t103 -103.5h-144z" />
    <glyph glyph-name="parenright" unicode=")" horiz-adv-x="389" 
d="M42 -165q66 57 103 103.5t54.5 100.5t17.5 129v274q0 75 -17.5 129t-54 100.5t-103.5 103.5h144q53 -45 86 -92.5t49.5 -106t16.5 -134.5v-274q0 -76 -16.5 -134.5t-49.5 -106t-86 -92.5h-144z" />
    <glyph glyph-name="asterisk" unicode="*" horiz-adv-x="452" 
d="M343 659l46 -80l-70 -40l70 -41l-46 -80l-71 41v-82h-92v82l-71 -41l-46 80l70 41l-70 40l46 80l71 -41v82h92v-82z" />
    <glyph glyph-name="plus" unicode="+" 
d="M358 33h-116v169h-168v114h168v169h116v-169h168v-114h-168v-169z" />
    <glyph glyph-name="comma" unicode="," horiz-adv-x="289" 
d="M81 8v153h130v-159l-109 -142h-73z" />
    <glyph glyph-name="hyphen" unicode="-" horiz-adv-x="380" 
d="M50 299h280v-96h-280v96z" />
    <glyph glyph-name="period" unicode="." horiz-adv-x="290" 
d="M64 0v161h163v-161h-163z" />
    <glyph glyph-name="slash" unicode="/" horiz-adv-x="518" 
d="M166 0h-113l299 700h113z" />
    <glyph glyph-name="zero" unicode="0" horiz-adv-x="641" 
d="M396 706q79 0 124.5 -38t45.5 -115v-405q0 -78 -45.5 -116t-124.5 -38h-151q-79 0 -124.5 38t-45.5 116v405q0 77 45.5 115t124.5 38h151zM259 594q-25 0 -40 -13.5t-15 -38.5v-10l233 -237v247q0 25 -15 38.5t-40 13.5h-123zM382 107q25 0 40 13t15 38v10l-233 237v-247
q0 -25 15 -38t40 -13h123z" />
    <glyph glyph-name="one" unicode="1" horiz-adv-x="412" 
d="M331 0h-132v574l-174 -71v121l174 76h132v-700z" />
    <glyph glyph-name="two" unicode="2" horiz-adv-x="613" 
d="M61 151q0 76 16 120t57.5 70.5t121.5 44.5q69 15 101 27t41.5 25.5t9.5 37.5v58q0 23 -13 34.5t-37 11.5h-275v120h290q79 0 125 -38t46 -116v-70q0 -62 -17.5 -95t-60 -52t-131.5 -38q-63 -14 -91 -27.5t-37 -33.5t-9 -59v-54h351v-117h-488v151z" />
    <glyph glyph-name="three" unicode="3" horiz-adv-x="596" 
d="M60 0v119h274l62 62v71q0 50 -60 50h-243v115h244q27 0 40.5 18t13.5 53v45q0 28 -14.5 39t-45.5 11h-267v117h283q92 0 134 -33.5t42 -106.5v-70q0 -42 -21 -72t-58 -47q44 -12 65.5 -40t21.5 -75v-124l-133 -132h-338z" />
    <glyph glyph-name="four" unicode="4" horiz-adv-x="603" 
d="M495 0h-134v159h-324v137l261 404h197v-421h83v-120h-83v-159zM361 581l-196 -302h196v302z" />
    <glyph glyph-name="five" unicode="5" horiz-adv-x="616" 
d="M71 0v119h288l62 61v84q0 23 -13.5 34.5t-37.5 11.5h-292v390h465v-75l-41 -42h-300v-157h183q80 0 125.5 -37t45.5 -115v-142l-133 -132h-352z" />
    <glyph glyph-name="six" unicode="6" horiz-adv-x="624" 
d="M414 436q73 0 115 -36t42 -106v-159q0 -70 -42 -105.5t-115 -35.5h-203q-74 0 -116.5 35.5t-42.5 105.5v159q0 61 26 96l210 310h150l-182 -264h158zM398 103q21 0 33 10.5t12 30.5v141q0 21 -12 31.5t-33 10.5h-171q-21 0 -33.5 -11t-12.5 -31v-141q0 -20 12.5 -30.5
t33.5 -10.5h171z" />
    <glyph glyph-name="seven" unicode="7" horiz-adv-x="583" 
d="M296 0h-146l247 583h-359v117h496v-117z" />
    <glyph glyph-name="eight" unicode="8" horiz-adv-x="621" 
d="M554.5 320.5q17.5 -29.5 17.5 -79.5v-92q0 -79 -45.5 -117t-126.5 -38h-179q-81 0 -127 38t-46 117v92q0 49 18 79t52 45q-48 34 -48 107v80q0 78 45.5 116t126.5 38h136q81 0 127 -38t46 -116v-80q0 -75 -48 -107q34 -15 51.5 -44.5zM202 472q0 -30 13.5 -44t37.5 -14
h116q24 0 37.5 14t13.5 44v73q0 23 -13.5 34.5t-37.5 11.5h-116q-24 0 -37.5 -11.5t-13.5 -34.5v-73zM389 111q24 0 37.5 12t13.5 35v85q0 35 -14.5 50.5t-44.5 15.5h-140q-30 0 -44.5 -15.5t-14.5 -50.5v-85q0 -23 13.5 -35t36.5 -12h157z" />
    <glyph glyph-name="nine" unicode="9" horiz-adv-x="624" 
d="M571 406q0 -61 -26 -96l-210 -310h-149l182 264h-158q-73 0 -115.5 36t-42.5 106v159q0 70 42 105.5t116 35.5h203q74 0 116 -35.5t42 -105.5v-159zM397 373q21 0 33 11t12 31v141q0 20 -12 30.5t-33 10.5h-171q-21 0 -33.5 -10.5t-12.5 -30.5v-141q0 -20 12.5 -31
t33.5 -11h171z" />
    <glyph glyph-name="colon" unicode=":" horiz-adv-x="291" 
d="M64 0v161h163v-161h-163zM64 333v161h163v-161h-163z" />
    <glyph glyph-name="semicolon" unicode=";" horiz-adv-x="293" 
d="M64 333v161h163v-161h-163zM83 8v153h130v-159l-109 -142h-73z" />
    <glyph glyph-name="less" unicode="&#x3c;" 
d="M92 314l416 169v-108l-297 -120l297 -120v-108l-416 169v118z" />
    <glyph glyph-name="equal" unicode="=" 
d="M84 304v106h432v-106h-432zM84 101v106h432v-106h-432z" />
    <glyph glyph-name="greater" unicode="&#x3e;" 
d="M92 375v108l416 -169v-118l-416 -169v108l297 120z" />
    <glyph glyph-name="question" unicode="?" horiz-adv-x="544" 
d="M192 296q0 37 14.5 65t35.5 47t54 43q27 20 43 34.5t26.5 32.5t10.5 40q0 21 -10 30.5t-32 9.5h-127q-26 0 -37.5 -10t-11.5 -32v-38h-128v37q0 79 40 115t128 36h145q80 0 122.5 -33t42.5 -108q0 -42 -15 -73t-36.5 -51.5t-56.5 -47.5q-27 -20 -42.5 -34t-25.5 -32
t-10 -40v-40h-130v49zM337 0h-160v158h160v-158z" />
    <glyph glyph-name="at" unicode="@" horiz-adv-x="942" 
d="M558 -31q70 0 112.5 4.5t76 16.5t72.5 36v-94q-34 -22 -67 -32.5t-76 -14t-118 -3.5h-180q-103 0 -166 26t-95 90t-32 178v236q0 107 33 172t95.5 93.5t154.5 28.5h213q98 0 158.5 -21t92 -78t31.5 -163v-175q0 -65 -10.5 -103.5t-41 -59.5t-89.5 -21h-34q-40 0 -63 8
t-32.5 25t-9.5 44q-13 -37 -37.5 -57t-68.5 -20h-35q-57 0 -88.5 13t-45 42.5t-13.5 82.5v145q0 134 137 134h40q36 0 58 -14t36 -42v45h89v-270q0 -21 2.5 -32t9.5 -16.5t22 -5.5h29q24 0 34.5 9.5t13.5 30.5t3 65v172q0 75 -18.5 112t-58 50t-112.5 13h-212
q-64 0 -103 -18.5t-58 -63.5t-19 -125v-238q0 -79 20.5 -123.5t61.5 -63t108 -18.5h180zM492 176q31 0 45.5 13t14.5 47v117q-6 29 -19.5 44.5t-41.5 15.5h-44q-26 0 -37 -11.5t-11 -37.5v-135q0 -29 10.5 -41t37.5 -12h45z" />
    <glyph glyph-name="A" unicode="A" horiz-adv-x="680" 
d="M158 0h-138l230 700h184l226 -700h-140l-49 161h-262zM341 588l-99 -313h196z" />
    <glyph glyph-name="B" unicode="B" horiz-adv-x="655" 
d="M500 357q45 -12 69.5 -37.5t24.5 -68.5v-90q0 -161 -186 -161h-329v700h317q92 0 134 -33t42 -106v-104q0 -31 -19 -54.5t-53 -37.5v-8zM214 582v-176h178q24 0 36 13t12 38v77q0 27 -14.5 37.5t-45.5 10.5h-166zM391 118q36 0 52 14t16 45v74q0 26 -19 37.5t-45 11.5
h-181v-182h177z" />
    <glyph glyph-name="C" unicode="C" horiz-adv-x="557" 
d="M247 0q-79 0 -125 38t-46 117v391q0 78 46 116t125 38h274v-79l-42 -42h-216q-24 0 -37.5 -12t-13.5 -35v-363q0 -23 13.5 -35.5t37.5 -12.5h258v-121h-274z" />
    <glyph glyph-name="D" unicode="D" horiz-adv-x="690" 
d="M79 0v700h365q79 0 125 -38t46 -116v-408l-139 -138h-397zM214 118h198l67 67v351q0 23 -13.5 34.5t-36.5 11.5h-215v-464z" />
    <glyph glyph-name="E" unicode="E" horiz-adv-x="564" 
d="M520 0h-441v700h431v-78l-42 -42h-254v-171h285v-71l-42 -42h-243v-176h306v-120z" />
    <glyph glyph-name="F" unicode="F" horiz-adv-x="551" 
d="M214 0h-135v700h430v-80l-42 -42h-253v-191h284v-75l-41 -42h-243v-270z" />
    <glyph glyph-name="G" unicode="G" horiz-adv-x="659" 
d="M242 0q-77 0 -121.5 37t-44.5 113v400q0 76 44.5 113t121.5 37h320v-76l-42 -42h-263q-23 0 -36 -11.5t-13 -34.5v-375q0 -23 13 -35t36 -12h155l57 58v125h-147v110h278v-278l-129 -129h-229z" />
    <glyph glyph-name="H" unicode="H" horiz-adv-x="694" 
d="M214 0h-135v700h135v-274h266v274h134v-700h-134v306h-266v-306z" />
    <glyph glyph-name="I" unicode="I" horiz-adv-x="293" 
d="M214 0h-135v700h135v-700z" />
    <glyph glyph-name="J" unicode="J" horiz-adv-x="442" 
d="M24 0v121h156q23 0 36 13t13 35v531h135v-540q0 -81 -45 -120.5t-124 -39.5h-171z" />
    <glyph glyph-name="K" unicode="K" horiz-adv-x="635" 
d="M214 0h-135v700h135v-291h80l175 291h150l-206 -332l210 -368h-154l-163 301h-92v-301z" />
    <glyph glyph-name="L" unicode="L" horiz-adv-x="534" 
d="M512 0h-433v700h135v-579h298v-121z" />
    <glyph glyph-name="M" unicode="M" horiz-adv-x="881" 
d="M209 0h-130v700h204l160 -393l159 393h199v-700h-129v581l-162 -406h-139l-162 403v-578z" />
    <glyph glyph-name="N" unicode="N" horiz-adv-x="717" 
d="M205 0h-126v700h209l224 -566v566h125v-700h-191l-241 581v-581z" />
    <glyph glyph-name="O" unicode="O" horiz-adv-x="684" 
d="M245 -6q-79 0 -124 38t-45 116v404q0 78 45.5 116.5t123.5 38.5h195q78 0 123.5 -38.5t45.5 -116.5v-404q0 -78 -45 -116t-124 -38h-195zM424 112q23 0 36.5 12t13.5 35v382q0 23 -13.5 35.5t-36.5 12.5h-163q-24 0 -37.5 -12.5t-13.5 -35.5v-382q0 -23 13.5 -35
t37.5 -12h163z" />
    <glyph glyph-name="P" unicode="P" horiz-adv-x="630" 
d="M79 0v700h294q82 0 127 -16.5t64 -57.5t19 -117v-58q0 -75 -20 -118.5t-67 -64t-130 -20.5h-152v-248h-135zM359 367q47 0 68 19.5t21 64.5v49q0 34 -9 51.5t-28 23.5t-52 6h-145v-214h145z" />
    <glyph glyph-name="Q" unicode="Q" horiz-adv-x="684" 
d="M609 148q0 -69 -36.5 -107t-100.5 -45l129 -172h-157l-114 170h-85q-79 0 -124 38t-45 116v404q0 78 45.5 116.5t123.5 38.5h195q78 0 123.5 -38.5t45.5 -116.5v-404zM474 541q0 23 -13.5 35.5t-36.5 12.5h-163q-24 0 -37.5 -12.5t-13.5 -35.5v-382q0 -23 13.5 -35
t37.5 -12h163q23 0 36.5 12t13.5 35v382z" />
    <glyph glyph-name="R" unicode="R" horiz-adv-x="637" 
d="M610 0h-149l-107 265h-140v-265h-135v700h329q63 0 101 -16.5t56 -51t18 -92.5v-98q0 -46 -27 -85.5t-72 -63.5zM214 581v-202h149q27 0 46 9t29 23.5t10 30.5v89q0 22 -15 36t-39 14h-180z" />
    <glyph glyph-name="S" unicode="S" horiz-adv-x="606" 
d="M70 0v118h299q23 0 35.5 11.5t12.5 32.5v76q0 23 -11.5 33.5t-36.5 15.5l-172 28q-47 8 -77 23.5t-47 48t-17 86.5v74q0 76 44 114.5t122 38.5h303v-76l-42 -42h-245q-23 0 -35.5 -11.5t-12.5 -32.5v-59q0 -22 12.5 -35.5t35.5 -17.5l172 -29q47 -7 77.5 -22.5t47 -46
t16.5 -81.5v-95q0 -76 -43.5 -114t-122.5 -38h-315z" />
    <glyph glyph-name="T" unicode="T" horiz-adv-x="541" 
d="M337 0h-134v578h-194v122h523v-80l-42 -42h-153v-578z" />
    <glyph glyph-name="U" unicode="U" horiz-adv-x="683" 
d="M249 -6q-79 0 -125 38.5t-46 116.5v551h133v-539q0 -22 15 -34.5t38 -12.5h155q23 0 38 12.5t15 34.5v539h133v-551q0 -78 -46 -116.5t-125 -38.5h-185z" />
    <glyph glyph-name="V" unicode="V" horiz-adv-x="646" 
d="M425 0h-207l-203 700h144l162 -596l167 596h143z" />
    <glyph glyph-name="W" unicode="W" horiz-adv-x="992" 
d="M380 0h-188l-176 700h146l128 -578l135 578h143l133 -578l130 578h145l-177 -700h-187l-116 486z" />
    <glyph glyph-name="X" unicode="X" horiz-adv-x="672" 
d="M170 0h-151l237 352l-233 348h154l162 -254l161 254h149l-229 -349l234 -351h-156l-164 258z" />
    <glyph glyph-name="Y" unicode="Y" horiz-adv-x="610" 
d="M371 0h-134v274l-228 426h151l147 -304l152 304h142l-230 -426v-274z" />
    <glyph glyph-name="Z" unicode="Z" horiz-adv-x="558" 
d="M525 0h-496v122l326 456h-296v122h446v-122l-325 -456h345v-122z" />
    <glyph glyph-name="bracketleft" unicode="[" horiz-adv-x="356" 
d="M50 -148v916h278v-109h-158v-698h158v-109h-278z" />
    <glyph glyph-name="backslash" unicode="\" horiz-adv-x="518" 
d="M166 700l299 -700h-113l-299 700h113z" />
    <glyph glyph-name="bracketright" unicode="]" horiz-adv-x="356" 
d="M28 768h278v-916h-278v109h158v698h-158v109z" />
    <glyph glyph-name="asciicircum" unicode="^" horiz-adv-x="452" 
d="M276 700l138 -388h-92l-96 280l-97 -280h-91l139 388h99z" />
    <glyph glyph-name="underscore" unicode="_" horiz-adv-x="500" 
d="M500 -148h-500v96h500v-96z" />
    <glyph glyph-name="grave" unicode="`" horiz-adv-x="618" 
d="M344 892l101 -137h-127l-119 137h145z" />
    <glyph glyph-name="a" unicode="a" horiz-adv-x="534" 
d="M188 0q-75 0 -107.5 29.5t-32.5 90.5v62q0 45 14 70t44 35t82 10h160v60q0 17 -4.5 25.5t-13.5 11.5t-26 3h-204v97h213q55 0 88.5 -11.5t50 -40t16.5 -79.5v-363h-280zM348 94v118h-148q-19 0 -26.5 -7t-7.5 -25v-57q0 -15 8.5 -22t25.5 -7h148z" />
    <glyph glyph-name="b" unicode="b" horiz-adv-x="569" 
d="M69 0v700h129v-206h148q75 0 117.5 -35.5t42.5 -105.5v-213q0 -69 -42.5 -104.5t-117.5 -35.5h-277zM332 108q21 0 33 11t12 31v194q0 21 -12 31.5t-33 10.5h-134v-278h134z" />
    <glyph glyph-name="c" unicode="c" horiz-adv-x="454" 
d="M222 0q-75 0 -117 35t-42 105v213q0 70 42 105.5t117 35.5h199v-67l-42 -41h-142q-21 0 -33 -10.5t-12 -31.5v-194q0 -21 12 -31.5t33 -10.5h184v-108h-199z" />
    <glyph glyph-name="d" unicode="d" horiz-adv-x="568" 
d="M222 0q-74 0 -116.5 35.5t-42.5 104.5v213q0 70 42.5 105.5t116.5 35.5h148v206h129v-700h-277zM370 108v278h-133q-21 0 -33 -10.5t-12 -31.5v-194q0 -21 12 -31.5t33 -10.5h133z" />
    <glyph glyph-name="e" unicode="e" horiz-adv-x="549" 
d="M222 0q-75 0 -117 35t-42 105v227q0 134 159 134h118q75 0 117.5 -32t42.5 -102q0 -46 -2.5 -90t-5.5 -67h-302v-60q0 -20 12.5 -31t33.5 -11h236v-108h-250zM190 305h191v59q0 21 -12 31t-38 10h-95q-21 0 -33.5 -10.5t-12.5 -30.5v-59z" />
    <glyph glyph-name="f" unicode="f" horiz-adv-x="314" 
d="M80 0v393h-67v101h67v76q0 67 36 98.5t105 31.5h102v-98h-80q-20 0 -27 -9.5t-7 -35.5v-63h99v-101h-99v-393h-129z" />
    <glyph glyph-name="g" unicode="g" horiz-adv-x="563" 
d="M87 -192v105h235q20 0 32 10t12 30v59h-144q-74 0 -116.5 34.5t-42.5 102.5v208q0 68 42.5 102.5t116.5 34.5h272v-548q0 -69 -41.5 -103.5t-115.5 -34.5h-250zM366 118v270h-131q-20 0 -31.5 -10t-11.5 -30v-190q0 -20 11.5 -30t31.5 -10h131z" />
    <glyph glyph-name="h" unicode="h" horiz-adv-x="572" 
d="M69 0v700h129v-206h148q75 0 117.5 -35.5t42.5 -105.5v-353h-129v336q0 26 -13 38t-40 12h-126v-386h-129z" />
    <glyph glyph-name="i" unicode="i" horiz-adv-x="271" 
d="M205 570h-139v130h139v-130zM200 0h-129v494h129v-494z" />
    <glyph glyph-name="j" unicode="j" horiz-adv-x="271" 
d="M205 572h-139v128h139v-128zM-22 -192v105h49q20 0 32 10t12 30v541h129v-547q0 -69 -43 -104t-117 -35h-62z" />
    <glyph glyph-name="k" unicode="k" horiz-adv-x="530" 
d="M198 0h-129v700h129v-388h58l125 182h139l-156 -219l161 -275h-144l-116 212h-67v-212z" />
    <glyph glyph-name="l" unicode="l" horiz-adv-x="286" 
d="M218 0q-66 0 -96.5 10t-42.5 39t-12 91v560h129v-547q0 -20 3.5 -28.5t11.5 -11.5t25 -3h39v-110h-57z" />
    <glyph glyph-name="m" unicode="m" horiz-adv-x="871" 
d="M69 0v494h577q74 0 116.5 -35.5t42.5 -105.5v-353h-129v336q0 26 -13 38t-40 12h-126v-386h-128v386h-171v-386h-129z" />
    <glyph glyph-name="n" unicode="n" horiz-adv-x="572" 
d="M69 0v494h277q75 0 117.5 -35.5t42.5 -105.5v-353h-129v336q0 26 -13 38t-40 12h-126v-386h-129z" />
    <glyph glyph-name="o" unicode="o" horiz-adv-x="579" 
d="M222 -6q-75 0 -117 35t-42 105v226q0 70 42 105.5t117 35.5h135q74 0 116.5 -36t42.5 -105v-226q0 -69 -42.5 -104.5t-116.5 -35.5h-135zM342 102q21 0 33 11t12 31v207q0 20 -12 31t-33 11h-105q-21 0 -33 -11t-12 -31v-207q0 -21 12 -31.5t33 -10.5h105z" />
    <glyph glyph-name="p" unicode="p" horiz-adv-x="569" 
d="M69 -180v674h277q75 0 117.5 -35.5t42.5 -105.5v-213q0 -69 -42.5 -104.5t-117.5 -35.5h-148v-180h-129zM332 108q21 0 33 11t12 31v194q0 21 -12 31.5t-33 10.5h-134v-278h134z" />
    <glyph glyph-name="q" unicode="q" horiz-adv-x="568" 
d="M371 -180v180h-149q-74 0 -116.5 35.5t-42.5 104.5v213q0 70 42.5 105.5t116.5 35.5h277v-674h-128zM371 108v278h-135q-21 0 -32.5 -10.5t-11.5 -31.5v-194q0 -21 11.5 -31.5t32.5 -10.5h135z" />
    <glyph glyph-name="r" unicode="r" horiz-adv-x="423" 
d="M69 0v494h198q55 0 86.5 -14.5t45 -46.5t13.5 -89h-113q0 18 -3 27t-11 12t-24 3h-63v-386h-129z" />
    <glyph glyph-name="s" unicode="s" horiz-adv-x="491" 
d="M56 0v105h237q16 0 23 6.5t7 20.5v28q0 17 -8 24.5t-29 10.5l-125 14q-42 5 -66.5 19.5t-35.5 40.5t-11 65v40q0 64 32 92t101 28h245v-61l-42 -42h-187q-13 0 -19.5 -5.5t-6.5 -18.5v-27q0 -18 7 -26t27 -10l124 -15q45 -5 70 -18t36 -38t11 -66v-43q0 -65 -33 -94.5
t-103 -29.5h-254z" />
    <glyph glyph-name="t" unicode="t" horiz-adv-x="338" 
d="M241 0q-63 0 -94 11.5t-42.5 41.5t-11.5 91v249h-85v101h85v124h128v-124h97v-101h-97v-244q0 -20 3.5 -28.5t11 -11.5t24.5 -3h53v-106h-72z" />
    <glyph glyph-name="u" unicode="u" horiz-adv-x="565" 
d="M224 0q-75 0 -117 35.5t-42 105.5v353h128v-335q0 -27 13 -39t40 -12h123v386h129v-494h-274z" />
    <glyph glyph-name="v" unicode="v" horiz-adv-x="490" 
d="M322 0h-157l-155 494h135l101 -369l102 369h132z" />
    <glyph glyph-name="w" unicode="w" horiz-adv-x="774" 
d="M292 0h-147l-135 494h135l82 -353l101 353h123l101 -358l81 358h131l-136 -494h-146l-94 336z" />
    <glyph glyph-name="x" unicode="x" horiz-adv-x="509" 
d="M152 0h-142l164 252l-155 242h142l96 -160l97 160h138l-154 -242l161 -252h-144l-103 169z" />
    <glyph glyph-name="y" unicode="y" horiz-adv-x="512" 
d="M48 -189v103h70q32 0 49 12t25 40l22 65h-45l-159 463h137l111 -366l113 366h131l-141 -423l-37 -105q-21 -64 -48 -97.5t-61.5 -45.5t-86.5 -12h-80z" />
    <glyph glyph-name="z" unicode="z" horiz-adv-x="477" 
d="M435 0h-394v102l237 291h-224v101h373v-101l-237 -291h245v-102z" />
    <glyph glyph-name="braceleft" unicode="{" horiz-adv-x="356" 
d="M234 -150q-65 0 -104.5 34.5t-39.5 101.5v245l-59 59v40l59 59v245q0 67 39.5 101.5t104.5 34.5h93v-110h-81q-16 0 -25.5 -8.5t-9.5 -27.5v-262l-52 -52l52 -52v-262q0 -18 9.5 -27t25.5 -9h81v-110h-93z" />
    <glyph glyph-name="bar" unicode="|" horiz-adv-x="324" 
d="M108 -150v920h108v-920h-108z" />
    <glyph glyph-name="braceright" unicode="}" horiz-adv-x="356" 
d="M31 -150v110h81q15 0 24.5 9t9.5 27v262l52 52l-52 52v262q0 18 -9.5 27t-24.5 9h-81v110h93q65 0 104.5 -34.5t39.5 -101.5v-245l59 -59v-40l-59 -59v-245q0 -67 -39.5 -101.5t-104.5 -34.5h-93z" />
    <glyph glyph-name="asciitilde" unicode="~" 
d="M510 204q-28 -18 -52.5 -26.5t-48.5 -8.5q-47 0 -109 35q-31 18 -57.5 26.5t-51.5 8.5t-49.5 -8.5t-51.5 -26.5v107q27 18 51.5 26.5t49.5 8.5t51.5 -8.5t57.5 -26.5q62 -35 109 -35q24 0 48.5 8.5t52.5 26.5v-107z" />
    <glyph glyph-name="uni00A0" unicode="&#xa0;" horiz-adv-x="227" 
 />
    <glyph glyph-name="exclamdown" unicode="&#xa1;" horiz-adv-x="342" 
d="M253 359h-163v161h163v-161zM243 -180h-145l10 453h125z" />
    <glyph glyph-name="cent" unicode="&#xa2;" horiz-adv-x="451" 
d="M237 386q-21 0 -33 -10.5t-12 -31.5v-194q0 -20 12 -30.5t33 -10.5h184v-109h-129v-114h-81v114q-70 3 -109 38.5t-39 102.5v212q0 67 39 102.5t109 38.5v107h81v-107h129v-67l-42 -41h-142z" />
    <glyph glyph-name="sterling" unicode="&#xa3;" horiz-adv-x="579" 
d="M186 117h355v-117h-500v117l65 101v82h-75v115h75v114q0 91 46 131t133 40h251v-77l-41 -41h-198q-31 0 -45 -15t-14 -49v-103h220v-115h-220v-102z" />
    <glyph glyph-name="currency" unicode="&#xa4;" 
d="M479 211l97 -97l-57 -58l-99 99q-56 -35 -121 -35q-32 0 -62.5 9t-56.5 26l-99 -99l-57 58l96 96q-20 29 -31 62t-11 69q0 72 41 130l-95 95l57 57l97 -97q26 17 57 26.5t64 9.5q34 0 65.5 -9.5t56.5 -27.5l98 98l57 -57l-97 -97q20 -27 30.5 -60t10.5 -68
q0 -72 -41 -130zM352.5 249q24.5 14 38.5 38.5t14 53.5t-14 53.5t-38.5 38.5t-53.5 14t-53.5 -14t-38.5 -38.5t-14 -53.5t14 -53.5t38.5 -38.5t53.5 -14t53.5 14z" />
    <glyph glyph-name="yen" unicode="&#xa5;" horiz-adv-x="622" 
d="M434 700h146l-152 -293h95v-94h-144l-13 -25v-65h157v-94h-157v-129h-130v129h-165v94h165v66l-13 24h-152v94h104l-151 293h150l128 -291z" />
    <glyph glyph-name="brokenbar" unicode="&#xa6;" horiz-adv-x="341" 
d="M117 407v363h107v-363h-107zM117 -150v363h107v-363h-107z" />
    <glyph glyph-name="section" unicode="&#xa7;" horiz-adv-x="580" 
d="M406 468q66 0 104 -32.5t38 -98.5v-78q0 -84 -64 -116q6 -19 6 -46v-75q0 -64 -37.5 -96t-102.5 -32h-253v104h239q16 0 25.5 8.5t9.5 23.5v64q0 13 -5.5 22t-15.5 12h-25v2h-152q-65 0 -102.5 32.5t-37.5 97.5v77q0 85 63 116q-7 25 -7 47v73q0 64 38 95.5t103 31.5h248
v-61l-42 -41h-194q-35 0 -35 -32v-62q0 -18 9.5 -27t25.5 -9h164zM389 228q18 0 28.5 9.5t10.5 27.5v68q0 18 -10.5 27t-28.5 9h-201q-18 0 -28.5 -9t-10.5 -27v-69q0 -18 10.5 -27t28.5 -9h201z" />
    <glyph glyph-name="dieresis" unicode="&#xa8;" 
d="M136 770v112h126v-112h-126zM338 770v112h126v-112h-126z" />
    <glyph glyph-name="copyright" unicode="&#xa9;" horiz-adv-x="834" 
d="M315 -6q-86 0 -140 25.5t-80 78.5t-26 137v227q0 85 26 139t80 79.5t140 25.5h208q86 0 140 -25.5t79.5 -79.5t25.5 -139v-227q0 -84 -25.5 -137t-79.5 -78.5t-140 -25.5h-208zM524 76q56 0 89.5 15.5t48.5 49.5t15 93v229q0 60 -15 95t-48.5 50.5t-89.5 15.5h-210
q-56 0 -89.5 -15.5t-48.5 -50.5t-15 -95v-229q0 -59 15 -93t48.5 -49.5t89.5 -15.5h210zM375 162q-53 0 -83 25t-30 75v177q0 50 30 75.5t83 25.5h172v-50l-32 -32h-130q-28 0 -28 -24v-166q0 -24 28 -24h162v-82h-172z" />
    <glyph glyph-name="ordfeminine" unicode="&#xaa;" horiz-adv-x="409" 
d="M258 700q34 0 55 -7t31 -24t10 -48v-271h-205q-53 0 -76.5 24t-23.5 73v24q0 36 10 56t31.5 28t58.5 8h105v38q0 10 -4.5 14.5t-15.5 4.5h-148v80h172zM254 429v63h-84q-13 0 -18.5 -5t-5.5 -18v-20q0 -11 6 -15.5t18 -4.5h84z" />
    <glyph glyph-name="guillemotleft" unicode="&#xab;" horiz-adv-x="395" 
d="M208 47l-156 156v124l156 156v-124l-94 -94l94 -94v-124zM211 327l156 156v-124l-95 -94l95 -94v-124l-156 156v124z" />
    <glyph glyph-name="logicalnot" unicode="&#xac;" 
d="M77 442h446v-256h-116v142h-330v114z" />
    <glyph glyph-name="uni00AD" unicode="&#xad;" horiz-adv-x="380" 
d="M50 299h280v-96h-280v96z" />
    <glyph glyph-name="registered" unicode="&#xae;" horiz-adv-x="450" 
d="M269 706q58 0 85 -26t27 -83v-90q0 -56 -27 -82.5t-85 -26.5h-89q-58 0 -84.5 26.5t-26.5 82.5v90q0 57 26.5 83t84.5 26h89zM325 597q0 31 -13.5 45t-42.5 14h-89q-29 0 -42 -14t-13 -45v-90q0 -30 13.5 -44t41.5 -14h89q30 0 43 14t13 44v90zM293 569q0 -27 -20 -36
l26 -55h-49l-23 50h-21v-50h-47v151h82q30 0 41 -8.5t11 -31.5v-20zM206 593v-30h31q8 0 8 9v14q0 7 -8 7h-31z" />
    <glyph glyph-name="macron" unicode="&#xaf;" 
d="M175 778v93h250v-93h-250z" />
    <glyph glyph-name="degree" unicode="&#xb0;" horiz-adv-x="332" 
d="M114.5 559q-23.5 14 -37.5 37.5t-14 51.5q0 27 14 50.5t38 37.5t52 14q27 0 50.5 -14t37.5 -37.5t14 -50.5q0 -28 -14 -51.5t-37 -37.5t-51 -14q-29 0 -52.5 14zM197 617.5q12 12.5 12 30.5q0 17 -12.5 29.5t-29.5 12.5q-18 0 -30.5 -12t-12.5 -30q0 -19 12 -31t31 -12
q18 0 30 12.5z" />
    <glyph glyph-name="plusminus" unicode="&#xb1;" 
d="M359 139h-117v125h-167v115h167v129h117v-129h167v-115h-167v-125zM75 105h451v-105h-451v105z" />
    <glyph glyph-name="twosuperior" unicode="&#xb2;" horiz-adv-x="383" 
d="M139 537h204v-86h-303v82q0 35 7.5 57t29 36.5t63.5 23.5q48 10 69 17t26 12.5t5 14.5v13q0 13 -14 13h-170v80h198q40 0 63 -19t23 -57v-29q0 -34 -12 -53t-39 -30t-80 -21q-31 -7 -45.5 -12.5t-19.5 -12t-5 -17.5v-12z" />
    <glyph glyph-name="threesuperior" unicode="&#xb3;" horiz-adv-x="368" 
d="M320 613q10 -13 10 -33v-61l-69 -68h-226v80h173l21 21v19q0 10 -5 14.5t-15 4.5h-155v75h155q19 0 19 19v21q0 9 -4.5 12.5t-13.5 3.5h-172v79h202q44 0 64 -16.5t20 -52.5v-47q0 -18 -8 -31t-26 -20q20 -7 30 -20z" />
    <glyph glyph-name="acute" unicode="&#xb4;" 
d="M343 755h-126l101 137h144z" />
    <glyph glyph-name="mu" unicode="&#xb5;" horiz-adv-x="563" 
d="M369 494h127v-494h-236q-55 0 -83 37v-216h-110v673h127v-335q0 -27 13 -39t40 -12h122v386z" />
    <glyph glyph-name="paragraph" unicode="&#xb6;" horiz-adv-x="578" 
d="M246 -106v427h-65q-39 0 -68.5 16.5t-46 46t-16.5 68.5v117q0 39 16.5 68.5t46 46t68.5 16.5h346v-806h-94v709h-94v-709h-93z" />
    <glyph glyph-name="periodcentered" unicode="&#xb7;" horiz-adv-x="289" 
d="M63 211v161h163v-161h-163z" />
    <glyph glyph-name="cedilla" unicode="&#xb8;" 
d="M184 -192v73h130q8 0 11.5 3t3.5 10v12q0 5 -2.5 7t-8.5 2h-95v49l21 50h84l-16 -39h27q33 0 52 -6t28 -20.5t9 -42.5v-14q0 -44 -30 -64t-81 -20h-133z" />
    <glyph glyph-name="onesuperior" unicode="&#xb9;" horiz-adv-x="329" 
d="M52 757l91 43h103v-349h-103v251l-91 -40v95z" />
    <glyph glyph-name="ordmasculine" unicode="&#xba;" horiz-adv-x="412" 
d="M246 706q52 0 82 -25.5t30 -78.5v-152q0 -54 -30 -80t-82 -26h-80q-52 0 -82 26.5t-30 79.5v152q0 53 30 78.5t82 25.5h80zM237 431q12 0 19.5 6.5t7.5 18.5v139q0 12 -7.5 18.5t-19.5 6.5h-62q-11 0 -18 -6.5t-7 -18.5v-139q0 -12 7 -18.5t18 -6.5h62z" />
    <glyph glyph-name="guillemotright" unicode="&#xbb;" horiz-adv-x="395" 
d="M123 265l-95 94v124l156 -156v-124l-156 -156v124zM187 359v124l156 -156v-124l-156 -156v124l94 94z" />
    <glyph glyph-name="onequarter" unicode="&#xbc;" horiz-adv-x="753" 
d="M233 351h-103v251l-92 -40v95l92 43h103v-349zM103 0l422 700h96l-422 -700h-96zM681 149h38v-81h-38v-68h-99v68h-174v90l126 192h147v-201zM582 275l-84 -126h84v126z" />
    <glyph glyph-name="onehalf" unicode="&#xbd;" horiz-adv-x="794" 
d="M233 351h-103v251l-92 -40v95l92 43h103v-349zM103 0l422 700h96l-422 -700h-96zM552 86h204v-86h-304v83q0 35 8 56.5t29.5 36.5t63.5 24q48 10 69 16.5t26 12t5 14.5v13q0 13 -14 13h-170v81h198q40 0 63 -19t23 -57v-30q0 -34 -12 -53t-39 -29.5t-81 -21.5
q-30 -6 -44.5 -11.5t-19.5 -12.5t-5 -18v-12z" />
    <glyph glyph-name="threequarters" unicode="&#xbe;" horiz-adv-x="768" 
d="M331 419l-69 -68h-226v80h173l21 21v19q0 10 -5 14.5t-15 4.5h-155v75h154q10 0 14.5 4.5t4.5 14.5v21q0 9 -4 12.5t-13 3.5h-172v79h202q44 0 64 -16.5t20 -52.5v-47q0 -18 -8 -31t-26 -20q20 -7 30 -20t10 -33v-61zM147 0l422 700h96l-422 -700h-96zM696 149h38v-81
h-38v-68h-98v68h-174v90l126 192h146v-201zM598 276l-85 -127h85v127z" />
    <glyph glyph-name="questiondown" unicode="&#xbf;" horiz-adv-x="529" 
d="M357 362h-159v158h159v-158zM191 -186q-80 0 -122.5 33t-42.5 108q0 42 15 73t36.5 51.5t56.5 47.5q27 20 42.5 34t25.5 32t10 40v40h130v-49q0 -37 -14.5 -65t-35.5 -47t-54 -43q-27 -20 -43 -34.5t-26.5 -32.5t-10.5 -40q0 -21 10 -30.5t32 -9.5h127q26 0 37.5 9.5
t11.5 32.5v38h128v-37q0 -79 -40 -115t-128 -36h-145z" />
    <glyph glyph-name="Agrave" unicode="&#xc0;" horiz-adv-x="680" 
d="M158 0h-138l230 700h184l226 -700h-140l-49 161h-262zM341 588l-99 -313h196zM316 876l97 -138h-127l-116 138h146z" />
    <glyph glyph-name="Aacute" unicode="&#xc1;" horiz-adv-x="680" 
d="M158 0h-138l230 700h184l226 -700h-140l-49 161h-262zM341 588l-99 -313h196zM395 738h-126l97 138h145z" />
    <glyph glyph-name="Acircumflex" unicode="&#xc2;" horiz-adv-x="680" 
d="M158 0h-138l230 700h184l226 -700h-140l-49 161h-262zM341 588l-99 -313h196zM411 871l115 -133h-119l-67 69l-67 -69h-117l115 133h140z" />
    <glyph glyph-name="Atilde" unicode="&#xc3;" horiz-adv-x="680" 
d="M158 0h-138l230 700h184l226 -700h-140l-49 161h-262zM341 588l-99 -313h196zM184 739q0 56 27 85t74 29q22 0 38.5 -7t37.5 -20q3 -2 10 -6t12 -6t10 -2q13 0 19 9t6 30h80q0 -56 -27 -85t-74 -29q-22 0 -38.5 7t-37.5 20q-3 2 -10 6t-12 6t-10 2q-12 0 -18 -9t-6 -30
h-81z" />
    <glyph glyph-name="Adieresis" unicode="&#xc4;" horiz-adv-x="680" 
d="M158 0h-138l230 700h184l226 -700h-140l-49 161h-262zM341 588l-99 -313h196zM177 753v112h126v-112h-126zM379 753v112h126v-112h-126z" />
    <glyph glyph-name="Aring" unicode="&#xc5;" horiz-adv-x="680" 
d="M158 0h-138l230 700h184l226 -700h-140l-49 161h-262zM341 588l-99 -313h196zM289.5 737q-23.5 14 -37.5 37.5t-14 52.5q0 27 14 50.5t38 37.5t52 14q27 0 50.5 -14t37.5 -37.5t14 -50.5q0 -28 -14 -52t-37 -38t-51 -14q-29 0 -52.5 14zM371.5 796.5q12.5 12.5 12.5 30.5
q0 17 -12.5 29t-29.5 12q-19 0 -31 -12t-12 -29q0 -19 12 -31t31 -12q17 0 29.5 12.5z" />
    <glyph glyph-name="AE" unicode="&#xc6;" horiz-adv-x="891" 
d="M157 0h-137l332 700h486v-75l-42 -42h-242v-176h274v-68l-42 -42h-232v-180h294v-117h-422v163h-195zM426 591l-145 -317h145v317z" />
    <glyph glyph-name="Ccedilla" unicode="&#xc7;" horiz-adv-x="557" 
d="M263 579q-24 0 -37.5 -12t-13.5 -35v-363q0 -23 13.5 -35.5t37.5 -12.5h258v-121h-186l-10 -25h27q33 0 52 -6t28 -20.5t9 -42.5v-14q0 -44 -30 -64t-81 -20h-133v73h130q8 0 11.5 3t3.5 10v12q0 5 -2.5 7t-8.5 2h-95v49l15 36h-4q-79 0 -125 38t-46 117v391q0 78 46 116
t125 38h274v-79l-42 -42h-216z" />
    <glyph glyph-name="Egrave" unicode="&#xc8;" horiz-adv-x="564" 
d="M520 0h-441v700h431v-78l-42 -42h-254v-171h285v-71l-42 -42h-243v-176h306v-120zM282 876l97 -138h-127l-116 138h146z" />
    <glyph glyph-name="Eacute" unicode="&#xc9;" horiz-adv-x="564" 
d="M520 0h-441v700h431v-78l-42 -42h-254v-171h285v-71l-42 -42h-243v-176h306v-120zM343 738h-126l97 138h145z" />
    <glyph glyph-name="Ecircumflex" unicode="&#xca;" horiz-adv-x="564" 
d="M520 0h-441v700h431v-78l-42 -42h-254v-171h285v-71l-42 -42h-243v-176h306v-120zM361 871l115 -133h-119l-67 69l-67 -69h-117l115 133h140z" />
    <glyph glyph-name="Edieresis" unicode="&#xcb;" horiz-adv-x="564" 
d="M520 0h-441v700h431v-78l-42 -42h-254v-171h285v-71l-42 -42h-243v-176h306v-120zM129 753v112h126v-112h-126zM331 753v112h126v-112h-126z" />
    <glyph glyph-name="Igrave" unicode="&#xcc;" horiz-adv-x="293" 
d="M214 0h-135v700h135v-700zM119 876l97 -138h-127l-116 138h146z" />
    <glyph glyph-name="Iacute" unicode="&#xcd;" horiz-adv-x="293" 
d="M214 0h-135v700h135v-700zM204 738h-126l97 138h145z" />
    <glyph glyph-name="Icircumflex" unicode="&#xce;" horiz-adv-x="293" 
d="M214 0h-135v700h135v-700zM217 871l115 -133h-119l-67 69l-67 -69h-117l115 133h140z" />
    <glyph glyph-name="Idieresis" unicode="&#xcf;" horiz-adv-x="293" 
d="M214 0h-135v700h135v-700zM-17 753v112h126v-112h-126zM185 753v112h126v-112h-126z" />
    <glyph glyph-name="Eth" unicode="&#xd0;" horiz-adv-x="691" 
d="M79 0v296h-76v110h76v294h365q79 0 125 -38t46 -116v-408l-139 -138h-397zM214 118h198l67 67v351q0 23 -13.5 34.5t-36.5 11.5h-215v-176h115v-110h-115v-178z" />
    <glyph glyph-name="Ntilde" unicode="&#xd1;" horiz-adv-x="716" 
d="M205 0h-126v700h209l224 -566v566h125v-700h-191l-241 581v-581zM196 739q0 56 27 85t74 29q22 0 38.5 -7t37.5 -20q3 -2 10 -6t12 -6t10 -2q13 0 19 9t6 30h80q0 -56 -27 -85t-74 -29q-22 0 -38.5 7t-37.5 20q-3 2 -10 6t-12 6t-10 2q-12 0 -18 -9t-6 -30h-81z" />
    <glyph glyph-name="Ograve" unicode="&#xd2;" horiz-adv-x="684" 
d="M245 -6q-79 0 -124 38t-45 116v404q0 78 45.5 116.5t123.5 38.5h195q78 0 123.5 -38.5t45.5 -116.5v-404q0 -78 -45 -116t-124 -38h-195zM424 112q23 0 36.5 12t13.5 35v382q0 23 -13.5 35.5t-36.5 12.5h-163q-24 0 -37.5 -12.5t-13.5 -35.5v-382q0 -23 13.5 -35
t37.5 -12h163zM315 876l97 -138h-127l-116 138h146z" />
    <glyph glyph-name="Oacute" unicode="&#xd3;" horiz-adv-x="684" 
d="M245 -6q-79 0 -124 38t-45 116v404q0 78 45.5 116.5t123.5 38.5h195q78 0 123.5 -38.5t45.5 -116.5v-404q0 -78 -45 -116t-124 -38h-195zM424 112q23 0 36.5 12t13.5 35v382q0 23 -13.5 35.5t-36.5 12.5h-163q-24 0 -37.5 -12.5t-13.5 -35.5v-382q0 -23 13.5 -35
t37.5 -12h163zM393 738h-126l97 138h145z" />
    <glyph glyph-name="Ocircumflex" unicode="&#xd4;" horiz-adv-x="684" 
d="M245 -6q-79 0 -124 38t-45 116v404q0 78 45.5 116.5t123.5 38.5h195q78 0 123.5 -38.5t45.5 -116.5v-404q0 -78 -45 -116t-124 -38h-195zM424 112q23 0 36.5 12t13.5 35v382q0 23 -13.5 35.5t-36.5 12.5h-163q-24 0 -37.5 -12.5t-13.5 -35.5v-382q0 -23 13.5 -35
t37.5 -12h163zM413 871l115 -133h-119l-67 69l-67 -69h-117l115 133h140z" />
    <glyph glyph-name="Otilde" unicode="&#xd5;" horiz-adv-x="684" 
d="M245 -6q-79 0 -124 38t-45 116v404q0 78 45.5 116.5t123.5 38.5h195q78 0 123.5 -38.5t45.5 -116.5v-404q0 -78 -45 -116t-124 -38h-195zM424 112q23 0 36.5 12t13.5 35v382q0 23 -13.5 35.5t-36.5 12.5h-163q-24 0 -37.5 -12.5t-13.5 -35.5v-382q0 -23 13.5 -35
t37.5 -12h163zM189 739q0 56 27 85t74 29q22 0 38.5 -7t37.5 -20q3 -2 10 -6t12 -6t10 -2q13 0 19 9t6 30h80q0 -56 -27 -85t-74 -29q-22 0 -38.5 7t-37.5 20q-3 2 -10 6t-12 6t-10 2q-12 0 -18 -9t-6 -30h-81z" />
    <glyph glyph-name="Odieresis" unicode="&#xd6;" horiz-adv-x="684" 
d="M245 -6q-79 0 -124 38t-45 116v404q0 78 45.5 116.5t123.5 38.5h195q78 0 123.5 -38.5t45.5 -116.5v-404q0 -78 -45 -116t-124 -38h-195zM424 112q23 0 36.5 12t13.5 35v382q0 23 -13.5 35.5t-36.5 12.5h-163q-24 0 -37.5 -12.5t-13.5 -35.5v-382q0 -23 13.5 -35
t37.5 -12h163zM175 753v112h126v-112h-126zM377 753v112h126v-112h-126z" />
    <glyph glyph-name="multiply" unicode="&#xd7;" 
d="M180 57l-82 82l121 121l-120 120l81 80l120 -119l121 120l82 -82l-121 -121l120 -120l-81 -80l-120 119z" />
    <glyph glyph-name="Oslash" unicode="&#xd8;" horiz-adv-x="684" 
d="M689 646l-77 -80v-14v-404q0 -78 -46 -116t-125 -38h-195q-96 0 -140 54l-49 -50l-58 58l77 80v12v404q0 78 45.5 116.5t124.5 38.5h195q47 0 83 -13.5t57 -40.5l50 50zM262 589q-23 0 -36.5 -12.5t-13.5 -35.5v-266l264 272q-2 21 -15.5 31.5t-34.5 10.5h-164zM426 112
q23 0 36.5 12t13.5 35v269l-264 -272q1 -21 14.5 -32.5t35.5 -11.5h164z" />
    <glyph glyph-name="Ugrave" unicode="&#xd9;" horiz-adv-x="683" 
d="M249 -6q-79 0 -125 38.5t-46 116.5v551h133v-539q0 -22 15 -34.5t38 -12.5h155q23 0 38 12.5t15 34.5v539h133v-551q0 -78 -46 -116.5t-125 -38.5h-185zM308 876l97 -138h-127l-116 138h146z" />
    <glyph glyph-name="Uacute" unicode="&#xda;" horiz-adv-x="683" 
d="M249 -6q-79 0 -125 38.5t-46 116.5v551h133v-539q0 -22 15 -34.5t38 -12.5h155q23 0 38 12.5t15 34.5v539h133v-551q0 -78 -46 -116.5t-125 -38.5h-185zM388 738h-126l97 138h145z" />
    <glyph glyph-name="Ucircumflex" unicode="&#xdb;" horiz-adv-x="683" 
d="M249 -6q-79 0 -125 38.5t-46 116.5v551h133v-539q0 -22 15 -34.5t38 -12.5h155q23 0 38 12.5t15 34.5v539h133v-551q0 -78 -46 -116.5t-125 -38.5h-185zM401 871l115 -133h-119l-67 69l-67 -69h-117l115 133h140z" />
    <glyph glyph-name="Udieresis" unicode="&#xdc;" horiz-adv-x="683" 
d="M249 -6q-79 0 -125 38.5t-46 116.5v551h133v-539q0 -22 15 -34.5t38 -12.5h155q23 0 38 12.5t15 34.5v539h133v-551q0 -78 -46 -116.5t-125 -38.5h-185zM176 753v112h126v-112h-126zM378 753v112h126v-112h-126z" />
    <glyph glyph-name="Yacute" unicode="&#xdd;" horiz-adv-x="610" 
d="M371 0h-134v274l-228 426h151l147 -304l152 304h142l-230 -426v-274zM365 738h-126l97 138h145z" />
    <glyph glyph-name="Thorn" unicode="&#xde;" horiz-adv-x="614" 
d="M69 0v700h130v-132h178q65 0 102.5 -15.5t54.5 -49.5t17 -91v-115q0 -57 -17 -91t-54.5 -49.5t-102.5 -15.5h-178v-141h-130zM370 256q24 0 38.5 14.5t14.5 35.5v97q0 21 -14.5 35.5t-38.5 14.5h-171v-197h171z" />
    <glyph glyph-name="germandbls" unicode="&#xdf;" horiz-adv-x="609" 
d="M546 254v-93q0 -81 -43 -121t-122 -40h-132v109h117q25 0 39 15t14 45v85q0 26 -19 37.5t-46 11.5h-90v102h87q51 0 51 52v88q0 30 -14.5 41.5t-47.5 11.5h-69q-78 0 -78 -95v-503h-128v503q0 60 22 105.5t66 71.5t110 26h89q91 0 132.5 -34.5t41.5 -110.5v-104
q0 -34 -21 -58.5t-58 -37.5q99 -22 99 -107z" />
    <glyph glyph-name="agrave" unicode="&#xe0;" horiz-adv-x="534" 
d="M188 0q-75 0 -107.5 29.5t-32.5 90.5v62q0 45 14 70t44 35t82 10h160v60q0 17 -4.5 25.5t-13.5 11.5t-26 3h-204v97h213q55 0 88.5 -11.5t50 -40t16.5 -79.5v-363h-280zM348 94v118h-148q-19 0 -26.5 -7t-7.5 -25v-57q0 -15 8.5 -22t25.5 -7h148zM236 691l97 -138h-127
l-116 138h146z" />
    <glyph glyph-name="aacute" unicode="&#xe1;" horiz-adv-x="534" 
d="M188 0q-75 0 -107.5 29.5t-32.5 90.5v62q0 45 14 70t44 35t82 10h160v60q0 17 -4.5 25.5t-13.5 11.5t-26 3h-204v97h213q55 0 88.5 -11.5t50 -40t16.5 -79.5v-363h-280zM348 94v118h-148q-19 0 -26.5 -7t-7.5 -25v-57q0 -15 8.5 -22t25.5 -7h148zM321 553h-126l97 138
h145z" />
    <glyph glyph-name="acircumflex" unicode="&#xe2;" horiz-adv-x="534" 
d="M188 0q-75 0 -107.5 29.5t-32.5 90.5v62q0 45 14 70t44 35t82 10h160v60q0 17 -4.5 25.5t-13.5 11.5t-26 3h-204v97h213q55 0 88.5 -11.5t50 -40t16.5 -79.5v-363h-280zM348 94v118h-148q-19 0 -26.5 -7t-7.5 -25v-57q0 -15 8.5 -22t25.5 -7h148zM342 686l115 -133h-119
l-67 69l-67 -69h-117l115 133h140z" />
    <glyph glyph-name="atilde" unicode="&#xe3;" horiz-adv-x="534" 
d="M188 0q-75 0 -107.5 29.5t-32.5 90.5v62q0 45 14 70t44 35t82 10h160v60q0 17 -4.5 25.5t-13.5 11.5t-26 3h-204v97h213q55 0 88.5 -11.5t50 -40t16.5 -79.5v-363h-280zM348 94v118h-148q-19 0 -26.5 -7t-7.5 -25v-57q0 -15 8.5 -22t25.5 -7h148zM117 564q0 56 27 85
t74 29q22 0 38.5 -7t37.5 -20q3 -2 10 -6t12 -6t10 -2q13 0 19 9t6 30h80q0 -56 -27 -85t-74 -29q-22 0 -38.5 7t-37.5 20q-3 2 -10 6t-12 6t-10 2q-12 0 -18 -9t-6 -30h-81z" />
    <glyph glyph-name="adieresis" unicode="&#xe4;" horiz-adv-x="534" 
d="M188 0q-75 0 -107.5 29.5t-32.5 90.5v62q0 45 14 70t44 35t82 10h160v60q0 17 -4.5 25.5t-13.5 11.5t-26 3h-204v97h213q55 0 88.5 -11.5t50 -40t16.5 -79.5v-363h-280zM348 94v118h-148q-19 0 -26.5 -7t-7.5 -25v-57q0 -15 8.5 -22t25.5 -7h148zM114 579v112h126v-112
h-126zM316 579v112h126v-112h-126z" />
    <glyph glyph-name="aring" unicode="&#xe5;" horiz-adv-x="534" 
d="M188 0q-75 0 -107.5 29.5t-32.5 90.5v62q0 45 14 70t44 35t82 10h160v60q0 17 -4.5 25.5t-13.5 11.5t-26 3h-204v97h213q55 0 88.5 -11.5t50 -40t16.5 -79.5v-363h-280zM348 94v118h-148q-19 0 -26.5 -7t-7.5 -25v-57q0 -15 8.5 -22t25.5 -7h148zM218.5 551
q-23.5 14 -37.5 37.5t-14 52.5q0 27 14 50.5t38 37.5t52 14q27 0 50.5 -14t37.5 -37.5t14 -50.5q0 -28 -14 -52t-37 -38t-51 -14q-29 0 -52.5 14zM300.5 610.5q12.5 12.5 12.5 30.5q0 17 -12.5 29t-29.5 12q-19 0 -31 -12t-12 -29q0 -19 12 -31t31 -12q17 0 29.5 12.5z" />
    <glyph glyph-name="ae" unicode="&#xe6;" horiz-adv-x="808" 
d="M467 208v-63q0 -18 12 -27.5t34 -9.5h234v-108h-231q-68 0 -103 39v-39h-225q-75 0 -107.5 29.5t-32.5 90.5v60q0 45 14 70t44 35t82 10h159v62q0 17 -5 25.5t-15.5 11.5t-30.5 3h-190v97h194q39 0 64.5 -9t40.5 -29q32 45 108 45h87q74 0 116.5 -32.5t42.5 -103.5
q0 -48 -3 -92.5t-6 -64.5h-283zM519 408q-24 0 -38 -11.5t-14 -32.5v-68h175v66q0 23 -12 34.5t-37 11.5h-74zM347 94v115h-147q-19 0 -26.5 -6.5t-7.5 -25.5v-54q0 -15 8.5 -22t25.5 -7h147z" />
    <glyph glyph-name="ccedilla" unicode="&#xe7;" horiz-adv-x="454" 
d="M237 386q-21 0 -33 -10.5t-12 -31.5v-194q0 -21 12 -31.5t33 -10.5h184v-108h-136l-10 -25h27q33 0 52 -6t28 -20.5t9 -42.5v-14q0 -44 -30 -64t-81 -20h-133v73h130q8 0 11.5 3t3.5 10v12q0 5 -2.5 7t-8.5 2h-95v49l15 37q-65 5 -101.5 40t-36.5 99v213q0 70 42 105.5
t117 35.5h199v-67l-42 -41h-142z" />
    <glyph glyph-name="egrave" unicode="&#xe8;" horiz-adv-x="549" 
d="M222 0q-75 0 -117 35t-42 105v227q0 134 159 134h118q75 0 117.5 -32t42.5 -102q0 -46 -2.5 -90t-5.5 -67h-302v-60q0 -20 12.5 -31t33.5 -11h236v-108h-250zM190 305h191v59q0 21 -12 31t-38 10h-95q-21 0 -33.5 -10.5t-12.5 -30.5v-59zM259 691l97 -138h-127l-116 138
h146z" />
    <glyph glyph-name="eacute" unicode="&#xe9;" horiz-adv-x="549" 
d="M222 0q-75 0 -117 35t-42 105v227q0 134 159 134h118q75 0 117.5 -32t42.5 -102q0 -46 -2.5 -90t-5.5 -67h-302v-60q0 -20 12.5 -31t33.5 -11h236v-108h-250zM190 305h191v59q0 21 -12 31t-38 10h-95q-21 0 -33.5 -10.5t-12.5 -30.5v-59zM335 553h-126l97 138h145z" />
    <glyph glyph-name="ecircumflex" unicode="&#xea;" horiz-adv-x="549" 
d="M222 0q-75 0 -117 35t-42 105v227q0 134 159 134h118q75 0 117.5 -32t42.5 -102q0 -46 -2.5 -90t-5.5 -67h-302v-60q0 -20 12.5 -31t33.5 -11h236v-108h-250zM190 305h191v59q0 21 -12 31t-38 10h-95q-21 0 -33.5 -10.5t-12.5 -30.5v-59zM357 686l115 -133h-119l-67 69
l-67 -69h-117l115 133h140z" />
    <glyph glyph-name="edieresis" unicode="&#xeb;" horiz-adv-x="549" 
d="M222 0q-75 0 -117 35t-42 105v227q0 134 159 134h118q75 0 117.5 -32t42.5 -102q0 -46 -2.5 -90t-5.5 -67h-302v-60q0 -20 12.5 -31t33.5 -11h236v-108h-250zM190 305h191v59q0 21 -12 31t-38 10h-95q-21 0 -33.5 -10.5t-12.5 -30.5v-59zM121 579v112h126v-112h-126z
M323 579v112h126v-112h-126z" />
    <glyph glyph-name="igrave" unicode="&#xec;" horiz-adv-x="271" 
d="M71 0v494h129v-494h-129zM110 691l97 -138h-127l-116 138h146z" />
    <glyph glyph-name="iacute" unicode="&#xed;" horiz-adv-x="271" 
d="M71 0v494h129v-494h-129zM190 553h-126l97 138h145z" />
    <glyph glyph-name="icircumflex" unicode="&#xee;" horiz-adv-x="271" 
d="M71 0v494h129v-494h-129zM204 686l115 -133h-119l-67 69l-67 -69h-117l115 133h140z" />
    <glyph glyph-name="idieresis" unicode="&#xef;" horiz-adv-x="271" 
d="M-14 580v112h123v-112h-123zM162 580v112h123v-112h-123zM71 0v494h129v-494h-129z" />
    <glyph glyph-name="eth" unicode="&#xf0;" horiz-adv-x="573" 
d="M510 329v-198q0 -68 -40.5 -102.5t-111.5 -34.5h-141q-72 0 -113 34.5t-41 102.5v198q0 68 41 102.5t113 34.5h100q-26 34 -60 73l-142 -48v93l74 25q-52 51 -101 91h150q30 -27 58 -55l163 55v-93l-96 -32q73 -83 126 -166q21 -34 21 -80zM342 100q20 0 32 10t12 30v180
q0 20 -12 30t-32 10h-110q-20 0 -32 -10t-12 -30v-180q0 -20 12 -30t32 -10h110z" />
    <glyph glyph-name="ntilde" unicode="&#xf1;" horiz-adv-x="572" 
d="M69 0v494h277q75 0 117.5 -35.5t42.5 -105.5v-353h-129v336q0 26 -13 38t-40 12h-126v-386h-129zM126 564q0 56 27 85t74 29q22 0 38.5 -7t37.5 -20q3 -2 10 -6t12 -6t10 -2q13 0 19 9t6 30h80q0 -56 -27 -85t-74 -29q-22 0 -38.5 7t-37.5 20q-3 2 -10 6t-12 6t-10 2
q-12 0 -18 -9t-6 -30h-81z" />
    <glyph glyph-name="ograve" unicode="&#xf2;" horiz-adv-x="579" 
d="M222 -6q-75 0 -117 35t-42 105v226q0 70 42 105.5t117 35.5h135q74 0 116.5 -36t42.5 -105v-226q0 -69 -42.5 -104.5t-116.5 -35.5h-135zM342 102q21 0 33 11t12 31v207q0 20 -12 31t-33 11h-105q-21 0 -33 -11t-12 -31v-207q0 -21 12 -31.5t33 -10.5h105zM258 691
l97 -138h-127l-116 138h146z" />
    <glyph glyph-name="oacute" unicode="&#xf3;" horiz-adv-x="579" 
d="M222 -6q-75 0 -117 35t-42 105v226q0 70 42 105.5t117 35.5h135q74 0 116.5 -36t42.5 -105v-226q0 -69 -42.5 -104.5t-116.5 -35.5h-135zM342 102q21 0 33 11t12 31v207q0 20 -12 31t-33 11h-105q-21 0 -33 -11t-12 -31v-207q0 -21 12 -31.5t33 -10.5h105zM347 553h-126
l97 138h145z" />
    <glyph glyph-name="ocircumflex" unicode="&#xf4;" horiz-adv-x="579" 
d="M222 -6q-75 0 -117 35t-42 105v226q0 70 42 105.5t117 35.5h135q74 0 116.5 -36t42.5 -105v-226q0 -69 -42.5 -104.5t-116.5 -35.5h-135zM342 102q21 0 33 11t12 31v207q0 20 -12 31t-33 11h-105q-21 0 -33 -11t-12 -31v-207q0 -21 12 -31.5t33 -10.5h105zM359 686
l115 -133h-119l-67 69l-67 -69h-117l115 133h140z" />
    <glyph glyph-name="otilde" unicode="&#xf5;" horiz-adv-x="579" 
d="M222 -6q-75 0 -117 35t-42 105v226q0 70 42 105.5t117 35.5h135q74 0 116.5 -36t42.5 -105v-226q0 -69 -42.5 -104.5t-116.5 -35.5h-135zM342 102q21 0 33 11t12 31v207q0 20 -12 31t-33 11h-105q-21 0 -33 -11t-12 -31v-207q0 -21 12 -31.5t33 -10.5h105zM132 564
q0 56 27 85t74 29q22 0 38.5 -7t37.5 -20q3 -2 10 -6t12 -6t10 -2q13 0 19 9t6 30h80q0 -56 -27 -85t-74 -29q-22 0 -38.5 7t-37.5 20q-3 2 -10 6t-12 6t-10 2q-12 0 -18 -9t-6 -30h-81z" />
    <glyph glyph-name="odieresis" unicode="&#xf6;" horiz-adv-x="579" 
d="M222 -6q-75 0 -117 35t-42 105v226q0 70 42 105.5t117 35.5h135q74 0 116.5 -36t42.5 -105v-226q0 -69 -42.5 -104.5t-116.5 -35.5h-135zM342 102q21 0 33 11t12 31v207q0 20 -12 31t-33 11h-105q-21 0 -33 -11t-12 -31v-207q0 -21 12 -31.5t33 -10.5h105zM124 579v112
h126v-112h-126zM326 579v112h126v-112h-126z" />
    <glyph glyph-name="divide" unicode="&#xf7;" 
d="M239 364v122h124v-122h-124zM74 206v106h452v-106h-452zM239 32v122h124v-122h-124z" />
    <glyph glyph-name="oslash" unicode="&#xf8;" horiz-adv-x="579" 
d="M559 441l-47 -42q4 -16 4 -39v-225q0 -70 -42 -105.5t-115 -35.5h-138q-77 0 -118 38l-35 -32l-48 54l48 43q-4 16 -4 38v225q0 70 41.5 105.5t115.5 35.5h138q76 0 117 -37l33 30zM189 206l193 174q-6 7 -16 10.5t-22 3.5h-108q-22 0 -34.5 -11t-12.5 -32v-145zM391 290
l-194 -174q12 -15 39 -15h108q22 0 34.5 10.5t12.5 31.5v147z" />
    <glyph glyph-name="ugrave" unicode="&#xf9;" horiz-adv-x="565" 
d="M224 0q-75 0 -117 35.5t-42 105.5v353h128v-335q0 -27 13 -39t40 -12h123v386h129v-494h-274zM256 691l97 -138h-127l-116 138h146z" />
    <glyph glyph-name="uacute" unicode="&#xfa;" horiz-adv-x="565" 
d="M224 0q-75 0 -117 35.5t-42 105.5v353h128v-335q0 -27 13 -39t40 -12h123v386h129v-494h-274zM337 553h-126l97 138h145z" />
    <glyph glyph-name="ucircumflex" unicode="&#xfb;" horiz-adv-x="565" 
d="M224 0q-75 0 -117 35.5t-42 105.5v353h128v-335q0 -27 13 -39t40 -12h123v386h129v-494h-274zM351 686l115 -133h-119l-67 69l-67 -69h-117l115 133h140z" />
    <glyph glyph-name="udieresis" unicode="&#xfc;" horiz-adv-x="565" 
d="M224 0q-75 0 -117 35.5t-42 105.5v353h128v-335q0 -27 13 -39t40 -12h123v386h129v-494h-274zM116 579v112h126v-112h-126zM318 579v112h126v-112h-126z" />
    <glyph glyph-name="yacute" unicode="&#xfd;" horiz-adv-x="512" 
d="M48 -189v103h70q32 0 49 12t25 40l22 65h-45l-159 463h137l111 -366l113 366h131l-141 -423l-37 -105q-21 -64 -48 -97.5t-61.5 -45.5t-86.5 -12h-80zM323 553h-126l97 138h145z" />
    <glyph glyph-name="thorn" unicode="&#xfe;" horiz-adv-x="586" 
d="M365 501q73 0 115.5 -36t42.5 -106v-224q0 -70 -42 -105.5t-116 -35.5h-94q-43 0 -72 21v-195h-130v880h130v-221q28 22 72 22h94zM349 103q21 0 33.5 10.5t12.5 30.5v206q0 21 -12 31.5t-34 10.5h-104q-21 0 -33 -10.5t-12 -31.5v-206q0 -20 12 -30.5t33 -10.5h104z" />
    <glyph glyph-name="ydieresis" unicode="&#xff;" horiz-adv-x="512" 
d="M48 -189v103h70q32 0 49 12t25 40l22 65h-45l-159 463h137l111 -366l113 366h131l-141 -423l-37 -105q-21 -64 -48 -97.5t-61.5 -45.5t-86.5 -12h-80zM93 579v112h126v-112h-126zM295 579v112h126v-112h-126z" />
    <glyph glyph-name="Abreve" unicode="&#x102;" horiz-adv-x="680" 
d="M158 0h-138l230 700h184l226 -700h-140l-49 161h-262zM341 588l-99 -313h196zM265 743q-33 15 -51.5 42t-18.5 62h107q0 -19 11 -30t29 -11q17 0 27.5 11t10.5 30h106q0 -35 -18 -62t-50.5 -42t-75.5 -15q-44 0 -77 15z" />
    <glyph glyph-name="abreve" unicode="&#x103;" horiz-adv-x="534" 
d="M188 0q-75 0 -107.5 29.5t-32.5 90.5v62q0 45 14 70t44 35t82 10h160v60q0 17 -4.5 25.5t-13.5 11.5t-26 3h-204v97h213q55 0 88.5 -11.5t50 -40t16.5 -79.5v-363h-280zM348 94v118h-148q-19 0 -26.5 -7t-7.5 -25v-57q0 -15 8.5 -22t25.5 -7h148zM193 559
q-33 15 -51.5 42t-18.5 62h107q0 -19 11 -30t29 -11q17 0 27.5 11t10.5 30h106q0 -35 -18 -62t-50.5 -42t-75.5 -15q-44 0 -77 15z" />
    <glyph glyph-name="Dcroat" unicode="&#x110;" horiz-adv-x="691" 
d="M79 0v296h-76v110h76v294h365q79 0 125 -38t46 -116v-408l-139 -138h-397zM214 118h198l67 67v351q0 23 -13.5 34.5t-36.5 11.5h-215v-176h115v-110h-115v-178z" />
    <glyph glyph-name="dcroat" unicode="&#x111;" horiz-adv-x="568" 
d="M544 636v-84h-45v-552h-277q-74 0 -116.5 35.5t-42.5 105.5v212q0 70 42.5 105.5t116.5 35.5h148v58h-126v84h126v64h129v-64h45zM370 109v277h-133q-21 0 -33 -10.5t-12 -31.5v-194q0 -20 12 -30.5t33 -10.5h133z" />
    <glyph glyph-name="Gbreve" unicode="&#x11e;" horiz-adv-x="659" 
d="M242 0q-77 0 -121.5 37t-44.5 113v400q0 76 44.5 113t121.5 37h320v-76l-42 -42h-263q-23 0 -36 -11.5t-13 -34.5v-375q0 -23 13 -35t36 -12h155l57 58v125h-147v110h278v-278l-129 -129h-229zM257 743q-33 15 -51.5 42t-18.5 62h107q0 -19 11 -30t29 -11q17 0 27.5 11
t10.5 30h106q0 -35 -18 -62t-50.5 -42t-75.5 -15q-44 0 -77 15z" />
    <glyph glyph-name="gbreve" unicode="&#x11f;" horiz-adv-x="563" 
d="M87 -192v105h235q20 0 32 10t12 30v59h-144q-74 0 -116.5 34.5t-42.5 102.5v208q0 68 42.5 102.5t116.5 34.5h272v-548q0 -69 -41.5 -103.5t-115.5 -34.5h-250zM366 118v270h-131q-20 0 -31.5 -10t-11.5 -30v-190q0 -20 11.5 -30t31.5 -10h131zM201 559q-33 15 -51.5 42
t-18.5 62h107q0 -19 11 -30t29 -11q17 0 27.5 11t10.5 30h106q0 -35 -18 -62t-50.5 -42t-75.5 -15q-44 0 -77 15z" />
    <glyph glyph-name="Itilde" unicode="&#x128;" horiz-adv-x="293" 
d="M214 0h-135v700h135v-700zM-11 739q0 56 27 85t74 29q22 0 38.5 -7t37.5 -20q3 -2 10 -6t12 -6t10 -2q13 0 19 9t6 30h80q0 -56 -27 -85t-74 -29q-22 0 -38.5 7t-37.5 20q-3 2 -10 6t-12 6t-10 2q-12 0 -18 -9t-6 -30h-81z" />
    <glyph glyph-name="itilde" unicode="&#x129;" horiz-adv-x="271" 
d="M71 0v494h129v-494h-129zM-22 564q0 56 27 85t74 29q22 0 38.5 -7t37.5 -20q3 -2 10 -6t12 -6t10 -2q13 0 19 9t6 30h80q0 -56 -27 -85t-74 -29q-22 0 -38.5 7t-37.5 20q-3 2 -10 6t-12 6t-10 2q-12 0 -18 -9t-6 -30h-81z" />
    <glyph glyph-name="Idotaccent" unicode="&#x130;" horiz-adv-x="293" 
d="M214 0h-135v700h135v-700zM83 754v112h126v-112h-126z" />
    <glyph glyph-name="dotlessi" unicode="&#x131;" horiz-adv-x="271" 
d="M71 0v494h129v-494h-129z" />
    <glyph glyph-name="Lslash" unicode="&#x141;" horiz-adv-x="538" 
d="M217 307v-187h299v-120h-433v236l-60 -39v107l60 39v357h134v-285l159 104v-108z" />
    <glyph glyph-name="lslash" unicode="&#x142;" horiz-adv-x="291" 
d="M280 110v-110h-56q-66 0 -96.5 10t-42.5 39t-12 91v122l-57 -38v93l57 38v345h129v-280l59 39v-93l-59 -39v-174q0 -20 3 -29t11 -11.5t26 -2.5h38z" />
    <glyph glyph-name="OE" unicode="&#x152;" horiz-adv-x="933" 
d="M586 119h303v-119h-404v73q-15 -37 -43.5 -55t-67.5 -18h-131q-78 0 -122.5 38t-44.5 117v390q0 79 44.5 117t122.5 38h131q39 0 67.5 -18t43.5 -55v73h394v-77l-42 -42h-251v-173h283v-70l-42 -41h-241v-178zM403 119q23 0 36 11.5t13 34.5v370q0 46 -49 46h-145
q-23 0 -36 -11.5t-13 -34.5v-370q0 -23 13 -34.5t36 -11.5h145z" />
    <glyph glyph-name="oe" unicode="&#x153;" horiz-adv-x="847" 
d="M494 201v-54q0 -40 48 -40h229v-107h-222q-77 0 -113 48q-31 -54 -103 -54h-120q-70 0 -110 34.5t-40 103.5v232q0 68 40 102.5t110 34.5h120q33 0 58.5 -12t40.5 -36q32 48 113 48h98q73 0 114 -32t41 -101q0 -50 -2.5 -96t-5.5 -71h-296zM550 408q-27 0 -41.5 -11.5
t-14.5 -32.5v-70h189v70q0 22 -12 33t-37 11h-84zM331 101q20 0 31.5 10t11.5 30v214q0 20 -11.5 30t-31.5 10h-102q-20 0 -32 -10t-12 -30v-214q0 -20 12 -30t32 -10h102z" />
    <glyph glyph-name="Scedilla" unicode="&#x15e;" horiz-adv-x="606" 
d="M410 397q47 -7 77.5 -22.5t47 -46t16.5 -81.5v-95q0 -76 -43.5 -114t-122.5 -38h-58l-10 -25h27q33 0 52 -6t28 -20.5t9 -42.5v-14q0 -44 -30 -64t-81 -20h-133v73h130q8 0 11.5 3t3.5 10v12q0 5 -2.5 7t-8.5 2h-95v49l15 36h-173v118h299q23 0 35.5 11.5t12.5 32.5v76
q0 23 -11.5 33.5t-36.5 15.5l-172 28q-47 8 -77 23.5t-47 48t-17 86.5v74q0 76 44 114.5t122 38.5h303v-76l-42 -42h-245q-23 0 -35.5 -11.5t-12.5 -32.5v-59q0 -22 12.5 -35.5t35.5 -17.5z" />
    <glyph glyph-name="scedilla" unicode="&#x15f;" horiz-adv-x="491" 
d="M329 289q45 -5 70 -18t36 -38t11 -66v-43q0 -65 -33 -94.5t-103 -29.5h-38l-10 -25h27q33 0 52 -6t28 -20.5t9 -42.5v-14q0 -44 -30 -64t-81 -20h-133v73h130q8 0 11.5 3t3.5 10v12q0 5 -2.5 7t-8.5 2h-95v49l15 36h-132v105h237q16 0 23 6.5t7 20.5v28q0 17 -8 24.5
t-29 10.5l-125 14q-42 5 -66.5 19.5t-35.5 40.5t-11 65v40q0 64 32 92t101 28h245v-61l-42 -42h-187q-13 0 -19.5 -5.5t-6.5 -18.5v-27q0 -18 7 -26t27 -10z" />
    <glyph glyph-name="Scaron" unicode="&#x160;" horiz-adv-x="606" 
d="M70 0v118h299q23 0 35.5 11.5t12.5 32.5v76q0 23 -11.5 33.5t-36.5 15.5l-172 28q-47 8 -77 23.5t-47 48t-17 86.5v74q0 76 44 114.5t122 38.5h303v-76l-42 -42h-245q-23 0 -35.5 -11.5t-12.5 -32.5v-59q0 -22 12.5 -35.5t35.5 -17.5l172 -29q47 -7 77.5 -22.5t47 -46
t16.5 -81.5v-95q0 -76 -43.5 -114t-122.5 -38h-315zM373 738h-140l-115 133h117l67 -68l67 68h119z" />
    <glyph glyph-name="scaron" unicode="&#x161;" horiz-adv-x="491" 
d="M56 0v105h237q16 0 23 6.5t7 20.5v28q0 17 -8 24.5t-29 10.5l-125 14q-42 5 -66.5 19.5t-35.5 40.5t-11 65v40q0 64 32 92t101 28h245v-61l-42 -42h-187q-13 0 -19.5 -5.5t-6.5 -18.5v-27q0 -18 7 -26t27 -10l124 -15q45 -5 70 -18t36 -38t11 -66v-43q0 -65 -33 -94.5
t-103 -29.5h-254zM313 553h-140l-115 133h117l67 -68l67 68h119z" />
    <glyph glyph-name="Utilde" unicode="&#x168;" horiz-adv-x="683" 
d="M249 -6q-79 0 -125 38.5t-46 116.5v551h133v-539q0 -22 15 -34.5t38 -12.5h155q23 0 38 12.5t15 34.5v539h133v-551q0 -78 -46 -116.5t-125 -38.5h-185zM181 739q0 56 27 85t74 29q22 0 38.5 -7t37.5 -20q3 -2 10 -6t12 -6t10 -2q13 0 19 9t6 30h80q0 -56 -27 -85
t-74 -29q-22 0 -38.5 7t-37.5 20q-3 2 -10 6t-12 6t-10 2q-12 0 -18 -9t-6 -30h-81z" />
    <glyph glyph-name="utilde" unicode="&#x169;" horiz-adv-x="565" 
d="M224 0q-75 0 -117 35.5t-42 105.5v353h128v-335q0 -27 13 -39t40 -12h123v386h129v-494h-274zM124 564q0 56 27 85t74 29q22 0 38.5 -7t37.5 -20q3 -2 10 -6t12 -6t10 -2q13 0 19 9t6 30h80q0 -56 -27 -85t-74 -29q-22 0 -38.5 7t-37.5 20q-3 2 -10 6t-12 6t-10 2
q-12 0 -18 -9t-6 -30h-81z" />
    <glyph glyph-name="Wcircumflex" unicode="&#x174;" horiz-adv-x="992" 
d="M380 0h-188l-176 700h146l128 -578l135 578h143l133 -578l130 578h145l-177 -700h-187l-116 486zM568 871l115 -133h-119l-67 69l-67 -69h-117l115 133h140z" />
    <glyph glyph-name="wcircumflex" unicode="&#x175;" horiz-adv-x="774" 
d="M292 0h-147l-135 494h135l82 -353l101 353h123l101 -358l81 358h131l-136 -494h-146l-94 336zM460 686l115 -133h-119l-67 69l-67 -69h-117l115 133h140z" />
    <glyph glyph-name="Ycircumflex" unicode="&#x176;" horiz-adv-x="610" 
d="M371 0h-134v274l-228 426h151l147 -304l152 304h142l-230 -426v-274zM378 871l115 -133h-119l-67 69l-67 -69h-117l115 133h140z" />
    <glyph glyph-name="ycircumflex" unicode="&#x177;" horiz-adv-x="512" 
d="M48 -189v103h70q32 0 49 12t25 40l22 65h-45l-159 463h137l111 -366l113 366h131l-141 -423l-37 -105q-21 -64 -48 -97.5t-61.5 -45.5t-86.5 -12h-80zM329 686l115 -133h-119l-67 69l-67 -69h-117l115 133h140z" />
    <glyph glyph-name="Ydieresis" unicode="&#x178;" horiz-adv-x="610" 
d="M371 0h-134v274l-228 426h151l147 -304l152 304h142l-230 -426v-274zM142 753v112h126v-112h-126zM344 753v112h126v-112h-126z" />
    <glyph glyph-name="Zcaron" unicode="&#x17d;" horiz-adv-x="558" 
d="M525 0h-496v122l326 456h-296v122h446v-122l-325 -456h345v-122zM345 738h-140l-115 133h117l67 -68l67 68h119z" />
    <glyph glyph-name="zcaron" unicode="&#x17e;" horiz-adv-x="477" 
d="M435 0h-394v102l237 291h-224v101h373v-101l-237 -291h245v-102zM307 553h-140l-115 133h117l67 -68l67 68h119z" />
    <glyph glyph-name="florin" unicode="&#x192;" horiz-adv-x="423" 
d="M342 604q-18 0 -27.5 -10t-11.5 -34l-13 -117h102v-98h-113l-40 -356q-8 -67 -40.5 -97t-98.5 -30h-92v97h67q19 0 28 9.5t12 34.5l38 342h-74v98h85l14 130q8 67 41 97t99 30h97v-96h-73z" />
    <glyph glyph-name="Ohorn" unicode="&#x1a0;" horiz-adv-x="684" 
d="M624 780h91v-99q0 -53 -28 -82t-78 -35v-12v-404q0 -78 -45 -116t-124 -38h-195q-79 0 -124 38t-45 116v404q0 78 45.5 116.5t123.5 38.5h195q50 0 87.5 -16t58.5 -48q18 1 28 10.5t10 27.5v99zM474 541q0 23 -13.5 35.5t-36.5 12.5h-163q-24 0 -37.5 -12.5t-13.5 -35.5
v-382q0 -23 13.5 -35t37.5 -12h163q23 0 36.5 12t13.5 35v382z" />
    <glyph glyph-name="ohorn" unicode="&#x1a1;" horiz-adv-x="589" 
d="M526 578h91v-99q0 -51 -27 -80t-74 -36v-3v-226q0 -69 -42.5 -104.5t-116.5 -35.5h-135q-75 0 -117 35t-42 105v226q0 70 42 105.5t117 35.5h135q48 0 83 -15t54 -44q15 2 23.5 11.5t8.5 25.5v99zM387 351q0 20 -12 31t-33 11h-105q-21 0 -33 -11t-12 -31v-207
q0 -21 12 -31.5t33 -10.5h105q21 0 33 11t12 31v207z" />
    <glyph glyph-name="Uhorn" unicode="&#x1af;" horiz-adv-x="689" 
d="M652 780h91v-99q0 -60 -35.5 -89t-96.5 -29h-6v-414q0 -78 -46 -116.5t-125 -38.5h-185q-79 0 -125 38.5t-46 116.5v551h133v-539q0 -22 15 -34.5t38 -12.5h155q23 0 38 12.5t15 34.5v539h133v-57h6q19 0 30 10t11 28v99z" />
    <glyph glyph-name="uhorn" unicode="&#x1b0;" horiz-adv-x="606" 
d="M541 578h91v-99q0 -60 -35.5 -89t-96.5 -29h-2v-361h-274q-75 0 -117 35.5t-42 105.5v353h128v-335q0 -27 13 -39t40 -12h123v386h129v-53h2q19 0 30 10t11 28v99z" />
    <glyph glyph-name="Scommaaccent" unicode="&#x218;" horiz-adv-x="606" 
d="M70 0v118h299q23 0 35.5 11.5t12.5 32.5v76q0 23 -11.5 33.5t-36.5 15.5l-172 28q-47 8 -77 23.5t-47 48t-17 86.5v74q0 76 44 114.5t122 38.5h303v-76l-42 -42h-245q-23 0 -35.5 -11.5t-12.5 -32.5v-59q0 -22 12.5 -35.5t35.5 -17.5l172 -29q47 -7 77.5 -22.5t47 -46
t16.5 -81.5v-95q0 -76 -43.5 -114t-122.5 -38h-315zM250 -129v80h114v-84l-64 -67h-76z" />
    <glyph glyph-name="scommaaccent" unicode="&#x219;" horiz-adv-x="491" 
d="M56 0v105h237q16 0 23 6.5t7 20.5v28q0 17 -8 24.5t-29 10.5l-125 14q-42 5 -66.5 19.5t-35.5 40.5t-11 65v40q0 64 32 92t101 28h245v-61l-42 -42h-187q-13 0 -19.5 -5.5t-6.5 -18.5v-27q0 -18 7 -26t27 -10l124 -15q45 -5 70 -18t36 -38t11 -66v-43q0 -65 -33 -94.5
t-103 -29.5h-254zM188 -129v80h114v-84l-64 -67h-76z" />
    <glyph glyph-name="uni021A" unicode="&#x21a;" horiz-adv-x="541" 
d="M337 0h-134v578h-194v122h523v-80l-42 -42h-153v-578zM214 -129v80h114v-84l-64 -67h-76z" />
    <glyph glyph-name="uni021B" unicode="&#x21b;" horiz-adv-x="338" 
d="M241 0q-63 0 -94 11.5t-42.5 41.5t-11.5 91v249h-85v101h85v124h128v-124h97v-101h-97v-244q0 -20 3.5 -28.5t11 -11.5t24.5 -3h53v-106h-72zM123 -129v80h114v-84l-64 -67h-76z" />
    <glyph glyph-name="circumflex" unicode="&#x2c6;" 
d="M370 888l115 -133h-119l-67 69l-67 -69h-117l115 133h140z" />
    <glyph glyph-name="caron" unicode="&#x2c7;" 
d="M370 755h-140l-115 133h117l67 -68l67 68h119z" />
    <glyph glyph-name="uni02C9" unicode="&#x2c9;" horiz-adv-x="490" 
d="M85 567v90h320v-90h-320z" />
    <glyph glyph-name="breve" unicode="&#x2d8;" horiz-adv-x="601" 
d="M225 743q-33 15 -51.5 42t-18.5 62h107q0 -19 11 -30t29 -11q17 0 27.5 11t10.5 30h106q0 -35 -18 -62t-50.5 -42t-75.5 -15q-44 0 -77 15z" />
    <glyph glyph-name="dotaccent" unicode="&#x2d9;" 
d="M237 772v111h126v-111h-126z" />
    <glyph glyph-name="ring" unicode="&#x2da;" horiz-adv-x="604" 
d="M250.5 758.5q-23.5 13.5 -37 37.5t-13.5 53q0 28 13.5 51.5t37 37t52.5 13.5q28 0 51.5 -13.5t37 -37t13.5 -51.5q0 -29 -13.5 -53t-37 -37.5t-51.5 -13.5q-29 0 -52.5 13.5zM333 818.5q12 12.5 12 30.5q0 17 -12.5 29t-29.5 12q-18 0 -30 -12t-12 -29q0 -19 12 -31
t30 -12t30 12.5z" />
    <glyph glyph-name="ogonek" unicode="&#x2db;" 
d="M302 -184q-62 0 -90.5 22.5t-28.5 74.5v26q0 34 27 57.5t70 32.5l80 -18q-37 -10 -58 -19.5t-30.5 -22t-9.5 -30.5v-24q0 -21 11 -29t33 -8h92v-62h-96z" />
    <glyph glyph-name="tilde" unicode="&#x2dc;" 
d="M143 781q0 56 27 85t74 29q22 0 38.5 -7t37.5 -20q3 -2 10 -6t12 -6t10 -2q13 0 19 9t6 30h80q0 -56 -26.5 -85t-74.5 -29q-22 0 -38.5 7t-37.5 20q-3 2 -10 6t-12 6t-10 2q-12 0 -18 -9t-6 -30h-81z" />
    <glyph glyph-name="hungarumlaut" unicode="&#x2dd;" 
d="M218 754h-98l78 131h113zM373 754h-98l77 131h114z" />
    <glyph glyph-name="gravecomb" unicode="&#x300;" horiz-adv-x="0" 
d="M-270 893l97 -138h-127l-116 138h146z" />
    <glyph glyph-name="acutecomb" unicode="&#x301;" horiz-adv-x="0" 
d="M-275 755h-126l97 138h145z" />
    <glyph glyph-name="circumflexcomb" unicode="&#x302;" horiz-adv-x="0" 
d="M-233 888l115 -133h-119l-67 69l-67 -69h-117l115 133h140z" />
    <glyph glyph-name="tildecomb" unicode="&#x303;" horiz-adv-x="0" 
d="M-457 739q0 56 27 85t74 29q22 0 38.5 -7t37.5 -20q3 -2 10 -6t12 -6t10 -2q13 0 19 9t6 30h80q0 -56 -27 -85t-74 -29q-22 0 -38.5 7t-37.5 20q-3 2 -10 6t-12 6t-10 2q-12 0 -18 -9t-6 -30h-81z" />
    <glyph glyph-name="dotaccentcomb" unicode="&#x307;" horiz-adv-x="0" 
d="M-363 737v112h126v-112h-126z" />
    <glyph glyph-name="hookabovecomb" unicode="&#x309;" horiz-adv-x="0" 
d="M-280 893q37 0 57.5 -6t29 -19.5t8.5 -37.5v-15q0 -25 -9.5 -38.5t-31 -19t-59.5 -5.5v-20h-94v73h78q7 0 9.5 2t2.5 7v5q0 5 -2.5 6.5t-9.5 1.5h-136v66h157z" />
    <glyph glyph-name="ringcomb" unicode="&#x30a;" horiz-adv-x="0" 
d="M-353.5 759q-23.5 14 -37.5 37.5t-14 52.5q0 27 14 50.5t38 37.5t52 14q27 0 50.5 -14t37.5 -37.5t14 -50.5q0 -28 -14 -52t-37 -38t-51 -14q-29 0 -52.5 14zM-271.5 818.5q12.5 12.5 12.5 30.5q0 17 -12.5 29t-29.5 12q-19 0 -31 -12t-12 -29q0 -19 12 -31t31 -12
q17 0 29.5 12.5z" />
    <glyph glyph-name="uni031B" unicode="&#x31b;" horiz-adv-x="0" 
d="M-81 578h91v-99q0 -60 -35.5 -89t-96.5 -29h-50v80h50q19 0 30 10t11 28v99z" />
    <glyph glyph-name="dotbelowcomb" unicode="&#x323;" horiz-adv-x="0" 
d="M-367 -183v126h134v-126h-134z" />
    <glyph glyph-name="commaaccent" unicode="&#x326;" horiz-adv-x="0" 
d="M-363 -129v80h114v-84l-64 -67h-76z" />
    <glyph glyph-name="uni0394" unicode="&#x394;" horiz-adv-x="647" 
d="M417 700l227 -700h-641l230 700h184zM325 595l-148 -481h293z" />
    <glyph glyph-name="Epsilon" unicode="&#x395;" horiz-adv-x="564" 
d="M520 0h-441v700h431v-78l-42 -42h-254v-171h285v-71l-42 -42h-243v-176h306v-120z" />
    <glyph glyph-name="uni03A9" unicode="&#x3a9;" horiz-adv-x="667" 
d="M612 111v-111h-239v148q41 0 65 28t24 80v290q0 22 -13.5 34t-35.5 12h-158q-23 0 -36.5 -12t-13.5 -34v-290q0 -52 24 -80t65 -28v-148h-238v111h92q-75 46 -75 145v300q0 76 44.5 113t121.5 37h189q77 0 121.5 -37t44.5 -113v-300q0 -99 -74 -145h92z" />
    <glyph glyph-name="uni03BC" unicode="&#x3bc;" horiz-adv-x="563" 
d="M369 494h127v-494h-236q-55 0 -83 37v-216h-110v673h127v-335q0 -27 13 -39t40 -12h122v386z" />
    <glyph glyph-name="pi" unicode="&#x3c0;" horiz-adv-x="605" 
d="M43 395v97h519v-97h-75v-255q0 -19 6.5 -25t23.5 -6h45v-109h-57q-53 0 -84 15t-44.5 44.5t-13.5 75.5v260h-123v-395h-124v395h-73z" />
    <glyph glyph-name="uni0400" unicode="&#x400;" horiz-adv-x="564" 
d="M520 0h-441v700h431v-78l-42 -42h-254v-171h285v-71l-42 -42h-243v-176h306v-120zM278 875l101 -137h-127l-119 137h145z" />
    <glyph glyph-name="uni0401" unicode="&#x401;" horiz-adv-x="564" 
d="M520 0h-441v700h431v-78l-42 -42h-254v-171h285v-71l-42 -42h-243v-176h306v-120zM129 753v112h126v-112h-126zM331 753v112h126v-112h-126z" />
    <glyph glyph-name="uni0402" unicode="&#x402;" horiz-adv-x="730" 
d="M174 0v578h-165v122h523v-80l-42 -42h-181v-157h164q84 0 128.5 -17t62.5 -57t18 -114v-45q0 -70 -16 -109.5t-61 -59t-132 -19.5h-74v121h91q57 0 57 47v75q0 29 -12 43t-45 14h-181v-300h-135z" />
    <glyph glyph-name="uni0403" unicode="&#x403;" horiz-adv-x="517" 
d="M214 0h-135v700h429v-80l-42 -42h-252v-578zM326 735h-126l101 137h144z" />
    <glyph glyph-name="uni0404" unicode="&#x404;" horiz-adv-x="565" 
d="M253 0q-82 0 -129.5 39t-47.5 118v386q0 79 47.5 118t129.5 39h268v-78l-42 -42h-226q-19 0 -29.5 -9.5t-10.5 -26.5v-135h271v-113h-271v-140q0 -17 10.5 -26.5t29.5 -9.5h267v-120h-267z" />
    <glyph glyph-name="uni0405" unicode="&#x405;" horiz-adv-x="606" 
d="M70 0v118h299q23 0 35.5 11.5t12.5 32.5v76q0 23 -11.5 33.5t-36.5 15.5l-172 28q-47 8 -77 23.5t-47 48t-17 86.5v74q0 76 44 114.5t122 38.5h303v-76l-42 -42h-245q-23 0 -35.5 -11.5t-12.5 -32.5v-59q0 -22 12.5 -35.5t35.5 -17.5l172 -29q47 -7 77.5 -22.5t47 -46
t16.5 -81.5v-95q0 -76 -43.5 -114t-122.5 -38h-315z" />
    <glyph glyph-name="uni0406" unicode="&#x406;" horiz-adv-x="293" 
d="M214 0h-135v700h135v-700z" />
    <glyph glyph-name="uni0407" unicode="&#x407;" horiz-adv-x="293" 
d="M214 0h-135v700h135v-700zM-17 751v112h126v-112h-126zM185 751v112h126v-112h-126z" />
    <glyph glyph-name="uni0408" unicode="&#x408;" horiz-adv-x="442" 
d="M24 0v121h156q23 0 36 13t13 35v531h135v-540q0 -81 -45 -120.5t-124 -39.5h-171z" />
    <glyph glyph-name="uni0409" unicode="&#x409;" horiz-adv-x="1068" 
d="M506 0v578h-8l-332 -578h-156l407 700h224v-268h186q72 0 114 -17t60.5 -56.5t18.5 -107.5v-122l-129 -129h-385zM641 119h182l62 62v80q0 27 -13 39.5t-41 12.5h-190v-194z" />
    <glyph glyph-name="uni040A" unicode="&#x40a;" horiz-adv-x="1042" 
d="M480 0v306h-266v-306h-135v700h135v-274h266v274h134v-275h177q203 0 203 -171v-125l-129 -129h-385zM614 119h184l62 62v72q0 28 -16 40.5t-52 12.5h-178v-187z" />
    <glyph glyph-name="uni040B" unicode="&#x40b;" horiz-adv-x="715" 
d="M174 0v578h-165v122h523v-80l-42 -42h-181v-157h171q80 0 122 -20.5t57 -60.5t15 -108v-232h-135v232q0 25 -4.5 39t-17 21t-37.5 7h-171v-299h-135z" />
    <glyph glyph-name="uni040C" unicode="&#x40c;" horiz-adv-x="635" 
d="M214 0h-135v700h135v-291h80l175 291h150l-206 -332l210 -368h-154l-163 301h-92v-301zM376 735h-126l101 137h144z" />
    <glyph glyph-name="uni040D" unicode="&#x40d;" horiz-adv-x="724" 
d="M214 0h-135v700h135v-443l296 340v103h135v-700h-135v427l-296 -340v-87zM348 875l101 -137h-127l-119 137h145z" />
    <glyph glyph-name="uni040E" unicode="&#x40e;" horiz-adv-x="645" 
d="M266 865q0 -11 5.5 -23t17.5 -20.5t30 -8.5h12q19 0 31 8.5t17.5 20.5t5.5 23v12h104v-12q0 -38 -12.5 -65.5t-47 -44t-98.5 -16.5h-12q-63 0 -97.5 16.5t-47 44t-12.5 65.5v12h104v-12zM125 0v122h65q32 0 50.5 10.5t28.5 36.5l30 75h-92l-192 456h146l137 -338h54
l134 338h144l-236 -578q-19 -46 -44 -72t-63 -38t-97 -12h-65z" />
    <glyph glyph-name="uni040F" unicode="&#x40f;" horiz-adv-x="690" 
d="M287 0h-208v700h135v-578h262v578h135v-700h-207v-144h-117v144z" />
    <glyph glyph-name="uni0410" unicode="&#x410;" horiz-adv-x="680" 
d="M158 0h-138l230 700h184l226 -700h-140l-49 161h-262zM341 588l-99 -313h196z" />
    <glyph glyph-name="uni0411" unicode="&#x411;" horiz-adv-x="654" 
d="M79 0v700h466v-75l-43 -43h-289v-168h187q73 0 114.5 -16.5t60 -54.5t18.5 -106v-108l-129 -129h-385zM213 118h184l62 62l-1 65q-1 27 -13.5 39.5t-40.5 12.5l-191 1v-180z" />
    <glyph glyph-name="uni0412" unicode="&#x412;" horiz-adv-x="655" 
d="M500 357q45 -12 69.5 -37.5t24.5 -68.5v-90q0 -161 -186 -161h-329v700h317q92 0 134 -33t42 -106v-104q0 -31 -19 -54.5t-53 -37.5v-8zM214 582v-176h178q24 0 36 13t12 38v77q0 27 -14.5 37.5t-45.5 10.5h-166zM391 118q36 0 52 14t16 45v74q0 26 -19 37.5t-45 11.5
h-181v-182h177z" />
    <glyph glyph-name="uni0413" unicode="&#x413;" horiz-adv-x="517" 
d="M214 0h-135v700h429v-80l-42 -42h-252v-578z" />
    <glyph glyph-name="uni0414" unicode="&#x414;" horiz-adv-x="760" 
d="M133 -144h-117v266h79l189 578h192l193 -578h75v-266h-117v144h-494v-144zM375 577l-141 -455h295l-142 455h-12z" />
    <glyph glyph-name="uni0415" unicode="&#x415;" horiz-adv-x="564" 
d="M520 0h-441v700h431v-78l-42 -42h-254v-171h285v-71l-42 -42h-243v-176h306v-120z" />
    <glyph glyph-name="uni0416" unicode="&#x416;" horiz-adv-x="938" 
d="M165 0h-153l201 369l-198 331h148l165 -291h74v291h135v-291h72l166 291h148l-197 -331l200 -369h-153l-150 301h-86v-301h-135v301h-87z" />
    <glyph glyph-name="uni0417" unicode="&#x417;" horiz-adv-x="552" 
d="M46 0v120h244q37 0 51.5 12.5t14.5 41.5v77q0 23 -14.5 34t-39.5 11h-220v113h206q24 0 35.5 12t11.5 34v83q0 25 -12.5 33.5t-43.5 8.5h-235v120h235q73 0 114.5 -17.5t58.5 -52.5t17 -93v-79q0 -74 -84 -98q43 -6 74.5 -30t31.5 -79v-76q0 -175 -201 -175h-244z" />
    <glyph glyph-name="uni0418" unicode="&#x418;" horiz-adv-x="724" 
d="M214 0h-135v700h135v-443l296 340v103h135v-700h-135v427l-296 -340v-87z" />
    <glyph glyph-name="uni0419" unicode="&#x419;" horiz-adv-x="724" 
d="M303 865q0 -11 5.5 -23t17.5 -20.5t30 -8.5h12q19 0 31 8.5t17.5 20.5t5.5 23v12h104v-12q0 -38 -12.5 -65.5t-47 -44t-98.5 -16.5h-12q-63 0 -97.5 16.5t-47 44t-12.5 65.5v12h104v-12zM214 0h-135v700h135v-443l296 340v103h135v-700h-135v427l-296 -340v-87z" />
    <glyph glyph-name="uni041A" unicode="&#x41a;" horiz-adv-x="635" 
d="M214 0h-135v700h135v-291h80l175 291h150l-206 -332l210 -368h-154l-163 301h-92v-301z" />
    <glyph glyph-name="uni041B" unicode="&#x41b;" horiz-adv-x="663" 
d="M162 0h-142l200 700h219l204 -700h-142l-165 578h-11z" />
    <glyph glyph-name="uni041C" unicode="&#x41c;" horiz-adv-x="881" 
d="M209 0h-130v700h204l160 -393l159 393h199v-700h-129v581l-162 -406h-139l-162 403v-578z" />
    <glyph glyph-name="uni041D" unicode="&#x41d;" horiz-adv-x="694" 
d="M214 0h-135v700h135v-274h266v274h134v-700h-134v306h-266v-306z" />
    <glyph glyph-name="uni041E" unicode="&#x41e;" horiz-adv-x="684" 
d="M245 -6q-79 0 -124 38t-45 116v404q0 78 45.5 116.5t123.5 38.5h195q78 0 123.5 -38.5t45.5 -116.5v-404q0 -78 -45 -116t-124 -38h-195zM424 112q23 0 36.5 12t13.5 35v382q0 23 -13.5 35.5t-36.5 12.5h-163q-24 0 -37.5 -12.5t-13.5 -35.5v-382q0 -23 13.5 -35
t37.5 -12h163z" />
    <glyph glyph-name="uni041F" unicode="&#x41f;" horiz-adv-x="690" 
d="M214 0h-135v700h532v-700h-135v578h-262v-578z" />
    <glyph glyph-name="uni0420" unicode="&#x420;" horiz-adv-x="630" 
d="M79 0v700h294q82 0 127 -16.5t64 -57.5t19 -117v-58q0 -75 -20 -118.5t-67 -64t-130 -20.5h-152v-248h-135zM359 367q47 0 68 19.5t21 64.5v49q0 34 -9 51.5t-28 23.5t-52 6h-145v-214h145z" />
    <glyph glyph-name="uni0421" unicode="&#x421;" horiz-adv-x="557" 
d="M247 0q-79 0 -125 38t-46 117v391q0 78 46 116t125 38h274v-79l-42 -42h-216q-24 0 -37.5 -12t-13.5 -35v-363q0 -23 13.5 -35.5t37.5 -12.5h258v-121h-274z" />
    <glyph glyph-name="uni0422" unicode="&#x422;" horiz-adv-x="541" 
d="M337 0h-134v578h-194v122h523v-80l-42 -42h-153v-578z" />
    <glyph glyph-name="uni0423" unicode="&#x423;" horiz-adv-x="645" 
d="M125 0v122h65q32 0 50.5 10.5t28.5 36.5l30 75h-92l-192 456h146l137 -338h54l134 338h144l-236 -578q-19 -46 -44 -72t-63 -38t-97 -12h-65z" />
    <glyph glyph-name="uni0424" unicode="&#x424;" horiz-adv-x="861" 
d="M63 461q0 60 16.5 97.5t55.5 55.5t105 18h123v68h135v-68h123q66 0 105 -18t55.5 -55.5t16.5 -97.5v-235l-129 -129h-171v-97h-135v97h-123q-66 0 -105 18t-55.5 55.5t-16.5 97.5v193zM197 271q0 -56 58 -56h108v299h-108q-58 0 -58 -56v-187zM602 217l62 62v179
q0 56 -58 56h-108v-297h104z" />
    <glyph glyph-name="uni0425" unicode="&#x425;" horiz-adv-x="672" 
d="M170 0h-151l237 352l-233 348h154l162 -254l161 254h149l-229 -349l234 -351h-156l-164 258z" />
    <glyph glyph-name="uni0426" unicode="&#x426;" horiz-adv-x="713" 
d="M576 0h-497v700h135v-578h267v578h135v-578h77v-266h-117v144z" />
    <glyph glyph-name="uni0427" unicode="&#x427;" horiz-adv-x="624" 
d="M410 0v257h-145q-88 0 -136.5 20t-68 63.5t-19.5 119.5v240h132v-247q0 -41 21 -57.5t71 -16.5h145v321h135v-700h-135z" />
    <glyph glyph-name="uni0428" unicode="&#x428;" horiz-adv-x="1030" 
d="M951 0h-872v700h134v-578h234v578h135v-578h234v578h135v-700z" />
    <glyph glyph-name="uni0429" unicode="&#x429;" horiz-adv-x="1045" 
d="M908 0h-829v700h134v-578h233v578h135v-578h233v578h135v-578h76v-266h-117v144z" />
    <glyph glyph-name="uni042A" unicode="&#x42a;" horiz-adv-x="730" 
d="M168 0v580h-159v120h294v-268h186q72 0 114 -17t60.5 -56.5t18.5 -107.5v-122l-129 -129h-385zM303 119h182l62 62v80q0 27 -13 39.5t-41 12.5h-190v-194z" />
    <glyph glyph-name="uni042B" unicode="&#x42b;" horiz-adv-x="903" 
d="M79 0v700h135v-268h186q72 0 114 -17t60.5 -56.5t18.5 -107.5v-122l-129 -129h-385zM824 0h-135v700h135v-700zM214 119h182l62 62v80q0 27 -13 39.5t-41 12.5h-190v-194z" />
    <glyph glyph-name="uni042C" unicode="&#x42c;" horiz-adv-x="641" 
d="M79 0v700h135v-268h186q72 0 114 -17t60.5 -56.5t18.5 -107.5v-122l-129 -129h-385zM214 119h182l62 62v80q0 27 -13 39.5t-41 12.5h-190v-194z" />
    <glyph glyph-name="uni042D" unicode="&#x42d;" horiz-adv-x="565" 
d="M45 0v120h244l63 63v113h-270v113h270v135q0 17 -10.5 26.5t-29.5 9.5h-268v120h268q82 0 129.5 -39t47.5 -118v-407l-138 -136h-306z" />
    <glyph glyph-name="uni042E" unicode="&#x42e;" horiz-adv-x="924" 
d="M503 -6q-79 0 -125 38t-46 116v157h-119v-305h-134v700h134v-274h119v126q0 78 46 116.5t125 38.5h175q79 0 125 -38.5t46 -116.5v-404q0 -78 -46 -116t-125 -38h-175zM664 112q23 0 36.5 12t13.5 35v382q0 23 -13.5 35.5t-36.5 12.5h-146q-24 0 -37.5 -12.5t-13.5 -35.5
v-382q0 -23 13.5 -35t37.5 -12h146z" />
    <glyph glyph-name="uni042F" unicode="&#x42f;" horiz-adv-x="642" 
d="M64 524q0 65 19 103.5t61.5 55.5t115.5 17h303v-700h-135v269h-137l-110 -269h-145l125 286q-41 15 -69 50t-28 94v94zM198 437q0 -25 11.5 -38.5t42.5 -13.5h176v194h-174q-32 0 -44 -13t-12 -38v-91z" />
    <glyph glyph-name="uni0430" unicode="&#x430;" horiz-adv-x="534" 
d="M188 0q-75 0 -107.5 29.5t-32.5 90.5v62q0 45 14 70t44 35t82 10h160v60q0 17 -4.5 25.5t-13.5 11.5t-26 3h-204v97h213q55 0 88.5 -11.5t50 -40t16.5 -79.5v-363h-280zM348 94v118h-148q-19 0 -26.5 -7t-7.5 -25v-57q0 -15 8.5 -22t25.5 -7h148z" />
    <glyph glyph-name="uni0431" unicode="&#x431;" horiz-adv-x="579" 
d="M231 -6q-77 0 -121 35.5t-44 105.5v360q0 48 16 78t48 47t84 28l271 58l24 -107l-272 -58q-20 -4 -31 -14.5t-11 -31.5v-16h158q75 0 119 -36t44 -106v-202q0 -70 -44 -105.5t-119 -35.5h-122zM342 102q21 0 33 10.5t12 30.5v186q0 21 -12 31.5t-33 10.5h-147v-228
q0 -20 12 -30.5t33 -10.5h102z" />
    <glyph glyph-name="uni0432" unicode="&#x432;" horiz-adv-x="553" 
d="M69 0v494h285q69 0 100 -24t31 -78v-68q0 -50 -59 -68v-5q38 -7 55.5 -24.5t17.5 -51.5v-52q0 -60 -34 -91.5t-106 -31.5h-290zM322 299q17 0 25.5 7t8.5 22v32q0 18 -7.5 25t-26.5 7h-124v-93h124zM336 102q17 0 25.5 7t8.5 22v38q0 18 -7.5 25t-26.5 7h-138v-99h138z
" />
    <glyph glyph-name="uni0433" unicode="&#x433;" horiz-adv-x="427" 
d="M198 0h-129v494h338v-67l-42 -41h-167v-386z" />
    <glyph glyph-name="uni0434" unicode="&#x434;" horiz-adv-x="579" 
d="M122 -110h-107v218h60l127 386h177l125 -386h60v-218h-107v110h-335v-110zM285 386l-81 -278h169l-80 278h-8z" />
    <glyph glyph-name="uni0435" unicode="&#x435;" horiz-adv-x="549" 
d="M222 0q-75 0 -117 35t-42 105v227q0 134 159 134h118q75 0 117.5 -32t42.5 -102q0 -46 -2.5 -90t-5.5 -67h-302v-60q0 -20 12.5 -31t33.5 -11h236v-108h-250zM190 305h191v59q0 21 -12 31t-38 10h-95q-21 0 -33.5 -10.5t-12.5 -30.5v-59z" />
    <glyph glyph-name="uni0436" unicode="&#x436;" horiz-adv-x="780" 
d="M148 0h-143l157 257l-153 237h140l121 -199h55v199h129v-199h56l121 199h139l-152 -237l157 -257h-144l-111 196h-66v-196h-129v196h-66z" />
    <glyph glyph-name="uni0437" unicode="&#x437;" horiz-adv-x="487" 
d="M48 0v102h223q17 0 25.5 7t8.5 22v38q0 18 -7.5 25t-26.5 7h-185v98h171q17 0 25.5 7t8.5 22v32q0 18 -7.5 25t-26.5 7h-209v102h241q69 0 100 -24.5t31 -77.5v-65q0 -28 -16.5 -46.5t-43.5 -24.5v-5q32 -4 52.5 -21t20.5 -57v-50q0 -60 -33.5 -91.5t-105.5 -31.5h-246z
" />
    <glyph glyph-name="uni0438" unicode="&#x438;" horiz-adv-x="590" 
d="M198 0h-129v494h129v-289l194 234v55h129v-494h-129v285l-194 -234v-51z" />
    <glyph glyph-name="uni0439" unicode="&#x439;" horiz-adv-x="590" 
d="M242 659q0 -11 5.5 -23t17.5 -20.5t30 -8.5h12q19 0 31 8.5t17.5 20.5t5.5 23v12h104v-12q0 -38 -12.5 -65.5t-47 -44t-98.5 -16.5h-12q-63 0 -97.5 16.5t-47 44t-12.5 65.5v12h104v-12zM198 0h-129v494h129v-289l194 234v55h129v-494h-129v285l-194 -234v-51z" />
    <glyph glyph-name="uni043A" unicode="&#x43a;" horiz-adv-x="543" 
d="M198 0h-129v494h129v-199h72l124 199h140l-157 -237l161 -257h-143l-114 196h-83v-196z" />
    <glyph glyph-name="uni043B" unicode="&#x43b;" horiz-adv-x="510" 
d="M144 0h-134l148 494h194l148 -494h-135l-107 386h-6z" />
    <glyph glyph-name="uni043C" unicode="&#x43c;" horiz-adv-x="705" 
d="M190 0h-121v494h175l110 -245l109 245h173v-494h-120v358l-105 -235h-115l-106 233v-356z" />
    <glyph glyph-name="uni043D" unicode="&#x43d;" horiz-adv-x="580" 
d="M198 0h-129v494h129v-179h184v179h129v-494h-129v207h-184v-207z" />
    <glyph glyph-name="uni043E" unicode="&#x43e;" horiz-adv-x="579" 
d="M222 -6q-75 0 -117 35t-42 105v226q0 70 42 105.5t117 35.5h135q74 0 116.5 -36t42.5 -105v-226q0 -69 -42.5 -104.5t-116.5 -35.5h-135zM342 102q21 0 33 11t12 31v207q0 20 -12 31t-33 11h-105q-21 0 -33 -11t-12 -31v-207q0 -21 12 -31.5t33 -10.5h105z" />
    <glyph glyph-name="uni043F" unicode="&#x43f;" horiz-adv-x="575" 
d="M198 0h-129v494h437v-494h-129v386h-179v-386z" />
    <glyph glyph-name="uni0440" unicode="&#x440;" horiz-adv-x="569" 
d="M69 -180v674h277q75 0 117.5 -35.5t42.5 -105.5v-213q0 -69 -42.5 -104.5t-117.5 -35.5h-148v-180h-129zM332 108q21 0 33 11t12 31v194q0 21 -12 31.5t-33 10.5h-134v-278h134z" />
    <glyph glyph-name="uni0441" unicode="&#x441;" horiz-adv-x="454" 
d="M222 0q-75 0 -117 35t-42 105v213q0 70 42 105.5t117 35.5h199v-67l-42 -41h-142q-21 0 -33 -10.5t-12 -31.5v-194q0 -21 12 -31.5t33 -10.5h184v-108h-199z" />
    <glyph glyph-name="uni0442" unicode="&#x442;" horiz-adv-x="481" 
d="M305 0h-129v386h-156v108h441v-67l-42 -41h-114v-386z" />
    <glyph glyph-name="uni0443" unicode="&#x443;" horiz-adv-x="512" 
d="M48 -189v103h70q32 0 49 12t25 40l22 65h-45l-159 463h137l111 -366l113 366h131l-141 -423l-37 -105q-21 -64 -48 -97.5t-61.5 -45.5t-86.5 -12h-80z" />
    <glyph glyph-name="uni0444" unicode="&#x444;" horiz-adv-x="795" 
d="M63 352q0 70 42.5 106t115.5 36h112v206h129v-206h112q73 0 115.5 -36t42.5 -106v-211q0 -70 -42.5 -105.5t-115.5 -35.5h-112v-180h-129v180h-112q-73 0 -115.5 35.5t-42.5 105.5v211zM192 149q0 -20 12 -30.5t33 -10.5h96v278h-96q-21 0 -33 -10.5t-12 -31.5v-195z
M603 344q0 21 -12 31.5t-33 10.5h-96v-278h96q21 0 33 10.5t12 30.5v195z" />
    <glyph glyph-name="uni0445" unicode="&#x445;" horiz-adv-x="509" 
d="M152 0h-142l164 252l-155 242h142l96 -160l97 160h138l-154 -242l161 -252h-144l-103 169z" />
    <glyph glyph-name="uni0446" unicode="&#x446;" horiz-adv-x="591" 
d="M464 0h-395v494h129v-386h176v386h129v-386h68v-218h-107v110z" />
    <glyph glyph-name="uni0447" unicode="&#x447;" horiz-adv-x="543" 
d="M345 0v176h-124q-79 0 -124 37.5t-45 111.5v169h129v-160q0 -26 13 -38t40 -12h111v210h129v-494h-129z" />
    <glyph glyph-name="uni0448" unicode="&#x448;" horiz-adv-x="845" 
d="M776 0h-707v494h129v-386h160v386h129v-386h160v386h129v-494z" />
    <glyph glyph-name="uni0449" unicode="&#x449;" horiz-adv-x="864" 
d="M737 0h-668v494h129v-386h160v386h129v-386h160v386h129v-386h68v-218h-107v110z" />
    <glyph glyph-name="uni044A" unicode="&#x44a;" horiz-adv-x="608" 
d="M145 0v389h-125v105h254v-175h141q78 0 112 -31t34 -92v-73q0 -61 -34 -92t-112 -31h-270zM402 102q22 0 29.5 7.5t7.5 25.5v51q0 13 -3 20t-10.5 10t-23.5 3h-128v-117h128z" />
    <glyph glyph-name="uni044B" unicode="&#x44b;" horiz-adv-x="754" 
d="M69 0v494h129v-175h141q78 0 112 -31t34 -92v-73q0 -61 -34 -92t-112 -31h-270zM685 0h-129v494h129v-494zM326 102q22 0 29.5 7.5t7.5 25.5v51q0 13 -3 20t-10.5 10t-23.5 3h-128v-117h128z" />
    <glyph glyph-name="uni044C" unicode="&#x44c;" horiz-adv-x="532" 
d="M69 0v494h129v-175h141q78 0 112 -31t34 -92v-73q0 -61 -34 -92t-112 -31h-270zM326 102q22 0 29.5 7.5t7.5 25.5v51q0 13 -3 20t-10.5 10t-23.5 3h-128v-117h128z" />
    <glyph glyph-name="uni044D" unicode="&#x44d;" horiz-adv-x="470" 
d="M43 0v105h190q21 0 33 10.5t12 30.5v55h-202v97h202v49q0 21 -12 31.5t-33 10.5h-190v105h205q75 0 117 -35.5t42 -105.5v-212q0 -70 -42 -105.5t-117 -35.5h-205z" />
    <glyph glyph-name="uni044E" unicode="&#x44e;" horiz-adv-x="781" 
d="M444 -6q-75 0 -116.5 35.5t-41.5 105.5v72h-88v-207h-129v494h129v-179h88v44q0 70 41.5 106t116.5 36h116q73 0 115.5 -36t42.5 -106v-224q0 -70 -42.5 -105.5t-115.5 -35.5h-116zM544 102q21 0 33 11t12 31v206q0 21 -12 32t-33 11h-85q-21 0 -33 -11t-12 -32v-206
q0 -20 12 -31t33 -11h85z" />
    <glyph glyph-name="uni044F" unicode="&#x44f;" horiz-adv-x="544" 
d="M54 371q0 61 34 92t111 31h276v-494h-129v176h-88l-80 -176h-139l87 184q-38 12 -55 38.5t-17 80.5v68zM176 310q0 -16 8 -24.5t29 -8.5h133v113h-133q-21 0 -29 -8.5t-8 -24.5v-47z" />
    <glyph glyph-name="uni0450" unicode="&#x450;" horiz-adv-x="549" 
d="M222 0q-75 0 -117 35t-42 105v227q0 134 159 134h118q75 0 117.5 -32t42.5 -102q0 -46 -2.5 -90t-5.5 -67h-302v-60q0 -20 12.5 -31t33.5 -11h236v-108h-250zM190 305h191v59q0 21 -12 31t-38 10h-95q-21 0 -33.5 -10.5t-12.5 -30.5v-59zM254 690l101 -137h-127l-119 137
h145z" />
    <glyph glyph-name="uni0451" unicode="&#x451;" horiz-adv-x="549" 
d="M222 0q-75 0 -117 35t-42 105v227q0 134 159 134h118q75 0 117.5 -32t42.5 -102q0 -46 -2.5 -90t-5.5 -67h-302v-60q0 -20 12.5 -31t33.5 -11h236v-108h-250zM190 305h191v59q0 21 -12 31t-38 10h-95q-21 0 -33.5 -10.5t-12.5 -30.5v-59zM119 581v112h126v-112h-126z
M321 581v112h126v-112h-126z" />
    <glyph glyph-name="uni0452" unicode="&#x452;" horiz-adv-x="592" 
d="M89 0v542h-68v98h68v60h129v-60h140v-98h-140v-48h148q75 0 117.5 -35.5t42.5 -105.5v-404q0 -70 -42.5 -105.5t-117.5 -35.5h-56v108h44q23 0 33 9.5t10 31.5v379q0 26 -13 38t-40 12h-126v-386h-129z" />
    <glyph glyph-name="uni0453" unicode="&#x453;" horiz-adv-x="427" 
d="M198 0h-129v494h338v-67l-42 -41h-167v-386zM253 553h-126l101 137h144z" />
    <glyph glyph-name="uni0454" unicode="&#x454;" horiz-adv-x="470" 
d="M222 0q-75 0 -117 35.5t-42 105.5v212q0 70 42 105.5t117 35.5h205v-64l-42 -41h-148q-21 0 -33 -10.5t-12 -31.5v-49h202v-97h-202v-55q0 -20 12 -30.5t33 -10.5h190v-105h-205z" />
    <glyph glyph-name="uni0455" unicode="&#x455;" horiz-adv-x="491" 
d="M56 0v105h237q16 0 23 6.5t7 20.5v28q0 17 -8 24.5t-29 10.5l-125 14q-42 5 -66.5 19.5t-35.5 40.5t-11 65v40q0 64 32 92t101 28h245v-61l-42 -42h-187q-13 0 -19.5 -5.5t-6.5 -18.5v-27q0 -18 7 -26t27 -10l124 -15q45 -5 70 -18t36 -38t11 -66v-43q0 -65 -33 -94.5
t-103 -29.5h-254z" />
    <glyph glyph-name="uni0456" unicode="&#x456;" horiz-adv-x="271" 
d="M205 570h-139v130h139v-130zM200 0h-129v494h129v-494z" />
    <glyph glyph-name="uni0457" unicode="&#x457;" horiz-adv-x="271" 
d="M-14 580v112h123v-112h-123zM162 580v112h123v-112h-123zM71 0v494h129v-494h-129z" />
    <glyph glyph-name="uni0458" unicode="&#x458;" horiz-adv-x="271" 
d="M205 572h-139v128h139v-128zM-22 -192v105h49q20 0 32 10t12 30v541h129v-547q0 -69 -43 -104t-117 -35h-62z" />
    <glyph glyph-name="uni0459" unicode="&#x459;" horiz-adv-x="835" 
d="M372 0v386h-12l-218 -386h-140l285 494h214v-175h141q78 0 112 -31t34 -92v-73q0 -61 -34 -92t-112 -31h-270zM629 102q22 0 29.5 7.5t7.5 25.5v51q0 13 -3 20t-10.5 10t-23.5 3h-128v-117h128z" />
    <glyph glyph-name="uni045A" unicode="&#x45a;" horiz-adv-x="845" 
d="M382 0v216h-184v-216h-129v494h129v-178h184v178h129v-177h141q78 0 112 -31t34 -92v-71q0 -61 -34 -92t-112 -31h-270zM637 112q22 0 29.5 7.5t7.5 25.5v38q0 13 -3 20t-10.5 10t-23.5 3h-126v-104h126z" />
    <glyph glyph-name="uni045B" unicode="&#x45b;" horiz-adv-x="592" 
d="M89 0v542h-68v98h68v60h129v-60h140v-98h-140v-48h148q75 0 117.5 -35.5t42.5 -105.5v-353h-129v336q0 26 -13 38t-40 12h-126v-386h-129z" />
    <glyph glyph-name="uni045C" unicode="&#x45c;" horiz-adv-x="543" 
d="M198 0h-129v494h129v-199h72l124 199h140l-157 -237l161 -257h-143l-114 196h-83v-196zM320 553h-126l101 137h144z" />
    <glyph glyph-name="uni045D" unicode="&#x45d;" horiz-adv-x="590" 
d="M198 0h-129v494h129v-289l194 234v55h129v-494h-129v285l-194 -234v-51zM278 690l101 -137h-127l-119 137h145z" />
    <glyph glyph-name="uni045E" unicode="&#x45e;" horiz-adv-x="512" 
d="M194 659q0 -11 5.5 -23t17.5 -20.5t30 -8.5h12q19 0 31 8.5t17.5 20.5t5.5 23v12h104v-12q0 -38 -12.5 -65.5t-47 -44t-98.5 -16.5h-12q-63 0 -97.5 16.5t-47 44t-12.5 65.5v12h104v-12zM48 -189v103h70q32 0 49 12t25 40l22 65h-45l-159 463h137l111 -366l113 366h131
l-141 -423l-37 -105q-21 -64 -48 -97.5t-61.5 -45.5t-86.5 -12h-80z" />
    <glyph glyph-name="uni045F" unicode="&#x45f;" horiz-adv-x="575" 
d="M234 0h-165v494h129v-386h179v386h129v-494h-165v-110h-107v110z" />
    <glyph glyph-name="uni0462" unicode="&#x462;" horiz-adv-x="742" 
d="M180 0v493h-160v112h160v95h134v-95h160v-112h-160v-79h202q82 0 130 -37t48 -115v-133l-129 -129h-385zM314 118h184l62 62v66q0 27 -13 39.5t-41 12.5h-192v-180z" />
    <glyph glyph-name="uni0463" unicode="&#x463;" horiz-adv-x="608" 
d="M145 0v391h-125v103h125v206h129v-206h134v-103h-134v-80h141q78 0 112 -31t34 -92v-65q0 -61 -34 -92t-112 -31h-270zM402 102q22 0 29.5 7.5t7.5 25.5v43q0 13 -3 20t-10.5 10t-23.5 3h-128v-109h128z" />
    <glyph glyph-name="uni0466" unicode="&#x466;" horiz-adv-x="809" 
d="M151 0h-143l306 700h184l303 -700h-144l-95 222h-93v-222h-130v222h-92zM405 588l-109 -253h217z" />
    <glyph glyph-name="uni0467" unicode="&#x467;" horiz-adv-x="654" 
d="M143 0h-138l232 494h180l232 -494h-138l-65 142h-60v-142h-119v142h-59zM321 388l-65 -141h142l-65 141h-12z" />
    <glyph glyph-name="uni0468" unicode="&#x468;" horiz-adv-x="1102" 
d="M214 0h-135v700h135v-365h233l160 365h184l303 -700h-144l-95 222h-93v-222h-130v222h-92l-96 -222h-143l97 222h-184v-222zM698 588l-109 -253h217z" />
    <glyph glyph-name="uni0469" unicode="&#x469;" horiz-adv-x="917" 
d="M198 0h-129v494h129v-246h186l116 246h180l232 -494h-138l-65 142h-60v-142h-119v142h-59l-65 -142h-138l67 142h-137v-142zM584 388l-65 -141h142l-65 141h-12z" />
    <glyph glyph-name="uni046A" unicode="&#x46a;" horiz-adv-x="926" 
d="M55 235q0 68 15 108t57 60.5t122 20.5h77l-178 276h629l-173 -276h74q80 0 122 -20.5t57.5 -60.5t14.5 -108l-1 -235h-135l1 239q0 25 -4.5 39t-17 21t-37.5 7h-150v-306h-134v306h-145q-25 0 -37.5 -7t-17 -21t-4.5 -39v-239h-135v235zM372 587l94 -153l87 153h-181z
" />
    <glyph glyph-name="uni046B" unicode="&#x46b;" horiz-adv-x="809" 
d="M56 172q0 69 41 104.5t118 35.5h62l-96 182h445l-95 -182h63q77 0 118 -35.5t41 -104.5v-172h-129v164q0 20 -11 30t-36 10h-109v-204h-128v204h-108q-25 0 -36 -10t-11 -30v-164h-129v172zM455 408h-97l48 -99h2z" />
    <glyph glyph-name="uni046C" unicode="&#x46c;" horiz-adv-x="1245" 
d="M79 0v700h135v-276h431l-178 276h629l-173 -276h74q80 0 122 -20.5t57.5 -60.5t14.5 -108l-1 -235h-135l1 239q0 25 -4.5 39t-17 21t-37.5 7h-150v-306h-134v306h-145q-25 0 -37.5 -7t-17 -21t-4.5 -39v-239h-135v218q0 25 7 50.5t16 38.5h-183v-307h-135zM691 584
l94 -150l87 150h-181z" />
    <glyph glyph-name="uni046D" unicode="&#x46d;" horiz-adv-x="1059" 
d="M69 0v494h129v-182h329l-96 182h445l-95 -182h63q77 0 118 -35.5t41 -104.5v-172h-129v164q0 20 -11 30t-36 10h-109v-204h-128v204h-108q-25 0 -36 -10t-11 -30v-164h-129v162q0 9 3 22.5t7 19.5h-118v-204h-129zM705 408h-97l48 -99h2z" />
    <glyph glyph-name="uni046E" unicode="&#x46e;" horiz-adv-x="552" 
d="M175 916l68 -111l28 50q16 29 31 41.5t34.5 16t56.5 3.5v-69q-17 0 -24 -4.5t-17 -20.5l-52 -87h-118l-109 181h102zM58.5 81.5q45.5 38.5 135.5 38.5h96q37 0 51.5 12t14.5 41v78q0 45 -54 45h-220v113h206q24 0 35.5 12t11.5 34v82q0 25 -12.5 34t-43.5 9h-235v120h235
q73 0 114.5 -17.5t58.5 -52.5t17 -93v-82q0 -25 -12 -45t-31 -32t-42 -16v-4q43 -5 75 -29t32 -78v-80q0 -85 -48.5 -128t-152.5 -43h-102q-18 0 -29 -13t-11 -32q0 -20 11 -33t29 -13h186v-108h-182q-60 0 -99 14.5t-59.5 49t-20.5 92.5q0 86 45.5 124.5z" />
    <glyph glyph-name="uni046F" unicode="&#x46f;" horiz-adv-x="501" 
d="M165 734l68 -111l28 50q16 29 31 41.5t34.5 16t56.5 3.5v-69q-17 0 -24 -4.5t-17 -20.5l-52 -87h-118l-109 181h102zM52 38.5q15 29.5 42.5 46.5t62.5 17h114q17 0 25.5 7t8.5 22v38q0 18 -7.5 25t-26.5 7h-185v98h171q17 0 25.5 7t8.5 22v32q0 18 -7.5 25t-26.5 7h-209
v102h241q69 0 100 -24.5t31 -77.5v-65q0 -28 -16.5 -46.5t-43.5 -24.5v-5q32 -4 52.5 -21t20.5 -57v-50q0 -60 -33.5 -91.5t-105.5 -31.5h-111q-11 0 -18 -8t-7 -20q0 -13 7 -21t18 -8h133v-96h-159q-35 0 -62.5 16t-42.5 45t-15 65t15 65.5z" />
    <glyph glyph-name="uni0470" unicode="&#x470;" horiz-adv-x="826" 
d="M345 0v261h-125q-59 0 -97.5 16t-58.5 54.5t-20 103.5v264h134v-264q0 -56 58 -56h109v321h135v-321h110q58 0 58 56v264h134v-264q0 -65 -20 -103.5t-58.5 -54.5t-97.5 -16h-126v-261h-135z" />
    <glyph glyph-name="uni0471" unicode="&#x471;" horiz-adv-x="799" 
d="M335 -180v180h-108q-75 0 -118 35.5t-43 105.5v353h129v-345q0 -23 10 -32t34 -9h96v592h129v-592h96q24 0 34 9t10 32v345h129v-353q0 -70 -43 -105.5t-118 -35.5h-108v-180h-129z" />
    <glyph glyph-name="uni0472" unicode="&#x472;" horiz-adv-x="684" 
d="M247 -6q-79 0 -125 38t-46 116v404q0 78 46 116.5t125 38.5h193q79 0 124 -38.5t45 -116.5v-404q0 -78 -45 -116t-124 -38h-193zM391 427v-45h85v161q0 23 -13.5 35.5t-36.5 12.5h-167q-24 0 -37.5 -12.5t-13.5 -35.5v-116h183zM426 110q23 0 36.5 12t13.5 35v107h-186
v45h-82v-152q0 -23 13.5 -35t37.5 -12h167z" />
    <glyph glyph-name="uni0473" unicode="&#x473;" horiz-adv-x="579" 
d="M222 -6q-75 0 -117 35.5t-42 105.5v224q0 70 42 106t117 36h136q73 0 115.5 -36t42.5 -106v-224q0 -70 -42.5 -105.5t-115.5 -35.5h-136zM329 317v-38h58v74q0 21 -12 31.5t-33 10.5h-105q-21 0 -33 -10.5t-12 -31.5v-36h137zM342 100q21 0 33 10.5t12 30.5v42h-134v38
h-61v-80q0 -20 12 -30.5t33 -10.5h105z" />
    <glyph glyph-name="uni0474" unicode="&#x474;" horiz-adv-x="651" 
d="M15 700h143l156 -592l124 470q13 51 34 76.5t58.5 35.5t105.5 10h18v-121h-14q-23 0 -36.5 -3t-22.5 -12.5t-14 -28.5l-154 -535h-199z" />
    <glyph glyph-name="uni0475" unicode="&#x475;" horiz-adv-x="496" 
d="M10 494h136l100 -373l61 228q18 67 42.5 98t55.5 39t86 8h15v-107h-15q-14 0 -24 -2t-20 -10t-15 -25l-105 -350h-167z" />
    <glyph glyph-name="uni0476" unicode="&#x476;" horiz-adv-x="651" 
d="M234 888l77 -131h-98l-93 131h114zM388 888l78 -131h-98l-93 131h113zM15 700h143l156 -592l124 470q13 51 34 76.5t58.5 35.5t105.5 10h18v-121h-14q-23 0 -36.5 -3t-22.5 -12.5t-14 -28.5l-154 -535h-199z" />
    <glyph glyph-name="uni0477" unicode="&#x477;" horiz-adv-x="496" 
d="M156 684l77 -131h-98l-93 131h114zM310 684l78 -131h-98l-93 131h113zM10 494h136l100 -373l61 228q18 67 42.5 98t55.5 39t86 8h15v-107h-15q-14 0 -24 -2t-20 -10t-15 -25l-105 -350h-167z" />
    <glyph glyph-name="uni0490" unicode="&#x490;" horiz-adv-x="517" 
d="M213 0h-134v700h312v126h117v-248h-295v-578z" />
    <glyph glyph-name="uni0491" unicode="&#x491;" horiz-adv-x="427" 
d="M198 0h-129v494h233v94h105v-202h-209v-386z" />
    <glyph glyph-name="uni0492" unicode="&#x492;" horiz-adv-x="579" 
d="M267 0h-135v292h-94v117h94v291h429v-80l-42 -42h-252v-169h197v-117h-197v-292z" />
    <glyph glyph-name="uni0493" unicode="&#x493;" horiz-adv-x="443" 
d="M214 0h-129v190h-55v98h55v206h338v-67l-42 -41h-167v-98h128v-98h-128v-190z" />
    <glyph glyph-name="uni0496" unicode="&#x496;" horiz-adv-x="946" 
d="M165 0h-153l201 369l-198 331h148l165 -291h74v291h135v-291h72l166 291h148l-197 -331l134 -247h85v-266h-117v144h-55l-150 301h-86v-301h-135v301h-87z" />
    <glyph glyph-name="uni0497" unicode="&#x497;" horiz-adv-x="793" 
d="M148 0h-143l157 257l-153 237h140l121 -199h55v199h129v-199h56l121 199h139l-152 -237l88 -144h77v-223h-107v110h-45l-111 196h-66v-196h-129v196h-66z" />
    <glyph glyph-name="uni049A" unicode="&#x49a;" horiz-adv-x="632" 
d="M214 0h-135v700h135v-291h81l174 291h150l-206 -332l141 -246h77v-266h-117v144h-45l-163 301h-92v-301z" />
    <glyph glyph-name="uni049B" unicode="&#x49b;" horiz-adv-x="560" 
d="M198 0h-129v494h129v-199h72l124 199h140l-157 -237l90 -144h83v-223h-107v110h-48l-114 196h-83v-196z" />
    <glyph glyph-name="uni049C" unicode="&#x49c;" horiz-adv-x="711" 
d="M214 0h-135v700h135v-291h45v118h100v-118h12l174 291h150l-206 -332l210 -368h-154l-163 301h-23v-126h-100v126h-45v-301z" />
    <glyph glyph-name="uni049D" unicode="&#x49d;" horiz-adv-x="631" 
d="M198 0h-129v494h129v-199h56v91h87v-91h17l124 199h140l-157 -237l161 -257h-143l-114 196h-28v-94h-87v94h-56v-196z" />
    <glyph glyph-name="uni04A2" unicode="&#x4a2;" horiz-adv-x="712" 
d="M214 0h-135v700h135v-274h266v274h134v-578h78v-266h-118v144h-94v306h-266v-306z" />
    <glyph glyph-name="uni04A3" unicode="&#x4a3;" horiz-adv-x="602" 
d="M198 0h-129v494h129v-179h184v179h129v-381h71v-223h-107v110h-93v207h-184v-207z" />
    <glyph glyph-name="uni04AE" unicode="&#x4ae;" horiz-adv-x="610" 
d="M371 0h-134v274l-228 426h151l147 -304l152 304h142l-230 -426v-274z" />
    <glyph glyph-name="uni04AF" unicode="&#x4af;" horiz-adv-x="500" 
d="M306 -180h-128v180l-168 494h137l100 -346l111 346h132l-184 -494v-180z" />
    <glyph glyph-name="uni04B2" unicode="&#x4b2;" horiz-adv-x="682" 
d="M170 0h-151l237 353l-233 347h154l163 -257l160 257h149l-229 -349l153 -230h104v-265h-117v144h-62l-164 260z" />
    <glyph glyph-name="uni04B3" unicode="&#x4b3;" horiz-adv-x="521" 
d="M152 0h-142l164 252l-155 242h142l96 -160l97 160h138l-154 -242l89 -139h84v-223h-107v110h-49l-103 169z" />
    <glyph glyph-name="uni04B8" unicode="&#x4b8;" horiz-adv-x="649" 
d="M435 0v257h-81v-115h-100v115h-5q-81 0 -126 20t-63.5 62.5t-18.5 115.5v245h132v-245q0 -42 19 -59t58 -17h4v115h100v-116h81v322h135v-700h-135z" />
    <glyph glyph-name="uni04B9" unicode="&#x4b9;" horiz-adv-x="583" 
d="M385 0v173h-55v-86h-87v86h-19q-78 0 -123 37.5t-45 111.5v172h128v-160q0 -26 12.5 -38t40.5 -12h6v88h87v-88h55v210h128v-494h-128z" />
    <glyph glyph-name="uni04BA" unicode="&#x4ba;" horiz-adv-x="629" 
d="M79 0v700h135v-268h171q80 0 122 -20.5t57 -60.5t15 -108v-243h-135v245q0 25 -4.5 39t-17 21t-37.5 7h-171v-312h-135z" />
    <glyph glyph-name="uni04BB" unicode="&#x4bb;" horiz-adv-x="572" 
d="M69 0v700h129v-206h148q75 0 117.5 -35.5t42.5 -105.5v-353h-129v336q0 26 -13 38t-40 12h-126v-386h-129z" />
    <glyph glyph-name="uni04C0" unicode="&#x4c0;" horiz-adv-x="293" 
d="M214 0h-135v700h135v-700z" />
    <glyph glyph-name="uni04CF" unicode="&#x4cf;" horiz-adv-x="266" 
d="M69 0v700h128v-700h-128z" />
    <glyph glyph-name="uni04D8" unicode="&#x4d8;" horiz-adv-x="673" 
d="M252 0q-82 0 -129.5 39t-47.5 118v253h385v133q0 37 -40 37h-307v120h306q85 0 131.5 -40t46.5 -117v-407l-138 -136h-207zM398 120l62 62v114h-252v-140q0 -36 40 -36h150z" />
    <glyph glyph-name="uni04D9" unicode="&#x4d9;" horiz-adv-x="549" 
d="M209 -6q-75 0 -117.5 32t-42.5 102q0 52 2.5 96.5t5.5 67.5h302v58q0 20 -12.5 30.5t-33.5 10.5h-236v103h250q75 0 117 -35.5t42 -105.5v-225q0 -134 -159 -134h-118zM313 97q21 0 33.5 10.5t12.5 30.5v59h-191v-59q0 -21 12 -31t38 -10h95z" />
    <glyph glyph-name="uni04E8" unicode="&#x4e8;" horiz-adv-x="684" 
d="M247 -6q-79 0 -125 38t-46 116v404q0 78 46 116.5t125 38.5h193q79 0 124 -38.5t45 -116.5v-404q0 -78 -45 -116t-124 -38h-193zM208 410h268v133q0 23 -13.5 35.5t-36.5 12.5h-167q-24 0 -37.5 -12.5t-13.5 -35.5v-133zM426 110q23 0 36.5 12t13.5 35v140h-268v-140
q0 -23 13.5 -35t37.5 -12h167z" />
    <glyph glyph-name="uni04E9" unicode="&#x4e9;" horiz-adv-x="579" 
d="M222 -6q-75 0 -117 35.5t-42 105.5v224q0 70 42 106t117 36h136q73 0 115.5 -36t42.5 -106v-224q0 -70 -42.5 -105.5t-115.5 -35.5h-136zM192 307h195v46q0 21 -12 31.5t-33 10.5h-105q-21 0 -33 -10.5t-12 -31.5v-46zM342 100q21 0 33 10.5t12 30.5v60h-195v-60
q0 -20 12 -30.5t33 -10.5h105z" />
    <glyph glyph-name="Wgrave" unicode="&#x1e80;" horiz-adv-x="992" 
d="M380 0h-188l-176 700h146l128 -578l135 578h143l133 -578l130 578h145l-177 -700h-187l-116 486zM465 876l97 -138h-127l-116 138h146z" />
    <glyph glyph-name="wgrave" unicode="&#x1e81;" horiz-adv-x="774" 
d="M292 0h-147l-135 494h135l82 -353l101 353h123l101 -358l81 358h131l-136 -494h-146l-94 336zM360 691l97 -138h-127l-116 138h146z" />
    <glyph glyph-name="Wacute" unicode="&#x1e82;" horiz-adv-x="992" 
d="M380 0h-188l-176 700h146l128 -578l135 578h143l133 -578l130 578h145l-177 -700h-187l-116 486zM564 738h-126l97 138h145z" />
    <glyph glyph-name="wacute" unicode="&#x1e83;" horiz-adv-x="774" 
d="M292 0h-147l-135 494h135l82 -353l101 353h123l101 -358l81 358h131l-136 -494h-146l-94 336zM450 553h-126l97 138h145z" />
    <glyph glyph-name="Wdieresis" unicode="&#x1e84;" horiz-adv-x="992" 
d="M380 0h-188l-176 700h146l128 -578l135 578h143l133 -578l130 578h145l-177 -700h-187l-116 486zM332 753v112h126v-112h-126zM534 753v112h126v-112h-126z" />
    <glyph glyph-name="wdieresis" unicode="&#x1e85;" horiz-adv-x="774" 
d="M292 0h-147l-135 494h135l82 -353l101 353h123l101 -358l81 358h131l-136 -494h-146l-94 336zM225 579v112h126v-112h-126zM427 579v112h126v-112h-126z" />
    <glyph glyph-name="Germandbls" unicode="&#x1e9e;" horiz-adv-x="681" 
d="M74 500q0 58 22.5 103.5t67.5 71t111 25.5h325v-115l-159 -182h22q79 -1 118 -34.5t39 -110.5v-110q0 -76 -44 -112t-121 -36h-181v118h165q22 0 34.5 11.5t12.5 33.5v86q0 44 -47 44h-140v111l154 181h-164q-41 0 -60.5 -23.5t-19.5 -70.5v-491h-135v500z" />
    <glyph glyph-name="uni1EA0" unicode="&#x1ea0;" horiz-adv-x="680" 
d="M158 0h-138l230 700h184l226 -700h-140l-49 161h-262zM341 588l-99 -313h196zM274 -183v126h134v-126h-134z" />
    <glyph glyph-name="uni1EA1" unicode="&#x1ea1;" horiz-adv-x="534" 
d="M188 0q-75 0 -107.5 29.5t-32.5 90.5v62q0 45 14 70t44 35t82 10h160v60q0 17 -4.5 25.5t-13.5 11.5t-26 3h-204v97h213q55 0 88.5 -11.5t50 -40t16.5 -79.5v-363h-280zM348 94v118h-148q-19 0 -26.5 -7t-7.5 -25v-57q0 -15 8.5 -22t25.5 -7h148zM196 -183v126h134v-126
h-134z" />
    <glyph glyph-name="uni1EA2" unicode="&#x1ea2;" horiz-adv-x="680" 
d="M158 0h-138l230 700h184l226 -700h-140l-49 161h-262zM341 588l-99 -313h196zM393 900q37 0 57.5 -6t29 -19.5t8.5 -37.5v-15q0 -25 -9.5 -38.5t-31 -19t-59.5 -5.5v-20h-94v73h78q7 0 9.5 2t2.5 7v5q0 5 -2.5 6.5t-9.5 1.5h-136v66h157z" />
    <glyph glyph-name="uni1EA3" unicode="&#x1ea3;" horiz-adv-x="534" 
d="M188 0q-75 0 -107.5 29.5t-32.5 90.5v62q0 45 14 70t44 35t82 10h160v60q0 17 -4.5 25.5t-13.5 11.5t-26 3h-204v97h213q55 0 88.5 -11.5t50 -40t16.5 -79.5v-363h-280zM348 94v118h-148q-19 0 -26.5 -7t-7.5 -25v-57q0 -15 8.5 -22t25.5 -7h148zM311 715q37 0 57.5 -6
t29 -19.5t8.5 -37.5v-15q0 -25 -9.5 -38.5t-31 -19t-59.5 -5.5v-20h-94v73h78q7 0 9.5 2t2.5 7v5q0 5 -2.5 6.5t-9.5 1.5h-136v66h157z" />
    <glyph glyph-name="uni1EA4" unicode="&#x1ea4;" horiz-adv-x="680" 
d="M564 959h123l-109 -134h-104zM405 739l-65 69l-66 -69h-114l112 133h137l112 -133h-116zM20 0l230 700h184l226 -700h-140l-49 161h-262l-51 -161h-138zM341 588l-99 -313h196z" />
    <glyph glyph-name="uni1EA5" unicode="&#x1ea5;" horiz-adv-x="534" 
d="M404 640l89 134h122l-107 -134h-104zM336 554l-65 69l-65 -69h-113l111 133h136l111 -133h-115zM313 494q55 0 88.5 -11.5t50 -40t16.5 -79.5v-363h-280q-75 0 -107.5 29.5t-32.5 90.5v62q0 45 14 70t44 35t82 10h160v60q0 17 -4.5 25.5t-13.5 11.5t-26 3h-204v97h213z
M348 94v118h-148q-19 0 -26.5 -7t-7.5 -25v-57q0 -15 8.5 -22t25.5 -7h148z" />
    <glyph glyph-name="uni1EA6" unicode="&#x1ea6;" horiz-adv-x="680" 
d="M115 959l91 -134h-104l-109 134h122zM341 808l-66 -69h-116l112 133h137l112 -133h-114zM250 700h184l226 -700h-140l-49 161h-262l-51 -161h-138zM341 588l-99 -313h196z" />
    <glyph glyph-name="uni1EA7" unicode="&#x1ea7;" horiz-adv-x="534" 
d="M-71 774h121l90 -134h-104zM273 623l-65 -69h-115l111 133h136l111 -133h-113zM313 494q55 0 88.5 -11.5t50 -40t16.5 -79.5v-363h-280q-75 0 -107.5 29.5t-32.5 90.5v62q0 45 14 70t44 35t82 10h160v60q0 17 -4.5 25.5t-13.5 11.5t-26 3h-204v97h213zM348 94v118h-148
q-19 0 -26.5 -7t-7.5 -25v-57q0 -15 8.5 -22t25.5 -7h148z" />
    <glyph glyph-name="uni1EA8" unicode="&#x1ea8;" horiz-adv-x="680" 
d="M580 969q36 0 55.5 -6t28 -19.5t8.5 -37.5v-15q0 -25 -9 -38.5t-30 -19t-58 -5.5v-20h-92v73h76q7 0 9.5 2t2.5 7v5q0 4 -2.5 6t-9.5 2h-133v66h154zM404 731l-65 69l-66 -69h-114l112 133h137l112 -133h-116zM20 0l230 700h184l226 -700h-140l-49 161h-262l-51 -161
h-138zM341 588l-99 -313h196z" />
    <glyph glyph-name="uni1EA9" unicode="&#x1ea9;" horiz-adv-x="534" 
d="M508 791q35 0 55 -6t28.5 -19.5t8.5 -37.5v-15q0 -25 -9.5 -38.5t-30 -19t-57.5 -5.5v-20h-91v73h75q7 0 9.5 2t2.5 7v5q0 4 -2.5 6t-9.5 2h-131v66h152zM334 553l-65 69l-65 -69h-113l111 133h136l111 -133h-115zM313 494q55 0 88.5 -11.5t50 -40t16.5 -79.5v-363h-280
q-75 0 -107.5 29.5t-32.5 90.5v62q0 45 14 70t44 35t82 10h160v60q0 17 -4.5 25.5t-13.5 11.5t-26 3h-204v97h213zM348 94v118h-148q-19 0 -26.5 -7t-7.5 -25v-57q0 -15 8.5 -22t25.5 -7h148z" />
    <glyph glyph-name="uni1EAA" unicode="&#x1eaa;" horiz-adv-x="680" 
d="M158 0h-138l230 700h184l226 -700h-140l-49 161h-262zM341 588l-99 -313h196zM270 914q-6 -9 -6 -29h-81q0 54 27 83t74 29q22 0 38.5 -7t37.5 -20q3 -2 10 -6t12 -6t10 -2q13 0 19 9t6 30h80q0 -55 -26.5 -83.5t-74.5 -28.5q-23 0 -40 7t-36 19q-8 6 -16.5 10t-15.5 4
q-12 0 -18 -9zM410 860l115 -128h-119l-67 66l-67 -66h-117l115 128h140z" />
    <glyph glyph-name="uni1EAB" unicode="&#x1eab;" horiz-adv-x="534" 
d="M188 0q-75 0 -107.5 29.5t-32.5 90.5v62q0 45 14 70t44 35t82 10h160v60q0 17 -4.5 25.5t-13.5 11.5t-26 3h-204v97h213q55 0 88.5 -11.5t50 -40t16.5 -79.5v-363h-280zM348 94v118h-148q-19 0 -26.5 -7t-7.5 -25v-57q0 -15 8.5 -22t25.5 -7h148zM199 736q-6 -9 -6 -29
h-81q0 54 27 83t74 29q22 0 38.5 -7t37.5 -20q3 -2 10 -6t12 -6t10 -2q13 0 19 9t6 30h80q0 -55 -26.5 -83.5t-74.5 -28.5q-23 0 -40 7t-36 19q-8 6 -16.5 10t-15.5 4q-12 0 -18 -9zM339 682l115 -128h-119l-67 66l-67 -66h-117l115 128h140z" />
    <glyph glyph-name="uni1EAC" unicode="&#x1eac;" horiz-adv-x="680" 
d="M158 0h-138l230 700h184l226 -700h-140l-49 161h-262zM341 588l-99 -313h196zM277 -183v126h134v-126h-134zM412 871l115 -133h-119l-67 69l-67 -69h-117l115 133h140z" />
    <glyph glyph-name="uni1EAD" unicode="&#x1ead;" horiz-adv-x="534" 
d="M188 0q-75 0 -107.5 29.5t-32.5 90.5v62q0 45 14 70t44 35t82 10h160v60q0 17 -4.5 25.5t-13.5 11.5t-26 3h-204v97h213q55 0 88.5 -11.5t50 -40t16.5 -79.5v-363h-280zM348 94v118h-148q-19 0 -26.5 -7t-7.5 -25v-57q0 -15 8.5 -22t25.5 -7h148zM198 -183v126h134v-126
h-134zM341 686l115 -133h-119l-67 69l-67 -69h-117l115 133h140z" />
    <glyph glyph-name="uni1EAE" unicode="&#x1eae;" horiz-adv-x="680" 
d="M401 857h-126l97 133h145zM265 737.5q-33 14.5 -51.5 40.5t-18.5 60h107q0 -18 11 -29t29 -11q17 0 27.5 11t10.5 29h106q0 -34 -18 -60t-50.5 -40.5t-75.5 -14.5q-44 0 -77 14.5zM158 0h-138l230 700h184l226 -700h-140l-49 161h-262zM341 588l-99 -313h196z" />
    <glyph glyph-name="uni1EAF" unicode="&#x1eaf;" horiz-adv-x="534" 
d="M188 0q-75 0 -107.5 29.5t-32.5 90.5v62q0 45 14 70t44 35t82 10h160v60q0 17 -4.5 25.5t-13.5 11.5t-26 3h-204v97h213q55 0 88.5 -11.5t50 -40t16.5 -79.5v-363h-280zM348 94v118h-148q-19 0 -26.5 -7t-7.5 -25v-57q0 -15 8.5 -22t25.5 -7h148zM190 559
q-33 15 -51.5 42t-18.5 62h107q0 -19 11 -30t29 -11q17 0 27.5 11t10.5 30h106q0 -35 -18 -62t-50.5 -42t-75.5 -15q-44 0 -77 15zM326 686h-126l97 138h145z" />
    <glyph glyph-name="uni1EB0" unicode="&#x1eb0;" horiz-adv-x="680" 
d="M307 990l97 -133h-127l-116 133h146zM263 737.5q-33 14.5 -51.5 40.5t-18.5 60h107q0 -18 11 -29t29 -11q17 0 27.5 11t10.5 29h106q0 -34 -18 -60t-50.5 -40.5t-75.5 -14.5q-44 0 -77 14.5zM158 0h-138l230 700h184l226 -700h-140l-49 161h-262zM341 588l-99 -313h196z
" />
    <glyph glyph-name="uni1EB1" unicode="&#x1eb1;" horiz-adv-x="534" 
d="M188 0q-75 0 -107.5 29.5t-32.5 90.5v62q0 45 14 70t44 35t82 10h160v60q0 17 -4.5 25.5t-13.5 11.5t-26 3h-204v97h213q55 0 88.5 -11.5t50 -40t16.5 -79.5v-363h-280zM348 94v118h-148q-19 0 -26.5 -7t-7.5 -25v-57q0 -15 8.5 -22t25.5 -7h148zM188 559
q-33 15 -51.5 42t-18.5 62h107q0 -19 11 -30t29 -11q17 0 27.5 11t10.5 30h106q0 -35 -18 -62t-50.5 -42t-75.5 -15q-44 0 -77 15zM231 824l97 -138h-127l-116 138h146z" />
    <glyph glyph-name="uni1EB2" unicode="&#x1eb2;" horiz-adv-x="680" 
d="M393 997q37 0 57.5 -5.5t29 -18.5t8.5 -37v-14q0 -24 -9.5 -37t-31 -18.5t-59.5 -5.5v-19h-94v70h78q7 0 9.5 2t2.5 7v5q0 4 -2.5 5.5t-9.5 1.5h-136v64h157zM266 737.5q-33 14.5 -51.5 40.5t-18.5 60h107q0 -18 11 -29t29 -11q17 0 27.5 11t10.5 29h106q0 -34 -18 -60
t-50.5 -40.5t-75.5 -14.5q-44 0 -77 14.5zM158 0h-138l230 700h184l226 -700h-140l-49 161h-262zM341 588l-99 -313h196z" />
    <glyph glyph-name="uni1EB3" unicode="&#x1eb3;" horiz-adv-x="534" 
d="M188 0q-75 0 -107.5 29.5t-32.5 90.5v62q0 45 14 70t44 35t82 10h160v60q0 17 -4.5 25.5t-13.5 11.5t-26 3h-204v97h213q55 0 88.5 -11.5t50 -40t16.5 -79.5v-363h-280zM348 94v118h-148q-19 0 -26.5 -7t-7.5 -25v-57q0 -15 8.5 -22t25.5 -7h148zM189 559
q-33 15 -51.5 42t-18.5 62h107q0 -19 11 -30t29 -11q17 0 27.5 11t10.5 30h106q0 -35 -18 -62t-50.5 -42t-75.5 -15q-44 0 -77 15zM317 832q37 0 57.5 -6t29 -19.5t8.5 -37.5v-15q0 -25 -9.5 -38.5t-31 -19t-59.5 -5.5v-20h-94v73h78q7 0 9.5 2t2.5 7v5q0 5 -2.5 6.5
t-9.5 1.5h-136v66h157z" />
    <glyph glyph-name="uni1EB4" unicode="&#x1eb4;" horiz-adv-x="680" 
d="M184 869q0 54 27 82.5t74 28.5q23 0 40 -7t36 -19q8 -6 16.5 -10t15.5 -4q13 0 19 9t6 29h80q0 -54 -26.5 -82.5t-74.5 -28.5q-23 0 -40 7t-36 19q-8 6 -16.5 10t-15.5 4q-12 0 -18 -9t-6 -29h-81zM265 737.5q-33 14.5 -51.5 40.5t-18.5 60h107q0 -18 11 -29t29 -11
q17 0 27.5 11t10.5 29h106q0 -34 -18 -60t-50.5 -40.5t-75.5 -14.5q-44 0 -77 14.5zM158 0h-138l230 700h184l226 -700h-140l-49 161h-262zM341 588l-99 -313h196z" />
    <glyph glyph-name="uni1EB5" unicode="&#x1eb5;" horiz-adv-x="534" 
d="M188 0q-75 0 -107.5 29.5t-32.5 90.5v62q0 45 14 70t44 35t82 10h160v60q0 17 -4.5 25.5t-13.5 11.5t-26 3h-204v97h213q55 0 88.5 -11.5t50 -40t16.5 -79.5v-363h-280zM348 94v118h-148q-19 0 -26.5 -7t-7.5 -25v-57q0 -15 8.5 -22t25.5 -7h148zM195 559
q-33 15 -51.5 42t-18.5 62h107q0 -19 11 -30t29 -11q17 0 27.5 11t10.5 30h106q0 -35 -18 -62t-50.5 -42t-75.5 -15q-44 0 -77 15zM113 697q0 56 27 85t74 29q22 0 38.5 -7t37.5 -20q3 -2 10 -6t12 -6t10 -2q13 0 19 9t6 30h80q0 -56 -27 -85t-74 -29q-22 0 -38.5 7
t-37.5 20q-3 2 -10 6t-12 6t-10 2q-12 0 -18 -9t-6 -30h-81z" />
    <glyph glyph-name="uni1EB6" unicode="&#x1eb6;" horiz-adv-x="680" 
d="M158 0h-138l230 700h184l226 -700h-140l-49 161h-262zM341 588l-99 -313h196zM276 -183v126h134v-126h-134zM265 743q-33 15 -51.5 42t-18.5 62h107q0 -19 11 -30t29 -11q17 0 27.5 11t10.5 30h106q0 -35 -18 -62t-50.5 -42t-75.5 -15q-44 0 -77 15z" />
    <glyph glyph-name="uni1EB7" unicode="&#x1eb7;" horiz-adv-x="534" 
d="M188 0q-75 0 -107.5 29.5t-32.5 90.5v62q0 45 14 70t44 35t82 10h160v60q0 17 -4.5 25.5t-13.5 11.5t-26 3h-204v97h213q55 0 88.5 -11.5t50 -40t16.5 -79.5v-363h-280zM348 94v118h-148q-19 0 -26.5 -7t-7.5 -25v-57q0 -15 8.5 -22t25.5 -7h148zM199 -183v126h134v-126
h-134zM188 559q-33 15 -51.5 42t-18.5 62h107q0 -19 11 -30t29 -11q17 0 27.5 11t10.5 30h106q0 -35 -18 -62t-50.5 -42t-75.5 -15q-44 0 -77 15z" />
    <glyph glyph-name="uni1EB8" unicode="&#x1eb8;" horiz-adv-x="564" 
d="M520 0h-441v700h431v-78l-42 -42h-254v-171h285v-71l-42 -42h-243v-176h306v-120zM233 -183v126h134v-126h-134z" />
    <glyph glyph-name="uni1EB9" unicode="&#x1eb9;" horiz-adv-x="549" 
d="M222 0q-75 0 -117 35t-42 105v227q0 134 159 134h118q75 0 117.5 -32t42.5 -102q0 -46 -2.5 -90t-5.5 -67h-302v-60q0 -20 12.5 -31t33.5 -11h236v-108h-250zM190 305h191v59q0 21 -12 31t-38 10h-95q-21 0 -33.5 -10.5t-12.5 -30.5v-59zM224 -183v126h134v-126h-134z
" />
    <glyph glyph-name="uni1EBA" unicode="&#x1eba;" horiz-adv-x="564" 
d="M520 0h-441v700h431v-78l-42 -42h-254v-171h285v-71l-42 -42h-243v-176h306v-120zM344 900q37 0 57.5 -6t29 -19.5t8.5 -37.5v-15q0 -25 -9.5 -38.5t-31 -19t-59.5 -5.5v-20h-94v73h78q7 0 9.5 2t2.5 7v5q0 5 -2.5 6.5t-9.5 1.5h-136v66h157z" />
    <glyph glyph-name="uni1EBB" unicode="&#x1ebb;" horiz-adv-x="549" 
d="M222 0q-75 0 -117 35t-42 105v227q0 134 159 134h118q75 0 117.5 -32t42.5 -102q0 -46 -2.5 -90t-5.5 -67h-302v-60q0 -20 12.5 -31t33.5 -11h236v-108h-250zM190 305h191v59q0 21 -12 31t-38 10h-95q-21 0 -33.5 -10.5t-12.5 -30.5v-59zM325 715q37 0 57.5 -6t29 -19.5
t8.5 -37.5v-15q0 -25 -9.5 -38.5t-31 -19t-59.5 -5.5v-20h-94v73h78q7 0 9.5 2t2.5 7v5q0 5 -2.5 6.5t-9.5 1.5h-136v66h157z" />
    <glyph glyph-name="uni1EBC" unicode="&#x1ebc;" horiz-adv-x="564" 
d="M520 0h-441v700h431v-78l-42 -42h-254v-171h285v-71l-42 -42h-243v-176h306v-120zM143 739q0 56 27 85t74 29q22 0 38.5 -7t37.5 -20q3 -2 10 -6t12 -6t10 -2q13 0 19 9t6 30h80q0 -56 -27 -85t-74 -29q-22 0 -38.5 7t-37.5 20q-3 2 -10 6t-12 6t-10 2q-12 0 -18 -9
t-6 -30h-81z" />
    <glyph glyph-name="uni1EBD" unicode="&#x1ebd;" horiz-adv-x="549" 
d="M222 0q-75 0 -117 35t-42 105v227q0 134 159 134h118q75 0 117.5 -32t42.5 -102q0 -46 -2.5 -90t-5.5 -67h-302v-60q0 -20 12.5 -31t33.5 -11h236v-108h-250zM190 305h191v59q0 21 -12 31t-38 10h-95q-21 0 -33.5 -10.5t-12.5 -30.5v-59zM124 554q0 56 27 85t74 29
q22 0 38.5 -7t37.5 -20q3 -2 10 -6t12 -6t10 -2q13 0 19 9t6 30h80q0 -56 -27 -85t-74 -29q-22 0 -38.5 7t-37.5 20q-3 2 -10 6t-12 6t-10 2q-12 0 -18 -9t-6 -30h-81z" />
    <glyph glyph-name="uni1EBE" unicode="&#x1ebe;" horiz-adv-x="564" 
d="M429 825l90 134h123l-109 -134h-104zM360 739l-65 69l-66 -69h-114l112 133h137l112 -133h-116zM457 296h-243v-176h306v-120h-441v700h431v-78l-42 -42h-254v-171h285v-71z" />
    <glyph glyph-name="uni1EBF" unicode="&#x1ebf;" horiz-adv-x="549" 
d="M416 640l89 134h122l-107 -134h-104zM348 554l-65 69l-65 -69h-113l111 133h136l111 -133h-115zM340 501q75 0 117.5 -32t42.5 -102q0 -46 -2.5 -90t-5.5 -67h-302v-60q0 -20 12.5 -31t33.5 -11h236v-108h-250q-75 0 -117 35t-42 105v227q0 134 159 134h118zM381 305v59
q0 21 -12 31t-38 10h-95q-21 0 -33.5 -10.5t-12.5 -30.5v-59h191z" />
    <glyph glyph-name="uni1EC0" unicode="&#x1ec0;" horiz-adv-x="564" 
d="M-51 959h122l91 -134h-104zM297 808l-66 -69h-116l112 133h137l112 -133h-114zM214 296v-176h306v-120h-441v700h431v-78l-42 -42h-254v-171h285v-71l-42 -42h-243z" />
    <glyph glyph-name="uni1EC1" unicode="&#x1ec1;" horiz-adv-x="549" 
d="M-61 774h121l90 -134h-104zM283 623l-65 -69h-115l111 133h136l111 -133h-113zM190 210v-60q0 -20 12.5 -31t33.5 -11h236v-108h-250q-75 0 -117 35t-42 105v227q0 134 159 134h118q75 0 117.5 -32t42.5 -102q0 -46 -2.5 -90t-5.5 -67h-302zM190 305h191v59q0 21 -12 31
t-38 10h-95q-21 0 -33.5 -10.5t-12.5 -30.5v-59z" />
    <glyph glyph-name="uni1EC2" unicode="&#x1ec2;" horiz-adv-x="564" 
d="M536 969q36 0 55.5 -6t28 -19.5t8.5 -37.5v-15q0 -25 -9 -38.5t-30 -19t-58 -5.5v-20h-92v73h76q7 0 9.5 2t2.5 7v5q0 5 -2.5 6.5t-9.5 1.5h-133v66h154zM360 731l-65 69l-66 -69h-114l112 133h137l112 -133h-116zM457 296h-243v-176h306v-120h-441v700h431v-78l-42 -42
h-254v-171h285v-71z" />
    <glyph glyph-name="uni1EC3" unicode="&#x1ec3;" horiz-adv-x="549" 
d="M521 791q35 0 55 -6t28.5 -19.5t8.5 -37.5v-15q0 -25 -9.5 -38.5t-30 -19t-57.5 -5.5v-20h-91v73h75q7 0 9.5 2t2.5 7v5q0 5 -2.5 6.5t-9.5 1.5h-131v66h152zM347 553l-65 69l-65 -69h-113l111 133h136l111 -133h-115zM340 501q75 0 117.5 -32t42.5 -102q0 -46 -2.5 -90
t-5.5 -67h-302v-60q0 -20 12.5 -31t33.5 -11h236v-108h-250q-75 0 -117 35t-42 105v227q0 134 159 134h118zM381 305v59q0 21 -12 31t-38 10h-95q-21 0 -33.5 -10.5t-12.5 -30.5v-59h191z" />
    <glyph glyph-name="uni1EC4" unicode="&#x1ec4;" horiz-adv-x="564" 
d="M520 0h-441v700h431v-78l-42 -42h-254v-171h285v-71l-42 -42h-243v-176h306v-120zM228 914q-6 -9 -6 -29h-81q0 54 27 83t74 29q22 0 38.5 -7t37.5 -20q3 -2 10 -6t12 -6t10 -2q13 0 19 9t6 30h80q0 -55 -26.5 -83.5t-74.5 -28.5q-23 0 -40 7t-36 19q-8 6 -16.5 10
t-15.5 4q-12 0 -18 -9zM368 860l115 -128h-119l-67 66l-67 -66h-117l115 128h140z" />
    <glyph glyph-name="uni1EC5" unicode="&#x1ec5;" horiz-adv-x="549" 
d="M222 0q-75 0 -117 35t-42 105v227q0 134 159 134h118q75 0 117.5 -32t42.5 -102q0 -46 -2.5 -90t-5.5 -67h-302v-60q0 -20 12.5 -31t33.5 -11h236v-108h-250zM190 305h191v59q0 21 -12 31t-38 10h-95q-21 0 -33.5 -10.5t-12.5 -30.5v-59zM210 736q-6 -9 -6 -29h-81
q0 54 27 83t74 29q22 0 38.5 -7t37.5 -20q3 -2 10 -6t12 -6t10 -2q13 0 19 9t6 30h80q0 -55 -26.5 -83.5t-74.5 -28.5q-23 0 -40 7t-36 19q-8 6 -16.5 10t-15.5 4q-12 0 -18 -9zM350 682l115 -128h-119l-67 66l-67 -66h-117l115 128h140z" />
    <glyph glyph-name="uni1EC6" unicode="&#x1ec6;" horiz-adv-x="564" 
d="M520 0h-441v700h431v-78l-42 -42h-254v-171h285v-71l-42 -42h-243v-176h306v-120zM234 -183v126h134v-126h-134zM365 871l115 -133h-119l-67 69l-67 -69h-117l115 133h140z" />
    <glyph glyph-name="uni1EC7" unicode="&#x1ec7;" horiz-adv-x="549" 
d="M222 0q-75 0 -117 35t-42 105v227q0 134 159 134h118q75 0 117.5 -32t42.5 -102q0 -46 -2.5 -90t-5.5 -67h-302v-60q0 -20 12.5 -31t33.5 -11h236v-108h-250zM190 305h191v59q0 21 -12 31t-38 10h-95q-21 0 -33.5 -10.5t-12.5 -30.5v-59zM222 -183v126h134v-126h-134z
M353 686l115 -133h-119l-67 69l-67 -69h-117l115 133h140z" />
    <glyph glyph-name="uni1EC8" unicode="&#x1ec8;" horiz-adv-x="293" 
d="M214 0h-135v700h135v-700zM198 900q37 0 57.5 -6t29 -19.5t8.5 -37.5v-15q0 -25 -9.5 -38.5t-31 -19t-59.5 -5.5v-20h-94v73h78q7 0 9.5 2t2.5 7v5q0 5 -2.5 6.5t-9.5 1.5h-136v66h157z" />
    <glyph glyph-name="uni1EC9" unicode="&#x1ec9;" horiz-adv-x="271" 
d="M71 0v494h129v-494h-129zM188 715q37 0 57.5 -6t29 -19.5t8.5 -37.5v-15q0 -25 -9.5 -38.5t-31 -19t-59.5 -5.5v-20h-94v73h78q7 0 9.5 2t2.5 7v5q0 5 -2.5 6.5t-9.5 1.5h-136v66h157z" />
    <glyph glyph-name="uni1ECA" unicode="&#x1eca;" horiz-adv-x="293" 
d="M214 0h-135v700h135v-700zM79 -183v126h134v-126h-134z" />
    <glyph glyph-name="uni1ECB" unicode="&#x1ecb;" horiz-adv-x="271" 
d="M205 570h-139v130h139v-130zM200 0h-129v494h129v-494zM68 -183v126h134v-126h-134z" />
    <glyph glyph-name="uni1ECC" unicode="&#x1ecc;" horiz-adv-x="684" 
d="M245 -6q-79 0 -124 38t-45 116v404q0 78 45.5 116.5t123.5 38.5h195q78 0 123.5 -38.5t45.5 -116.5v-404q0 -78 -45 -116t-124 -38h-195zM424 112q23 0 36.5 12t13.5 35v382q0 23 -13.5 35.5t-36.5 12.5h-163q-24 0 -37.5 -12.5t-13.5 -35.5v-382q0 -23 13.5 -35
t37.5 -12h163zM280 -183v126h134v-126h-134z" />
    <glyph glyph-name="uni1ECD" unicode="&#x1ecd;" horiz-adv-x="579" 
d="M222 -6q-75 0 -117 35t-42 105v226q0 70 42 105.5t117 35.5h135q74 0 116.5 -36t42.5 -105v-226q0 -69 -42.5 -104.5t-116.5 -35.5h-135zM342 102q21 0 33 11t12 31v207q0 20 -12 31t-33 11h-105q-21 0 -33 -11t-12 -31v-207q0 -21 12 -31.5t33 -10.5h105zM223 -183v126
h134v-126h-134z" />
    <glyph glyph-name="uni1ECE" unicode="&#x1ece;" horiz-adv-x="684" 
d="M245 -6q-79 0 -124 38t-45 116v404q0 78 45.5 116.5t123.5 38.5h195q78 0 123.5 -38.5t45.5 -116.5v-404q0 -78 -45 -116t-124 -38h-195zM424 112q23 0 36.5 12t13.5 35v382q0 23 -13.5 35.5t-36.5 12.5h-163q-24 0 -37.5 -12.5t-13.5 -35.5v-382q0 -23 13.5 -35
t37.5 -12h163zM394 900q37 0 57.5 -6t29 -19.5t8.5 -37.5v-15q0 -25 -9.5 -38.5t-31 -19t-59.5 -5.5v-20h-94v73h78q7 0 9.5 2t2.5 7v5q0 5 -2.5 6.5t-9.5 1.5h-136v66h157z" />
    <glyph glyph-name="uni1ECF" unicode="&#x1ecf;" horiz-adv-x="579" 
d="M222 -6q-75 0 -117 35t-42 105v226q0 70 42 105.5t117 35.5h135q74 0 116.5 -36t42.5 -105v-226q0 -69 -42.5 -104.5t-116.5 -35.5h-135zM342 102q21 0 33 11t12 31v207q0 20 -12 31t-33 11h-105q-21 0 -33 -11t-12 -31v-207q0 -21 12 -31.5t33 -10.5h105zM340 715
q37 0 57.5 -6t29 -19.5t8.5 -37.5v-15q0 -25 -9.5 -38.5t-31 -19t-59.5 -5.5v-20h-94v73h78q7 0 9.5 2t2.5 7v5q0 5 -2.5 6.5t-9.5 1.5h-136v66h157z" />
    <glyph glyph-name="uni1ED0" unicode="&#x1ed0;" horiz-adv-x="684" 
d="M565 959h123l-109 -134h-104zM406 739l-65 69l-66 -69h-114l112 133h137l112 -133h-116zM440 707q78 0 123.5 -38.5t45.5 -116.5v-404q0 -78 -45 -116t-124 -38h-195q-79 0 -124 38t-45 116v404q0 78 45.5 116.5t123.5 38.5h195zM474 541q0 23 -13.5 35.5t-36.5 12.5
h-163q-24 0 -37.5 -12.5t-13.5 -35.5v-382q0 -23 13.5 -35t37.5 -12h163q23 0 36.5 12t13.5 35v382z" />
    <glyph glyph-name="uni1ED1" unicode="&#x1ed1;" horiz-adv-x="579" 
d="M423 640l89 134h122l-107 -134h-104zM355 554l-65 69l-65 -69h-113l111 133h136l111 -133h-115zM357 501q74 0 116.5 -36t42.5 -105v-226q0 -69 -42.5 -104.5t-116.5 -35.5h-135q-75 0 -117 35t-42 105v226q0 70 42 105.5t117 35.5h135zM387 351q0 20 -12 31t-33 11h-105
q-21 0 -33 -11t-12 -31v-207q0 -21 12 -31.5t33 -10.5h105q21 0 33 11t12 31v207z" />
    <glyph glyph-name="uni1ED2" unicode="&#x1ed2;" horiz-adv-x="684" 
d="M116 959l91 -134h-104l-109 134h122zM342 808l-66 -69h-116l112 133h137l112 -133h-114zM440 707q78 0 123.5 -38.5t45.5 -116.5v-404q0 -78 -45 -116t-124 -38h-195q-79 0 -124 38t-45 116v404q0 78 45.5 116.5t123.5 38.5h195zM474 541q0 23 -13.5 35.5t-36.5 12.5
h-163q-24 0 -37.5 -12.5t-13.5 -35.5v-382q0 -23 13.5 -35t37.5 -12h163q23 0 36.5 12t13.5 35v382z" />
    <glyph glyph-name="uni1ED3" unicode="&#x1ed3;" horiz-adv-x="579" 
d="M-54 774h121l90 -134h-104zM290 623l-65 -69h-115l111 133h136l111 -133h-113zM357 501q74 0 116.5 -36t42.5 -105v-226q0 -69 -42.5 -104.5t-116.5 -35.5h-135q-75 0 -117 35t-42 105v226q0 70 42 105.5t117 35.5h135zM387 351q0 20 -12 31t-33 11h-105q-21 0 -33 -11
t-12 -31v-207q0 -21 12 -31.5t33 -10.5h105q21 0 33 11t12 31v207z" />
    <glyph glyph-name="uni1ED4" unicode="&#x1ed4;" horiz-adv-x="684" 
d="M582 969q36 0 55.5 -6t28 -19.5t8.5 -37.5v-15q0 -25 -9 -38.5t-30 -19t-58 -5.5v-20h-92v73h76q7 0 9.5 2t2.5 7v5q0 5 -2.5 6.5t-9.5 1.5h-133v66h154zM406 731l-65 69l-66 -69h-114l112 133h137l112 -133h-116zM440 707q78 0 123.5 -38.5t45.5 -116.5v-404
q0 -78 -45 -116t-124 -38h-195q-79 0 -124 38t-45 116v404q0 78 45.5 116.5t123.5 38.5h195zM474 541q0 23 -13.5 35.5t-36.5 12.5h-163q-24 0 -37.5 -12.5t-13.5 -35.5v-382q0 -23 13.5 -35t37.5 -12h163q23 0 36.5 12t13.5 35v382z" />
    <glyph glyph-name="uni1ED5" unicode="&#x1ed5;" horiz-adv-x="579" 
d="M525 791q35 0 55 -6t28.5 -19.5t8.5 -37.5v-15q0 -25 -9.5 -38.5t-30 -19t-57.5 -5.5v-20h-91v73h75q7 0 9.5 2t2.5 7v5q0 5 -2.5 6.5t-9.5 1.5h-131v66h152zM351 553l-65 69l-65 -69h-113l111 133h136l111 -133h-115zM357 501q74 0 116.5 -36t42.5 -105v-226
q0 -69 -42.5 -104.5t-116.5 -35.5h-135q-75 0 -117 35t-42 105v226q0 70 42 105.5t117 35.5h135zM387 351q0 20 -12 31t-33 11h-105q-21 0 -33 -11t-12 -31v-207q0 -21 12 -31.5t33 -10.5h105q21 0 33 11t12 31v207z" />
    <glyph glyph-name="uni1ED6" unicode="&#x1ed6;" horiz-adv-x="684" 
d="M245 -6q-79 0 -124 38t-45 116v404q0 78 45.5 116.5t123.5 38.5h195q78 0 123.5 -38.5t45.5 -116.5v-404q0 -78 -45 -116t-124 -38h-195zM424 112q23 0 36.5 12t13.5 35v382q0 23 -13.5 35.5t-36.5 12.5h-163q-24 0 -37.5 -12.5t-13.5 -35.5v-382q0 -23 13.5 -35
t37.5 -12h163zM270 914q-6 -9 -6 -29h-81q0 54 27 83t74 29q22 0 38.5 -7t37.5 -20q3 -2 10 -6t12 -6t10 -2q13 0 19 9t6 30h80q0 -55 -26.5 -83.5t-74.5 -28.5q-23 0 -40 7t-36 19q-8 6 -16.5 10t-15.5 4q-12 0 -18 -9zM410 860l115 -128h-119l-67 66l-67 -66h-117l115 128
h140z" />
    <glyph glyph-name="uni1ED7" unicode="&#x1ed7;" horiz-adv-x="579" 
d="M222 -6q-75 0 -117 35t-42 105v226q0 70 42 105.5t117 35.5h135q74 0 116.5 -36t42.5 -105v-226q0 -69 -42.5 -104.5t-116.5 -35.5h-135zM342 102q21 0 33 11t12 31v207q0 20 -12 31t-33 11h-105q-21 0 -33 -11t-12 -31v-207q0 -21 12 -31.5t33 -10.5h105zM218 736
q-6 -9 -6 -29h-81q0 54 27 83t74 29q22 0 38.5 -7t37.5 -20q3 -2 10 -6t12 -6t10 -2q13 0 19 9t6 30h80q0 -55 -26.5 -83.5t-74.5 -28.5q-23 0 -40 7t-36 19q-8 6 -16.5 10t-15.5 4q-12 0 -18 -9zM358 682l115 -128h-119l-67 66l-67 -66h-117l115 128h140z" />
    <glyph glyph-name="uni1ED8" unicode="&#x1ed8;" horiz-adv-x="684" 
d="M245 -6q-79 0 -124 38t-45 116v404q0 78 45.5 116.5t123.5 38.5h195q78 0 123.5 -38.5t45.5 -116.5v-404q0 -78 -45 -116t-124 -38h-195zM424 112q23 0 36.5 12t13.5 35v382q0 23 -13.5 35.5t-36.5 12.5h-163q-24 0 -37.5 -12.5t-13.5 -35.5v-382q0 -23 13.5 -35
t37.5 -12h163zM277 -183v126h134v-126h-134zM414 871l115 -133h-119l-67 69l-67 -69h-117l115 133h140z" />
    <glyph glyph-name="uni1ED9" unicode="&#x1ed9;" horiz-adv-x="579" 
d="M222 -6q-75 0 -117 35t-42 105v226q0 70 42 105.5t117 35.5h135q74 0 116.5 -36t42.5 -105v-226q0 -69 -42.5 -104.5t-116.5 -35.5h-135zM342 102q21 0 33 11t12 31v207q0 20 -12 31t-33 11h-105q-21 0 -33 -11t-12 -31v-207q0 -21 12 -31.5t33 -10.5h105zM223 -183v126
h134v-126h-134zM359 686l115 -133h-119l-67 69l-67 -69h-117l115 133h140z" />
    <glyph glyph-name="uni1EDA" unicode="&#x1eda;" horiz-adv-x="684" 
d="M624 780h91v-99q0 -53 -28 -82t-78 -35v-12v-404q0 -78 -45 -116t-124 -38h-195q-79 0 -124 38t-45 116v404q0 78 45.5 116.5t123.5 38.5h195q50 0 87.5 -16t58.5 -48q18 1 28 10.5t10 27.5v99zM474 541q0 23 -13.5 35.5t-36.5 12.5h-163q-24 0 -37.5 -12.5t-13.5 -35.5
v-382q0 -23 13.5 -35t37.5 -12h163q23 0 36.5 12t13.5 35v382zM402 738h-126l97 138h145z" />
    <glyph glyph-name="uni1EDB" unicode="&#x1edb;" horiz-adv-x="589" 
d="M526 578h91v-99q0 -51 -27 -80t-74 -36v-3v-226q0 -69 -42.5 -104.5t-116.5 -35.5h-135q-75 0 -117 35t-42 105v226q0 70 42 105.5t117 35.5h135q48 0 83 -15t54 -44q15 2 23.5 11.5t8.5 25.5v99zM387 351q0 20 -12 31t-33 11h-105q-21 0 -33 -11t-12 -31v-207
q0 -21 12 -31.5t33 -10.5h105q21 0 33 11t12 31v207zM345 553h-126l97 138h145z" />
    <glyph glyph-name="uni1EDC" unicode="&#x1edc;" horiz-adv-x="684" 
d="M624 780h91v-99q0 -53 -28 -82t-78 -35v-12v-404q0 -78 -45 -116t-124 -38h-195q-79 0 -124 38t-45 116v404q0 78 45.5 116.5t123.5 38.5h195q50 0 87.5 -16t58.5 -48q18 1 28 10.5t10 27.5v99zM474 541q0 23 -13.5 35.5t-36.5 12.5h-163q-24 0 -37.5 -12.5t-13.5 -35.5
v-382q0 -23 13.5 -35t37.5 -12h163q23 0 36.5 12t13.5 35v382zM315 876l97 -138h-127l-116 138h146z" />
    <glyph glyph-name="uni1EDD" unicode="&#x1edd;" horiz-adv-x="589" 
d="M526 578h91v-99q0 -51 -27 -80t-74 -36v-3v-226q0 -69 -42.5 -104.5t-116.5 -35.5h-135q-75 0 -117 35t-42 105v226q0 70 42 105.5t117 35.5h135q48 0 83 -15t54 -44q15 2 23.5 11.5t8.5 25.5v99zM387 351q0 20 -12 31t-33 11h-105q-21 0 -33 -11t-12 -31v-207
q0 -21 12 -31.5t33 -10.5h105q21 0 33 11t12 31v207zM259 691l97 -138h-127l-116 138h146z" />
    <glyph glyph-name="uni1EDE" unicode="&#x1ede;" horiz-adv-x="684" 
d="M624 780h91v-99q0 -53 -28 -82t-78 -35v-12v-404q0 -78 -45 -116t-124 -38h-195q-79 0 -124 38t-45 116v404q0 78 45.5 116.5t123.5 38.5h195q50 0 87.5 -16t58.5 -48q18 1 28 10.5t10 27.5v99zM474 541q0 23 -13.5 35.5t-36.5 12.5h-163q-24 0 -37.5 -12.5t-13.5 -35.5
v-382q0 -23 13.5 -35t37.5 -12h163q23 0 36.5 12t13.5 35v382zM394 900q37 0 57.5 -6t29 -19.5t8.5 -37.5v-15q0 -25 -9.5 -38.5t-31 -19t-59.5 -5.5v-20h-94v73h78q7 0 9.5 2t2.5 7v5q0 5 -2.5 6.5t-9.5 1.5h-136v66h157z" />
    <glyph glyph-name="uni1EDF" unicode="&#x1edf;" horiz-adv-x="589" 
d="M526 578h91v-99q0 -51 -27 -80t-74 -36v-3v-226q0 -69 -42.5 -104.5t-116.5 -35.5h-135q-75 0 -117 35t-42 105v226q0 70 42 105.5t117 35.5h135q48 0 83 -15t54 -44q15 2 23.5 11.5t8.5 25.5v99zM387 351q0 20 -12 31t-33 11h-105q-21 0 -33 -11t-12 -31v-207
q0 -21 12 -31.5t33 -10.5h105q21 0 33 11t12 31v207zM339 715q37 0 57.5 -6t29 -19.5t8.5 -37.5v-15q0 -25 -9.5 -38.5t-31 -19t-59.5 -5.5v-20h-94v73h78q7 0 9.5 2t2.5 7v5q0 5 -2.5 6.5t-9.5 1.5h-136v66h157z" />
    <glyph glyph-name="uni1EE0" unicode="&#x1ee0;" horiz-adv-x="684" 
d="M624 780h91v-99q0 -53 -28 -82t-78 -35v-12v-404q0 -78 -45 -116t-124 -38h-195q-79 0 -124 38t-45 116v404q0 78 45.5 116.5t123.5 38.5h195q50 0 87.5 -16t58.5 -48q18 1 28 10.5t10 27.5v99zM474 541q0 23 -13.5 35.5t-36.5 12.5h-163q-24 0 -37.5 -12.5t-13.5 -35.5
v-382q0 -23 13.5 -35t37.5 -12h163q23 0 36.5 12t13.5 35v382zM185 739q0 56 27 85t74 29q22 0 38.5 -7t37.5 -20q3 -2 10 -6t12 -6t10 -2q13 0 19 9t6 30h80q0 -56 -27 -85t-74 -29q-22 0 -38.5 7t-37.5 20q-3 2 -10 6t-12 6t-10 2q-12 0 -18 -9t-6 -30h-81z" />
    <glyph glyph-name="uni1EE1" unicode="&#x1ee1;" horiz-adv-x="589" 
d="M526 578h91v-99q0 -51 -27 -80t-74 -36v-3v-226q0 -69 -42.5 -104.5t-116.5 -35.5h-135q-75 0 -117 35t-42 105v226q0 70 42 105.5t117 35.5h135q48 0 83 -15t54 -44q15 2 23.5 11.5t8.5 25.5v99zM387 351q0 20 -12 31t-33 11h-105q-21 0 -33 -11t-12 -31v-207
q0 -21 12 -31.5t33 -10.5h105q21 0 33 11t12 31v207zM130 564q0 56 27 85t74 29q22 0 38.5 -7t37.5 -20q3 -2 10 -6t12 -6t10 -2q13 0 19 9t6 30h80q0 -56 -27 -85t-74 -29q-22 0 -38.5 7t-37.5 20q-3 2 -10 6t-12 6t-10 2q-12 0 -18 -9t-6 -30h-81z" />
    <glyph glyph-name="uni1EE2" unicode="&#x1ee2;" horiz-adv-x="684" 
d="M624 780h91v-99q0 -53 -28 -82t-78 -35v-12v-404q0 -78 -45 -116t-124 -38h-195q-79 0 -124 38t-45 116v404q0 78 45.5 116.5t123.5 38.5h195q50 0 87.5 -16t58.5 -48q18 1 28 10.5t10 27.5v99zM474 541q0 23 -13.5 35.5t-36.5 12.5h-163q-24 0 -37.5 -12.5t-13.5 -35.5
v-382q0 -23 13.5 -35t37.5 -12h163q23 0 36.5 12t13.5 35v382zM275 -183v126h134v-126h-134z" />
    <glyph glyph-name="uni1EE3" unicode="&#x1ee3;" horiz-adv-x="589" 
d="M526 578h91v-99q0 -51 -27 -80t-74 -36v-3v-226q0 -69 -42.5 -104.5t-116.5 -35.5h-135q-75 0 -117 35t-42 105v226q0 70 42 105.5t117 35.5h135q48 0 83 -15t54 -44q15 2 23.5 11.5t8.5 25.5v99zM387 351q0 20 -12 31t-33 11h-105q-21 0 -33 -11t-12 -31v-207
q0 -21 12 -31.5t33 -10.5h105q21 0 33 11t12 31v207zM224 -183v126h134v-126h-134z" />
    <glyph glyph-name="uni1EE4" unicode="&#x1ee4;" horiz-adv-x="683" 
d="M249 -6q-79 0 -125 38.5t-46 116.5v551h133v-539q0 -22 15 -34.5t38 -12.5h155q23 0 38 12.5t15 34.5v539h133v-551q0 -78 -46 -116.5t-125 -38.5h-185zM274 -183v126h134v-126h-134z" />
    <glyph glyph-name="uni1EE5" unicode="&#x1ee5;" horiz-adv-x="565" 
d="M224 0q-75 0 -117 35.5t-42 105.5v353h128v-335q0 -27 13 -39t40 -12h123v386h129v-494h-274zM221 -183v126h134v-126h-134z" />
    <glyph glyph-name="uni1EE6" unicode="&#x1ee6;" horiz-adv-x="683" 
d="M249 -6q-79 0 -125 38.5t-46 116.5v551h133v-539q0 -22 15 -34.5t38 -12.5h155q23 0 38 12.5t15 34.5v539h133v-551q0 -78 -46 -116.5t-125 -38.5h-185zM393 900q37 0 57.5 -6t29 -19.5t8.5 -37.5v-15q0 -25 -9.5 -38.5t-31 -19t-59.5 -5.5v-20h-94v73h78q7 0 9.5 2
t2.5 7v5q0 5 -2.5 6.5t-9.5 1.5h-136v66h157z" />
    <glyph glyph-name="uni1EE7" unicode="&#x1ee7;" horiz-adv-x="565" 
d="M224 0q-75 0 -117 35.5t-42 105.5v353h128v-335q0 -27 13 -39t40 -12h123v386h129v-494h-274zM335 715q37 0 57.5 -6t29 -19.5t8.5 -37.5v-15q0 -25 -9.5 -38.5t-31 -19t-59.5 -5.5v-20h-94v73h78q7 0 9.5 2t2.5 7v5q0 5 -2.5 6.5t-9.5 1.5h-136v66h157z" />
    <glyph glyph-name="uni1EE8" unicode="&#x1ee8;" horiz-adv-x="689" 
d="M652 780h91v-99q0 -60 -35.5 -89t-96.5 -29h-6v-414q0 -78 -46 -116.5t-125 -38.5h-185q-79 0 -125 38.5t-46 116.5v551h133v-539q0 -22 15 -34.5t38 -12.5h155q23 0 38 12.5t15 34.5v539h133v-57h6q19 0 30 10t11 28v99zM396 738h-126l97 138h145z" />
    <glyph glyph-name="uni1EE9" unicode="&#x1ee9;" horiz-adv-x="606" 
d="M541 578h91v-99q0 -60 -35.5 -89t-96.5 -29h-2v-361h-274q-75 0 -117 35.5t-42 105.5v353h128v-335q0 -27 13 -39t40 -12h123v386h129v-53h2q19 0 30 10t11 28v99zM341 553h-126l97 138h145z" />
    <glyph glyph-name="uni1EEA" unicode="&#x1eea;" horiz-adv-x="689" 
d="M652 780h91v-99q0 -60 -35.5 -89t-96.5 -29h-6v-414q0 -78 -46 -116.5t-125 -38.5h-185q-79 0 -125 38.5t-46 116.5v551h133v-539q0 -22 15 -34.5t38 -12.5h155q23 0 38 12.5t15 34.5v539h133v-57h6q19 0 30 10t11 28v99zM312 876l97 -138h-127l-116 138h146z" />
    <glyph glyph-name="uni1EEB" unicode="&#x1eeb;" horiz-adv-x="606" 
d="M541 578h91v-99q0 -60 -35.5 -89t-96.5 -29h-2v-361h-274q-75 0 -117 35.5t-42 105.5v353h128v-335q0 -27 13 -39t40 -12h123v386h129v-53h2q19 0 30 10t11 28v99zM250 691l97 -138h-127l-116 138h146z" />
    <glyph glyph-name="uni1EEC" unicode="&#x1eec;" horiz-adv-x="689" 
d="M652 780h91v-99q0 -60 -35.5 -89t-96.5 -29h-6v-414q0 -78 -46 -116.5t-125 -38.5h-185q-79 0 -125 38.5t-46 116.5v551h133v-539q0 -22 15 -34.5t38 -12.5h155q23 0 38 12.5t15 34.5v539h133v-57h6q19 0 30 10t11 28v99zM393 900q37 0 57.5 -6t29 -19.5t8.5 -37.5v-15
q0 -25 -9.5 -38.5t-31 -19t-59.5 -5.5v-20h-94v73h78q7 0 9.5 2t2.5 7v5q0 5 -2.5 6.5t-9.5 1.5h-136v66h157z" />
    <glyph glyph-name="uni1EED" unicode="&#x1eed;" horiz-adv-x="606" 
d="M541 578h91v-99q0 -60 -35.5 -89t-96.5 -29h-2v-361h-274q-75 0 -117 35.5t-42 105.5v353h128v-335q0 -27 13 -39t40 -12h123v386h129v-53h2q19 0 30 10t11 28v99zM334 715q37 0 57.5 -6t29 -19.5t8.5 -37.5v-15q0 -25 -9.5 -38.5t-31 -19t-59.5 -5.5v-20h-94v73h78
q7 0 9.5 2t2.5 7v5q0 5 -2.5 6.5t-9.5 1.5h-136v66h157z" />
    <glyph glyph-name="uni1EEE" unicode="&#x1eee;" horiz-adv-x="689" 
d="M652 780h91v-99q0 -60 -35.5 -89t-96.5 -29h-6v-414q0 -78 -46 -116.5t-125 -38.5h-185q-79 0 -125 38.5t-46 116.5v551h133v-539q0 -22 15 -34.5t38 -12.5h155q23 0 38 12.5t15 34.5v539h133v-57h6q19 0 30 10t11 28v99zM182 739q0 56 27 85t74 29q22 0 38.5 -7
t37.5 -20q3 -2 10 -6t12 -6t10 -2q13 0 19 9t6 30h80q0 -56 -27 -85t-74 -29q-22 0 -38.5 7t-37.5 20q-3 2 -10 6t-12 6t-10 2q-12 0 -18 -9t-6 -30h-81z" />
    <glyph glyph-name="uni1EEF" unicode="&#x1eef;" horiz-adv-x="606" 
d="M541 578h91v-99q0 -60 -35.5 -89t-96.5 -29h-2v-361h-274q-75 0 -117 35.5t-42 105.5v353h128v-335q0 -27 13 -39t40 -12h123v386h129v-53h2q19 0 30 10t11 28v99zM125 564q0 56 27 85t74 29q22 0 38.5 -7t37.5 -20q3 -2 10 -6t12 -6t10 -2q13 0 19 9t6 30h80
q0 -56 -27 -85t-74 -29q-22 0 -38.5 7t-37.5 20q-3 2 -10 6t-12 6t-10 2q-12 0 -18 -9t-6 -30h-81z" />
    <glyph glyph-name="uni1EF0" unicode="&#x1ef0;" horiz-adv-x="689" 
d="M652 780h91v-99q0 -60 -35.5 -89t-96.5 -29h-6v-414q0 -78 -46 -116.5t-125 -38.5h-185q-79 0 -125 38.5t-46 116.5v551h133v-539q0 -22 15 -34.5t38 -12.5h155q23 0 38 12.5t15 34.5v539h133v-57h6q19 0 30 10t11 28v99zM266 -183v126h134v-126h-134z" />
    <glyph glyph-name="uni1EF1" unicode="&#x1ef1;" horiz-adv-x="606" 
d="M541 578h91v-99q0 -60 -35.5 -89t-96.5 -29h-2v-361h-274q-75 0 -117 35.5t-42 105.5v353h128v-335q0 -27 13 -39t40 -12h123v386h129v-53h2q19 0 30 10t11 28v99zM222 -183v126h134v-126h-134z" />
    <glyph glyph-name="Ygrave" unicode="&#x1ef2;" horiz-adv-x="610" 
d="M371 0h-134v274l-228 426h151l147 -304l152 304h142l-230 -426v-274zM279 876l97 -138h-127l-116 138h146z" />
    <glyph glyph-name="ygrave" unicode="&#x1ef3;" horiz-adv-x="512" 
d="M48 -189v103h70q32 0 49 12t25 40l22 65h-45l-159 463h137l111 -366l113 366h131l-141 -423l-37 -105q-21 -64 -48 -97.5t-61.5 -45.5t-86.5 -12h-80zM233 691l97 -138h-127l-116 138h146z" />
    <glyph glyph-name="uni1EF4" unicode="&#x1ef4;" horiz-adv-x="610" 
d="M371 0h-134v274l-228 426h151l147 -304l152 304h142l-230 -426v-274zM236 -183v126h134v-126h-134z" />
    <glyph glyph-name="uni1EF5" unicode="&#x1ef5;" horiz-adv-x="512" 
d="M48 -189v103h70q32 0 49 12t25 40l22 65h-45l-159 463h137l111 -366l113 366h131l-141 -423l-37 -105q-21 -64 -48 -97.5t-61.5 -45.5t-86.5 -12h-80zM361 -183v126h130v-126h-130z" />
    <glyph glyph-name="uni1EF6" unicode="&#x1ef6;" horiz-adv-x="610" 
d="M371 0h-134v274l-228 426h151l147 -304l152 304h142l-230 -426v-274zM361 900q37 0 57.5 -6t29 -19.5t8.5 -37.5v-15q0 -25 -9.5 -38.5t-31 -19t-59.5 -5.5v-20h-94v73h78q7 0 9.5 2t2.5 7v5q0 5 -2.5 6.5t-9.5 1.5h-136v66h157z" />
    <glyph glyph-name="uni1EF7" unicode="&#x1ef7;" horiz-adv-x="512" 
d="M48 -189v103h70q32 0 49 12t25 40l22 65h-45l-159 463h137l111 -366l113 366h131l-141 -423l-37 -105q-21 -64 -48 -97.5t-61.5 -45.5t-86.5 -12h-80zM312 715q37 0 57.5 -6t29 -19.5t8.5 -37.5v-15q0 -25 -9.5 -38.5t-31 -19t-59.5 -5.5v-20h-94v73h78q7 0 9.5 2t2.5 7
v5q0 5 -2.5 6.5t-9.5 1.5h-136v66h157z" />
    <glyph glyph-name="uni1EF8" unicode="&#x1ef8;" horiz-adv-x="610" 
d="M371 0h-134v274l-228 426h151l147 -304l152 304h142l-230 -426v-274zM150 739q0 56 27 85t74 29q22 0 38.5 -7t37.5 -20q3 -2 10 -6t12 -6t10 -2q13 0 19 9t6 30h80q0 -56 -27 -85t-74 -29q-22 0 -38.5 7t-37.5 20q-3 2 -10 6t-12 6t-10 2q-12 0 -18 -9t-6 -30h-81z" />
    <glyph glyph-name="uni1EF9" unicode="&#x1ef9;" horiz-adv-x="512" 
d="M48 -189v103h70q32 0 49 12t25 40l22 65h-45l-159 463h137l111 -366l113 366h131l-141 -423l-37 -105q-21 -64 -48 -97.5t-61.5 -45.5t-86.5 -12h-80zM102 564q0 56 27 85t74 29q22 0 38.5 -7t37.5 -20q3 -2 10 -6t12 -6t10 -2q13 0 19 9t6 30h80q0 -56 -27 -85t-74 -29
q-22 0 -38.5 7t-37.5 20q-3 2 -10 6t-12 6t-10 2q-12 0 -18 -9t-6 -30h-81z" />
    <glyph glyph-name="uni1F06" unicode="&#x1f06;" horiz-adv-x="578" 
d="M127 740q0 56 27 85t74 29q22 0 38.5 -7t37.5 -20q3 -2 10 -6t12 -6t10 -2q13 0 19 9t6 30h80q0 -56 -26.5 -85t-74.5 -29q-22 0 -38.5 7t-37.5 20q-3 2 -10 6t-12 6t-10 2q-12 0 -18 -9t-6 -30h-81zM223 613v96h121v-98l-100 -83h-73zM550 0q-59 0 -90.5 9.5t-44 28.5
t-12.5 53q-14 -49 -41.5 -73t-79.5 -24h-39q-64 0 -101 15.5t-54 51.5t-17 99v185q0 73 39.5 114.5t127.5 41.5h40q41 0 65 -17.5t39 -50.5v56h117v-323q0 -26 3.5 -39t14 -19.5t33.5 -6.5v-101zM305 97q25 0 40.5 7t23 24.5t7.5 49.5v144q-7 38 -22.5 58.5t-49.5 20.5h-47
q-34 0 -49 -15.5t-15 -49.5v-165q0 -41 14.5 -57.5t50.5 -16.5h47z" />
    <glyph glyph-name="uni2010" unicode="&#x2010;" horiz-adv-x="380" 
d="M50 299h280v-96h-280v96z" />
    <glyph glyph-name="endash" unicode="&#x2013;" horiz-adv-x="580" 
d="M50 299h480v-96h-480v96z" />
    <glyph glyph-name="emdash" unicode="&#x2014;" horiz-adv-x="780" 
d="M50 299h680v-96h-680v96z" />
    <glyph glyph-name="quoteleft" unicode="&#x2018;" horiz-adv-x="287" 
d="M204 572v-129h-126v136l106 121h73z" />
    <glyph glyph-name="quoteright" unicode="&#x2019;" horiz-adv-x="287" 
d="M83 571v129h126v-136l-105 -121h-73z" />
    <glyph glyph-name="quotesinglbase" unicode="&#x201a;" horiz-adv-x="290" 
d="M83 9v152h130v-159l-109 -142h-73z" />
    <glyph glyph-name="quotedblleft" unicode="&#x201c;" horiz-adv-x="482" 
d="M204 572v-129h-126v136l106 121h73zM399 572v-129h-126v136l105 121h73z" />
    <glyph glyph-name="quotedblright" unicode="&#x201d;" horiz-adv-x="482" 
d="M83 571v129h126v-136l-105 -121h-73zM278 571v129h126v-136l-106 -121h-73z" />
    <glyph glyph-name="quotedblbase" unicode="&#x201e;" horiz-adv-x="489" 
d="M83 9v152h130v-159l-109 -142h-73zM281 9v152h130v-159l-109 -142h-73z" />
    <glyph glyph-name="dagger" unicode="&#x2020;" horiz-adv-x="348" 
d="M228 -150h-107v576h-103v96h103v248h107v-248h102v-96h-102v-576z" />
    <glyph glyph-name="daggerdbl" unicode="&#x2021;" horiz-adv-x="348" 
d="M228 -150h-107v248h-103v96h103v232h-103v96h103v248h107v-248h102v-96h-102v-232h102v-96h-102v-248z" />
    <glyph glyph-name="bullet" unicode="&#x2022;" horiz-adv-x="356" 
d="M110 190q-24 10 -34 33.5t-10 67.5t10 68t34 34t68 10t68 -10t34 -34t10 -68t-10 -67.5t-34 -33.5t-68 -10t-68 10z" />
    <glyph glyph-name="ellipsis" unicode="&#x2026;" horiz-adv-x="871" 
d="M64 0v161h163v-161h-163zM354 0v161h163v-161h-163zM644 0v161h163v-161h-163z" />
    <glyph glyph-name="perthousand" unicode="&#x2030;" horiz-adv-x="1108" 
d="M164 372q-43 0 -67 8t-36 29t-12 61v131q0 40 12 61.5t36.5 29.5t66.5 8h53q42 0 66.5 -8t36.5 -29.5t12 -61.5v-131q0 -40 -12 -61t-36.5 -29t-66.5 -8h-53zM212 0h-99l430 700h100zM207 453q12 0 19 6t7 18v117q0 12 -7 18t-19 6h-33q-12 0 -19 -6t-7 -18v-117
q0 -12 7 -18t19 -6h33zM547 -3q-42 0 -66.5 8t-36.5 29t-12 61v131q0 40 12 61.5t36.5 29.5t66.5 8h54q42 0 66 -8t36 -29.5t12 -61.5v-131q0 -40 -12 -61t-36 -29t-66 -8h-54zM891 -3q-43 0 -67.5 8t-36.5 29t-12 61v131q0 40 12 61.5t37 29.5t67 8h53q42 0 66.5 -8
t36.5 -29.5t12 -61.5v-131q0 -40 -12 -61t-36.5 -29t-66.5 -8h-53zM591 78q12 0 19 6t7 18v117q0 12 -7 18t-19 6h-34q-12 0 -18.5 -6t-6.5 -18v-117q0 -12 6.5 -18t18.5 -6h34zM934 78q12 0 19 6t7 18v117q0 12 -7 18t-19 6h-33q-12 0 -19 -6t-7 -18v-117q0 -12 7 -18
t19 -6h33z" />
    <glyph glyph-name="guilsinglleft" unicode="&#x2039;" horiz-adv-x="237" 
d="M52 327l156 156v-124l-94 -94l94 -94v-124l-156 156v124z" />
    <glyph glyph-name="guilsinglright" unicode="&#x203a;" horiz-adv-x="237" 
d="M28 359v124l156 -156v-124l-156 -156v124l95 94z" />
    <glyph glyph-name="fraction" unicode="&#x2044;" horiz-adv-x="297" 
d="M-12 0h-96l417 700h96z" />
    <glyph glyph-name="dong" unicode="&#x20ab;" horiz-adv-x="568" 
d="M499 636h45v-84h-45v-552h-277q-74 0 -116.5 35.5t-42.5 105.5v212q0 70 42.5 105.5t116.5 35.5h148v58h-126v84h126v64h129v-64zM370 109v277h-133q-21 0 -33 -10.5t-12 -31.5v-194q0 -20 12 -30.5t33 -10.5h133zM510 -153h-445v91h445v-91z" />
    <glyph glyph-name="Euro" unicode="&#x20ac;" horiz-adv-x="584" 
d="M290 579q-23 0 -36.5 -12t-13.5 -35v-69h190v-75h-190v-75h190v-75h-190v-69q0 -23 13.5 -35.5t36.5 -12.5h258v-121h-274q-79 0 -125 38t-46 117v83h-70v75h70v75h-70v75h70v83q0 78 46 116t125 38h274v-79l-41 -42h-217z" />
    <glyph glyph-name="uni20BD" unicode="&#x20bd;" horiz-adv-x="611" 
d="M578 476q0 -64 -17.5 -104t-57.5 -59.5t-109 -19.5h-160v-57h271v-109h-271v-127h-135v127h-79v109h79v57h-79v109h79v298h294q72 0 111.5 -16t56.5 -55t17 -110v-43zM448 529q0 27 -13 39.5t-41 12.5h-160v-179h160q28 0 41 12.5t13 39.5v75z" />
    <glyph glyph-name="uni2116" unicode="&#x2116;" horiz-adv-x="1024" 
d="M205 0h-126v700h199l214 -546v546h125v-700h-191l-221 571v-571zM793 370q-49 0 -76.5 23t-27.5 69v146q0 46 27.5 69t76.5 23h87q49 0 76.5 -23.5t27.5 -68.5v-146q0 -45 -27.5 -68.5t-76.5 -23.5h-87zM860 457q11 0 18 6.5t7 17.5v108q0 11 -7 17.5t-18 6.5h-47
q-11 0 -18 -6.5t-7 -17.5v-108q0 -11 7 -17.5t18 -6.5h47zM974 235h-275v85h275v-85z" />
    <glyph glyph-name="trademark" unicode="&#x2122;" horiz-adv-x="808" 
d="M46 780h281v-77h-94v-256h-94v256h-93v77zM747 780v-333h-92v234l-58 -154h-81l-58 150v-230h-92v333h129l62 -163l62 163h128z" />
    <glyph glyph-name="Omega" unicode="&#x2126;" horiz-adv-x="667" 
d="M612 111v-111h-239v148q41 0 65 28t24 80v290q0 22 -13.5 34t-35.5 12h-158q-23 0 -36.5 -12t-13.5 -34v-290q0 -52 24 -80t65 -28v-148h-238v111h92q-75 46 -75 145v300q0 76 44.5 113t121.5 37h189q77 0 121.5 -37t44.5 -113v-300q0 -99 -74 -145h92z" />
    <glyph glyph-name="partialdiff" unicode="&#x2202;" horiz-adv-x="551" 
d="M113 700q190 0 290.5 -77t100.5 -254v-234q0 -70 -42 -105.5t-117 -35.5h-135q-74 0 -116 35.5t-42 105.5v152q0 71 42.5 107.5t115.5 36.5h161q-8 57 -36 90.5t-81.5 49.5t-140.5 16v113zM330 103q21 0 33 10.5t12 30.5v178h-150q-21 0 -33 -10.5t-12 -31.5v-136
q0 -20 12 -30.5t33 -10.5h105z" />
    <glyph glyph-name="Delta" unicode="&#x2206;" horiz-adv-x="647" 
d="M417 700l227 -700h-641l230 700h184zM325 595l-148 -481h293z" />
    <glyph glyph-name="product" unicode="&#x220f;" horiz-adv-x="623" 
d="M60 -180v880h503v-880h-122v765h-259v-765h-122z" />
    <glyph glyph-name="summation" unicode="&#x2211;" horiz-adv-x="595" 
d="M437 267l-236 -328h347v-115h-501v102l247 341l-234 332v101h483v-115h-329z" />
    <glyph glyph-name="minus" unicode="&#x2212;" 
d="M84 202v114h432v-114h-432z" />
    <glyph glyph-name="uni2215" unicode="&#x2215;" horiz-adv-x="512" 
d="M163 0h-113l299 700h113z" />
    <glyph glyph-name="uni2219" unicode="&#x2219;" horiz-adv-x="496" 
d="M166 255v161h164v-161h-164z" />
    <glyph glyph-name="radical" unicode="&#x221a;" horiz-adv-x="722" 
d="M365 -21l222 721h126l-270 -880h-131l-151 308l-95 -45l-42 89l199 95z" />
    <glyph glyph-name="infinity" unicode="&#x221e;" horiz-adv-x="733" 
d="M170 157q-72 0 -109.5 42.5t-37.5 113.5v58q0 68 37.5 109.5t109.5 41.5h60q38 0 62 -7t42 -27.5t28 -61.5h8q10 41 28 61.5t42 27.5t62 7h60q72 0 109.5 -41.5t37.5 -109.5v-58q0 -71 -37.5 -113.5t-109.5 -42.5h-60q-38 0 -62 7t-42 29t-28 65h-8q-10 -43 -28 -65
t-42 -29t-62 -7h-60zM233 257q29 0 44 7t23 24t16 54q-8 37 -16 54t-23 24t-44 7h-41q-29 0 -44 -16.5t-15 -42.5v-52q0 -27 14.5 -43t44.5 -16h41zM540 257q30 0 44.5 16t14.5 43v52q0 26 -14.5 42.5t-44.5 16.5h-41q-29 0 -43.5 -7t-22.5 -24t-16 -54q8 -37 16 -54
t22.5 -24t43.5 -7h41z" />
    <glyph glyph-name="integral" unicode="&#x222b;" horiz-adv-x="362" 
d="M33 -175v96h53q19 0 26 9.5t7 34.5v621q0 66 34.5 96.5t102.5 30.5h73v-96h-53q-18 0 -25.5 -9.5t-7.5 -34.5v-621q0 -66 -34.5 -96.5t-102.5 -30.5h-73z" />
    <glyph glyph-name="approxequal" unicode="&#x2248;" 
d="M510 301q-28 -18 -52.5 -26.5t-48.5 -8.5q-47 0 -109 35q-31 18 -57.5 26.5t-51.5 8.5t-49.5 -8.5t-51.5 -26.5v108q27 18 51.5 26.5t49.5 8.5t51.5 -8.5t57.5 -26.5q62 -35 109 -35q24 0 48.5 8.5t52.5 26.5v-108zM510 100q-28 -18 -52.5 -26.5t-48.5 -8.5
q-47 0 -109 35q-31 18 -57.5 26.5t-51.5 8.5t-49.5 -8.5t-51.5 -26.5v108q27 18 51.5 26.5t49.5 8.5t51.5 -8.5t57.5 -26.5q62 -35 109 -35q24 0 48.5 8.5t52.5 26.5v-108z" />
    <glyph glyph-name="notequal" unicode="&#x2260;" 
d="M516 410v-107h-133l-56 -95h189v-106h-253l-61 -102h-110l61 102h-69v106h133l56 95h-189v107h254l60 101h110l-60 -101h68z" />
    <glyph glyph-name="lessequal" unicode="&#x2264;" 
d="M86 399l430 164v-108l-308 -113l308 -114v-107l-430 163v115zM516 0h-431v105h431v-105z" />
    <glyph glyph-name="greaterequal" unicode="&#x2265;" 
d="M514 284l-430 -163v107l308 114l-308 113v108l430 -164v-115zM84 0v105h432v-105h-432z" />
    <glyph glyph-name="uni2421" unicode="&#x2421;" horiz-adv-x="975" 
d="M335.5 761q22.5 -19 22.5 -58v-205l-69 -69h-217v351h200q41 0 63.5 -19zM664 569h-143v-63h153v-77h-249v351h244v-76h-148v-62h143v-73zM832 780v-273h125v-78h-221v351h96zM263 540v139q0 24 -25 24h-71v-197h63z" />
    <glyph glyph-name="lozenge" unicode="&#x25ca;" horiz-adv-x="631" 
d="M398 700l170 -390l-170 -390h-162l-173 390l173 390h162zM193 310l124 -290l121 290l-121 290z" />
    <glyph glyph-name="uniFEFF" unicode="&#xfeff;" horiz-adv-x="0" 
 />
    <glyph glyph-name="f_t" horiz-adv-x="640" 
d="M620 393h-101v-244q0 -20 3 -29t11 -11.5t25 -2.5h50v-106h-70q-63 0 -94 11.5t-42.5 41.5t-11.5 91v249h-182v-393h-128v393h-67v101h67v76q0 67 36 98.5t105 31.5h97v-98h-76q-19 0 -26.5 -9.5t-7.5 -35.5v-63h182v124h129v-124h101v-101z" />
    <glyph glyph-name="t_f" horiz-adv-x="645" 
d="M575 602q-19 0 -26 -9.5t-7 -35.5v-63h97v-101h-97v-393h-129v393h-192v-244q0 -20 3.5 -28.5t11 -11.5t24.5 -3h49v-106h-68q-63 0 -94 11.5t-42.5 41.5t-11.5 91v249h-85v101h85v124h128v-124h192v76q0 67 35.5 98.5t104.5 31.5h101v-98h-79z" />
    <glyph glyph-name="t_t" horiz-adv-x="661" 
d="M641 393h-101v-244q0 -20 3.5 -28.5t11 -11.5t24.5 -3h50v-106h-70q-63 0 -94 11.5t-42.5 41.5t-11.5 91v249h-190v-244q0 -20 3.5 -28.5t11 -11.5t24.5 -3h49v-106h-68q-63 0 -94 11.5t-42.5 41.5t-11.5 91v249h-85v101h85v124h128v-124h190v124h129v-124h101v-101z" />
    <glyph glyph-name="zero.ss02" horiz-adv-x="623" 
d="M387 706q79 0 124.5 -38t45.5 -115v-405q0 -78 -45.5 -116t-124.5 -38h-151q-79 0 -125 38t-46 116v405q0 77 46 115t125 38h151zM250 594q-26 0 -40.5 -13t-14.5 -39v-11l232 -235v246q0 26 -14.5 39t-39.5 13h-123zM373 107q25 0 39.5 13t14.5 38v11l-232 236v-247
q0 -25 15 -38t40 -13h123z" />
    <glyph glyph-name="one.ss02" horiz-adv-x="623" 
d="M421 0h-132v574l-175 -71v121l175 76h132v-700z" />
    <glyph glyph-name="two.ss02" horiz-adv-x="623" 
d="M66 151q0 76 16 120t57.5 70.5t122.5 44.5q69 15 100.5 27t41 25.5t9.5 37.5v58q0 23 -13 34.5t-37 11.5h-275v120h291q79 0 124.5 -38t45.5 -116v-70q0 -62 -17.5 -95t-60 -52t-131.5 -38q-63 -14 -91 -27.5t-37 -33.5t-9 -59v-54h351v-117h-488v151z" />
    <glyph glyph-name="three.ss02" horiz-adv-x="623" 
d="M80 0v119h274l61 62v71q0 50 -59 50h-243v115h244q53 0 53 71v45q0 28 -14 39t-45 11h-267v117h283q92 0 134 -33.5t42 -106.5v-70q0 -41 -21 -71.5t-58 -47.5q43 -12 65 -40t22 -75v-124l-133 -132h-338z" />
    <glyph glyph-name="four.ss02" horiz-adv-x="623" 
d="M502 0h-133v159h-325v137l261 404h197v-421h83v-120h-83v-159zM369 581l-197 -302h197v302z" />
    <glyph glyph-name="five.ss02" horiz-adv-x="623" 
d="M76 0v119h289l61 61v84q0 23 -13.5 34.5t-36.5 11.5h-293v390h466v-75l-42 -42h-299v-157h183q80 0 125.5 -37t45.5 -115v-142l-133 -132h-353z" />
    <glyph glyph-name="six.ss02" horiz-adv-x="623" 
d="M414 436q73 0 115 -36t42 -106v-159q0 -70 -42 -105.5t-115 -35.5h-203q-74 0 -116.5 35.5t-42.5 105.5v159q0 61 26 96l210 310h150l-182 -264h158zM398 103q21 0 33 10.5t12 30.5v141q0 21 -12 31.5t-33 10.5h-171q-21 0 -33.5 -11t-12.5 -31v-141q0 -20 12.5 -30.5
t33.5 -10.5h171z" />
    <glyph glyph-name="seven.ss02" horiz-adv-x="623" 
d="M313 0h-147l247 583h-359v117h496v-117z" />
    <glyph glyph-name="eight.ss02" horiz-adv-x="623" 
d="M555.5 320.5q17.5 -29.5 17.5 -79.5v-92q0 -79 -45.5 -117t-126.5 -38h-179q-81 0 -127 38t-46 117v92q0 49 18 79t52 45q-48 34 -48 107v80q0 78 45.5 116t126.5 38h136q81 0 127 -38t46 -116v-80q0 -75 -48 -107q34 -15 51.5 -44.5zM203 472q0 -30 13.5 -44t37.5 -14
h116q24 0 37.5 14t13.5 44v73q0 23 -13.5 34.5t-37.5 11.5h-116q-24 0 -37.5 -11.5t-13.5 -34.5v-73zM390 111q24 0 37.5 12t13.5 35v85q0 35 -14.5 50.5t-44.5 15.5h-140q-30 0 -44.5 -15.5t-14.5 -50.5v-85q0 -23 13.5 -35t36.5 -12h157z" />
    <glyph glyph-name="nine.ss02" horiz-adv-x="623" 
d="M571 406q0 -65 -31 -102l-206 -304h-149l182 264h-158q-73 0 -115.5 36t-42.5 106v159q0 70 42.5 105.5t115.5 35.5h203q74 0 116.5 -35.5t42.5 -105.5v-159zM396 373q21 0 33.5 11t12.5 31v141q0 20 -12.5 30.5t-33.5 10.5h-171q-21 0 -33 -10.5t-12 -30.5v-141
q0 -20 12 -31t33 -11h171z" />
    <glyph glyph-name="colon.ss01" horiz-adv-x="291" 
d="M64 105v161h163v-161h-163zM64 438v161h163v-161h-163z" />
    <glyph glyph-name="hyphen.ss01" horiz-adv-x="380" 
d="M50 407h280v-96h-280v96z" />
    <glyph glyph-name="endash.ss01" horiz-adv-x="580" 
d="M50 407h480v-96h-480v96z" />
    <glyph glyph-name="emdash.ss01" horiz-adv-x="780" 
d="M50 407h680v-96h-680v96z" />
    <glyph glyph-name="uni03020301" horiz-adv-x="0" 
d="M-166 825l92 134h126l-111 -134h-107zM-233 872l115 -133h-119l-67 69l-67 -69h-117l115 133h140z" />
    <glyph glyph-name="uni03020300" horiz-adv-x="0" 
d="M-658 959h125l93 -134h-107zM-233 872l115 -133h-117l-67 69l-67 -69h-119l115 133h140z" />
    <glyph glyph-name="uni03020309" horiz-adv-x="0" 
d="M-199 864l115 -133h-119l-67 69l-67 -69h-117l115 133h140zM-23 969q37 0 57.5 -6t29 -19.5t8.5 -37.5v-15q0 -25 -9.5 -38.5t-31 -19t-59.5 -5.5v-20h-94v73h78q7 0 9.5 2t2.5 7v5q0 5 -2.5 6.5t-9.5 1.5h-136v66h157z" />
    <glyph glyph-name="uni03020303" horiz-adv-x="0" 
d="M-339 914q-6 -9 -6 -29h-81q0 54 27 83t74 29q22 0 38.5 -7t37.5 -20q3 -2 10 -6t12 -6t10 -2q13 0 19 9t6 30h80q0 -55 -26.5 -83.5t-74.5 -28.5q-23 0 -40 7t-36 19q-8 6 -16.5 10t-15.5 4q-12 0 -18 -9zM-199 860l115 -128h-119l-67 66l-67 -66h-117l115 128h140z" />
    <glyph glyph-name="logo" horiz-adv-x="6279" 
d="M4376 406q3 2 2.5 6t-4.5 4h-77q-2 0 -3.5 1.5t-0.5 3.5l3 12q3 7 7 11l101 76q4 3 3.5 6.5t-4.5 3.5h-75q-3 0 -4.5 1.5t-0.5 3.5l3 10q3 6 7 10l104 79q4 3 3 6.5t-5 3.5h-63q-5 0 -8 3t-3 8q0 6 5 16t6 13q34 73 93 127t122 77v-140l-115 -433l-1 -4q0 -4 3 -7t7 -3
h50q3 0 4.5 -2t0.5 -5l-7 -27q-3 -7 -9 -7h-331q-2 0 -4 2t-1 5l7 27q1 3 3.5 5t5.5 2h48q6 0 12 4t6 10v3q0 2 3 5t4 5zM347.5 446q8.5 -7 23.5 -7h483l-149 -178h-423l-70 -261h-207l187 700h741l-150 -179h-390q-23 0 -38.5 -15t-15.5 -40q0 -13 8.5 -20zM1578 700
q36 0 58 -22t22 -55q0 -15 -4 -28l-61 -230q-8 -29 -28.5 -52.5t-48 -37.5t-56.5 -14h-131l156 -261h-226l-156 261h-295l150 178h406q19 0 33.5 11t19.5 31q2 8 2 12q0 14 -9 21t-25 7h-498l149 179h542zM1965 521q-19 0 -32.5 -11t-18.5 -30q-2 -10 -2 -14q0 -13 8 -20
t24 -7h343l-150 -178h-241q-19 0 -33 -10.5t-19 -30.5q-2 -5 -2 -15q0 -13 8 -20t24 -7h492l-48 -178h-741l188 700h741l-151 -179h-390zM2789 521q-24 0 -39 -15t-15 -41q0 -13 8 -19.5t23 -6.5h344l-150 -178h-242q-19 0 -33 -10.5t-19 -30.5q-2 -10 -2 -13
q0 -14 8.5 -21.5t24.5 -7.5h492l-48 -178h-741l188 700h740l-149 -179h-390zM3721 466q0 -13 8.5 -20t24.5 -7h483l-150 -178h-422l-70 -261h-208l187 700h741l-149 -179h-391q-19 0 -33 -11t-19 -30q-2 -10 -2 -14zM5346 700q36 0 58.5 -22t22.5 -56q0 -9 -4 -27l-62 -230
q-8 -29 -28 -52.5t-47.5 -37.5t-56.5 -14h-132l157 -261h-226l-157 261h-294l149 178h406q20 0 34 11t19 31q2 10 2 13q0 13 -9 20t-25 7h-498l150 179h541zM5734 521q-20 0 -33.5 -10.5t-18.5 -30.5q-2 -10 -2 -14q0 -13 8 -20t24 -7h343l-150 -178h-241q-19 0 -33 -10.5
t-19 -30.5q-2 -10 -2 -14q0 -14 8 -21t24 -7h492l-48 -178h-740l187 700h741l-150 -179h-390zM4249 205q1 6 6.5 10t11.5 4h152q5 0 8 -4t2 -10l-44 -167q-4 -17 -17.5 -27.5t-31.5 -10.5h-142z" />
    </font>
</defs>
</svg>
