<?xml version="1.0" standalone="no"?>
<!DOCTYPE svg PUBLIC "-//W3C//DTD SVG 1.1//EN" "http://www.w3.org/Graphics/SVG/1.1/DTD/svg11.dtd" >
<svg xmlns="http://www.w3.org/2000/svg" xmlns:xlink="http://www.w3.org/1999/xlink" version="1.1">
<metadata>
Created by FontForge 20170731 at Thu May 19 13:14:23 2022
 By Aleksey,,,
Copyright (c) 2022 Garena Online. All rights reserved.
</metadata>
<defs>
<font id="GFF-Latin-Regular" horiz-adv-x="690" >
  <font-face 
    font-family="GFF Latin"
    font-weight="400"
    font-stretch="normal"
    units-per-em="1000"
    panose-1="2 12 5 4 2 2 4 8 2 3"
    ascent="760"
    descent="-240"
    x-height="494"
    cap-height="700"
    bbox="-584 -200 6274 997"
    underline-thickness="50"
    underline-position="-150"
    unicode-range="U+000D-FEFF"
  />
<missing-glyph horiz-adv-x="616" 
d="M536 0h-456v700h456v-700zM148 636v-572h319v572h-319z" />
    <glyph glyph-name="fl" unicode="fl" horiz-adv-x="548" 
d="M534 63v-63h-46q-47 0 -71.5 9.5t-34.5 35.5t-10 79v312h-209v-436h-73v436h-78v58h78v90q0 116 121 116h85v-58h-78q-29 0 -42 -15t-13 -50v-83h209v206h72v-575q0 -28 4.5 -41t14.5 -17t32 -4h39z" />
    <glyph glyph-name="f_f" unicode="ff" horiz-adv-x="552" 
d="M500 642q-29 0 -42 -15t-13 -50v-83h97v-58h-97v-436h-72v436h-210v-436h-73v436h-78v58h78v90q0 116 121 116h89v-58h-82q-29 0 -42 -15t-13 -50v-83h210v90q0 116 121 116h84v-58h-78z" />
    <glyph glyph-name=".notdef" horiz-adv-x="616" 
d="M536 0h-456v700h456v-700zM148 636v-572h319v572h-319z" />
    <glyph glyph-name=".null" horiz-adv-x="0" 
 />
    <glyph glyph-name="nonmarkingreturn" horiz-adv-x="333" 
 />
    <glyph glyph-name="NULL" horiz-adv-x="0" 
 />
    <glyph glyph-name="NULL" horiz-adv-x="0" 
 />
    <glyph glyph-name="CR" unicode="&#xd;" horiz-adv-x="220" 
 />
    <glyph glyph-name="space" unicode=" " horiz-adv-x="220" 
 />
    <glyph glyph-name="exclam" unicode="!" horiz-adv-x="331" 
d="M130 214l-6 486h82l-6 -486h-70zM110 0v117h111v-117h-111z" />
    <glyph glyph-name="quotedbl" unicode="&#x22;" horiz-adv-x="314" 
d="M59 455v245h62v-245h-62zM193 455v245h62v-245h-62z" />
    <glyph glyph-name="numbersign" unicode="#" horiz-adv-x="662" 
d="M636 524v-67h-124l-36 -196h130v-67h-143l-35 -194h-71l35 194h-182l-35 -194h-71l35 194h-113v67h126l36 196h-132v67h144l32 176h71l-32 -176h182l32 176h71l-32 -176h112zM223 261h182l36 196h-182z" />
    <glyph glyph-name="dollar" unicode="$" horiz-adv-x="566" 
d="M366 378q64 -10 97.5 -42t33.5 -101v-79q0 -72 -39 -106t-108 -34h-40v-123h-51v123h-175v69h266q37 0 57 16t20 55v79q0 37 -19.5 53t-57.5 22l-150 25q-64 11 -97.5 44.5t-33.5 104.5v60q0 72 39 106t108 34h43v120h51v-120h163v-41l-28 -28h-229q-37 0 -57 -16
t-20 -55v-60q0 -38 20 -57t57 -25z" />
    <glyph glyph-name="percent" unicode="%" horiz-adv-x="719" 
d="M51 601q0 39 11.5 60.5t34 30t60.5 8.5h50q38 0 60.5 -8.5t34 -30t11.5 -60.5v-124q0 -39 -11.5 -60t-34 -29.5t-60.5 -8.5h-50q-38 0 -60.5 8.5t-34 29.5t-11.5 60v124zM178 0h-65l429 700h65zM113 477q0 -47 44 -47h50q44 0 44 47v124q0 25 -11.5 36t-32.5 11h-50
q-21 0 -32.5 -11t-11.5 -36v-124zM406 218q0 39 11.5 60t34 29.5t60.5 8.5h50q38 0 60.5 -8.5t34 -29.5t11.5 -60v-125q0 -39 -11.5 -60t-34 -29.5t-60.5 -8.5h-50q-38 0 -60.5 8.5t-34 29.5t-11.5 60v125zM468 93q0 -24 11.5 -35.5t32.5 -11.5h50q45 0 45 47v125
q0 47 -45 47h-50q-21 0 -32.5 -11.5t-11.5 -35.5v-125z" />
    <glyph glyph-name="ampersand" unicode="&#x26;" horiz-adv-x="674" 
d="M647 0h-92l-98 104l-103 -104h-113q-66 0 -105.5 16.5t-57 51t-17.5 90.5v57q0 48 12.5 76t37.5 45t72 37l16 7l-14 15q-28 31 -41.5 51t-18.5 40t-5 52v47q0 62 34.5 91.5t103.5 29.5h96q51 0 80.5 -11.5t42.5 -37.5t13 -72v-56q0 -39 -10 -63.5t-35.5 -42.5t-73.5 -38
l-61 -25l149 -160l105 104l47 -45l-107 -107zM266 407l77 31q30 13 45.5 24t22.5 26t7 40v57q0 34 -15 47.5t-49 13.5h-97q-36 0 -50.5 -13.5t-14.5 -47.5v-47q0 -23 4.5 -39t14.5 -30.5t31 -36.5zM319 62l92 91l-167 179l-22 -9q-38 -16 -56.5 -29.5t-25.5 -31.5t-7 -47
v-58q0 -53 26 -74t82 -21h78z" />
    <glyph glyph-name="quotesingle" unicode="'" horiz-adv-x="205" 
d="M71 455v245h62v-245h-62z" />
    <glyph glyph-name="parenleft" unicode="(" horiz-adv-x="339" 
d="M201 -165q-52 43 -84 89.5t-47.5 105.5t-15.5 139v272q0 80 15.5 139t47.5 105.5t84 89.5h88q-62 -50 -97 -95t-51 -101.5t-16 -137.5v-272q0 -81 16 -137.5t51 -101.5t97 -95h-88z" />
    <glyph glyph-name="parenright" unicode=")" horiz-adv-x="339" 
d="M50 -165q62 50 96.5 95t50.5 101.5t16 137.5v272q0 81 -16 137.5t-50.5 101.5t-96.5 95h87q53 -43 85 -89.5t47.5 -105.5t15.5 -139v-272q0 -80 -15.5 -139t-47.5 -105.5t-85 -89.5h-87z" />
    <glyph glyph-name="asterisk" unicode="*" horiz-adv-x="426" 
d="M328 651l30 -52l-85 -49l85 -49l-30 -52l-85 49v-98h-60v98l-85 -49l-30 52l85 49l-85 49l30 52l85 -49v98h60v-98z" />
    <glyph glyph-name="plus" unicode="+" horiz-adv-x="600" 
d="M335 39h-69v190h-189v68h189v188h69v-188h189v-68h-189v-190z" />
    <glyph glyph-name="comma" unicode="," horiz-adv-x="271" 
d="M98 6v111h75v-116l-84 -126h-43z" />
    <glyph glyph-name="hyphen" unicode="-" horiz-adv-x="380" 
d="M50 279h280v-56h-280v56z" />
    <glyph glyph-name="period" unicode="." horiz-adv-x="270" 
d="M79 0v117h112v-117h-112z" />
    <glyph glyph-name="slash" unicode="/" horiz-adv-x="511" 
d="M143 0h-74l299 700h74z" />
    <glyph glyph-name="zero" unicode="0" horiz-adv-x="615" 
d="M373 706q72 0 114 -37.5t42 -114.5v-408q0 -77 -42 -114.5t-114 -37.5h-130q-73 0 -115 37.5t-42 114.5v408q0 77 42 114.5t115 37.5h130zM243 641q-38 0 -60.5 -22t-22.5 -65v-9l296 -308v317q0 43 -23 65t-60 22h-130zM373 60q37 0 60 22t23 64v9l-296 307v-316
q0 -42 22.5 -64t60.5 -22h130z" />
    <glyph glyph-name="one" unicode="1" horiz-adv-x="369" 
d="M272 0h-72v628l-175 -72v70l175 74h72v-700z" />
    <glyph glyph-name="two" unicode="2" horiz-adv-x="597" 
d="M73 161q0 69 17.5 109t59 62.5t118.5 38.5q79 16 114.5 30t46.5 32t11 53v66q0 79 -86 79h-258v69h258q77 0 120 -35.5t43 -112.5v-66q0 -59 -16.5 -89t-58.5 -48t-132 -37q-72 -16 -105.5 -31.5t-45 -41.5t-11.5 -76v-96h374v-67h-449v161z" />
    <glyph glyph-name="three" unicode="3" horiz-adv-x="583" 
d="M67 0v69h269l94 94v90q0 44 -22.5 61t-70.5 17h-236v69h236q44 0 63.5 23t19.5 74v57q0 43 -21 61t-64 18h-262v67h262q82 0 121 -32.5t39 -105.5v-65q0 -46 -20 -77t-55 -48q44 -11 65 -40t21 -79v-117l-137 -136h-302z" />
    <glyph glyph-name="four" unicode="4" horiz-adv-x="574" 
d="M448 0h-75v177h-339v77l304 446h110v-454h102v-69h-102v-177zM373 630l-263 -384h263v384z" />
    <glyph glyph-name="five" unicode="5" horiz-adv-x="594" 
d="M78 0v69h276l94 94v98q0 39 -21 59.5t-57 20.5h-285v359h421v-39l-28 -28h-324v-223h216q71 0 112.5 -37t41.5 -112v-125l-137 -136h-309z" />
    <glyph glyph-name="six" unicode="6" horiz-adv-x="603" 
d="M386 424q72 0 112.5 -35.5t40.5 -105.5v-148q0 -70 -40.5 -105.5t-112.5 -35.5h-169q-72 0 -112.5 35.5t-40.5 105.5v148q0 61 29 98l223 319h83l-193 -276h180zM386 59q39 0 60 19.5t21 57.5v146q0 38 -21 57.5t-60 19.5h-169q-38 0 -59.5 -19.5t-21.5 -57.5v-146
q0 -38 21.5 -57.5t59.5 -19.5h169z" />
    <glyph glyph-name="seven" unicode="7" horiz-adv-x="543" 
d="M242 0h-81l259 633h-386v67h462v-67z" />
    <glyph glyph-name="eight" unicode="8" horiz-adv-x="603" 
d="M525.5 324q19.5 -31 19.5 -84v-97q0 -75 -40 -112t-116 -37h-175q-76 0 -116 37t-40 112v97q0 53 19.5 84t58.5 45q-55 30 -55 112v82q0 71 41.5 107t110.5 36h136q69 0 111 -36t42 -107v-82q0 -81 -55 -112q39 -14 58.5 -45zM156 481q0 -39 19.5 -61.5t59.5 -22.5h132
q41 0 60 22t19 62v82q0 35 -20.5 54.5t-56.5 19.5h-136q-36 0 -56.5 -19.5t-20.5 -54.5v-82zM389 63q80 0 80 80v97q0 48 -22 70t-73 22h-146q-50 0 -72 -22t-22 -70v-97q0 -80 80 -80h175z" />
    <glyph glyph-name="nine" unicode="9" horiz-adv-x="604" 
d="M540 417q0 -66 -33 -102l-220 -315h-83l194 276h-181q-72 0 -112.5 35.5t-40.5 105.5v148q0 70 40.5 105.5t112.5 35.5h169q73 0 113.5 -35.5t40.5 -105.5v-148zM386 341q38 0 59.5 19.5t21.5 57.5v146q0 38 -21.5 57.5t-59.5 19.5h-169q-38 0 -59.5 -19.5t-21.5 -57.5
v-146q0 -38 21.5 -57.5t59.5 -19.5h169z" />
    <glyph glyph-name="colon" unicode=":" horiz-adv-x="270" 
d="M79 0v117h112v-117h-112zM79 378v117h112v-117h-112z" />
    <glyph glyph-name="semicolon" unicode=";" horiz-adv-x="270" 
d="M79 378v117h112v-117h-112zM98 6v111h75v-116l-84 -126h-43z" />
    <glyph glyph-name="less" unicode="&#x3c;" horiz-adv-x="600" 
d="M92 293l416 170v-65l-350 -143l350 -143v-65l-416 170v76z" />
    <glyph glyph-name="equal" unicode="=" horiz-adv-x="600" 
d="M86 327v64h428v-64h-428zM86 128v64h428v-64h-428z" />
    <glyph glyph-name="greater" unicode="&#x3e;" horiz-adv-x="600" 
d="M92 398v65l416 -170v-76l-416 -170v65l350 143z" />
    <glyph glyph-name="question" unicode="?" horiz-adv-x="508" 
d="M205 275q0 39 14.5 68.5t36 50t55.5 46.5q30 23 47 39t28.5 37.5t11.5 48.5q0 39 -18 57.5t-58 18.5h-139q-41 0 -59 -16t-18 -53v-41h-71v39q0 71 35 103.5t111 32.5h142q72 0 110 -33.5t38 -107.5q0 -38 -14.5 -67t-35.5 -49t-54 -46q-31 -25 -48 -41t-29 -38.5
t-12 -50.5v-59h-73v61zM296 0h-109v114h109v-114z" />
    <glyph glyph-name="at" unicode="@" horiz-adv-x="922" 
d="M546 -58q71 0 113.5 5.5t76 20t70.5 43.5v-62q-32 -25 -64 -37.5t-77 -18t-120 -5.5h-178q-99 0 -158 23t-89 83t-30 170v274q0 99 28.5 158t85 84.5t145.5 25.5h236q88 0 142 -19t83 -69.5t29 -145.5v-205q0 -64 -9.5 -100t-38 -54t-84.5 -18h-33q-35 0 -55 8
t-28.5 24.5t-8.5 43.5q-11 -35 -35.5 -55.5t-68.5 -20.5h-49q-50 0 -78 12t-41 40.5t-13 81.5v141q0 64 29 96.5t98 32.5h49q42 0 64.5 -15t35.5 -49v53h55v-283q0 -23 3.5 -35.5t13.5 -18.5t29 -6h33q33 0 48.5 10.5t20.5 35.5t5 76v205q0 74 -19.5 112.5t-61 53
t-116.5 14.5h-235q-72 0 -114 -19.5t-61.5 -66t-19.5 -128.5v-276q0 -88 22 -135.5t67.5 -66t123.5 -18.5h179zM487 151q80 0 80 91v120q-10 43 -28 63t-55 20h-58q-38 0 -52.5 -17t-14.5 -58v-140q0 -31 6.5 -48t21 -24t42.5 -7h58z" />
    <glyph glyph-name="A" unicode="A" horiz-adv-x="652" 
d="M102 0h-78l252 700h102l250 -700h-79l-64 183h-319zM326 639l-136 -390h272z" />
    <glyph glyph-name="B" unicode="B" horiz-adv-x="640" 
d="M536 323.5q27 -26.5 27 -75.5v-92q0 -75 -43 -115.5t-130 -40.5h-295v700h280q82 0 121 -32.5t39 -105.5v-98q0 -39 -19.5 -65t-53.5 -39q47 -10 74 -36.5zM171 631v-246h227q33 4 47.5 23t14.5 56v90q0 42 -20.5 59.5t-64.5 17.5h-204zM390 69q49 0 73.5 21t24.5 66v92
q0 40 -26 57t-73 17h-218v-253h219z" />
    <glyph glyph-name="C" unicode="C" horiz-adv-x="553" 
d="M250 0q-75 0 -118 37t-43 113v401q0 75 43 112t118 37h261v-41l-27 -28h-234q-40 0 -62 -20t-22 -60v-401q0 -41 22 -61t62 -20h261v-69h-261z" />
    <glyph glyph-name="D" unicode="D" 
d="M95 0v700h345q75 0 118 -37t43 -112v-421l-131 -130h-375zM171 69h265l88 88v394q0 40 -22 60t-62 20h-269v-562z" />
    <glyph glyph-name="E" unicode="E" horiz-adv-x="543" 
d="M494 0h-399v700h389v-41l-28 -28h-285v-243h298v-39l-28 -28h-270v-252h323v-69z" />
    <glyph glyph-name="F" unicode="F" horiz-adv-x="530" 
d="M171 0h-76v700h389v-41l-28 -28h-285v-264h298v-39l-28 -27h-270v-301z" />
    <glyph glyph-name="G" unicode="G" horiz-adv-x="659" 
d="M249 0q-74 0 -117 37t-43 113v400q0 76 43 113t117 37h306v-39l-27 -28h-279q-39 0 -62 -21t-23 -62v-400q0 -41 23 -62t62 -21h177l87 88v164h-187v65h261v-253l-131 -131h-207z" />
    <glyph glyph-name="H" unicode="H" horiz-adv-x="679" 
d="M171 0h-76v700h76v-300h338v300h75v-700h-75v331h-338v-331z" />
    <glyph glyph-name="I" unicode="I" horiz-adv-x="266" 
d="M171 0h-76v700h76v-700z" />
    <glyph glyph-name="J" unicode="J" horiz-adv-x="400" 
d="M25 0v69h126q46 0 63.5 20.5t17.5 64.5v546h75v-546q0 -80 -38 -117t-118 -37h-126z" />
    <glyph glyph-name="K" unicode="K" horiz-adv-x="577" 
d="M171 0h-76v700h76v-308h91l208 308h85l-228 -331l233 -369h-87l-202 329h-100v-329z" />
    <glyph glyph-name="L" unicode="L" horiz-adv-x="513" 
d="M483 0h-388v700h76v-631h312v-69z" />
    <glyph glyph-name="M" unicode="M" horiz-adv-x="836" 
d="M168 0h-73v700h116l209 -446l208 446h113v-700h-72v637l-207 -446h-87l-207 443v-634z" />
    <glyph glyph-name="N" unicode="N" horiz-adv-x="701" 
d="M168 0h-73v700h121l318 -631v631h72v-700h-109l-329 638v-638z" />
    <glyph glyph-name="O" unicode="O" 
d="M249 -6q-75 0 -117.5 37t-42.5 112v414q0 76 42.5 113t117.5 37h192q75 0 117.5 -37t42.5 -113v-414q0 -75 -42.5 -112t-117.5 -37h-192zM441 63q40 0 62 20t22 60v414q0 40 -22 60.5t-62 20.5h-192q-40 0 -62 -20.5t-22 -60.5v-414q0 -40 22 -60t62 -20h192z" />
    <glyph glyph-name="P" unicode="P" horiz-adv-x="605" 
d="M95 0v700h268q69 0 108 -15t57 -51t18 -103v-78q0 -63 -17.5 -101t-57.5 -56.5t-108 -18.5h-192v-277h-76zM363 346q40 0 63.5 11t34 34t10.5 62v78q0 40 -11.5 62t-35 30t-61.5 8h-192v-285h192z" />
    <glyph glyph-name="Q" unicode="Q" 
d="M441 707q75 0 117.5 -37t42.5 -113v-414q0 -75 -42.5 -112t-117.5 -37h-6l125 -170h-94l-115 170h-102q-75 0 -117.5 37t-42.5 112v414q0 76 42.5 113t117.5 37h192zM525 557q0 40 -22 60.5t-62 20.5h-192q-40 0 -62 -20.5t-22 -60.5v-414q0 -40 22 -60t62 -20h192
q40 0 62 20t22 60v414z" />
    <glyph glyph-name="R" unicode="R" horiz-adv-x="614" 
d="M577 0h-84l-125 289h-8h-189v-289h-76v700h293q55 0 89.5 -14.5t51.5 -47t17 -86.5v-101q0 -48 -28.5 -87.5t-76.5 -59.5zM171 631v-276h189q36 0 61 13t37.5 35t12.5 48v101q0 40 -21.5 59.5t-61.5 19.5h-217z" />
    <glyph glyph-name="S" unicode="S" horiz-adv-x="584" 
d="M85 0v69h276q80 0 80 77v86q0 37 -20.5 54.5t-59.5 24.5l-156 26q-43 7 -73 22.5t-46.5 47t-16.5 81.5v66q0 75 41 110.5t113 35.5h266v-41l-28 -28h-238q-79 0 -79 -77v-66q0 -39 20.5 -58.5t58.5 -25.5l156 -26q43 -7 73 -22.5t46.5 -45t16.5 -78.5v-86
q0 -76 -40.5 -111t-113.5 -35h-276z" />
    <glyph glyph-name="T" unicode="T" horiz-adv-x="514" 
d="M295 0h-76v631h-213v69h503v-41l-28 -28h-186v-631z" />
    <glyph glyph-name="U" unicode="U" horiz-adv-x="680" 
d="M253 -6q-75 0 -117.5 37t-42.5 112v557h74v-557q0 -40 23 -60t63 -20h174q40 0 63 20t23 60v557h74v-557q0 -75 -42.5 -112t-117.5 -37h-174z" />
    <glyph glyph-name="V" unicode="V" horiz-adv-x="629" 
d="M369 0h-111l-238 700h80l214 -645l216 645h79z" />
    <glyph glyph-name="W" unicode="W" horiz-adv-x="958" 
d="M323 0h-105l-196 700h82l167 -634l168 634h80l166 -636l169 636h82l-198 -700h-105l-154 580z" />
    <glyph glyph-name="X" unicode="X" horiz-adv-x="617" 
d="M112 0h-86l241 356l-237 344h87l194 -292l192 292h83l-232 -345l237 -355h-88l-195 302z" />
    <glyph glyph-name="Y" unicode="Y" horiz-adv-x="568" 
d="M320 0h-74v304l-229 396h87l181 -328l185 328h80l-230 -396v-304z" />
    <glyph glyph-name="Z" unicode="Z" horiz-adv-x="535" 
d="M500 0h-467v69l365 562h-337v69h419v-69l-365 -562h385v-69z" />
    <glyph glyph-name="bracketleft" unicode="[" horiz-adv-x="351" 
d="M58 -148v916h261v-65h-191v-786h191v-65h-261z" />
    <glyph glyph-name="backslash" unicode="\" horiz-adv-x="511" 
d="M143 700l299 -700h-74l-299 700h74z" />
    <glyph glyph-name="bracketright" unicode="]" horiz-adv-x="351" 
d="M32 768h261v-916h-261v65h191v786h-191v65z" />
    <glyph glyph-name="asciicircum" unicode="^" horiz-adv-x="448" 
d="M256 700l148 -389h-54l-126 330l-126 -330h-54l148 389h64z" />
    <glyph glyph-name="underscore" unicode="_" horiz-adv-x="500" 
d="M500 -148h-500v56h500v-56z" />
    <glyph glyph-name="grave" unicode="`" horiz-adv-x="611" 
d="M276 881l97 -126h-71l-109 126h83z" />
    <glyph glyph-name="a" unicode="a" horiz-adv-x="518" 
d="M185 0q-65 0 -96 28.5t-31 84.5v66q0 42 14 66t41.5 34t71.5 10h186v82q0 26 -6 40t-20.5 19.5t-41.5 5.5h-194v58h196q49 0 77.5 -11t42.5 -38t14 -74v-371h-254zM371 59v175h-186q-32 0 -45.5 -12.5t-13.5 -43.5v-65q0 -28 14.5 -41t44.5 -13h186z" />
    <glyph glyph-name="b" unicode="b" horiz-adv-x="542" 
d="M82 0v700h72v-206h162q72 0 112.5 -35.5t40.5 -105.5v-213q0 -70 -40.5 -105t-112.5 -35h-234zM316 64q39 0 60 19.5t21 57.5v211q0 38 -21 58t-60 20h-162v-366h162z" />
    <glyph glyph-name="c" unicode="c" horiz-adv-x="442" 
d="M223 0q-72 0 -110.5 35t-38.5 105v213q0 71 38.5 106t110.5 35h181v-36l-28 -28h-153q-77 0 -77 -78v-211q0 -77 77 -77h181v-64h-181z" />
    <glyph glyph-name="d" unicode="d" horiz-adv-x="543" 
d="M227 0q-72 0 -112.5 35t-40.5 105v213q0 70 40.5 105.5t112.5 35.5h161v206h73v-700h-234zM388 64v366h-161q-38 0 -59.5 -20t-21.5 -58v-211q0 -38 21.5 -57.5t59.5 -19.5h161z" />
    <glyph glyph-name="e" unicode="e" horiz-adv-x="528" 
d="M213 0q-70 0 -104.5 32.5t-34.5 95.5v247q0 126 147 126h100q73 0 111 -31t38 -99q0 -86 -6 -144h-318v-98q0 -34 16 -49.5t54 -15.5h228v-64h-231zM146 288h255v82q0 39 -19.5 55.5t-65.5 16.5h-91q-39 0 -59 -16t-20 -51v-87z" />
    <glyph glyph-name="f" unicode="f" horiz-adv-x="274" 
d="M93 0v436h-81v58h81v90q0 116 121 116h86v-58h-80q-29 0 -42 -15t-13 -50v-83h102v-58h-102v-436h-72z" />
    <glyph glyph-name="g" unicode="g" horiz-adv-x="539" 
d="M94 -188v63h215q76 0 76 76v55h-164q-68 0 -107.5 34.5t-39.5 101.5v215q0 68 39.5 102.5t107.5 34.5h236v-543q0 -69 -38.5 -104t-109.5 -35h-215zM385 69v362h-164q-34 0 -54.5 -19t-20.5 -55v-215q0 -36 20.5 -54.5t54.5 -18.5h164z" />
    <glyph glyph-name="h" unicode="h" horiz-adv-x="553" 
d="M82 0v700h72v-206h167q72 0 112.5 -35.5t40.5 -105.5v-353h-72v346q0 43 -22 63.5t-65 20.5h-161v-430h-72z" />
    <glyph glyph-name="i" unicode="i" horiz-adv-x="239" 
d="M161 596h-83v96h83v-96zM156 0h-73v494h73v-494z" />
    <glyph glyph-name="j" unicode="j" horiz-adv-x="239" 
d="M161 597h-83v95h83v-95zM-24 -188v63h31q76 0 76 76v543h73v-543q0 -69 -39 -104t-110 -35h-31z" />
    <glyph glyph-name="k" unicode="k" horiz-adv-x="480" 
d="M154 0h-72v700h72v-403h69l159 197h81l-181 -219l187 -275h-82l-158 239h-75v-239z" />
    <glyph glyph-name="l" unicode="l" horiz-adv-x="257" 
d="M197 0q-47 0 -71.5 9.5t-34.5 35.5t-10 79v576h72v-575q0 -28 4.5 -41t14.5 -17t32 -4h39v-63h-46z" />
    <glyph glyph-name="m" unicode="m" horiz-adv-x="841" 
d="M82 0v494h527q72 0 112.5 -35.5t40.5 -105.5v-353h-72v346q0 84 -87 84h-149v-430h-72v430h-228v-430h-72z" />
    <glyph glyph-name="n" unicode="n" horiz-adv-x="553" 
d="M82 0v494h239q72 0 112.5 -35.5t40.5 -105.5v-353h-72v346q0 43 -22 63.5t-65 20.5h-161v-430h-72z" />
    <glyph glyph-name="o" unicode="o" horiz-adv-x="561" 
d="M223 -6q-72 0 -110.5 35t-38.5 105v226q0 70 38.5 105.5t110.5 35.5h115q72 0 111 -35.5t39 -105.5v-226q0 -70 -39 -105t-111 -35h-115zM338 58q39 0 58 18.5t19 57.5v226q0 39 -19 57.5t-58 18.5h-115q-39 0 -58 -18.5t-19 -57.5v-226q0 -39 19 -57.5t58 -18.5h115z
" />
    <glyph glyph-name="p" unicode="p" horiz-adv-x="542" 
d="M82 -180v674h234q72 0 112.5 -35.5t40.5 -105.5v-213q0 -70 -40.5 -105t-112.5 -35h-162v-180h-72zM316 64q39 0 60 19.5t21 57.5v211q0 38 -21 58t-60 20h-162v-366h162z" />
    <glyph glyph-name="q" unicode="q" horiz-adv-x="543" 
d="M388 -180v180h-161q-72 0 -112.5 35t-40.5 105v213q0 70 40.5 105.5t112.5 35.5h234v-674h-73zM388 64v366h-161q-39 0 -60 -20t-21 -58v-211q0 -38 21 -57.5t60 -19.5h161z" />
    <glyph glyph-name="r" unicode="r" horiz-adv-x="384" 
d="M82 0v494h162q45 0 72 -11t39.5 -37t12.5 -72h-67q0 23 -5.5 35t-17.5 16.5t-34 4.5h-90v-430h-72z" />
    <glyph glyph-name="s" unicode="s" horiz-adv-x="463" 
d="M66 0v64h214q58 0 58 53v39q0 29 -14.5 40.5t-47.5 15.5l-106 14q-41 6 -65.5 19t-36 36.5t-11.5 61.5v37q0 61 31 87.5t94 26.5h204v-36l-27 -28h-178q-26 0 -40 -11.5t-14 -38.5v-37q0 -29 14 -41t47 -16l105 -14q43 -6 67.5 -18t36 -35t11.5 -62v-40q0 -61 -32.5 -89
t-95.5 -28h-214z" />
    <glyph glyph-name="t" unicode="t" horiz-adv-x="301" 
d="M214 0q-45 0 -69 9t-34 33.5t-10 74.5v319h-92v58h92v124h72v-124h112v-58h-112v-319q0 -22 4 -33.5t14 -16t29 -4.5h59v-63h-65z" />
    <glyph glyph-name="u" unicode="u" horiz-adv-x="547" 
d="M233 0q-73 0 -114 35.5t-41 105.5v353h72v-346q0 -84 88 -84h157v430h72v-494h-234z" />
    <glyph glyph-name="v" unicode="v" horiz-adv-x="459" 
d="M270 0h-83l-172 494h78l137 -425l139 425h75z" />
    <glyph glyph-name="w" unicode="w" horiz-adv-x="752" 
d="M252 0h-84l-153 494h78l118 -418l130 418h73l132 -421l117 421h74l-150 -494h-83l-128 410z" />
    <glyph glyph-name="x" unicode="x" horiz-adv-x="458" 
d="M94 0h-79l172 254l-162 240h78l128 -192l127 192h77l-162 -240l170 -254h-79l-136 206z" />
    <glyph glyph-name="y" unicode="y" horiz-adv-x="468" 
d="M46 -186v62h49q37 0 57.5 15.5t32.5 50.5l30 82h-30l-170 470h77l144 -414l142 414h75l-162 -454l-36 -98q-18 -51 -40.5 -79t-51 -38.5t-68.5 -10.5h-49z" />
    <glyph glyph-name="z" unicode="z" horiz-adv-x="459" 
d="M412 0h-366v58l274 378h-260v58h345v-58l-274 -378h281v-58z" />
    <glyph glyph-name="braceleft" unicode="{" horiz-adv-x="349" 
d="M234 -150q-63 0 -101.5 34.5t-38.5 101.5v249l-59 59v32l59 59v249q0 67 38.5 101.5t101.5 34.5h86v-65h-86q-31 0 -50 -17.5t-19 -53.5v-268l-56 -56l56 -56v-268q0 -35 19 -53t50 -18h86v-65h-86z" />
    <glyph glyph-name="bar" unicode="|" horiz-adv-x="306" 
d="M122 -150v920h62v-920h-62z" />
    <glyph glyph-name="braceright" unicode="}" horiz-adv-x="349" 
d="M31 -150v65h86q30 0 49 18t19 53v268l56 56l-56 56v268q0 36 -19 53.5t-49 17.5h-86v65h86q63 0 101 -34.5t38 -101.5v-249l59 -59v-32l-59 -59v-249q0 -67 -38 -101.5t-101 -34.5h-86z" />
    <glyph glyph-name="asciitilde" unicode="~" horiz-adv-x="600" 
d="M510 226q-28 -18 -52.5 -26.5t-48.5 -8.5q-47 0 -109 35q-32 18 -58.5 27t-50.5 9t-49 -9t-52 -27v65q27 18 51.5 26.5t49.5 8.5t51.5 -8.5t57.5 -26.5q33 -18 59 -27t50 -9t49 9t52 27v-65z" />
    <glyph glyph-name="uni00A0" unicode="&#xa0;" horiz-adv-x="220" 
 />
    <glyph glyph-name="exclamdown" unicode="&#xa1;" horiz-adv-x="331" 
d="M221 403h-111v117h111v-117zM206 -180h-82l6 486h70z" />
    <glyph glyph-name="cent" unicode="&#xa2;" horiz-adv-x="439" 
d="M222 430q-38 0 -57.5 -19.5t-19.5 -58.5v-210q0 -77 77 -77h181v-65h-129v-114h-51v114h-1q-72 0 -110.5 35t-38.5 106v212q0 71 38.5 106t110.5 35h1v107h51v-107h129v-36l-27 -28h-154z" />
    <glyph glyph-name="sterling" unicode="&#xa3;" horiz-adv-x="567" 
d="M130 69h397v-69h-483v69l72 108v147h-86v69h86v145q0 87 41.5 124.5t121.5 37.5h242v-41l-27 -28h-212q-47 0 -68.5 -22t-21.5 -71v-145h258v-69h-258v-162z" />
    <glyph glyph-name="currency" unicode="&#xa4;" horiz-adv-x="579" 
d="M486.5 269.5q-12.5 -34.5 -34.5 -62.5l92 -93l-35 -36l-94 94q-27 -20 -59 -30.5t-67 -10.5t-66.5 10.5t-58.5 30.5l-93 -94l-36 36l92 92q-23 28 -35.5 62.5t-12.5 72.5q0 37 12.5 71.5t34.5 62.5l-90 91l35 35l92 -92q54 42 126 42q35 0 67.5 -11t59.5 -31l92 92
l36 -35l-92 -92q23 -27 35 -61t12 -72q0 -37 -12.5 -71.5zM361 217q33 19 52 52t19 72t-19 72t-52 52t-72 19t-72 -19t-52 -52t-19 -72t19 -72t52 -52t72 -19t72 19z" />
    <glyph glyph-name="yen" unicode="&#xa5;" horiz-adv-x="604" 
d="M475 700h85l-188 -318h132v-57h-165l-6 -10v-108h171v-58h-171v-149h-74v149h-178v58h178v108l-6 10h-172v57h139l-188 318h88l176 -318z" />
    <glyph glyph-name="brokenbar" unicode="&#xa6;" horiz-adv-x="318" 
d="M128 407v363h61v-363h-61zM128 -150v363h61v-363h-61z" />
    <glyph glyph-name="section" unicode="&#xa7;" horiz-adv-x="568" 
d="M492.5 428q32.5 -28 32.5 -86v-86q0 -44 -19.5 -71.5t-54.5 -37.5q15 -24 15 -63v-73q0 -59 -33.5 -87.5t-89.5 -28.5h-231v59h231q27 0 43 13.5t16 43.5v73q0 30 -16.5 43.5t-42.5 13.5h-180q-55 0 -87.5 28.5t-32.5 85.5v86q0 44 19 71t53 38q-15 24 -15 63v72
q0 59 33.5 87t90.5 28h229v-31l-28 -28h-201q-27 0 -43 -13.5t-16 -42.5v-72q0 -29 16.5 -43t42.5 -14h180q56 0 88.5 -28zM460 342q0 29 -16.5 42t-42.5 13h-235q-26 0 -42.5 -13.5t-16.5 -42.5v-86q0 -29 16.5 -42t42.5 -13h235q26 0 42.5 14t16.5 42v86z" />
    <glyph glyph-name="dieresis" unicode="&#xa8;" horiz-adv-x="600" 
d="M160 780v87h82v-87h-82zM358 780v87h81v-87h-81z" />
    <glyph glyph-name="copyright" unicode="&#xa9;" horiz-adv-x="829" 
d="M311 -6q-85 0 -138 25t-78.5 76.5t-25.5 134.5v237q0 84 25.5 136.5t78.5 77.5t138 25h216q84 0 137 -25t78.5 -77.5t25.5 -136.5v-237q0 -82 -25.5 -134t-78.5 -77t-137 -25h-216zM527 46q67 0 107 18t58.5 58t18.5 108v237q0 69 -18.5 109.5t-58.5 59t-107 18.5h-216
q-67 0 -107.5 -18.5t-59 -59t-18.5 -109.5v-237q0 -68 18.5 -108t59 -58t107.5 -18h216zM379 165q-51 0 -81 25.5t-30 76.5v168q0 51 30 76.5t81 25.5h171v-31l-22 -22h-149q-24 0 -38 -12t-14 -37v-168q0 -25 14 -37t38 -12h171v-53h-171z" />
    <glyph glyph-name="ordfeminine" unicode="&#xaa;" horiz-adv-x="389" 
d="M248 700q30 0 47.5 -6.5t26 -23t8.5 -44.5v-268h-191q-45 0 -66 21.5t-21 63.5v34q0 46 21 64.5t66 18.5h130v55q0 19 -7.5 26.5t-26.5 7.5h-148v51h161zM269 410v101h-121q-20 0 -28.5 -8t-8.5 -27v-33q0 -18 9 -25.5t28 -7.5h121z" />
    <glyph glyph-name="guillemotleft" unicode="&#xab;" horiz-adv-x="399" 
d="M218 464v-76l-123 -123l123 -123v-76l-160 160v78zM203 304l160 160v-76l-123 -123l123 -123v-76l-160 160v78z" />
    <glyph glyph-name="logicalnot" unicode="&#xac;" horiz-adv-x="600" 
d="M77 432h446v-242h-69v175h-377v67z" />
    <glyph glyph-name="uni00AD" unicode="&#xad;" horiz-adv-x="380" 
d="M50 279h280v-56h-280v56z" />
    <glyph glyph-name="registered" unicode="&#xae;" horiz-adv-x="433" 
d="M256 706q56 0 82 -25.5t26 -81.5v-77q0 -56 -26 -81.5t-82 -25.5h-81q-55 0 -80.5 26t-25.5 81v77q0 55 25.5 81t80.5 26h81zM325 599q0 38 -16.5 54.5t-52.5 16.5h-81q-35 0 -51 -16.5t-16 -54.5v-77q0 -37 16 -54t51 -17h81q37 0 53 17t16 54v77zM278 580
q0 -27 -22 -36l28 -56h-37l-25 52h-30v-52h-35v147h75q25 0 35.5 -8.5t10.5 -30.5v-16zM192 607v-40h36q15 0 15 15v12q0 13 -15 13h-36z" />
    <glyph glyph-name="macron" unicode="&#xaf;" horiz-adv-x="600" 
d="M186 789v59h228v-59h-228z" />
    <glyph glyph-name="degree" unicode="&#xb0;" horiz-adv-x="335" 
d="M116.5 558.5q-23.5 13.5 -37.5 37.5t-14 52q0 27 14 50.5t37.5 37.5t51.5 14q27 0 50.5 -14t37.5 -37.5t14 -50.5q0 -28 -14 -52t-37 -37.5t-51 -13.5t-51.5 13.5zM199 592.5q14 8.5 22.5 23.5t8.5 32t-8.5 31t-22.5 22.5t-31 8.5t-31.5 -8.5t-23 -22.5t-8.5 -31t8.5 -32
t23 -23.5t31.5 -8.5t31 8.5z" />
    <glyph glyph-name="plusminus" unicode="&#xb1;" horiz-adv-x="600" 
d="M335 126h-70v148h-189v68h189v151h70v-151h189v-68h-189v-148zM76 64h448v-64h-448v64z" />
    <glyph glyph-name="twosuperior" unicode="&#xb2;" horiz-adv-x="360" 
d="M104 513h212v-55h-272v70q0 37 8 58t30.5 35t66.5 24q49 11 70.5 19t27.5 16.5t6 23.5v16q0 14 -8 21.5t-21 7.5h-167v51h180q35 0 56 -18t21 -55v-23q0 -31 -11.5 -48.5t-37.5 -28t-79 -21.5q-36 -8 -53.5 -16t-23 -19.5t-5.5 -31.5v-26z" />
    <glyph glyph-name="threesuperior" unicode="&#xb3;" horiz-adv-x="347" 
d="M295.5 616.5q9.5 -13.5 9.5 -35.5v-52l-71 -71h-195v51h166l39 39v28q0 19 -9.5 25.5t-30.5 6.5h-145v50h145q20 0 28.5 7.5t8.5 23.5v31q0 15 -9 22t-27 7h-161v51h173q43 0 63 -16t20 -52v-43q0 -39 -34 -52q20 -7 29.5 -20.5z" />
    <glyph glyph-name="acute" unicode="&#xb4;" horiz-adv-x="600" 
d="M339 755h-71l97 126h83z" />
    <glyph glyph-name="mu" unicode="&#xb5;" horiz-adv-x="553" 
d="M399 494h72v-494h-222q-69 0 -102 45v-225h-65v674h73v-346q0 -43 22 -63.5t66 -20.5h156v430z" />
    <glyph glyph-name="paragraph" unicode="&#xb6;" horiz-adv-x="569" 
d="M257 -106v488h-57q-34 0 -59.5 14.5t-40 40t-14.5 59.5v89q0 34 14.5 60t40 40.5t59.5 14.5h284v-806h-58v751h-111v-751h-58z" />
    <glyph glyph-name="periodcentered" unicode="&#xb7;" horiz-adv-x="270" 
d="M79 228v117h112v-117h-112z" />
    <glyph glyph-name="cedilla" unicode="&#xb8;" horiz-adv-x="600" 
d="M191 -186v49h122q21 0 30 4.5t9 17.5v14q0 12 -6 16t-25 4h-85v36l22 53h53l-18 -46h39q29 0 46.5 -5t26.5 -18.5t9 -38.5v-15q0 -38 -25 -54.5t-76 -16.5h-122z" />
    <glyph glyph-name="onesuperior" unicode="&#xb9;" horiz-adv-x="299" 
d="M50 756l98 44h62v-342h-62v281l-98 -40v57z" />
    <glyph glyph-name="ordmasculine" unicode="&#xba;" horiz-adv-x="402" 
d="M238 706q48 0 75 -24.5t27 -75.5v-154q0 -51 -27 -75.5t-75 -24.5h-74q-47 0 -74.5 24.5t-27.5 75.5v154q0 51 27.5 75.5t74.5 24.5h74zM238 406q20 0 32 12t12 34v154q0 23 -12 34.5t-32 11.5h-74q-19 0 -31 -11.5t-12 -34.5v-154q0 -22 12 -34t31 -12h74z" />
    <glyph glyph-name="guillemotright" unicode="&#xbb;" horiz-adv-x="399" 
d="M36 464l160 -160v-78l-160 -160v76l124 123l-124 123v76zM181 388v76l160 -160v-78l-160 -160v76l123 123z" />
    <glyph glyph-name="onequarter" unicode="&#xbc;" horiz-adv-x="706" 
d="M206 358h-63v281l-97 -40v57l97 44h63v-342zM98 0l421 700h62l-421 -700h-62zM619 129h47v-51h-47v-78h-60v78h-175v56l145 208h90v-213zM559 294l-116 -165h116v165z" />
    <glyph glyph-name="onehalf" unicode="&#xbd;" horiz-adv-x="737" 
d="M206 358h-63v281l-97 -40v57l97 44h63v-342zM98 0l421 700h62l-421 -700h-62zM480 55h212v-55h-273v70q0 36 8.5 58t31 36t66.5 24q49 11 70.5 19t27.5 16.5t6 23.5v15q0 15 -8 22t-22 7h-167v51h180q36 0 57 -18t21 -54v-23q0 -32 -11.5 -49.5t-37.5 -28t-79 -21.5
q-37 -8 -54 -16t-22.5 -19t-5.5 -31v-27z" />
    <glyph glyph-name="threequarters" unicode="&#xbe;" horiz-adv-x="735" 
d="M313 429l-71 -71h-195v51h166l39 39v28q0 19 -9.5 25.5t-30.5 6.5h-144v50h144q20 0 28.5 7t8.5 24v31q0 15 -9 22t-27 7h-161v51h174q42 0 62 -16t20 -52v-43q0 -39 -34 -52q20 -7 29.5 -20.5t9.5 -35.5v-52zM146 0l421 700h62l-421 -700h-62zM648 129h47v-51h-47v-78
h-60v78h-175v56l145 208h90v-213zM588 294l-117 -165h117v165z" />
    <glyph glyph-name="questiondown" unicode="&#xbf;" horiz-adv-x="508" 
d="M321 406h-109v114h109v-114zM185 -186q-72 0 -110 33.5t-38 107.5q0 38 14.5 67t35.5 49t54 46q31 25 48 41t29 38.5t12 50.5v59h73v-61q0 -39 -14.5 -68.5t-36 -50t-55.5 -46.5q-30 -23 -47 -39t-28.5 -37.5t-11.5 -48.5q0 -39 18 -57.5t58 -18.5h139q41 0 59 16t18 53
v41h71v-39q0 -71 -35 -103.5t-111 -32.5h-142z" />
    <glyph glyph-name="Agrave" unicode="&#xc0;" horiz-adv-x="652" 
d="M102 0h-78l252 700h102l250 -700h-79l-64 183h-319zM326 639l-136 -390h272zM269 869l93 -126h-71l-106 126h84z" />
    <glyph glyph-name="Aacute" unicode="&#xc1;" horiz-adv-x="652" 
d="M102 0h-78l252 700h102l250 -700h-79l-64 183h-319zM326 639l-136 -390h272zM361 743h-71l93 126h84z" />
    <glyph glyph-name="Acircumflex" unicode="&#xc2;" horiz-adv-x="652" 
d="M102 0h-78l252 700h102l250 -700h-79l-64 183h-319zM326 639l-136 -390h272zM371 869l104 -126h-67l-82 88l-82 -88h-65l103 126h89z" />
    <glyph glyph-name="Atilde" unicode="&#xc3;" horiz-adv-x="652" 
d="M102 0h-78l252 700h102l250 -700h-79l-64 183h-319zM326 639l-136 -390h272zM188 753q0 50 23 75.5t62 25.5q21 0 36 -8.5t31 -23.5q13 -11 21 -16t17 -5q18 0 26.5 12.5t8.5 40.5h51q0 -50 -22.5 -75.5t-62.5 -25.5q-21 0 -36 8.5t-31 23.5q-12 11 -20.5 16.5t-17.5 5.5
q-18 0 -26.5 -12.5t-8.5 -41.5h-51z" />
    <glyph glyph-name="Adieresis" unicode="&#xc4;" horiz-adv-x="652" 
d="M102 0h-78l252 700h102l250 -700h-79l-64 183h-319zM326 639l-136 -390h272zM187 768v87h82v-87h-82zM385 768v87h81v-87h-81z" />
    <glyph glyph-name="Aring" unicode="&#xc5;" horiz-adv-x="652" 
d="M102 0h-78l252 700h102l250 -700h-79l-64 183h-319zM326 639l-136 -390h272zM277.5 747.5q-22.5 13.5 -36 36t-13.5 49.5q0 26 13.5 48.5t36 36t49.5 13.5q26 0 49 -13.5t36 -36t13 -48.5q0 -27 -13 -49.5t-35.5 -36t-49.5 -13.5t-49.5 13.5zM368 790.5q17 17.5 17 42.5
q0 24 -17 41t-41 17q-25 0 -42 -17t-17 -41q0 -25 17 -42.5t42 -17.5q24 0 41 17.5z" />
    <glyph glyph-name="AE" unicode="&#xc6;" horiz-adv-x="868" 
d="M101 0h-77l364 700h420v-39l-27 -28h-280v-247h293v-37l-27 -27h-266v-255h317v-67h-390v183h-233zM428 639l-201 -392h201v392z" />
    <glyph glyph-name="Ccedilla" unicode="&#xc7;" horiz-adv-x="553" 
d="M250 631q-40 0 -62 -20t-22 -60v-401q0 -41 22 -61t62 -20h261v-69h-183l-15 -38h39q29 0 46.5 -5t26.5 -18.5t9 -38.5v-15q0 -38 -25 -54.5t-76 -16.5h-122v49h122q21 0 30 4.5t9 17.5v14q0 12 -6 16t-25 4h-85v36l19 45h-25q-75 0 -118 37t-43 113v401q0 75 43 112
t118 37h261v-41l-27 -28h-234z" />
    <glyph glyph-name="Egrave" unicode="&#xc8;" horiz-adv-x="543" 
d="M494 0h-399v700h389v-41l-28 -28h-285v-243h298v-39l-28 -28h-270v-252h323v-69zM256 869l93 -126h-71l-106 126h84z" />
    <glyph glyph-name="Eacute" unicode="&#xc9;" horiz-adv-x="543" 
d="M494 0h-399v700h389v-41l-28 -28h-285v-243h298v-39l-28 -28h-270v-252h323v-69zM313 743h-71l93 126h84z" />
    <glyph glyph-name="Ecircumflex" unicode="&#xca;" horiz-adv-x="543" 
d="M494 0h-399v700h389v-41l-28 -28h-285v-243h298v-39l-28 -28h-270v-252h323v-69zM332 869l104 -126h-67l-82 88l-82 -88h-65l103 126h89z" />
    <glyph glyph-name="Edieresis" unicode="&#xcb;" horiz-adv-x="543" 
d="M494 0h-399v700h389v-41l-28 -28h-285v-243h298v-39l-28 -28h-270v-252h323v-69zM150 768v87h82v-87h-82zM348 768v87h81v-87h-81z" />
    <glyph glyph-name="Igrave" unicode="&#xcc;" horiz-adv-x="266" 
d="M171 0h-76v700h76v-700zM76 869l93 -126h-71l-106 126h84z" />
    <glyph glyph-name="Iacute" unicode="&#xcd;" horiz-adv-x="266" 
d="M171 0h-76v700h76v-700zM170 743h-71l93 126h84z" />
    <glyph glyph-name="Icircumflex" unicode="&#xce;" horiz-adv-x="266" 
d="M171 0h-76v700h76v-700zM178 869l104 -126h-67l-82 88l-82 -88h-65l103 126h89z" />
    <glyph glyph-name="Idieresis" unicode="&#xcf;" horiz-adv-x="266" 
d="M172 0h-76v700h76v-700zM-7 768v87h82v-87h-82zM191 768v87h81v-87h-81z" />
    <glyph glyph-name="Eth" unicode="&#xd0;" 
d="M95 0v318h-86v65h86v317h345q75 0 118 -37t43 -112v-421l-131 -130h-375zM171 69h265l88 88v394q0 40 -22 60t-62 20h-269v-248h153v-65h-153v-249z" />
    <glyph glyph-name="Ntilde" unicode="&#xd1;" horiz-adv-x="701" 
d="M168 0h-73v700h121l318 -631v631h72v-700h-109l-329 638v-638zM208 753q0 50 23 75.5t62 25.5q21 0 36 -8.5t31 -23.5q13 -11 21 -16t17 -5q18 0 26.5 12.5t8.5 40.5h51q0 -50 -22.5 -75.5t-62.5 -25.5q-21 0 -36 8.5t-31 23.5q-12 11 -20.5 16.5t-17.5 5.5
q-18 0 -26.5 -12.5t-8.5 -41.5h-51z" />
    <glyph glyph-name="Ograve" unicode="&#xd2;" 
d="M249 -6q-75 0 -117.5 37t-42.5 112v414q0 76 42.5 113t117.5 37h192q75 0 117.5 -37t42.5 -113v-414q0 -75 -42.5 -112t-117.5 -37h-192zM441 63q40 0 62 20t22 60v414q0 40 -22 60.5t-62 20.5h-192q-40 0 -62 -20.5t-22 -60.5v-414q0 -40 22 -60t62 -20h192zM291 869
l93 -126h-71l-106 126h84z" />
    <glyph glyph-name="Oacute" unicode="&#xd3;" 
d="M249 -6q-75 0 -117.5 37t-42.5 112v414q0 76 42.5 113t117.5 37h192q75 0 117.5 -37t42.5 -113v-414q0 -75 -42.5 -112t-117.5 -37h-192zM441 63q40 0 62 20t22 60v414q0 40 -22 60.5t-62 20.5h-192q-40 0 -62 -20.5t-22 -60.5v-414q0 -40 22 -60t62 -20h192zM368 743
h-71l93 126h84z" />
    <glyph glyph-name="Ocircumflex" unicode="&#xd4;" 
d="M249 -6q-75 0 -117.5 37t-42.5 112v414q0 76 42.5 113t117.5 37h192q75 0 117.5 -37t42.5 -113v-414q0 -75 -42.5 -112t-117.5 -37h-192zM441 63q40 0 62 20t22 60v414q0 40 -22 60.5t-62 20.5h-192q-40 0 -62 -20.5t-22 -60.5v-414q0 -40 22 -60t62 -20h192zM388 869
l104 -126h-67l-82 88l-82 -88h-65l103 126h89z" />
    <glyph glyph-name="Otilde" unicode="&#xd5;" 
d="M249 -6q-75 0 -117.5 37t-42.5 112v414q0 76 42.5 113t117.5 37h192q75 0 117.5 -37t42.5 -113v-414q0 -75 -42.5 -112t-117.5 -37h-192zM441 63q40 0 62 20t22 60v414q0 40 -22 60.5t-62 20.5h-192q-40 0 -62 -20.5t-22 -60.5v-414q0 -40 22 -60t62 -20h192zM209 753
q0 50 23 75.5t62 25.5q21 0 36 -8.5t31 -23.5q13 -11 21 -16t17 -5q18 0 26.5 12.5t8.5 40.5h51q0 -50 -22.5 -75.5t-62.5 -25.5q-21 0 -36 8.5t-31 23.5q-12 11 -20.5 16.5t-17.5 5.5q-18 0 -26.5 -12.5t-8.5 -41.5h-51z" />
    <glyph glyph-name="Odieresis" unicode="&#xd6;" 
d="M249 -6q-75 0 -117.5 37t-42.5 112v414q0 76 42.5 113t117.5 37h192q75 0 117.5 -37t42.5 -113v-414q0 -75 -42.5 -112t-117.5 -37h-192zM441 63q40 0 62 20t22 60v414q0 40 -22 60.5t-62 20.5h-192q-40 0 -62 -20.5t-22 -60.5v-414q0 -40 22 -60t62 -20h192zM203 768v87
h82v-87h-82zM401 768v87h81v-87h-81z" />
    <glyph glyph-name="multiply" unicode="&#xd7;" horiz-adv-x="600" 
d="M167 80l-49 49l134 134l-133 133l48 48l133 -133l134 133l49 -49l-134 -133l133 -133l-48 -48l-133 133z" />
    <glyph glyph-name="Oslash" unicode="&#xd8;" 
d="M673 665l-72 -77q2 -18 2 -31v-414q0 -75 -42.5 -112t-118.5 -37h-192q-49 0 -85 16t-55 48l-55 -58l-38 37l74 79q-2 16 -2 27v414q0 75 43 112.5t118 37.5h192q48 0 84 -15.5t55 -47.5l54 58zM250 638q-40 0 -62 -20.5t-22 -60.5v-361l358 388q-7 27 -28 40.5t-54 13.5
h-192zM442 63q40 0 62.5 20t22.5 60v367l-359 -389q6 -29 27 -43.5t55 -14.5h192z" />
    <glyph glyph-name="Ugrave" unicode="&#xd9;" horiz-adv-x="680" 
d="M253 -6q-75 0 -117.5 37t-42.5 112v557h74v-557q0 -40 23 -60t63 -20h174q40 0 63 20t23 60v557h74v-557q0 -75 -42.5 -112t-117.5 -37h-174zM285 869l93 -126h-71l-106 126h84z" />
    <glyph glyph-name="Uacute" unicode="&#xda;" horiz-adv-x="680" 
d="M253 -6q-75 0 -117.5 37t-42.5 112v557h74v-557q0 -40 23 -60t63 -20h174q40 0 63 20t23 60v557h74v-557q0 -75 -42.5 -112t-117.5 -37h-174zM362 743h-71l93 126h84z" />
    <glyph glyph-name="Ucircumflex" unicode="&#xdb;" horiz-adv-x="680" 
d="M253 -6q-75 0 -117.5 37t-42.5 112v557h74v-557q0 -40 23 -60t63 -20h174q40 0 63 20t23 60v557h74v-557q0 -75 -42.5 -112t-117.5 -37h-174zM377 869l104 -126h-67l-82 88l-82 -88h-65l103 126h89z" />
    <glyph glyph-name="Udieresis" unicode="&#xdc;" horiz-adv-x="680" 
d="M253 -6q-75 0 -117.5 37t-42.5 112v557h74v-557q0 -40 23 -60t63 -20h174q40 0 63 20t23 60v557h74v-557q0 -75 -42.5 -112t-117.5 -37h-174zM198 768v87h82v-87h-82zM396 768v87h81v-87h-81z" />
    <glyph glyph-name="Yacute" unicode="&#xdd;" horiz-adv-x="568" 
d="M320 0h-74v304l-229 396h87l181 -328l185 328h80l-230 -396v-304zM318 743h-71l93 126h84z" />
    <glyph glyph-name="Thorn" unicode="&#xde;" horiz-adv-x="588" 
d="M82 0v700h73v-154h207q54 0 87.5 -14t49.5 -45t16 -83v-99q0 -52 -16 -83t-49.5 -45t-87.5 -14h-207v-163h-73zM362 230q39 0 60.5 18t21.5 57v99q0 39 -21.5 57t-60.5 18h-207v-249h207z" />
    <glyph glyph-name="germandbls" unicode="&#xdf;" horiz-adv-x="606" 
d="M529 248v-96q0 -74 -42 -113t-118 -39h-127v65h127q41 0 64 22t23 65v96q0 41 -26 57.5t-73 16.5h-103v63h103q37 0 55.5 20t18.5 59v94q0 45 -21 64.5t-67 19.5h-71q-113 0 -113 -128v-514h-73v514q0 58 20.5 101t62.5 67t103 24h71q82 0 120.5 -34.5t38.5 -109.5v-98
q0 -38 -19.5 -64.5t-52.5 -39.5q99 -21 99 -112z" />
    <glyph glyph-name="agrave" unicode="&#xe0;" horiz-adv-x="518" 
d="M185 0q-65 0 -96 28.5t-31 84.5v66q0 42 14 66t41.5 34t71.5 10h186v82q0 26 -6 40t-20.5 19.5t-41.5 5.5h-194v58h196q49 0 77.5 -11t42.5 -38t14 -74v-371h-254zM371 59v175h-186q-32 0 -45.5 -12.5t-13.5 -43.5v-65q0 -28 14.5 -41t44.5 -13h186zM202 680l93 -126h-71
l-106 126h84z" />
    <glyph glyph-name="aacute" unicode="&#xe1;" horiz-adv-x="518" 
d="M185 0q-65 0 -96 28.5t-31 84.5v66q0 42 14 66t41.5 34t71.5 10h186v82q0 26 -6 40t-20.5 19.5t-41.5 5.5h-194v58h196q49 0 77.5 -11t42.5 -38t14 -74v-371h-254zM371 59v175h-186q-32 0 -45.5 -12.5t-13.5 -43.5v-65q0 -28 14.5 -41t44.5 -13h186zM291 554h-71l93 126
h84z" />
    <glyph glyph-name="acircumflex" unicode="&#xe2;" horiz-adv-x="518" 
d="M185 0q-65 0 -96 28.5t-31 84.5v66q0 42 14 66t41.5 34t71.5 10h186v82q0 26 -6 40t-20.5 19.5t-41.5 5.5h-194v58h196q49 0 77.5 -11t42.5 -38t14 -74v-371h-254zM371 59v175h-186q-32 0 -45.5 -12.5t-13.5 -43.5v-65q0 -28 14.5 -41t44.5 -13h186zM308 680l104 -126
h-67l-82 88l-82 -88h-65l103 126h89z" />
    <glyph glyph-name="atilde" unicode="&#xe3;" horiz-adv-x="518" 
d="M185 0q-65 0 -96 28.5t-31 84.5v66q0 42 14 66t41.5 34t71.5 10h186v82q0 26 -6 40t-20.5 19.5t-41.5 5.5h-194v58h196q49 0 77.5 -11t42.5 -38t14 -74v-371h-254zM371 59v175h-186q-32 0 -45.5 -12.5t-13.5 -43.5v-65q0 -28 14.5 -41t44.5 -13h186zM127 579
q0 50 23 75.5t62 25.5q21 0 36 -8.5t31 -23.5q13 -11 21 -16t17 -5q18 0 26.5 12.5t8.5 40.5h51q0 -50 -22.5 -75.5t-62.5 -25.5q-21 0 -36 8.5t-31 23.5q-12 11 -20.5 16.5t-17.5 5.5q-18 0 -26.5 -12.5t-8.5 -41.5h-51z" />
    <glyph glyph-name="adieresis" unicode="&#xe4;" horiz-adv-x="518" 
d="M185 0q-65 0 -96 28.5t-31 84.5v66q0 42 14 66t41.5 34t71.5 10h186v82q0 26 -6 40t-20.5 19.5t-41.5 5.5h-194v58h196q49 0 77.5 -11t42.5 -38t14 -74v-371h-254zM371 59v175h-186q-32 0 -45.5 -12.5t-13.5 -43.5v-65q0 -28 14.5 -41t44.5 -13h186zM128 599v87h82v-87
h-82zM326 599v87h81v-87h-81z" />
    <glyph glyph-name="aring" unicode="&#xe5;" horiz-adv-x="518" 
d="M185 0q-65 0 -96 28.5t-31 84.5v66q0 42 14 66t41.5 34t71.5 10h186v82q0 26 -6 40t-20.5 19.5t-41.5 5.5h-194v58h196q49 0 77.5 -11t42.5 -38t14 -74v-371h-254zM371 59v175h-186q-32 0 -45.5 -12.5t-13.5 -43.5v-65q0 -28 14.5 -41t44.5 -13h186zM213.5 555.5
q-22.5 13.5 -36 36t-13.5 49.5q0 26 13.5 48.5t36 36t49.5 13.5q26 0 49 -13.5t36 -36t13 -48.5q0 -27 -13 -49.5t-35.5 -36t-49.5 -13.5t-49.5 13.5zM304 598.5q17 17.5 17 42.5q0 24 -17 41t-41 17q-25 0 -42 -17t-17 -41q0 -25 17 -42.5t42 -17.5q24 0 41 17.5z" />
    <glyph glyph-name="ae" unicode="&#xe6;" horiz-adv-x="811" 
d="M440 228v-101q0 -33 16 -48t55 -15h229v-64h-227q-70 0 -100 38v-38h-228q-65 0 -96 28.5t-31 84.5v62q0 42 14 66.5t41.5 34.5t71.5 10h187v85q0 26 -7 40t-22.5 19.5t-44.5 5.5h-184v58h186q42 0 67.5 -9.5t39.5 -32.5q30 49 114 49h86q72 0 109 -31t37 -100
q0 -74 -5 -142h-308zM525 443q-43 0 -64 -16.5t-21 -53.5v-86h246v83q0 40 -19.5 56.5t-64.5 16.5h-77zM372 59v171h-187q-32 0 -45.5 -12.5t-13.5 -42.5v-62q0 -28 14.5 -41t44.5 -13h187z" />
    <glyph glyph-name="ccedilla" unicode="&#xe7;" horiz-adv-x="442" 
d="M223 430q-77 0 -77 -78v-211q0 -77 77 -77h181v-64h-134l-15 -38h39q29 0 46.5 -5t26.5 -18.5t9 -38.5v-15q0 -38 -25 -54.5t-76 -16.5h-122v49h122q21 0 30 4.5t9 17.5v14q0 12 -6 16t-25 4h-85v36l19 45q-69 2 -106 37t-37 103v213q0 71 38.5 106t110.5 35h181v-36
l-28 -28h-153z" />
    <glyph glyph-name="egrave" unicode="&#xe8;" horiz-adv-x="528" 
d="M213 0q-70 0 -104.5 32.5t-34.5 95.5v247q0 126 147 126h100q73 0 111 -31t38 -99q0 -86 -6 -144h-318v-98q0 -34 16 -49.5t54 -15.5h228v-64h-231zM146 288h255v82q0 39 -19.5 55.5t-65.5 16.5h-91q-39 0 -59 -16t-20 -51v-87zM220 680l93 -126h-71l-106 126h84z" />
    <glyph glyph-name="eacute" unicode="&#xe9;" horiz-adv-x="528" 
d="M213 0q-70 0 -104.5 32.5t-34.5 95.5v247q0 126 147 126h100q73 0 111 -31t38 -99q0 -86 -6 -144h-318v-98q0 -34 16 -49.5t54 -15.5h228v-64h-231zM146 288h255v82q0 39 -19.5 55.5t-65.5 16.5h-91q-39 0 -59 -16t-20 -51v-87zM300 554h-71l93 126h84z" />
    <glyph glyph-name="ecircumflex" unicode="&#xea;" horiz-adv-x="528" 
d="M213 0q-70 0 -104.5 32.5t-34.5 95.5v247q0 126 147 126h100q73 0 111 -31t38 -99q0 -86 -6 -144h-318v-98q0 -34 16 -49.5t54 -15.5h228v-64h-231zM146 288h255v82q0 39 -19.5 55.5t-65.5 16.5h-91q-39 0 -59 -16t-20 -51v-87zM318 680l104 -126h-67l-82 88l-82 -88h-65
l103 126h89z" />
    <glyph glyph-name="edieresis" unicode="&#xeb;" horiz-adv-x="528" 
d="M213 0q-70 0 -104.5 32.5t-34.5 95.5v247q0 126 147 126h100q73 0 111 -31t38 -99q0 -86 -6 -144h-318v-98q0 -34 16 -49.5t54 -15.5h228v-64h-231zM146 288h255v82q0 39 -19.5 55.5t-65.5 16.5h-91q-39 0 -59 -16t-20 -51v-87zM132 599v87h82v-87h-82zM330 599v87h81
v-87h-81z" />
    <glyph glyph-name="igrave" unicode="&#xec;" horiz-adv-x="239" 
d="M83 0v494h73v-494h-73zM66 680l93 -126h-71l-106 126h84z" />
    <glyph glyph-name="iacute" unicode="&#xed;" horiz-adv-x="239" 
d="M83 0v494h73v-494h-73zM151 554h-71l93 126h84z" />
    <glyph glyph-name="icircumflex" unicode="&#xee;" horiz-adv-x="239" 
d="M83 0v494h73v-494h-73zM163 680l104 -126h-67l-82 88l-82 -88h-65l103 126h89z" />
    <glyph glyph-name="idieresis" unicode="&#xef;" horiz-adv-x="239" 
d="M-1 599v87h81v-87h-81zM156 599v87h82v-87h-82zM83 0v494h73v-494h-73z" />
    <glyph glyph-name="eth" unicode="&#xf0;" horiz-adv-x="559" 
d="M486 320v-188q0 -68 -38 -103t-108 -35h-120q-70 0 -108 34.5t-38 103.5v188q0 69 38 104t108 35h120h6q-50 60 -92 102l-136 -59v61l94 41q-62 57 -110 96h90q36 -31 78 -71l164 71v-61l-121 -53q76 -80 141 -169q32 -34 32 -97zM340 57q76 0 76 75v188q0 76 -76 76
h-120q-76 0 -76 -76v-188q0 -75 76 -75h120z" />
    <glyph glyph-name="ntilde" unicode="&#xf1;" horiz-adv-x="553" 
d="M82 0v494h239q72 0 112.5 -35.5t40.5 -105.5v-353h-72v346q0 43 -22 63.5t-65 20.5h-161v-430h-72zM134 579q0 50 23 75.5t62 25.5q21 0 36 -8.5t31 -23.5q13 -11 21 -16t17 -5q18 0 26.5 12.5t8.5 40.5h51q0 -50 -22.5 -75.5t-62.5 -25.5q-21 0 -36 8.5t-31 23.5
q-12 11 -20.5 16.5t-17.5 5.5q-18 0 -26.5 -12.5t-8.5 -41.5h-51z" />
    <glyph glyph-name="ograve" unicode="&#xf2;" horiz-adv-x="561" 
d="M223 -6q-72 0 -110.5 35t-38.5 105v226q0 70 38.5 105.5t110.5 35.5h115q72 0 111 -35.5t39 -105.5v-226q0 -70 -39 -105t-111 -35h-115zM338 58q39 0 58 18.5t19 57.5v226q0 39 -19 57.5t-58 18.5h-115q-39 0 -58 -18.5t-19 -57.5v-226q0 -39 19 -57.5t58 -18.5h115z
M223 680l93 -126h-71l-106 126h84z" />
    <glyph glyph-name="oacute" unicode="&#xf3;" horiz-adv-x="561" 
d="M223 -6q-72 0 -110.5 35t-38.5 105v226q0 70 38.5 105.5t110.5 35.5h115q72 0 111 -35.5t39 -105.5v-226q0 -70 -39 -105t-111 -35h-115zM338 58q39 0 58 18.5t19 57.5v226q0 39 -19 57.5t-58 18.5h-115q-39 0 -58 -18.5t-19 -57.5v-226q0 -39 19 -57.5t58 -18.5h115z
M313 554h-71l93 126h84z" />
    <glyph glyph-name="ocircumflex" unicode="&#xf4;" horiz-adv-x="561" 
d="M223 -6q-72 0 -110.5 35t-38.5 105v226q0 70 38.5 105.5t110.5 35.5h115q72 0 111 -35.5t39 -105.5v-226q0 -70 -39 -105t-111 -35h-115zM338 58q39 0 58 18.5t19 57.5v226q0 39 -19 57.5t-58 18.5h-115q-39 0 -58 -18.5t-19 -57.5v-226q0 -39 19 -57.5t58 -18.5h115z
M324 680l104 -126h-67l-82 88l-82 -88h-65l103 126h89z" />
    <glyph glyph-name="otilde" unicode="&#xf5;" horiz-adv-x="561" 
d="M223 -6q-72 0 -110.5 35t-38.5 105v226q0 70 38.5 105.5t110.5 35.5h115q72 0 111 -35.5t39 -105.5v-226q0 -70 -39 -105t-111 -35h-115zM338 58q39 0 58 18.5t19 57.5v226q0 39 -19 57.5t-58 18.5h-115q-39 0 -58 -18.5t-19 -57.5v-226q0 -39 19 -57.5t58 -18.5h115z
M142 579q0 50 23 75.5t62 25.5q21 0 36 -8.5t31 -23.5q13 -11 21 -16t17 -5q18 0 26.5 12.5t8.5 40.5h51q0 -50 -22.5 -75.5t-62.5 -25.5q-21 0 -36 8.5t-31 23.5q-12 11 -20.5 16.5t-17.5 5.5q-18 0 -26.5 -12.5t-8.5 -41.5h-51z" />
    <glyph glyph-name="odieresis" unicode="&#xf6;" horiz-adv-x="561" 
d="M223 -6q-72 0 -110.5 35t-38.5 105v226q0 70 38.5 105.5t110.5 35.5h115q72 0 111 -35.5t39 -105.5v-226q0 -70 -39 -105t-111 -35h-115zM338 58q39 0 58 18.5t19 57.5v226q0 39 -19 57.5t-58 18.5h-115q-39 0 -58 -18.5t-19 -57.5v-226q0 -39 19 -57.5t58 -18.5h115z
M140 599v87h82v-87h-82zM338 599v87h81v-87h-81z" />
    <glyph glyph-name="divide" unicode="&#xf7;" horiz-adv-x="600" 
d="M254 376v98h93v-98h-93zM78 230v66h444v-66h-444zM254 51v98h93v-98h-93z" />
    <glyph glyph-name="oslash" unicode="&#xf8;" horiz-adv-x="561" 
d="M529 458l-48 -48q6 -22 6 -51v-224q0 -71 -39 -106t-110 -35h-115q-81 0 -119 44l-38 -38l-34 37l48 48q-6 23 -6 50v224q0 71 38.5 106.5t110.5 35.5h115q80 0 118 -44l37 37zM146 150l258 256q-18 30 -66 30h-115q-39 0 -58 -19t-19 -58v-209zM415 345l-259 -256
q18 -30 67 -30h115q39 0 58 18.5t19 57.5v210z" />
    <glyph glyph-name="ugrave" unicode="&#xf9;" horiz-adv-x="547" 
d="M233 0q-73 0 -114 35.5t-41 105.5v353h72v-346q0 -84 88 -84h157v430h72v-494h-234zM221 680l93 -126h-71l-106 126h84z" />
    <glyph glyph-name="uacute" unicode="&#xfa;" horiz-adv-x="547" 
d="M233 0q-73 0 -114 35.5t-41 105.5v353h72v-346q0 -84 88 -84h157v430h72v-494h-234zM305 554h-71l93 126h84z" />
    <glyph glyph-name="ucircumflex" unicode="&#xfb;" horiz-adv-x="547" 
d="M233 0q-73 0 -114 35.5t-41 105.5v353h72v-346q0 -84 88 -84h157v430h72v-494h-234zM316 680l104 -126h-67l-82 88l-82 -88h-65l103 126h89z" />
    <glyph glyph-name="udieresis" unicode="&#xfc;" horiz-adv-x="547" 
d="M233 0q-73 0 -114 35.5t-41 105.5v353h72v-346q0 -84 88 -84h157v430h72v-494h-234zM132 599v87h82v-87h-82zM330 599v87h81v-87h-81z" />
    <glyph glyph-name="yacute" unicode="&#xfd;" horiz-adv-x="468" 
d="M46 -186v62h49q37 0 57.5 15.5t32.5 50.5l30 82h-30l-170 470h77l144 -414l142 414h75l-162 -454l-36 -98q-18 -51 -40.5 -79t-51 -38.5t-68.5 -10.5h-49zM273 554h-71l93 126h84z" />
    <glyph glyph-name="thorn" unicode="&#xfe;" horiz-adv-x="569" 
d="M347 501q71 0 110 -35.5t39 -106.5v-224q0 -71 -39 -106t-110 -35h-103q-57 0 -89 30v-204h-73v880h73v-230q31 31 89 31h103zM347 59q39 0 58 18.5t19 57.5v224q0 39 -19 58t-58 19h-115q-77 0 -77 -77v-224q0 -76 77 -76h115z" />
    <glyph glyph-name="ydieresis" unicode="&#xff;" horiz-adv-x="468" 
d="M46 -186v62h49q37 0 57.5 15.5t32.5 50.5l30 82h-30l-170 470h77l144 -414l142 414h75l-162 -454l-36 -98q-18 -51 -40.5 -79t-51 -38.5t-68.5 -10.5h-49zM95 599v87h82v-87h-82zM293 599v87h81v-87h-81z" />
    <glyph glyph-name="Abreve" unicode="&#x102;" horiz-adv-x="652" 
d="M102 0h-78l252 700h102l250 -700h-79l-64 183h-319zM326 639l-136 -390h272zM263 748q-28 14 -43.5 38.5t-15.5 56.5h63q0 -27 17 -43.5t43 -16.5t42.5 16.5t16.5 43.5h63q0 -32 -15.5 -56.5t-43.5 -38.5t-63 -14q-36 0 -64 14z" />
    <glyph glyph-name="abreve" unicode="&#x103;" horiz-adv-x="518" 
d="M185 0q-65 0 -96 28.5t-31 84.5v66q0 42 14 66t41.5 34t71.5 10h186v82q0 26 -6 40t-20.5 19.5t-41.5 5.5h-194v58h196q49 0 77.5 -11t42.5 -38t14 -74v-371h-254zM371 59v175h-186q-32 0 -45.5 -12.5t-13.5 -43.5v-65q0 -28 14.5 -41t44.5 -13h186zM198 559
q-28 14 -43.5 38.5t-15.5 56.5h63q0 -27 17 -43.5t43 -16.5t42.5 16.5t16.5 43.5h63q0 -32 -15.5 -56.5t-43.5 -38.5t-63 -14q-36 0 -64 14z" />
    <glyph glyph-name="Dcroat" unicode="&#x110;" 
d="M95 0v318h-86v65h86v317h345q75 0 118 -37t43 -112v-421l-131 -130h-375zM171 69h265l88 88v394q0 40 -22 60t-62 20h-269v-248h153v-65h-153v-249z" />
    <glyph glyph-name="dcroat" unicode="&#x111;" horiz-adv-x="543" 
d="M526 625v-55h-65v-570h-234q-72 0 -112.5 35.5t-40.5 105.5v212q0 70 40.5 105.5t112.5 35.5h161v76h-136v55h136v75h73v-75h65zM388 65v365h-161q-38 0 -59.5 -20t-21.5 -58v-210q0 -38 21.5 -57.5t59.5 -19.5h161z" />
    <glyph glyph-name="Gbreve" unicode="&#x11e;" horiz-adv-x="659" 
d="M249 0q-74 0 -117 37t-43 113v400q0 76 43 113t117 37h306v-39l-27 -28h-279q-39 0 -62 -21t-23 -62v-400q0 -41 23 -62t62 -21h177l87 88v164h-187v65h261v-253l-131 -131h-207zM273 748q-28 14 -43.5 38.5t-15.5 56.5h63q0 -27 17 -43.5t43 -16.5t42.5 16.5t16.5 43.5
h63q0 -32 -15.5 -56.5t-43.5 -38.5t-63 -14q-36 0 -64 14z" />
    <glyph glyph-name="gbreve" unicode="&#x11f;" horiz-adv-x="539" 
d="M94 -188v63h215q76 0 76 76v55h-164q-68 0 -107.5 34.5t-39.5 101.5v215q0 68 39.5 102.5t107.5 34.5h236v-543q0 -69 -38.5 -104t-109.5 -35h-215zM385 69v362h-164q-34 0 -54.5 -19t-20.5 -55v-215q0 -36 20.5 -54.5t54.5 -18.5h164zM202 577q-28 14 -43.5 38.5
t-15.5 56.5h63q0 -27 17 -43.5t43 -16.5t42.5 16.5t16.5 43.5h63q0 -32 -15.5 -56.5t-43.5 -38.5t-63 -14q-36 0 -64 14z" />
    <glyph glyph-name="Itilde" unicode="&#x128;" horiz-adv-x="266" 
d="M171 0h-76v700h76v-700zM-5 753q0 50 23 75.5t62 25.5q21 0 36 -8.5t31 -23.5q13 -11 21 -16t17 -5q18 0 26.5 12.5t8.5 40.5h51q0 -50 -22.5 -75.5t-62.5 -25.5q-21 0 -36 8.5t-31 23.5q-12 11 -20.5 16.5t-17.5 5.5q-18 0 -26.5 -12.5t-8.5 -41.5h-51z" />
    <glyph glyph-name="itilde" unicode="&#x129;" horiz-adv-x="239" 
d="M83 0v494h73v-494h-73zM-20 579q0 50 23 75.5t62 25.5q21 0 36 -8.5t31 -23.5q13 -11 21 -16t17 -5q18 0 26.5 12.5t8.5 40.5h51q0 -50 -22.5 -75.5t-62.5 -25.5q-21 0 -36 8.5t-31 23.5q-12 11 -20.5 16.5t-17.5 5.5q-18 0 -26.5 -12.5t-8.5 -41.5h-51z" />
    <glyph glyph-name="Idotaccent" unicode="&#x130;" horiz-adv-x="266" 
d="M171 0h-76v700h76v-700zM92 768v87h82v-87h-82z" />
    <glyph glyph-name="dotlessi" unicode="&#x131;" horiz-adv-x="239" 
d="M83 0v494h73v-494h-73z" />
    <glyph glyph-name="Lslash" unicode="&#x141;" horiz-adv-x="513" 
d="M171 318v-249h312v-69h-388v280l-70 -45v64l70 45v356h76v-318l182 116v-64z" />
    <glyph glyph-name="lslash" unicode="&#x142;" horiz-adv-x="257" 
d="M243 63v-63h-48q-46 0 -70 9.5t-34 35.5t-10 79v171l-57 -37v55l57 37v350h72v-314l69 46v-56l-69 -46v-205q0 -28 4.5 -41t14.5 -17t32 -4h39z" />
    <glyph glyph-name="OE" unicode="&#x152;" horiz-adv-x="923" 
d="M552 69h322v-69h-380v45h-13q-33 -45 -105 -45h-129q-74 0 -116 37t-42 112v402q0 75 42 112t116 37h129q68 0 104 -43h14v43h370v-41l-28 -28h-284v-243h298v-39l-28 -28h-270v-252zM394 69q36 0 57.5 16t25.5 48v434q-9 64 -83 64h-147q-39 0 -61 -20t-22 -60v-402
q0 -40 22 -60t61 -20h147z" />
    <glyph glyph-name="oe" unicode="&#x153;" horiz-adv-x="859" 
d="M479 228v-101q0 -32 17 -47.5t56 -15.5h224v-64h-222q-42 0 -69.5 14t-41.5 41q-14 -30 -42 -45.5t-68 -15.5h-113q-70 0 -108 35.5t-38 105.5v226q0 67 38.5 103.5t107.5 36.5h113q81 0 110 -59q28 59 120 59h92q72 0 109 -31.5t37 -100.5q0 -85 -6 -141h-316zM566 442
q-44 0 -65.5 -16.5t-21.5 -52.5v-85h255v81q0 39 -19.5 56t-64.5 17h-84zM333 58q38 0 57 19t19 58v226q0 75 -76 75h-113q-76 0 -76 -75v-226q0 -39 19 -58t57 -19h113z" />
    <glyph glyph-name="Scedilla" unicode="&#x15e;" horiz-adv-x="584" 
d="M379 378q43 -7 73 -22.5t46.5 -45t16.5 -78.5v-86q0 -76 -40.5 -111t-113.5 -35h-56l-15 -38h39q29 0 46.5 -5t26.5 -18.5t9 -38.5v-15q0 -38 -25 -54.5t-76 -16.5h-122v49h122q21 0 30 4.5t9 17.5v14q0 12 -6 16t-25 4h-85v36l19 45h-167v69h276q80 0 80 77v86
q0 37 -20.5 54.5t-59.5 24.5l-156 26q-43 7 -73 22.5t-46.5 47t-16.5 81.5v66q0 75 41 110.5t113 35.5h266v-41l-28 -28h-238q-79 0 -79 -77v-66q0 -39 20.5 -58.5t58.5 -25.5z" />
    <glyph glyph-name="scedilla" unicode="&#x15f;" horiz-adv-x="463" 
d="M293 272q43 -6 67.5 -18t36 -35t11.5 -62v-40q0 -61 -32.5 -89t-95.5 -28h-36l-15 -38h39q29 0 46.5 -5t26.5 -18.5t9 -38.5v-15q0 -38 -25 -54.5t-76 -16.5h-122v49h122q21 0 30 4.5t9 17.5v14q0 12 -6 16t-25 4h-85v36l19 45h-125v64h214q58 0 58 53v39
q0 29 -14.5 40.5t-47.5 15.5l-106 14q-41 6 -65.5 19t-36 36.5t-11.5 61.5v37q0 61 31 87.5t94 26.5h204v-36l-27 -28h-178q-26 0 -40 -11.5t-14 -38.5v-37q0 -29 14 -41t47 -16z" />
    <glyph glyph-name="Scaron" unicode="&#x160;" horiz-adv-x="584" 
d="M85 0v69h276q80 0 80 77v86q0 37 -20.5 54.5t-59.5 24.5l-156 26q-43 7 -73 22.5t-46.5 47t-16.5 81.5v66q0 75 41 110.5t113 35.5h266v-41l-28 -28h-238q-79 0 -79 -77v-66q0 -39 20.5 -58.5t58.5 -25.5l156 -26q43 -7 73 -22.5t46.5 -45t16.5 -78.5v-86
q0 -76 -40.5 -111t-113.5 -35h-276zM337 743h-89l-103 126h65l82 -88l82 88h67z" />
    <glyph glyph-name="scaron" unicode="&#x161;" horiz-adv-x="463" 
d="M66 0v64h214q58 0 58 53v39q0 29 -14.5 40.5t-47.5 15.5l-106 14q-41 6 -65.5 19t-36 36.5t-11.5 61.5v37q0 61 31 87.5t94 26.5h204v-36l-27 -28h-178q-26 0 -40 -11.5t-14 -38.5v-37q0 -29 14 -41t47 -16l105 -14q43 -6 67.5 -18t36 -35t11.5 -62v-40q0 -61 -32.5 -89
t-95.5 -28h-214zM275 554h-89l-103 126h65l82 -88l82 88h67z" />
    <glyph glyph-name="Utilde" unicode="&#x168;" horiz-adv-x="680" 
d="M253 -6q-75 0 -117.5 37t-42.5 112v557h74v-557q0 -40 23 -60t63 -20h174q40 0 63 20t23 60v557h74v-557q0 -75 -42.5 -112t-117.5 -37h-174zM196 753q0 50 23 75.5t62 25.5q21 0 36 -8.5t31 -23.5q13 -11 21 -16t17 -5q18 0 26.5 12.5t8.5 40.5h51q0 -50 -22.5 -75.5
t-62.5 -25.5q-21 0 -36 8.5t-31 23.5q-12 11 -20.5 16.5t-17.5 5.5q-18 0 -26.5 -12.5t-8.5 -41.5h-51z" />
    <glyph glyph-name="utilde" unicode="&#x169;" horiz-adv-x="547" 
d="M233 0q-73 0 -114 35.5t-41 105.5v353h72v-346q0 -84 88 -84h157v430h72v-494h-234zM135 579q0 50 23 75.5t62 25.5q21 0 36 -8.5t31 -23.5q13 -11 21 -16t17 -5q18 0 26.5 12.5t8.5 40.5h51q0 -50 -22.5 -75.5t-62.5 -25.5q-21 0 -36 8.5t-31 23.5q-12 11 -20.5 16.5
t-17.5 5.5q-18 0 -26.5 -12.5t-8.5 -41.5h-51z" />
    <glyph glyph-name="Wcircumflex" unicode="&#x174;" horiz-adv-x="958" 
d="M323 0h-105l-196 700h82l167 -634l168 634h80l166 -636l169 636h82l-198 -700h-105l-154 580zM525 869l104 -126h-67l-82 88l-82 -88h-65l103 126h89z" />
    <glyph glyph-name="wcircumflex" unicode="&#x175;" horiz-adv-x="752" 
d="M252 0h-84l-153 494h78l118 -418l130 418h73l132 -421l117 421h74l-150 -494h-83l-128 410zM422 680l104 -126h-67l-82 88l-82 -88h-65l103 126h89z" />
    <glyph glyph-name="Ycircumflex" unicode="&#x176;" horiz-adv-x="568" 
d="M320 0h-74v304l-229 396h87l181 -328l185 328h80l-230 -396v-304zM332 869l104 -126h-67l-82 88l-82 -88h-65l103 126h89z" />
    <glyph glyph-name="ycircumflex" unicode="&#x177;" horiz-adv-x="468" 
d="M46 -186v62h49q37 0 57.5 15.5t32.5 50.5l30 82h-30l-170 470h77l144 -414l142 414h75l-162 -454l-36 -98q-18 -51 -40.5 -79t-51 -38.5t-68.5 -10.5h-49zM280 680l104 -126h-67l-82 88l-82 -88h-65l103 126h89z" />
    <glyph glyph-name="Ydieresis" unicode="&#x178;" horiz-adv-x="568" 
d="M320 0h-74v304l-229 396h87l181 -328l185 328h80l-230 -396v-304zM145 768v87h82v-87h-82zM343 768v87h81v-87h-81z" />
    <glyph glyph-name="Zcaron" unicode="&#x17d;" horiz-adv-x="535" 
d="M500 0h-467v69l365 562h-337v69h419v-69l-365 -562h385v-69zM311 743h-89l-103 126h65l82 -88l82 88h67z" />
    <glyph glyph-name="zcaron" unicode="&#x17e;" horiz-adv-x="459" 
d="M412 0h-366v58l274 378h-260v58h345v-58l-274 -378h281v-58zM273 554h-89l-103 126h65l82 -88l82 88h67z" />
    <glyph glyph-name="florin" unicode="&#x192;" horiz-adv-x="421" 
d="M340 644q-32 0 -46 -16t-19 -54l-16 -146h121v-56h-128l-42 -378q-7 -63 -38 -91.5t-96 -28.5h-66v57h57q25 0 39.5 6.5t22 21.5t10.5 41l42 372h-89v56h95l17 152q8 62 37.5 91t89.5 29h79v-56h-70z" />
    <glyph glyph-name="Ohorn" unicode="&#x1a0;" 
d="M649 774h59v-90q0 -53 -29 -78.5t-79 -26.5q1 -7 1 -22v-414q0 -75 -42.5 -112t-117.5 -37h-192q-75 0 -117.5 37t-42.5 112v414q0 76 42.5 113t117.5 37h192q52 0 89.5 -18.5t55.5 -55.5h10q26 0 39.5 13t13.5 38v90zM525 557q0 40 -22 60.5t-62 20.5h-192
q-40 0 -62 -20.5t-22 -60.5v-414q0 -40 22 -60t62 -20h192q40 0 62 20t22 60v414z" />
    <glyph glyph-name="ohorn" unicode="&#x1a1;" horiz-adv-x="572" 
d="M528 570h59v-90q0 -50 -26.5 -76t-73.5 -29q1 -5 1 -15v-226q0 -70 -39 -105t-111 -35h-115q-72 0 -110.5 35t-38.5 105v226q0 70 38.5 105.5t110.5 35.5h115q51 0 86 -18t51 -54q26 0 39.5 13t13.5 38v90zM415 360q0 39 -19 57.5t-58 18.5h-115q-39 0 -58 -18.5
t-19 -57.5v-226q0 -39 19 -57.5t58 -18.5h115q39 0 58 18.5t19 57.5v226z" />
    <glyph glyph-name="Uhorn" unicode="&#x1af;" horiz-adv-x="680" 
d="M658 774h59v-90q0 -53 -30 -79t-82 -26h-18v-436q0 -75 -42.5 -112t-117.5 -37h-174q-75 0 -117.5 37t-42.5 112v557h74v-557q0 -40 23 -60t63 -20h174q40 0 63 20t23 60v557h74v-67h18q26 0 39.5 13t13.5 38v90z" />
    <glyph glyph-name="uhorn" unicode="&#x1b0;" horiz-adv-x="574" 
d="M530 570h59v-90q0 -53 -30 -79t-82 -26h-10v-375h-234q-73 0 -114 35.5t-41 105.5v353h72v-346q0 -84 88 -84h157v430h72v-65h10q26 0 39.5 13t13.5 38v90z" />
    <glyph glyph-name="Scommaaccent" unicode="&#x218;" horiz-adv-x="584" 
d="M85 0v69h276q80 0 80 77v86q0 37 -20.5 54.5t-59.5 24.5l-156 26q-43 7 -73 22.5t-46.5 47t-16.5 81.5v66q0 75 41 110.5t113 35.5h266v-41l-28 -28h-238q-79 0 -79 -77v-66q0 -39 20.5 -58.5t58.5 -25.5l156 -26q43 -7 73 -22.5t46.5 -45t16.5 -78.5v-86
q0 -76 -40.5 -111t-113.5 -35h-276zM265 -128v69h69v-71l-54 -70h-45z" />
    <glyph glyph-name="scommaaccent" unicode="&#x219;" horiz-adv-x="463" 
d="M66 0v64h214q58 0 58 53v39q0 29 -14.5 40.5t-47.5 15.5l-106 14q-41 6 -65.5 19t-36 36.5t-11.5 61.5v37q0 61 31 87.5t94 26.5h204v-36l-27 -28h-178q-26 0 -40 -11.5t-14 -38.5v-37q0 -29 14 -41t47 -16l105 -14q43 -6 67.5 -18t36 -35t11.5 -62v-40q0 -61 -32.5 -89
t-95.5 -28h-214zM198 -128v69h69v-71l-54 -70h-45z" />
    <glyph glyph-name="uni021A" unicode="&#x21a;" horiz-adv-x="514" 
d="M295 0h-76v631h-213v69h503v-41l-28 -28h-186v-631zM222 -128v69h69v-71l-54 -70h-45z" />
    <glyph glyph-name="uni021B" unicode="&#x21b;" horiz-adv-x="301" 
d="M214 0q-45 0 -69 9t-34 33.5t-10 74.5v319h-92v58h92v124h72v-124h112v-58h-112v-319q0 -22 4 -33.5t14 -16t29 -4.5h59v-63h-65zM126 -128v69h69v-71l-54 -70h-45z" />
    <glyph glyph-name="circumflex" unicode="&#x2c6;" horiz-adv-x="600" 
d="M344 881l104 -126h-67l-82 88l-82 -88h-65l103 126h89z" />
    <glyph glyph-name="caron" unicode="&#x2c7;" horiz-adv-x="600" 
d="M344 755h-89l-103 126h65l82 -88l82 88h67z" />
    <glyph glyph-name="uni02C9" unicode="&#x2c9;" horiz-adv-x="452" 
d="M70 585v56h312v-56h-312z" />
    <glyph glyph-name="breve" unicode="&#x2d8;" horiz-adv-x="601" 
d="M238 752q-28 14 -43.5 38.5t-15.5 56.5h63q0 -27 17 -43.5t43 -16.5t42.5 16.5t16.5 43.5h63q0 -32 -15.5 -56.5t-43.5 -38.5t-63 -14q-36 0 -64 14z" />
    <glyph glyph-name="dotaccent" unicode="&#x2d9;" horiz-adv-x="600" 
d="M259 780v87h82v-87h-82z" />
    <glyph glyph-name="ring" unicode="&#x2da;" horiz-adv-x="602" 
d="M249.5 759.5q-23.5 13.5 -37 37t-13.5 52.5q0 27 13.5 50.5t37 37.5t51.5 14q27 0 50.5 -14t37.5 -37.5t14 -50.5q0 -28 -14 -52t-37 -37.5t-51 -13.5t-51.5 13.5zM332 793.5q14 8.5 22.5 23.5t8.5 32t-8.5 31t-22.5 22.5t-31 8.5q-26 0 -44 -18t-18 -44t18 -45t44 -19
q17 0 31 8.5z" />
    <glyph glyph-name="ogonek" unicode="&#x2db;" horiz-adv-x="600" 
d="M302 -175q-58 0 -84.5 20.5t-26.5 68.5v19q0 36 27 59.5t68 32.5l54 -14q-36 -10 -57 -19.5t-31.5 -23.5t-10.5 -35v-19q0 -27 14.5 -37.5t44.5 -10.5h94v-41h-92z" />
    <glyph glyph-name="tilde" unicode="&#x2dc;" horiz-adv-x="600" 
d="M162 783q0 50 23 75.5t62 25.5q21 0 36 -8.5t31 -23.5q13 -11 21 -16t17 -5q18 0 26.5 12.5t8.5 40.5h51q0 -50 -22.5 -75.5t-62.5 -25.5q-21 0 -36 8.5t-31 23.5q-12 11 -20.5 16.5t-17.5 5.5q-18 0 -26.5 -12.5t-8.5 -41.5h-51z" />
    <glyph glyph-name="hungarumlaut" unicode="&#x2dd;" horiz-adv-x="600" 
d="M209 754h-56l77 126h66zM350 754h-55l77 126h65z" />
    <glyph glyph-name="gravecomb" unicode="&#x300;" horiz-adv-x="0" 
d="M-342 881l93 -126h-71l-106 126h84z" />
    <glyph glyph-name="acutecomb" unicode="&#x301;" horiz-adv-x="0" 
d="M-272 755h-71l93 126h84z" />
    <glyph glyph-name="circumflexcomb" unicode="&#x302;" horiz-adv-x="0" 
d="M-256 881l104 -126h-67l-82 88l-82 -88h-65l103 126h89z" />
    <glyph glyph-name="tildecomb" unicode="&#x303;" horiz-adv-x="0" 
d="M-438 753q0 50 23 75.5t62 25.5q21 0 36 -8.5t31 -23.5q13 -11 21 -16t17 -5q18 0 26.5 12.5t8.5 40.5h51q0 -50 -22.5 -75.5t-62.5 -25.5q-21 0 -36 8.5t-31 23.5q-12 11 -20.5 16.5t-17.5 5.5q-18 0 -26.5 -12.5t-8.5 -41.5h-51z" />
    <glyph glyph-name="dotaccentcomb" unicode="&#x307;" horiz-adv-x="0" 
d="M-341 740v87h82v-87h-82z" />
    <glyph glyph-name="hookabovecomb" unicode="&#x309;" horiz-adv-x="0" 
d="M-277 890q32 0 49.5 -5.5t25 -17t7.5 -32.5v-14q0 -22 -9.5 -34t-30.5 -17t-59 -5v-26h-53v64h56q23 0 30 4t7 14v8q0 9 -5.5 12.5t-20.5 3.5h-135v45h138z" />
    <glyph glyph-name="ringcomb" unicode="&#x30a;" horiz-adv-x="0" 
d="M-350.5 763.5q-22.5 13.5 -36 36t-13.5 49.5q0 26 13.5 48.5t36 36t49.5 13.5q26 0 49 -13.5t36 -36t13 -48.5q0 -27 -13 -49.5t-35.5 -36t-49.5 -13.5t-49.5 13.5zM-260 806.5q17 17.5 17 42.5q0 24 -17 41t-41 17q-25 0 -42 -17t-17 -41q0 -25 17 -42.5t42 -17.5
q24 0 41 17.5z" />
    <glyph glyph-name="uni031B" unicode="&#x31b;" horiz-adv-x="0" 
d="M-72 570h59v-90q0 -53 -30 -79t-82 -26h-43v54h43q26 0 39.5 13t13.5 38v90z" />
    <glyph glyph-name="dotbelowcomb" unicode="&#x323;" horiz-adv-x="0" 
d="M-341 -166v94h81v-94h-81z" />
    <glyph glyph-name="commaaccent" unicode="&#x326;" horiz-adv-x="0" 
d="M-342 -128v69h69v-71l-54 -70h-45z" />
    <glyph glyph-name="uni0394" unicode="&#x394;" horiz-adv-x="639" 
d="M371 700l251 -700h-605l253 700h101zM320 640l-202 -574h402z" />
    <glyph glyph-name="Epsilon" unicode="&#x395;" horiz-adv-x="543" 
d="M494 0h-399v700h389v-41l-28 -28h-285v-243h298v-39l-28 -28h-270v-252h323v-69z" />
    <glyph glyph-name="uni03A9" unicode="&#x3a9;" horiz-adv-x="656" 
d="M593 67v-67h-221v87q57 6 89.5 41.5t32.5 104.5v326q0 41 -22.5 60.5t-61.5 19.5h-164q-39 0 -61.5 -19.5t-22.5 -60.5v-326q0 -69 32.5 -104.5t89.5 -41.5v-87h-221v67h122q-47 21 -72 62t-25 104v326q0 75 42.5 111t115.5 36h164q73 0 115.5 -36t42.5 -111v-326
q0 -63 -25 -104t-72 -62h122z" />
    <glyph glyph-name="uni03BC" unicode="&#x3bc;" horiz-adv-x="553" 
d="M399 494h72v-494h-222q-69 0 -102 45v-225h-65v674h73v-346q0 -43 22 -63.5t66 -20.5h156v430z" />
    <glyph glyph-name="pi" unicode="&#x3c0;" horiz-adv-x="604" 
d="M47 438v56h510v-56h-91v-326q0 -28 10 -38t35 -10h46v-64h-46q-43 0 -68.5 12t-36 36.5t-10.5 63.5v326h-193v-438h-71v438h-85z" />
    <glyph glyph-name="uni0400" unicode="&#x400;" horiz-adv-x="543" 
d="M494 0h-399v700h389v-41l-28 -28h-285v-243h298v-39l-28 -28h-270v-252h323v-69zM266 881l97 -126h-71l-109 126h83z" />
    <glyph glyph-name="uni0401" unicode="&#x401;" horiz-adv-x="543" 
d="M494 0h-399v700h389v-41l-28 -28h-285v-243h298v-39l-28 -28h-270v-252h323v-69zM152 780v87h82v-87h-82zM350 780v87h81v-87h-81z" />
    <glyph glyph-name="uni0402" unicode="&#x402;" horiz-adv-x="711" 
d="M193 0v631h-173v69h503v-41l-27 -28h-227v-235h194q68 0 106.5 -15t56.5 -51.5t18 -103.5v-50q0 -63 -17.5 -101t-57 -56.5t-106.5 -18.5h-91v69h91q40 0 63.5 11t34 34t10.5 62v50q0 41 -11.5 62.5t-35 30t-61.5 8.5h-194v-327h-76z" />
    <glyph glyph-name="uni0403" unicode="&#x403;" horiz-adv-x="508" 
d="M171 0h-76v700h389v-41l-28 -28h-285v-631zM283 755h-71l97 126h83z" />
    <glyph glyph-name="uni0404" unicode="&#x404;" horiz-adv-x="563" 
d="M250 0q-75 0 -118 37t-43 112v402q0 75 43 112t118 37h262v-41l-28 -28h-234q-40 0 -62 -20t-22 -60v-163h312v-67h-312v-172q0 -40 22 -60t62 -20h263v-69h-263z" />
    <glyph glyph-name="uni0405" unicode="&#x405;" horiz-adv-x="584" 
d="M85 0v69h276q80 0 80 77v86q0 37 -20.5 54.5t-59.5 24.5l-156 26q-43 7 -73 22.5t-46.5 47t-16.5 81.5v66q0 75 41 110.5t113 35.5h266v-41l-28 -28h-238q-79 0 -79 -77v-66q0 -39 20.5 -58.5t58.5 -25.5l156 -26q43 -7 73 -22.5t46.5 -45t16.5 -78.5v-86
q0 -76 -40.5 -111t-113.5 -35h-276z" />
    <glyph glyph-name="uni0406" unicode="&#x406;" horiz-adv-x="266" 
d="M171 0h-76v700h76v-700z" />
    <glyph glyph-name="uni0407" unicode="&#x407;" horiz-adv-x="266" 
d="M171 0h-76v700h76v-700zM-7 768v87h82v-87h-82zM191 768v87h81v-87h-81z" />
    <glyph glyph-name="uni0408" unicode="&#x408;" horiz-adv-x="400" 
d="M25 0v69h126q46 0 63.5 20.5t17.5 64.5v546h75v-546q0 -80 -38 -117t-118 -37h-126z" />
    <glyph glyph-name="uni0409" unicode="&#x409;" horiz-adv-x="974" 
d="M450 0v633h-5l-342 -633h-86l384 700h124v-296h218q87 0 127.5 -38.5t40.5 -118.5v-118l-129 -129h-332zM525 69h223l88 88v90q0 32 -9 51.5t-29 29t-55 9.5h-218v-268z" />
    <glyph glyph-name="uni040A" unicode="&#x40a;" horiz-adv-x="1033" 
d="M509 0v331h-338v-331h-76v700h76v-300h338v300h75v-300h217q88 0 128.5 -38.5t40.5 -118.5v-114l-130 -129h-331zM584 69h223l88 88v86q0 48 -21 69t-73 21h-217v-264z" />
    <glyph glyph-name="uni040B" unicode="&#x40b;" horiz-adv-x="714" 
d="M193 0v631h-173v69h503v-41l-27 -28h-227v-235h194q67 0 106.5 -18.5t57 -56.5t17.5 -101v-220h-73v220q0 39 -10.5 62t-34 34t-63.5 11h-194v-327h-76z" />
    <glyph glyph-name="uni040C" unicode="&#x40c;" horiz-adv-x="592" 
d="M171 0h-76v700h76v-308h106l208 308h85l-228 -331l233 -369h-87l-202 329h-115v-329zM325 755h-71l97 126h83z" />
    <glyph glyph-name="uni040D" unicode="&#x40d;" horiz-adv-x="702" 
d="M171 0h-76v700h76v-523l360 446v77h75v-700h-75v525l-360 -446v-79zM325 881l97 -126h-71l-109 126h83z" />
    <glyph glyph-name="uni040E" unicode="&#x40e;" horiz-adv-x="601" 
d="M216 914q0 -66 74 -66h17q74 0 74 66v11h64v-11q0 -39 -12 -64.5t-42.5 -38.5t-83.5 -13h-17q-53 0 -83.5 13.5t-43 38.5t-12.5 64v11h65v-11zM126 0v67h54q37 0 56.5 15.5t33.5 51.5l49 119h-110l-189 447h80l157 -381h89l158 381h77l-235 -566q-23 -54 -43.5 -82.5
t-49 -40t-73.5 -11.5h-54z" />
    <glyph glyph-name="uni040F" unicode="&#x40f;" horiz-adv-x="677" 
d="M305 0h-210v700h76v-631h335v631h76v-700h-210v-158h-67v158z" />
    <glyph glyph-name="uni0410" unicode="&#x410;" horiz-adv-x="652" 
d="M102 0h-78l252 700h102l250 -700h-79l-64 183h-319zM326 639l-136 -390h272z" />
    <glyph glyph-name="uni0411" unicode="&#x411;" horiz-adv-x="637" 
d="M95 0v700h420v-41l-28 -28h-316v-237h234q157 0 157 -149v-115l-131 -130h-336zM171 69h227l88 88v88q0 42 -19.5 62t-61.5 20h-234v-258z" />
    <glyph glyph-name="uni0412" unicode="&#x412;" horiz-adv-x="640" 
d="M536 323.5q27 -26.5 27 -75.5v-92q0 -75 -43 -115.5t-130 -40.5h-295v700h280q82 0 121 -32.5t39 -105.5v-98q0 -39 -19.5 -65t-53.5 -39q47 -10 74 -36.5zM171 631v-246h227q33 4 47.5 23t14.5 56v90q0 42 -20.5 59.5t-64.5 17.5h-204zM390 69q49 0 73.5 21t24.5 66v92
q0 40 -26 57t-73 17h-218v-253h219z" />
    <glyph glyph-name="uni0413" unicode="&#x413;" horiz-adv-x="508" 
d="M171 0h-76v700h389v-41l-28 -28h-285v-631z" />
    <glyph glyph-name="uni0414" unicode="&#x414;" horiz-adv-x="754" 
d="M89 -158h-69v227h84l220 631h107l221 -631h82v-227h-69v158h-576v-158zM375 634l-192 -565h390l-193 566z" />
    <glyph glyph-name="uni0415" unicode="&#x415;" horiz-adv-x="543" 
d="M494 0h-399v700h389v-41l-28 -28h-285v-243h298v-39l-28 -28h-270v-252h323v-69z" />
    <glyph glyph-name="uni0416" unicode="&#x416;" horiz-adv-x="867" 
d="M104 0h-87l228 369l-222 331h85l204 -308h84v308h75v-308h85l204 308h85l-223 -331l228 -369h-87l-198 329h-94v-329h-75v329h-93z" />
    <glyph glyph-name="uni0417" unicode="&#x417;" horiz-adv-x="552" 
d="M50 0v69h249q49 0 73 21.5t24 67.5v93q0 45 -25 61.5t-72 16.5h-213v64h213q42 0 60.5 19.5t18.5 62.5v79q0 42 -21 59.5t-65 17.5h-238v69h238q58 0 93.5 -15t51.5 -47t16 -84v-79q0 -42 -21.5 -69t-58.5 -40q47 -10 72.5 -37.5t25.5 -77.5v-93q0 -158 -172 -158h-249z
" />
    <glyph glyph-name="uni0418" unicode="&#x418;" horiz-adv-x="702" 
d="M171 0h-76v700h76v-523l360 446v77h75v-700h-75v525l-360 -446v-79z" />
    <glyph glyph-name="uni0419" unicode="&#x419;" horiz-adv-x="702" 
d="M266 914q0 -66 74 -66h17q74 0 74 66v11h64v-11q0 -39 -12 -64.5t-42.5 -38.5t-83.5 -13h-17q-53 0 -83.5 13.5t-43 38.5t-12.5 64v11h65v-11zM171 0h-76v700h76v-523l360 446v77h75v-700h-75v525l-360 -446v-79z" />
    <glyph glyph-name="uni041A" unicode="&#x41a;" horiz-adv-x="592" 
d="M171 0h-76v700h76v-308h106l208 308h85l-228 -331l233 -369h-87l-202 329h-115v-329z" />
    <glyph glyph-name="uni041B" unicode="&#x41b;" horiz-adv-x="633" 
d="M104 0h-80l229 700h126l230 -700h-80l-207 634l-13 -1z" />
    <glyph glyph-name="uni041C" unicode="&#x41c;" horiz-adv-x="836" 
d="M168 0h-73v700h116l209 -446l208 446h113v-700h-72v637l-207 -446h-87l-207 443v-634z" />
    <glyph glyph-name="uni041D" unicode="&#x41d;" horiz-adv-x="679" 
d="M171 0h-76v700h76v-300h338v300h75v-700h-75v331h-338v-331z" />
    <glyph glyph-name="uni041E" unicode="&#x41e;" 
d="M249 -6q-75 0 -117.5 37t-42.5 112v414q0 76 42.5 113t117.5 37h192q75 0 117.5 -37t42.5 -113v-414q0 -75 -42.5 -112t-117.5 -37h-192zM441 63q40 0 62 20t22 60v414q0 40 -22 60.5t-62 20.5h-192q-40 0 -62 -20.5t-22 -60.5v-414q0 -40 22 -60t62 -20h192z" />
    <glyph glyph-name="uni041F" unicode="&#x41f;" horiz-adv-x="677" 
d="M171 0h-76v700h487v-700h-76v631h-335v-631z" />
    <glyph glyph-name="uni0420" unicode="&#x420;" horiz-adv-x="603" 
d="M95 0v700h268q69 0 108 -15t57 -51t18 -103v-78q0 -63 -17.5 -101t-57.5 -56.5t-108 -18.5h-192v-277h-76zM363 346q40 0 63.5 11t34 34t10.5 62v78q0 40 -11.5 62t-35 30t-61.5 8h-192v-285h192z" />
    <glyph glyph-name="uni0421" unicode="&#x421;" horiz-adv-x="553" 
d="M250 0q-75 0 -118 37t-43 113v401q0 75 43 112t118 37h261v-41l-27 -28h-234q-40 0 -62 -20t-22 -60v-401q0 -41 22 -61t62 -20h261v-69h-261z" />
    <glyph glyph-name="uni0422" unicode="&#x422;" horiz-adv-x="514" 
d="M295 0h-76v631h-213v69h503v-41l-28 -28h-186v-631z" />
    <glyph glyph-name="uni0423" unicode="&#x423;" horiz-adv-x="601" 
d="M126 0v67h54q37 0 56.5 15.5t33.5 51.5l49 119h-110l-189 447h80l157 -381h89l158 381h77l-235 -566q-23 -54 -43.5 -82.5t-49 -40t-73.5 -11.5h-54z" />
    <glyph glyph-name="uni0424" unicode="&#x424;" horiz-adv-x="849" 
d="M75 476q0 76 43 113t118 37h151v74h75v-74h151q76 0 118.5 -37t42.5 -113v-248l-131 -130h-181v-98h-75v98h-151q-75 0 -118 37t-43 113v228zM152 248q0 -41 22 -61t62 -20h151v390h-151q-40 0 -62 -20t-22 -61v-228zM610 167l88 88v221q0 41 -22 61t-63 20h-151v-390
h148z" />
    <glyph glyph-name="uni0425" unicode="&#x425;" horiz-adv-x="617" 
d="M112 0h-86l241 356l-237 344h87l194 -292l192 292h83l-232 -345l237 -355h-88l-195 302z" />
    <glyph glyph-name="uni0426" unicode="&#x426;" horiz-adv-x="706" 
d="M599 0h-504v700h76v-631h335v631h76v-631h86v-227h-69v158z" />
    <glyph glyph-name="uni0427" unicode="&#x427;" horiz-adv-x="612" 
d="M441 0v283h-194q-67 0 -106.5 18.5t-57 56.5t-17.5 101v241h73v-241q0 -39 10.5 -62t34 -34t63.5 -11h194v348h75v-700h-75z" />
    <glyph glyph-name="uni0428" unicode="&#x428;" horiz-adv-x="1005" 
d="M909 0h-814v700h76v-631h294v631h75v-631h294v631h75v-700z" />
    <glyph glyph-name="uni0429" unicode="&#x429;" horiz-adv-x="1032" 
d="M926 0h-831v700h76v-631h293v631h75v-631h294v631h75v-631h87v-227h-69v158z" />
    <glyph glyph-name="uni042A" unicode="&#x42a;" horiz-adv-x="721" 
d="M197 0v631h-175v69h250v-296h217q87 0 128 -38.5t41 -118.5v-118l-129 -129h-332zM272 69h223l88 88v90q0 48 -21 69t-73 21h-217v-268z" />
    <glyph glyph-name="uni042B" unicode="&#x42b;" horiz-adv-x="845" 
d="M95 0v700h76v-296h217q87 0 128 -38.5t41 -118.5v-118l-130 -129h-332zM750 0h-75v700h75v-700zM171 69h223l87 88v90q0 32 -9 51.5t-29 29t-55 9.5h-217v-268z" />
    <glyph glyph-name="uni042C" unicode="&#x42c;" horiz-adv-x="620" 
d="M95 0v700h76v-296h217q87 0 128 -38.5t41 -118.5v-118l-130 -129h-332zM171 69h223l87 88v90q0 32 -9 51.5t-29 29t-55 9.5h-217v-268z" />
    <glyph glyph-name="uni042D" unicode="&#x42d;" horiz-adv-x="563" 
d="M50 0v69h259l88 88v164h-313v67h313v163q0 40 -22 60t-62 20h-262v69h262q75 0 118 -37t43 -112v-421l-132 -130h-292z" />
    <glyph glyph-name="uni042E" unicode="&#x42e;" horiz-adv-x="912" 
d="M491 -6q-76 0 -118.5 37t-42.5 112v188h-159v-331h-76v700h76v-300h159v157q0 76 42.5 113t118.5 37h165q75 0 117.5 -37t42.5 -113v-414q0 -75 -42.5 -112t-117.5 -37h-165zM656 63q40 0 62 20t22 60v414q0 40 -22 60.5t-62 20.5h-165q-40 0 -62.5 -20.5t-22.5 -60.5
v-414q0 -40 22.5 -60t62.5 -20h165z" />
    <glyph glyph-name="uni042F" unicode="&#x42f;" horiz-adv-x="614" 
d="M68 546q0 81 39 117.5t126 36.5h286v-700h-76v287h-201l-122 -287h-83l129 298q-47 16 -72.5 52.5t-25.5 88.5v107zM141 439q0 -43 22.5 -64.5t75.5 -21.5h204v278h-210q-46 0 -69 -20t-23 -65v-107z" />
    <glyph glyph-name="uni0430" unicode="&#x430;" horiz-adv-x="518" 
d="M185 0q-65 0 -96 28.5t-31 84.5v66q0 42 14 66t41.5 34t71.5 10h186v82q0 26 -6 40t-20.5 19.5t-41.5 5.5h-194v58h196q49 0 77.5 -11t42.5 -38t14 -74v-371h-254zM371 59v175h-186q-32 0 -45.5 -12.5t-13.5 -43.5v-65q0 -28 14.5 -41t44.5 -13h186z" />
    <glyph glyph-name="uni0431" unicode="&#x431;" horiz-adv-x="559" 
d="M222 -6q-72 0 -110.5 35t-38.5 106v376q0 41 13 66.5t39.5 41t72.5 25.5l271 63l14 -61l-272 -63q-34 -8 -50 -24t-16 -48v-29h193q70 0 109 -35.5t39 -105.5v-206q0 -70 -38.5 -105.5t-109.5 -35.5h-116zM338 59q77 0 77 76v206q0 77 -77 77h-193v-283q0 -76 77 -76h116
z" />
    <glyph glyph-name="uni0432" unicode="&#x432;" horiz-adv-x="543" 
d="M82 0v494h253q61 0 90.5 -24.5t29.5 -77.5v-53q0 -31 -16.5 -50t-42.5 -27v-6q74 -13 74 -83v-61q0 -112 -123 -112h-265zM324 285q29 0 43.5 13.5t14.5 43.5v36q0 32 -15.5 44.5t-48.5 12.5h-163v-150h169zM330 59q35 0 51.5 14.5t16.5 47.5v49q0 55 -67 55h-176v-166
h175z" />
    <glyph glyph-name="uni0433" unicode="&#x433;" horiz-adv-x="415" 
d="M155 0h-73v494h313v-36l-27 -28h-213v-430z" />
    <glyph glyph-name="uni0434" unicode="&#x434;" horiz-adv-x="568" 
d="M79 -119h-64v184h66l150 429h107l149 -429h66v-184h-64v119h-410v-119zM275 430l-120 -365h258l-119 365h-19z" />
    <glyph glyph-name="uni0435" unicode="&#x435;" horiz-adv-x="528" 
d="M213 0q-70 0 -104.5 32.5t-34.5 95.5v247q0 126 147 126h100q73 0 111 -31t38 -99q0 -86 -6 -144h-318v-98q0 -34 16 -49.5t54 -15.5h228v-64h-231zM146 288h255v82q0 39 -19.5 55.5t-65.5 16.5h-91q-39 0 -59 -16t-20 -51v-87z" />
    <glyph glyph-name="uni0436" unicode="&#x436;" horiz-adv-x="750" 
d="M105 0h-83l180 263l-173 231h80l153 -208h77v208h72v-208h76l153 208h81l-174 -231l180 -263h-82l-151 228h-83v-228h-72v228h-84z" />
    <glyph glyph-name="uni0437" unicode="&#x437;" horiz-adv-x="468" 
d="M57 0v59h197q36 0 52 14.5t16 47.5v48q0 55 -66 55h-170v60h163q29 0 43.5 13.5t14.5 43.5v37q0 32 -15.5 44.5t-48.5 12.5h-186v59h203q61 0 90 -24.5t29 -77.5v-54q0 -31 -16.5 -50t-42.5 -27v-6q75 -13 75 -83v-60q0 -112 -124 -112h-214z" />
    <glyph glyph-name="uni0438" unicode="&#x438;" horiz-adv-x="579" 
d="M155 0h-73v494h73v-361l270 318v43h72v-494h-72v360l-270 -317v-43z" />
    <glyph glyph-name="uni0439" unicode="&#x439;" horiz-adv-x="579" 
d="M205 708q0 -66 74 -66h17q74 0 74 66v11h64v-11q0 -39 -12 -64.5t-42.5 -38.5t-83.5 -13h-17q-53 0 -83.5 13.5t-43 38.5t-12.5 64v11h65v-11zM155 0h-73v494h73v-361l270 318v43h72v-494h-72v360l-270 -317v-43z" />
    <glyph glyph-name="uni043A" unicode="&#x43a;" horiz-adv-x="513" 
d="M155 0h-73v494h73v-208h89l160 208h81l-181 -231l187 -263h-82l-157 228h-97v-228z" />
    <glyph glyph-name="uni043B" unicode="&#x43b;" horiz-adv-x="489" 
d="M96 0h-76l165 494h119l165 -494h-75l-140 430h-19z" />
    <glyph glyph-name="uni043C" unicode="&#x43c;" horiz-adv-x="675" 
d="M150 0h-68v494h99l156 -297l157 297h99v-494h-68v424l-152 -290h-72l-151 288v-422z" />
    <glyph glyph-name="uni043D" unicode="&#x43d;" horiz-adv-x="561" 
d="M155 0h-73v494h73v-205h251v205h73v-494h-73v225h-251v-225z" />
    <glyph glyph-name="uni043E" unicode="&#x43e;" horiz-adv-x="561" 
d="M223 -6q-72 0 -110.5 35t-38.5 105v226q0 70 38.5 105.5t110.5 35.5h115q72 0 111 -35.5t39 -105.5v-226q0 -70 -39 -105t-111 -35h-115zM338 58q39 0 58 18.5t19 57.5v226q0 39 -19 57.5t-58 18.5h-115q-39 0 -58 -18.5t-19 -57.5v-226q0 -39 19 -57.5t58 -18.5h115z
" />
    <glyph glyph-name="uni043F" unicode="&#x43f;" horiz-adv-x="555" 
d="M155 0h-73v494h391v-494h-72v430h-246v-430z" />
    <glyph glyph-name="uni0440" unicode="&#x440;" horiz-adv-x="543" 
d="M82 -180v674h234q72 0 112.5 -35.5t40.5 -105.5v-213q0 -70 -40.5 -105t-112.5 -35h-162v-180h-72zM316 64q39 0 60 19.5t21 57.5v211q0 38 -21 58t-60 20h-162v-366h162z" />
    <glyph glyph-name="uni0441" unicode="&#x441;" horiz-adv-x="442" 
d="M223 0q-72 0 -110.5 35t-38.5 105v213q0 71 38.5 106t110.5 35h181v-36l-28 -28h-153q-77 0 -77 -78v-211q0 -77 77 -77h181v-64h-181z" />
    <glyph glyph-name="uni0442" unicode="&#x442;" horiz-adv-x="449" 
d="M261 0h-73v430h-168v64h409v-36l-28 -28h-140v-430z" />
    <glyph glyph-name="uni0443" unicode="&#x443;" horiz-adv-x="468" 
d="M46 -186v62h49q37 0 57.5 15.5t32.5 50.5l30 82h-30l-170 470h77l144 -414l142 414h75l-162 -454l-36 -98q-18 -51 -40.5 -79t-51 -38.5t-68.5 -10.5h-49z" />
    <glyph glyph-name="uni0444" unicode="&#x444;" horiz-adv-x="760" 
d="M73 353q0 70 40.5 105.5t112.5 35.5h118v206h73v-206h117q72 0 112.5 -35.5t40.5 -105.5v-212q0 -70 -40.5 -105.5t-112.5 -35.5h-117v-180h-73v180h-118q-72 0 -112.5 35.5t-40.5 105.5v212zM145 142q0 -38 21 -57.5t60 -19.5h118v365h-118q-39 0 -60 -20t-21 -58v-210z
M615 352q0 38 -21 58t-60 20h-117v-365h117q39 0 60 19.5t21 57.5v210z" />
    <glyph glyph-name="uni0445" unicode="&#x445;" horiz-adv-x="458" 
d="M94 0h-79l172 254l-162 240h78l128 -192l127 192h77l-162 -240l170 -254h-79l-136 206z" />
    <glyph glyph-name="uni0446" unicode="&#x446;" horiz-adv-x="579" 
d="M480 0h-398v494h73v-429h246v429h72v-429h71v-184h-64v119z" />
    <glyph glyph-name="uni0447" unicode="&#x447;" horiz-adv-x="519" 
d="M365 0v202h-159q-66 0 -102 31t-36 95v166h72v-160q0 -36 17.5 -52t53.5 -16h154v228h72v-494h-72z" />
    <glyph glyph-name="uni0448" unicode="&#x448;" horiz-adv-x="816" 
d="M734 0h-652v494h73v-429h217v429h72v-429h217v429h73v-494z" />
    <glyph glyph-name="uni0449" unicode="&#x449;" horiz-adv-x="840" 
d="M741 0h-659v494h73v-429h217v429h72v-429h217v429h73v-429h71v-184h-64v119z" />
    <glyph glyph-name="uni044A" unicode="&#x44a;" horiz-adv-x="587" 
d="M158 0v430h-138v64h211v-199h175q65 0 96 -27.5t31 -84.5v-71q0 -57 -31 -84.5t-96 -27.5h-248zM402 64q29 0 43.5 12.5t14.5 40.5v65q0 28 -14.5 40t-43.5 12h-171v-170h171z" />
    <glyph glyph-name="uni044B" unicode="&#x44b;" horiz-adv-x="704" 
d="M82 0v494h72v-199h176q65 0 95.5 -27.5t30.5 -84.5v-71q0 -57 -30.5 -84.5t-95.5 -27.5h-248zM622 0h-73v494h73v-494zM326 64q29 0 43.5 12.5t14.5 40.5v65q0 28 -14.5 40t-43.5 12h-172v-170h172z" />
    <glyph glyph-name="uni044C" unicode="&#x44c;" horiz-adv-x="510" 
d="M82 0v494h72v-199h176q65 0 95.5 -27.5t30.5 -84.5v-71q0 -57 -30.5 -84.5t-95.5 -27.5h-248zM326 64q29 0 43.5 12.5t14.5 40.5v65q0 28 -14.5 40t-43.5 12h-172v-170h172z" />
    <glyph glyph-name="uni044D" unicode="&#x44d;" horiz-adv-x="461" 
d="M57 0v63h181q77 0 77 77v85h-232v62h232v67q0 78 -77 78h-181v62h181q72 0 111 -34.5t39 -104.5v-216q0 -70 -39 -104.5t-111 -34.5h-181z" />
    <glyph glyph-name="uni044E" unicode="&#x44e;" horiz-adv-x="738" 
d="M414 -6q-72 0 -110.5 35t-38.5 106v91h-110v-226h-73v494h73v-206h110v71q0 71 38.5 106.5t110.5 35.5h101q71 0 110 -35.5t39 -106.5v-224q0 -71 -39 -106t-110 -35h-101zM515 59q39 0 58 18.5t19 57.5v224q0 39 -19 58t-58 19h-101q-77 0 -77 -77v-224q0 -76 77 -76
h101z" />
    <glyph glyph-name="uni044F" unicode="&#x44f;" horiz-adv-x="533" 
d="M69 382q0 57 31 84.5t96 27.5h255v-494h-72v201h-156l-88 -201h-78l92 205q-41 8 -60.5 34.5t-19.5 74.5v68zM138 314q0 -31 13.5 -42.5t44.5 -11.5h183v175h-183q-29 0 -43.5 -12.5t-14.5 -40.5v-68z" />
    <glyph glyph-name="uni0450" unicode="&#x450;" horiz-adv-x="528" 
d="M213 0q-70 0 -104.5 32.5t-34.5 95.5v247q0 126 147 126h100q73 0 111 -31t38 -99q0 -86 -6 -144h-318v-98q0 -34 16 -49.5t54 -15.5h228v-64h-231zM146 288h255v82q0 39 -19.5 55.5t-65.5 16.5h-91q-39 0 -59 -16t-20 -51v-87zM240 675l97 -126h-71l-109 126h83z" />
    <glyph glyph-name="uni0451" unicode="&#x451;" horiz-adv-x="528" 
d="M213 0q-70 0 -104.5 32.5t-34.5 95.5v247q0 126 147 126h100q73 0 111 -31t38 -99q0 -86 -6 -144h-318v-98q0 -34 16 -49.5t54 -15.5h228v-64h-231zM146 288h255v82q0 39 -19.5 55.5t-65.5 16.5h-91q-39 0 -59 -16t-20 -51v-87zM126 574v87h82v-87h-82zM324 574v87h81
v-87h-81z" />
    <glyph glyph-name="uni0452" unicode="&#x452;" horiz-adv-x="567" 
d="M95 0v564h-77v58h77v78h72v-78h165v-58h-165v-70h167q72 0 112.5 -35.5t40.5 -105.5v-400q0 -70 -40.5 -105.5t-112.5 -35.5h-48v64h42q87 0 87 84v386q0 84 -87 84h-161v-430h-72z" />
    <glyph glyph-name="uni0453" unicode="&#x453;" horiz-adv-x="415" 
d="M155 0h-73v494h313v-36l-27 -28h-213v-430zM235 549h-71l97 126h83z" />
    <glyph glyph-name="uni0454" unicode="&#x454;" horiz-adv-x="461" 
d="M222 0q-72 0 -110.5 34.5t-38.5 104.5v216q0 70 38.5 104.5t110.5 34.5h182v-34l-28 -28h-154q-38 0 -57.5 -19.5t-19.5 -58.5v-67h233v-62h-233v-85q0 -77 77 -77h182v-63h-182z" />
    <glyph glyph-name="uni0455" unicode="&#x455;" horiz-adv-x="463" 
d="M66 0v64h214q58 0 58 53v39q0 29 -14.5 40.5t-47.5 15.5l-106 14q-41 6 -65.5 19t-36 36.5t-11.5 61.5v37q0 61 31 87.5t94 26.5h204v-36l-27 -28h-178q-26 0 -40 -11.5t-14 -38.5v-37q0 -29 14 -41t47 -16l105 -14q43 -6 67.5 -18t36 -35t11.5 -62v-40q0 -61 -32.5 -89
t-95.5 -28h-214z" />
    <glyph glyph-name="uni0456" unicode="&#x456;" horiz-adv-x="239" 
d="M161 596h-83v96h83v-96zM156 0h-73v494h73v-494z" />
    <glyph glyph-name="uni0457" unicode="&#x457;" horiz-adv-x="239" 
d="M0 599v87h81v-87h-81zM157 599v87h82v-87h-82zM83 0v494h73v-494h-73z" />
    <glyph glyph-name="uni0458" unicode="&#x458;" horiz-adv-x="239" 
d="M161 597h-83v95h83v-95zM-24 -188v63h31q76 0 76 76v543h73v-543q0 -69 -39 -104t-110 -35h-31z" />
    <glyph glyph-name="uni0459" unicode="&#x459;" horiz-adv-x="761" 
d="M332 0v430h-8l-235 -430h-81l274 494h123v-199h176q65 0 95.5 -27.5t30.5 -84.5v-71q0 -57 -31 -84.5t-95 -27.5h-249zM576 64q29 0 43.5 12.5t14.5 40.5v65q0 28 -14.5 40t-43.5 12h-171v-170h171z" />
    <glyph glyph-name="uni045A" unicode="&#x45a;" horiz-adv-x="835" 
d="M406 0v228h-251v-228h-73v494h73v-204h251v204h73v-204h176q65 0 95.5 -28t30.5 -84v-66q0 -57 -31 -84.5t-95 -27.5h-249zM650 64q29 0 43.5 12.5t14.5 40.5v59q0 28 -14.5 40t-43.5 12h-171v-164h171z" />
    <glyph glyph-name="uni045B" unicode="&#x45b;" horiz-adv-x="567" 
d="M95 0v564h-77v58h77v78h72v-78h165v-58h-165v-70h167q72 0 112.5 -35.5t40.5 -105.5v-353h-72v346q0 84 -87 84h-161v-430h-72z" />
    <glyph glyph-name="uni045C" unicode="&#x45c;" horiz-adv-x="513" 
d="M155 0h-73v494h73v-208h89l160 208h81l-181 -231l187 -263h-82l-157 228h-97v-228zM274 549h-71l97 126h83z" />
    <glyph glyph-name="uni045D" unicode="&#x45d;" horiz-adv-x="579" 
d="M155 0h-73v494h73v-361l270 318v43h72v-494h-72v360l-270 -317v-43zM264 675l97 -126h-71l-109 126h83z" />
    <glyph glyph-name="uni045E" unicode="&#x45e;" horiz-adv-x="468" 
d="M149 708q0 -66 74 -66h17q74 0 74 66v11h64v-11q0 -39 -12 -64.5t-42.5 -38.5t-83.5 -13h-17q-53 0 -83.5 13.5t-43 38.5t-12.5 64v11h65v-11zM46 -186v62h49q37 0 57.5 15.5t32.5 50.5l30 82h-30l-170 470h77l144 -414l142 414h75l-162 -454l-36 -98q-18 -51 -40.5 -79
t-51 -38.5t-68.5 -10.5h-49z" />
    <glyph glyph-name="uni045F" unicode="&#x45f;" horiz-adv-x="555" 
d="M249 0h-167v494h73v-429h246v429h72v-494h-160v-119h-64v119z" />
    <glyph glyph-name="uni0462" unicode="&#x462;" horiz-adv-x="720" 
d="M196 0v511h-174v67h174v122h75v-122h175v-67h-175v-117h218q87 0 127.5 -38.5t40.5 -118.5v-108l-129 -129h-332zM271 69h223l88 88v80q0 48 -21 69t-72 21h-218v-258z" />
    <glyph glyph-name="uni0463" unicode="&#x463;" horiz-adv-x="587" 
d="M158 0v430h-138v64h138v206h73v-206h142v-64h-142v-135h175q65 0 96 -27.5t31 -84.5v-71q0 -57 -31 -84.5t-96 -27.5h-248zM402 64q29 0 43.5 12.5t14.5 40.5v65q0 28 -14.5 40t-43.5 12h-171v-170h171z" />
    <glyph glyph-name="uni0466" unicode="&#x466;" horiz-adv-x="732" 
d="M107 0h-78l288 700h100l286 -700h-78l-98 243h-124v-243h-73v243h-124zM367 639l-134 -329h267z" />
    <glyph glyph-name="uni0467" unicode="&#x467;" horiz-adv-x="552" 
d="M91 0h-76l207 494h107l208 -494h-76l-69 165h-81v-165h-68v165h-83zM272 433l-86 -206h180l-86 206h-8z" />
    <glyph glyph-name="uni0468" unicode="&#x468;" horiz-adv-x="986" 
d="M171 0h-76v700h76v-390h240l160 390h99l287 -700h-79l-98 243h-124v-243h-72v243h-125l-98 -243h-78l100 243h-212v-243zM620 639l-133 -329h266z" />
    <glyph glyph-name="uni0469" unicode="&#x469;" horiz-adv-x="786" 
d="M155 0h-73v494h73v-267h190l112 267h107l207 -494h-76l-69 165h-87v-165h-67v165h-77l-69 -165h-76l69 165h-164v-165zM506 433l-86 -206h180l-86 206h-8z" />
    <glyph glyph-name="uni046A" unicode="&#x46a;" horiz-adv-x="899" 
d="M72 225q0 63 17.5 101t57 56.5t106.5 18.5h127l-205 299h555l-201 -299h121q67 0 106.5 -18.5t57 -56.5t17.5 -101v-225h-74v225q0 39 -10.5 62t-34 34t-62.5 11h-159v-332h-76v332h-162q-40 0 -63.5 -11t-34 -34t-10.5 -62v-225h-73v225zM307 631l149 -222l147 222h-296
z" />
    <glyph glyph-name="uni046B" unicode="&#x46b;" horiz-adv-x="757" 
d="M68 165q0 64 36 95t102 31h97l-122 203h395l-121 -203h96q66 0 102 -31t36 -95v-165h-73v159q0 36 -17 51.5t-53 15.5h-131v-226h-73v226h-130q-36 0 -53.5 -15.5t-17.5 -51.5v-159h-73v165zM464 433h-169l82 -142h5z" />
    <glyph glyph-name="uni046C" unicode="&#x46c;" horiz-adv-x="1180" 
d="M95 0v700h76v-299h490l-204 299h554l-201 -299h121q67 0 106.5 -18.5t57 -56.5t17.5 -101v-225h-74v225q0 39 -10.5 62t-33.5 34t-63 11h-159v-332h-76v332h-162q-57 0 -82.5 -25t-25.5 -82v-225h-73v225q0 37 10.5 67.5t28.5 39.5h-221v-332h-76zM588 631l149 -222
l147 222h-296z" />
    <glyph glyph-name="uni046D" unicode="&#x46d;" horiz-adv-x="962" 
d="M82 0v494h73v-203h359l-122 203h396l-121 -203h90q65 0 101 -31.5t36 -94.5v-165h-72v159q0 36 -17.5 51.5t-53.5 15.5h-125v-226h-72v226h-131q-37 0 -54 -15.5t-17 -51.5v-159h-72v165q0 22 6.5 38.5t19.5 22.5h-151v-226h-73zM678 434h-174l86 -143h2z" />
    <glyph glyph-name="uni046E" unicode="&#x46e;" horiz-adv-x="552" 
d="M162 936l82 -136l51 87q12 20 23.5 30.5t28 14.5t43.5 4v-45q-19 0 -29 -5t-19 -20l-64 -111h-70l-108 181h62zM49 8q16 27 43 43t59 16h148q49 0 73 21.5t24 68.5v94q0 45 -25 61.5t-72 16.5h-213v64h213q42 0 60.5 19.5t18.5 62.5v79q0 42 -21 59.5t-65 17.5h-238v69
h238q58 0 93.5 -15t51.5 -47t16 -84v-80q0 -40 -19.5 -66t-53.5 -39v-5q45 -10 68 -37t23 -75v-95q0 -79 -43 -118t-129 -39h-146q-21 0 -35.5 -15t-14.5 -35q0 -21 14.5 -35.5t35.5 -14.5h210v-67h-212q-32 0 -59 16t-43 43t-16 58t16 58z" />
    <glyph glyph-name="uni046F" unicode="&#x46f;" horiz-adv-x="468" 
d="M132 722l76 -128l48 79q12 20 24 30.5t28 14.5t42 4v-45q-18 0 -28 -4.5t-19 -20.5l-60 -103h-70l-103 173h62zM38 5q15 25 40 39.5t55 14.5h121q36 0 52 14.5t16 47.5v43q0 55 -66 55h-170v60h163q29 0 43.5 13.5t14.5 43.5v42q0 32 -15.5 44.5t-48.5 12.5h-186v59h203
q61 0 90 -24.5t29 -77.5v-59q0 -31 -16.5 -50t-42.5 -27v-5q75 -13 75 -84v-55q0 -112 -124 -112h-124q-21 0 -36 -15t-15 -35q0 -21 15 -35.5t36 -14.5h141v-59h-155q-30 0 -55 14.5t-40 39.5t-15 55t15 55z" />
    <glyph glyph-name="uni0470" unicode="&#x470;" horiz-adv-x="815" 
d="M370 0v286h-147q-75 0 -118 37t-43 113v263h77v-263q0 -41 22 -61.5t62 -20.5h147v346h75v-346h147q40 0 62 20.5t22 61.5v263h77v-263q0 -76 -42.5 -113t-118.5 -37h-147v-286h-75z" />
    <glyph glyph-name="uni0471" unicode="&#x471;" horiz-adv-x="773" 
d="M350 -180v180h-117q-72 0 -112.5 35.5t-40.5 105.5v353h72v-346q0 -43 22 -63.5t65 -20.5h111v636h73v-636h111q87 0 87 84v346h72v-353q0 -70 -40.5 -105.5t-112.5 -35.5h-117v-180h-73z" />
    <glyph glyph-name="uni0472" unicode="&#x472;" horiz-adv-x="692" 
d="M250 -6q-75 0 -118 37t-43 112v414q0 76 43 113t118 37h192q76 0 118.5 -37t42.5 -113v-414q0 -75 -42.5 -112t-118.5 -37h-192zM384 414v-49h143v192q0 40 -22.5 60.5t-62.5 20.5h-192q-40 0 -62 -20.5t-22 -60.5v-143h218zM442 63q40 0 62.5 20t22.5 60v154h-218v49
h-143v-203q0 -40 22 -60t62 -20h192z" />
    <glyph glyph-name="uni0473" unicode="&#x473;" horiz-adv-x="561" 
d="M223 -6q-149 0 -149 135v237q0 135 149 135h115q149 0 149 -135v-237q0 -135 -149 -135h-115zM313 301v-44h102v109q0 39 -19 57.5t-58 18.5h-115q-77 0 -77 -76v-65h167zM338 53q39 0 58 18.5t19 57.5v70h-166v44h-103v-114q0 -76 77 -76h115z" />
    <glyph glyph-name="uni0474" unicode="&#x474;" horiz-adv-x="629" 
d="M20 700h79l204 -638l165 513q17 52 37 78.5t49.5 36.5t79.5 10h17v-69h-17q-38 0 -58 -12.5t-30 -45.5l-187 -573h-111z" />
    <glyph glyph-name="uni0475" unicode="&#x475;" horiz-adv-x="473" 
d="M15 494h78l130 -415l95 295q16 51 36 76.5t46 34.5t68 9h15v-62h-15q-31 0 -49.5 -13.5t-29.5 -46.5l-126 -372h-83z" />
    <glyph glyph-name="uni0476" unicode="&#x476;" horiz-adv-x="629" 
d="M215 881l97 -126h-71l-109 126h83zM355 881l97 -126h-71l-109 126h83zM20 700h79l204 -638l165 513q17 52 36.5 78.5t49.5 36.5t80 10h17v-69h-17q-38 0 -58 -12.5t-30 -45.5l-187 -573h-111z" />
    <glyph glyph-name="uni0477" unicode="&#x477;" horiz-adv-x="473" 
d="M129 675l97 -126h-71l-109 126h83zM269 675l97 -126h-71l-109 126h83zM15 494h78l130 -415l95 295q16 51 36 76.5t46 34.5t68 9h15v-62h-15q-31 0 -49.5 -13.5t-29.5 -46.5l-126 -372h-83z" />
    <glyph glyph-name="uni0490" unicode="&#x490;" horiz-adv-x="508" 
d="M171 0h-76v700h320v134h69v-203h-313v-631z" />
    <glyph glyph-name="uni0491" unicode="&#x491;" horiz-adv-x="419" 
d="M159 0h-73v494h253v97h61v-161h-241v-430z" />
    <glyph glyph-name="uni0492" unicode="&#x492;" horiz-adv-x="554" 
d="M216 0h-75v317h-97v67h97v316h388v-41l-27 -28h-286v-247h205v-67h-205v-317z" />
    <glyph glyph-name="uni0493" unicode="&#x493;" horiz-adv-x="434" 
d="M174 0h-73v219h-71v58h71v217h313v-36l-27 -28h-213v-153h159v-58h-159v-219z" />
    <glyph glyph-name="uni0496" unicode="&#x496;" horiz-adv-x="896" 
d="M104 0h-87l228 369l-222 331h85l204 -308h84v308h75v-308h85l204 308h85l-223 -331l185 -300h91v-227h-67v158h-68l-198 329h-94v-329h-75v329h-93z" />
    <glyph glyph-name="uni0497" unicode="&#x497;" horiz-adv-x="757" 
d="M105 0h-83l180 263l-173 231h80l153 -208h77v208h72v-208h76l153 208h81l-174 -231l135 -198h78v-184h-64v119h-51l-151 228h-83v-228h-72v228h-84z" />
    <glyph glyph-name="uni049A" unicode="&#x49a;" horiz-adv-x="621" 
d="M171 0h-76v700h76v-308h106l208 308h85l-228 -331l189 -300h92v-227h-67v158h-68l-202 329h-115v-329z" />
    <glyph glyph-name="uni049B" unicode="&#x49b;" horiz-adv-x="529" 
d="M155 0h-73v494h73v-208h89l160 208h81l-181 -231l140 -198h80v-184h-64v119h-51l-157 228h-97v-228z" />
    <glyph glyph-name="uni049C" unicode="&#x49c;" horiz-adv-x="640" 
d="M171 0h-76v700h76v-308h68v143h61v-143h24l208 308h85l-227 -331l233 -369h-87l-203 329h-33v-145h-61v145h-68v-329z" />
    <glyph glyph-name="uni049D" unicode="&#x49d;" horiz-adv-x="567" 
d="M155 0h-73v494h73v-208h66v105h54v-105h23l159 208h81l-181 -231l188 -263h-83l-156 228h-31v-106h-54v106h-66v-228z" />
    <glyph glyph-name="uni04A2" unicode="&#x4a2;" horiz-adv-x="695" 
d="M171 0h-76v700h76v-300h338v300h75v-631h85v-227h-67v158h-93v331h-338v-331z" />
    <glyph glyph-name="uni04A3" unicode="&#x4a3;" horiz-adv-x="584" 
d="M155 0h-73v494h73v-205h251v205h73v-429h71v-184h-64v119h-80v225h-251v-225z" />
    <glyph glyph-name="uni04AE" unicode="&#x4ae;" horiz-adv-x="568" 
d="M320 0h-74v304l-229 396h87l181 -328l185 328h80l-230 -396v-304z" />
    <glyph glyph-name="uni04AF" unicode="&#x4af;" horiz-adv-x="468" 
d="M270 -180h-72v181l-183 493h78l141 -395l141 395h78l-183 -493v-181z" />
    <glyph glyph-name="uni04B2" unicode="&#x4b2;" horiz-adv-x="633" 
d="M111 0h-85l240 356l-236 344h86l195 -293l191 293h83l-232 -345l191 -286h93v-227h-67v158h-68l-195 302z" />
    <glyph glyph-name="uni04B3" unicode="&#x4b3;" horiz-adv-x="476" 
d="M94 0h-79l172 254l-162 240h78l128 -192l127 192h77l-162 -240l126 -189h80v-184h-64v119h-51l-136 206z" />
    <glyph glyph-name="uni04B8" unicode="&#x4b8;" horiz-adv-x="612" 
d="M441 0v283h-114v-141h-60v141h-20q-67 0 -106.5 18.5t-57 56.5t-17.5 101v241h73v-241q0 -39 10.5 -62t34 -34t63.5 -11h20v142h60v-142h114v348h75v-700h-75z" />
    <glyph glyph-name="uni04B9" unicode="&#x4b9;" horiz-adv-x="537" 
d="M382 0v202h-92v-101h-55v101h-29q-66 0 -102 31t-36 95v166h73v-160q0 -36 17.5 -52t53.5 -16h23v103h55v-103h92v228h73v-494h-73z" />
    <glyph glyph-name="uni04BA" unicode="&#x4ba;" horiz-adv-x="616" 
d="M95 0v700h76v-304h194q67 0 106.5 -18.5t57 -56.5t17.5 -101v-220h-73v220q0 39 -10.5 62t-34 34t-63.5 11h-194v-327h-76z" />
    <glyph glyph-name="uni04BB" unicode="&#x4bb;" horiz-adv-x="553" 
d="M82 0v700h72v-206h167q72 0 112.5 -35.5t40.5 -105.5v-353h-72v346q0 43 -22 63.5t-65 20.5h-161v-430h-72z" />
    <glyph glyph-name="uni04C0" unicode="&#x4c0;" horiz-adv-x="266" 
d="M171 0h-76v700h76v-700z" />
    <glyph glyph-name="uni04CF" unicode="&#x4cf;" horiz-adv-x="237" 
d="M82 0v700h73v-700h-73z" />
    <glyph glyph-name="uni04D8" unicode="&#x4d8;" horiz-adv-x="673" 
d="M246 0q-72 0 -116 36t-44 113v235h423v166q0 41 -23 62t-62 21h-306v67h306q74 0 117 -37t43 -113v-419l-132 -131h-206zM422 67l87 88v164h-349v-169q0 -41 23.5 -62t62.5 -21h176z" />
    <glyph glyph-name="uni04D9" unicode="&#x4d9;" horiz-adv-x="528" 
d="M206 -7q-73 0 -110.5 31t-37.5 99q0 84 5 156h319v85q0 34 -16.5 49.5t-54.5 15.5h-228v65h232q70 0 104.5 -33t34.5 -96v-247q0 -125 -148 -125h-100zM303 52q39 0 59 16t20 51v99h-255v-95q0 -39 20 -55t65 -16h91z" />
    <glyph glyph-name="uni04E8" unicode="&#x4e8;" horiz-adv-x="692" 
d="M250 -6q-75 0 -118 37t-43 112v414q0 76 43 113t118 37h192q76 0 118.5 -37t42.5 -113v-414q0 -75 -42.5 -112t-118.5 -37h-192zM166 384h361v173q0 40 -22.5 60.5t-62.5 20.5h-192q-40 0 -62 -20.5t-22 -60.5v-173zM442 63q40 0 62.5 20t22.5 60v176h-361v-176
q0 -40 22 -60t62 -20h192z" />
    <glyph glyph-name="uni04E9" unicode="&#x4e9;" horiz-adv-x="561" 
d="M223 -6q-72 0 -110.5 35t-38.5 106v224q0 71 38.5 106.5t110.5 35.5h116q71 0 109.5 -35.5t38.5 -106.5v-224q0 -70 -38.5 -105.5t-109.5 -35.5h-116zM146 288h270v71q0 77 -77 77h-116q-77 0 -77 -77v-71zM339 59q77 0 77 76v91h-270v-91q0 -76 77 -76h116z" />
    <glyph glyph-name="Wgrave" unicode="&#x1e80;" horiz-adv-x="958" 
d="M323 0h-105l-196 700h82l167 -634l168 634h80l166 -636l169 636h82l-198 -700h-105l-154 580zM421 869l93 -126h-71l-106 126h84z" />
    <glyph glyph-name="wgrave" unicode="&#x1e81;" horiz-adv-x="752" 
d="M252 0h-84l-153 494h78l118 -418l130 418h73l132 -421l117 421h74l-150 -494h-83l-128 410zM322 680l93 -126h-71l-106 126h84z" />
    <glyph glyph-name="Wacute" unicode="&#x1e82;" horiz-adv-x="958" 
d="M323 0h-105l-196 700h82l167 -634l168 634h80l166 -636l169 636h82l-198 -700h-105l-154 580zM519 743h-71l93 126h84z" />
    <glyph glyph-name="wacute" unicode="&#x1e83;" horiz-adv-x="752" 
d="M252 0h-84l-153 494h78l118 -418l130 418h73l132 -421l117 421h74l-150 -494h-83l-128 410zM412 554h-71l93 126h84z" />
    <glyph glyph-name="Wdieresis" unicode="&#x1e84;" horiz-adv-x="958" 
d="M323 0h-105l-196 700h82l167 -634l168 634h80l166 -636l169 636h82l-198 -700h-105l-154 580zM340 768v87h82v-87h-82zM538 768v87h81v-87h-81z" />
    <glyph glyph-name="wdieresis" unicode="&#x1e85;" horiz-adv-x="752" 
d="M252 0h-84l-153 494h78l118 -418l130 418h73l132 -421l117 421h74l-150 -494h-83l-128 410zM237 586v87h82v-87h-82zM435 586v87h81v-87h-81z" />
    <glyph glyph-name="Germandbls" unicode="&#x1e9e;" horiz-adv-x="659" 
d="M88 511q0 55 20 97.5t60.5 67t99.5 24.5h294v-66l-200 -239h66q77 0 115.5 -32.5t38.5 -106.5v-112q0 -73 -41 -108.5t-113 -35.5h-180v69h180q37 0 58 19t21 56v112q0 71 -79 71h-150v69l195 235h-205q-52 0 -78 -32t-26 -88v-511h-76v511z" />
    <glyph glyph-name="uni1EA0" unicode="&#x1ea0;" horiz-adv-x="652" 
d="M102 0h-78l252 700h102l250 -700h-79l-64 183h-319zM326 639l-136 -390h272zM283 -166v94h81v-94h-81z" />
    <glyph glyph-name="uni1EA1" unicode="&#x1ea1;" horiz-adv-x="518" 
d="M185 0q-65 0 -96 28.5t-31 84.5v66q0 42 14 66t41.5 34t71.5 10h186v82q0 26 -6 40t-20.5 19.5t-41.5 5.5h-194v58h196q49 0 77.5 -11t42.5 -38t14 -74v-371h-254zM371 59v175h-186q-32 0 -45.5 -12.5t-13.5 -43.5v-65q0 -28 14.5 -41t44.5 -13h186zM216 -166v94h81v-94
h-81z" />
    <glyph glyph-name="uni1EA2" unicode="&#x1ea2;" horiz-adv-x="652" 
d="M102 0h-78l252 700h102l250 -700h-79l-64 183h-319zM326 639l-136 -390h272zM370 892q32 0 49.5 -5.5t25 -17t7.5 -32.5v-14q0 -22 -9.5 -34t-30.5 -17t-59 -5v-26h-53v64h56q23 0 30 4t7 14v8q0 9 -5.5 12.5t-20.5 3.5h-135v45h138z" />
    <glyph glyph-name="uni1EA3" unicode="&#x1ea3;" horiz-adv-x="518" 
d="M185 0q-65 0 -96 28.5t-31 84.5v66q0 42 14 66t41.5 34t71.5 10h186v82q0 26 -6 40t-20.5 19.5t-41.5 5.5h-194v58h196q49 0 77.5 -11t42.5 -38t14 -74v-371h-254zM371 59v175h-186q-32 0 -45.5 -12.5t-13.5 -43.5v-65q0 -28 14.5 -41t44.5 -13h186zM298 703
q32 0 49.5 -5.5t25 -17t7.5 -32.5v-14q0 -22 -9.5 -34t-30.5 -17t-59 -5v-26h-53v64h56q23 0 30 4t7 14v8q0 9 -5.5 12.5t-20.5 3.5h-135v45h138z" />
    <glyph glyph-name="uni1EA4" unicode="&#x1ea4;" horiz-adv-x="652" 
d="M102 0h-78l252 700h102l250 -700h-79l-64 183h-319zM326 639l-136 -390h272zM441 829l92 126h77l-106 -126h-63zM371 869l104 -126h-67l-82 88l-82 -88h-65l103 126h89z" />
    <glyph glyph-name="uni1EA5" unicode="&#x1ea5;" horiz-adv-x="518" 
d="M185 0q-65 0 -96 28.5t-31 84.5v66q0 42 14 66t41.5 34t71.5 10h186v82q0 26 -6 40t-20.5 19.5t-41.5 5.5h-194v58h196q49 0 77.5 -11t42.5 -38t14 -74v-371h-254zM371 59v175h-186q-32 0 -45.5 -12.5t-13.5 -43.5v-65q0 -28 14.5 -41t44.5 -13h186zM375 640l92 126h77
l-106 -126h-63zM305 680l104 -126h-67l-82 88l-82 -88h-65l103 126h89z" />
    <glyph glyph-name="uni1EA6" unicode="&#x1ea6;" horiz-adv-x="652" 
d="M102 0h-78l252 700h102l250 -700h-79l-64 183h-319zM326 639l-136 -390h272zM41 955h77l93 -126h-64zM369 869l104 -126h-66l-82 88l-82 -88h-66l103 126h89z" />
    <glyph glyph-name="uni1EA7" unicode="&#x1ea7;" horiz-adv-x="518" 
d="M185 0q-65 0 -96 28.5t-31 84.5v66q0 42 14 66t41.5 34t71.5 10h186v82q0 26 -6 40t-20.5 19.5t-41.5 5.5h-194v58h196q49 0 77.5 -11t42.5 -38t14 -74v-371h-254zM371 59v175h-186q-32 0 -45.5 -12.5t-13.5 -43.5v-65q0 -28 14.5 -41t44.5 -13h186zM-24 766h77l93 -126
h-64zM304 680l104 -126h-66l-82 88l-82 -88h-66l103 126h89z" />
    <glyph glyph-name="uni1EA8" unicode="&#x1ea8;" horiz-adv-x="652" 
d="M102 0h-78l252 700h102l250 -700h-79l-64 183h-319zM326 639l-136 -390h272zM371 869l104 -126h-67l-82 88l-82 -88h-65l103 126h89zM525 977q32 0 49.5 -5.5t25 -17t7.5 -32.5v-14q0 -22 -9.5 -34t-30.5 -17t-59 -5v-26h-53v64h56q23 0 30 4t7 14v8q0 9 -5.5 12.5
t-20.5 3.5h-135v45h138z" />
    <glyph glyph-name="uni1EA9" unicode="&#x1ea9;" horiz-adv-x="518" 
d="M185 0q-65 0 -96 28.5t-31 84.5v66q0 42 14 66t41.5 34t71.5 10h186v82q0 26 -6 40t-20.5 19.5t-41.5 5.5h-194v58h196q49 0 77.5 -11t42.5 -38t14 -74v-371h-254zM371 59v175h-186q-32 0 -45.5 -12.5t-13.5 -43.5v-65q0 -28 14.5 -41t44.5 -13h186zM304 680l104 -126
h-67l-82 88l-82 -88h-65l103 126h89zM458 788q32 0 49.5 -5.5t25 -17t7.5 -32.5v-14q0 -22 -9.5 -34t-30.5 -17t-59 -5v-26h-53v64h56q23 0 30 4t7 14v8q0 9 -5.5 12.5t-20.5 3.5h-135v45h138z" />
    <glyph glyph-name="uni1EAA" unicode="&#x1eaa;" horiz-adv-x="652" 
d="M102 0h-78l252 700h102l250 -700h-79l-64 183h-319zM326 639l-136 -390h272zM371 869l104 -126h-67l-82 88l-82 -88h-65l103 126h89zM189 892q0 50 23 75.5t62 25.5q21 0 36 -8.5t31 -23.5q13 -11 21 -16t17 -5q18 0 26.5 12.5t8.5 40.5h51q0 -50 -22.5 -75.5
t-62.5 -25.5q-21 0 -36 8.5t-31 23.5q-12 11 -20.5 16.5t-17.5 5.5q-18 0 -26.5 -12.5t-8.5 -41.5h-51z" />
    <glyph glyph-name="uni1EAB" unicode="&#x1eab;" horiz-adv-x="518" 
d="M185 0q-65 0 -96 28.5t-31 84.5v66q0 42 14 66t41.5 34t71.5 10h186v82q0 26 -6 40t-20.5 19.5t-41.5 5.5h-194v58h196q49 0 77.5 -11t42.5 -38t14 -74v-371h-254zM371 59v175h-186q-32 0 -45.5 -12.5t-13.5 -43.5v-65q0 -28 14.5 -41t44.5 -13h186zM304 680l104 -126
h-67l-82 88l-82 -88h-65l103 126h89zM122 703q0 50 23 75.5t62 25.5q21 0 36 -8.5t31 -23.5q13 -11 21 -16t17 -5q18 0 26.5 12.5t8.5 40.5h51q0 -50 -22.5 -75.5t-62.5 -25.5q-21 0 -36 8.5t-31 23.5q-12 11 -20.5 16.5t-17.5 5.5q-18 0 -26.5 -12.5t-8.5 -41.5h-51z" />
    <glyph glyph-name="uni1EAC" unicode="&#x1eac;" horiz-adv-x="652" 
d="M102 0h-78l252 700h102l250 -700h-79l-64 183h-319zM326 639l-136 -390h272zM285 -166v94h81v-94h-81zM371 869l104 -126h-67l-82 88l-82 -88h-65l103 126h89z" />
    <glyph glyph-name="uni1EAD" unicode="&#x1ead;" horiz-adv-x="518" 
d="M185 0q-65 0 -96 28.5t-31 84.5v66q0 42 14 66t41.5 34t71.5 10h186v82q0 26 -6 40t-20.5 19.5t-41.5 5.5h-194v58h196q49 0 77.5 -11t42.5 -38t14 -74v-371h-254zM371 59v175h-186q-32 0 -45.5 -12.5t-13.5 -43.5v-65q0 -28 14.5 -41t44.5 -13h186zM216 -166v94h81v-94
h-81zM302 680l104 -126h-67l-82 88l-82 -88h-65l103 126h89z" />
    <glyph glyph-name="uni1EAE" unicode="&#x1eae;" horiz-adv-x="652" 
d="M102 0h-78l252 700h102l250 -700h-79l-64 183h-319zM326 639l-136 -390h272zM263 748q-28 14 -43.5 38.5t-15.5 56.5h63q0 -27 17 -43.5t43 -16.5t42.5 16.5t16.5 43.5h63q0 -32 -15.5 -56.5t-43.5 -38.5t-63 -14q-36 0 -64 14zM362 863h-71l93 126h84z" />
    <glyph glyph-name="uni1EAF" unicode="&#x1eaf;" horiz-adv-x="518" 
d="M185 0q-65 0 -96 28.5t-31 84.5v66q0 42 14 66t41.5 34t71.5 10h186v82q0 26 -6 40t-20.5 19.5t-41.5 5.5h-194v58h196q49 0 77.5 -11t42.5 -38t14 -74v-371h-254zM371 59v175h-186q-32 0 -45.5 -12.5t-13.5 -43.5v-65q0 -28 14.5 -41t44.5 -13h186zM196 559
q-28 14 -43.5 38.5t-15.5 56.5h63q0 -27 17 -43.5t43 -16.5t42.5 16.5t16.5 43.5h63q0 -32 -15.5 -56.5t-43.5 -38.5t-63 -14q-36 0 -64 14zM296 674h-71l93 126h84z" />
    <glyph glyph-name="uni1EB0" unicode="&#x1eb0;" horiz-adv-x="652" 
d="M102 0h-78l252 700h102l250 -700h-79l-64 183h-319zM326 639l-136 -390h272zM262 748q-28 14 -43.5 38.5t-15.5 56.5h63q0 -27 17 -43.5t43 -16.5t42.5 16.5t16.5 43.5h63q0 -32 -15.5 -56.5t-43.5 -38.5t-63 -14q-36 0 -64 14zM268 989l93 -126h-71l-106 126h84z" />
    <glyph glyph-name="uni1EB1" unicode="&#x1eb1;" horiz-adv-x="518" 
d="M185 0q-65 0 -96 28.5t-31 84.5v66q0 42 14 66t41.5 34t71.5 10h186v82q0 26 -6 40t-20.5 19.5t-41.5 5.5h-194v58h196q49 0 77.5 -11t42.5 -38t14 -74v-371h-254zM371 59v175h-186q-32 0 -45.5 -12.5t-13.5 -43.5v-65q0 -28 14.5 -41t44.5 -13h186zM196 559
q-28 14 -43.5 38.5t-15.5 56.5h63q0 -27 17 -43.5t43 -16.5t42.5 16.5t16.5 43.5h63q0 -32 -15.5 -56.5t-43.5 -38.5t-63 -14q-36 0 -64 14zM202 802l93 -126h-71l-106 126h84z" />
    <glyph glyph-name="uni1EB2" unicode="&#x1eb2;" horiz-adv-x="652" 
d="M102 0h-78l252 700h102l250 -700h-79l-64 183h-319zM326 639l-136 -390h272zM263 748q-28 14 -43.5 38.5t-15.5 56.5h63q0 -27 17 -43.5t43 -16.5t42.5 16.5t16.5 43.5h63q0 -32 -15.5 -56.5t-43.5 -38.5t-63 -14q-36 0 -64 14zM371 997q32 0 49.5 -5.5t25 -17t7.5 -32.5
v-14q0 -22 -9.5 -34t-30.5 -17t-59 -5v-26h-53v64h56q23 0 30 4t7 14v8q0 9 -5.5 12.5t-20.5 3.5h-135v45h138z" />
    <glyph glyph-name="uni1EB3" unicode="&#x1eb3;" horiz-adv-x="518" 
d="M185 0q-65 0 -96 28.5t-31 84.5v66q0 42 14 66t41.5 34t71.5 10h186v82q0 26 -6 40t-20.5 19.5t-41.5 5.5h-194v58h196q49 0 77.5 -11t42.5 -38t14 -74v-371h-254zM371 59v175h-186q-32 0 -45.5 -12.5t-13.5 -43.5v-65q0 -28 14.5 -41t44.5 -13h186zM196 559
q-28 14 -43.5 38.5t-15.5 56.5h63q0 -27 17 -43.5t43 -16.5t42.5 16.5t16.5 43.5h63q0 -32 -15.5 -56.5t-43.5 -38.5t-63 -14q-36 0 -64 14zM304 808q32 0 49.5 -5.5t25 -17t7.5 -32.5v-14q0 -22 -9.5 -34t-30.5 -17t-59 -5v-26h-53v64h56q23 0 30 4t7 14v8q0 9 -5.5 12.5
t-20.5 3.5h-135v45h138z" />
    <glyph glyph-name="uni1EB4" unicode="&#x1eb4;" horiz-adv-x="652" 
d="M102 0h-78l252 700h102l250 -700h-79l-64 183h-319zM326 639l-136 -390h272zM262 748q-28 14 -43.5 38.5t-15.5 56.5h63q0 -27 17 -43.5t43 -16.5t42.5 16.5t16.5 43.5h63q0 -32 -15.5 -56.5t-43.5 -38.5t-63 -14q-36 0 -64 14zM186 874q0 50 23 75.5t62 25.5
q21 0 36 -8.5t31 -23.5q13 -11 21 -16t17 -5q18 0 26.5 12.5t8.5 40.5h51q0 -50 -22.5 -75.5t-62.5 -25.5q-21 0 -36 8.5t-31 23.5q-12 11 -20.5 16.5t-17.5 5.5q-18 0 -26.5 -12.5t-8.5 -41.5h-51z" />
    <glyph glyph-name="uni1EB5" unicode="&#x1eb5;" horiz-adv-x="518" 
d="M185 0q-65 0 -96 28.5t-31 84.5v66q0 42 14 66t41.5 34t71.5 10h186v82q0 26 -6 40t-20.5 19.5t-41.5 5.5h-194v58h196q49 0 77.5 -11t42.5 -38t14 -74v-371h-254zM371 59v175h-186q-32 0 -45.5 -12.5t-13.5 -43.5v-65q0 -28 14.5 -41t44.5 -13h186zM193 559
q-28 14 -43.5 38.5t-15.5 56.5h63q0 -27 17 -43.5t43 -16.5t42.5 16.5t16.5 43.5h63q0 -32 -15.5 -56.5t-43.5 -38.5t-63 -14q-36 0 -64 14zM117 684q0 50 23 75.5t62 25.5q21 0 36 -8.5t31 -23.5q13 -11 21 -16t17 -5q18 0 26.5 12.5t8.5 40.5h51q0 -50 -22.5 -75.5
t-62.5 -25.5q-21 0 -36 8.5t-31 23.5q-12 11 -20.5 16.5t-17.5 5.5q-18 0 -26.5 -12.5t-8.5 -41.5h-51z" />
    <glyph glyph-name="uni1EB6" unicode="&#x1eb6;" horiz-adv-x="652" 
d="M102 0h-78l252 700h102l250 -700h-79l-64 183h-319zM326 639l-136 -390h272zM291 -166v94h81v-94h-81zM263 748q-28 14 -43.5 38.5t-15.5 56.5h63q0 -27 17 -43.5t43 -16.5t42.5 16.5t16.5 43.5h63q0 -32 -15.5 -56.5t-43.5 -38.5t-63 -14q-36 0 -64 14z" />
    <glyph glyph-name="uni1EB7" unicode="&#x1eb7;" horiz-adv-x="518" 
d="M185 0q-65 0 -96 28.5t-31 84.5v66q0 42 14 66t41.5 34t71.5 10h186v82q0 26 -6 40t-20.5 19.5t-41.5 5.5h-194v58h196q49 0 77.5 -11t42.5 -38t14 -74v-371h-254zM371 59v175h-186q-32 0 -45.5 -12.5t-13.5 -43.5v-65q0 -28 14.5 -41t44.5 -13h186zM216 -166v94h81v-94
h-81zM196 559q-28 14 -43.5 38.5t-15.5 56.5h63q0 -27 17 -43.5t43 -16.5t42.5 16.5t16.5 43.5h63q0 -32 -15.5 -56.5t-43.5 -38.5t-63 -14q-36 0 -64 14z" />
    <glyph glyph-name="uni1EB8" unicode="&#x1eb8;" horiz-adv-x="543" 
d="M494 0h-399v700h389v-41l-28 -28h-285v-243h298v-39l-28 -28h-270v-252h323v-69zM258 -166v94h81v-94h-81z" />
    <glyph glyph-name="uni1EB9" unicode="&#x1eb9;" horiz-adv-x="528" 
d="M213 0q-70 0 -104.5 32.5t-34.5 95.5v247q0 126 147 126h100q73 0 111 -31t38 -99q0 -86 -6 -144h-318v-98q0 -34 16 -49.5t54 -15.5h228v-64h-231zM146 288h255v82q0 39 -19.5 55.5t-65.5 16.5h-91q-39 0 -59 -16t-20 -51v-87zM244 -166v94h81v-94h-81z" />
    <glyph glyph-name="uni1EBA" unicode="&#x1eba;" horiz-adv-x="543" 
d="M494 0h-399v700h389v-41l-28 -28h-285v-243h298v-39l-28 -28h-270v-252h323v-69zM334 892q32 0 49.5 -5.5t25 -17t7.5 -32.5v-14q0 -22 -9.5 -34t-30.5 -17t-59 -5v-26h-53v64h56q23 0 30 4t7 14v8q0 9 -5.5 12.5t-20.5 3.5h-135v45h138z" />
    <glyph glyph-name="uni1EBB" unicode="&#x1ebb;" horiz-adv-x="528" 
d="M213 0q-70 0 -104.5 32.5t-34.5 95.5v247q0 126 147 126h100q73 0 111 -31t38 -99q0 -86 -6 -144h-318v-98q0 -34 16 -49.5t54 -15.5h228v-64h-231zM146 288h255v82q0 39 -19.5 55.5t-65.5 16.5h-91q-39 0 -59 -16t-20 -51v-87zM310 703q32 0 49.5 -5.5t25 -17t7.5 -32.5
v-14q0 -22 -9.5 -34t-30.5 -17t-59 -5v-26h-53v64h56q23 0 30 4t7 14v8q0 9 -5.5 12.5t-20.5 3.5h-135v45h138z" />
    <glyph glyph-name="uni1EBC" unicode="&#x1ebc;" horiz-adv-x="543" 
d="M494 0h-399v700h389v-41l-28 -28h-285v-243h298v-39l-28 -28h-270v-252h323v-69zM157 753q0 50 23 75.5t62 25.5q21 0 36 -8.5t31 -23.5q13 -11 21 -16t17 -5q18 0 26.5 12.5t8.5 40.5h51q0 -50 -22.5 -75.5t-62.5 -25.5q-21 0 -36 8.5t-31 23.5q-12 11 -20.5 16.5
t-17.5 5.5q-18 0 -26.5 -12.5t-8.5 -41.5h-51z" />
    <glyph glyph-name="uni1EBD" unicode="&#x1ebd;" horiz-adv-x="528" 
d="M213 0q-70 0 -104.5 32.5t-34.5 95.5v247q0 126 147 126h100q73 0 111 -31t38 -99q0 -86 -6 -144h-318v-98q0 -34 16 -49.5t54 -15.5h228v-64h-231zM146 288h255v82q0 39 -19.5 55.5t-65.5 16.5h-91q-39 0 -59 -16t-20 -51v-87zM135 579q0 50 23 75.5t62 25.5
q21 0 36 -8.5t31 -23.5q13 -11 21 -16t17 -5q18 0 26.5 12.5t8.5 40.5h51q0 -50 -22.5 -75.5t-62.5 -25.5q-21 0 -36 8.5t-31 23.5q-12 11 -20.5 16.5t-17.5 5.5q-18 0 -26.5 -12.5t-8.5 -41.5h-51z" />
    <glyph glyph-name="uni1EBE" unicode="&#x1ebe;" horiz-adv-x="543" 
d="M494 0h-399v700h389v-41l-28 -28h-285v-243h298v-39l-28 -28h-270v-252h323v-69zM405 829l92 126h77l-106 -126h-63zM335 869l104 -126h-67l-82 88l-82 -88h-65l103 126h89z" />
    <glyph glyph-name="uni1EBF" unicode="&#x1ebf;" horiz-adv-x="528" 
d="M213 0q-70 0 -104.5 32.5t-34.5 95.5v247q0 126 147 126h100q73 0 111 -31t38 -99q0 -86 -6 -144h-318v-98q0 -34 16 -49.5t54 -15.5h228v-64h-231zM146 288h255v82q0 39 -19.5 55.5t-65.5 16.5h-91q-39 0 -59 -16t-20 -51v-87zM388 640l92 126h77l-106 -126h-63z
M318 680l104 -126h-67l-82 88l-82 -88h-65l103 126h89z" />
    <glyph glyph-name="uni1EC0" unicode="&#x1ec0;" horiz-adv-x="543" 
d="M494 0h-399v700h389v-41l-28 -28h-285v-243h298v-39l-28 -28h-270v-252h323v-69zM6 955h77l93 -126h-64zM334 869l104 -126h-66l-82 88l-82 -88h-66l103 126h89z" />
    <glyph glyph-name="uni1EC1" unicode="&#x1ec1;" horiz-adv-x="528" 
d="M213 0q-70 0 -104.5 32.5t-34.5 95.5v247q0 126 147 126h100q73 0 111 -31t38 -99q0 -86 -6 -144h-318v-98q0 -34 16 -49.5t54 -15.5h228v-64h-231zM146 288h255v82q0 39 -19.5 55.5t-65.5 16.5h-91q-39 0 -59 -16t-20 -51v-87zM-11 766h77l93 -126h-64zM317 680
l104 -126h-66l-82 88l-82 -88h-66l103 126h89z" />
    <glyph glyph-name="uni1EC2" unicode="&#x1ec2;" horiz-adv-x="543" 
d="M494 0h-399v700h389v-41l-28 -28h-285v-243h298v-39l-28 -28h-270v-252h323v-69zM338 869l104 -126h-67l-82 88l-82 -88h-65l103 126h89zM492 977q32 0 49.5 -5.5t25 -17t7.5 -32.5v-14q0 -22 -9.5 -34t-30.5 -17t-59 -5v-26h-53v64h56q23 0 30 4t7 14v8q0 9 -5.5 12.5
t-20.5 3.5h-135v45h138z" />
    <glyph glyph-name="uni1EC3" unicode="&#x1ec3;" horiz-adv-x="528" 
d="M213 0q-70 0 -104.5 32.5t-34.5 95.5v247q0 126 147 126h100q73 0 111 -31t38 -99q0 -86 -6 -144h-318v-98q0 -34 16 -49.5t54 -15.5h228v-64h-231zM146 288h255v82q0 39 -19.5 55.5t-65.5 16.5h-91q-39 0 -59 -16t-20 -51v-87zM317 680l104 -126h-67l-82 88l-82 -88h-65
l103 126h89zM471 788q32 0 49.5 -5.5t25 -17t7.5 -32.5v-14q0 -22 -9.5 -34t-30.5 -17t-59 -5v-26h-53v64h56q23 0 30 4t7 14v8q0 9 -5.5 12.5t-20.5 3.5h-135v45h138z" />
    <glyph glyph-name="uni1EC4" unicode="&#x1ec4;" horiz-adv-x="543" 
d="M494 0h-399v700h389v-41l-28 -28h-285v-243h298v-39l-28 -28h-270v-252h323v-69zM337 869l104 -126h-67l-82 88l-82 -88h-65l103 126h89zM155 892q0 50 23 75.5t62 25.5q21 0 36 -8.5t31 -23.5q13 -11 21 -16t17 -5q18 0 26.5 12.5t8.5 40.5h51q0 -50 -22.5 -75.5
t-62.5 -25.5q-21 0 -36 8.5t-31 23.5q-12 11 -20.5 16.5t-17.5 5.5q-18 0 -26.5 -12.5t-8.5 -41.5h-51z" />
    <glyph glyph-name="uni1EC5" unicode="&#x1ec5;" horiz-adv-x="528" 
d="M213 0q-70 0 -104.5 32.5t-34.5 95.5v247q0 126 147 126h100q73 0 111 -31t38 -99q0 -86 -6 -144h-318v-98q0 -34 16 -49.5t54 -15.5h228v-64h-231zM146 288h255v82q0 39 -19.5 55.5t-65.5 16.5h-91q-39 0 -59 -16t-20 -51v-87zM315 680l104 -126h-67l-82 88l-82 -88h-65
l103 126h89zM133 703q0 50 23 75.5t62 25.5q21 0 36 -8.5t31 -23.5q13 -11 21 -16t17 -5q18 0 26.5 12.5t8.5 40.5h51q0 -50 -22.5 -75.5t-62.5 -25.5q-21 0 -36 8.5t-31 23.5q-12 11 -20.5 16.5t-17.5 5.5q-18 0 -26.5 -12.5t-8.5 -41.5h-51z" />
    <glyph glyph-name="uni1EC6" unicode="&#x1ec6;" horiz-adv-x="543" 
d="M494 0h-399v700h389v-41l-28 -28h-285v-243h298v-39l-28 -28h-270v-252h323v-69zM257 -166v94h81v-94h-81zM335 869l104 -126h-67l-82 88l-82 -88h-65l103 126h89z" />
    <glyph glyph-name="uni1EC7" unicode="&#x1ec7;" horiz-adv-x="528" 
d="M213 0q-70 0 -104.5 32.5t-34.5 95.5v247q0 126 147 126h100q73 0 111 -31t38 -99q0 -86 -6 -144h-318v-98q0 -34 16 -49.5t54 -15.5h228v-64h-231zM146 288h255v82q0 39 -19.5 55.5t-65.5 16.5h-91q-39 0 -59 -16t-20 -51v-87zM239 -166v94h81v-94h-81zM317 680
l104 -126h-67l-82 88l-82 -88h-65l103 126h89z" />
    <glyph glyph-name="uni1EC8" unicode="&#x1ec8;" horiz-adv-x="266" 
d="M171 0h-76v700h76v-700zM176 892q32 0 49.5 -5.5t25 -17t7.5 -32.5v-14q0 -22 -9.5 -34t-30.5 -17t-59 -5v-26h-53v64h56q23 0 30 4t7 14v8q0 9 -5.5 12.5t-20.5 3.5h-135v45h138z" />
    <glyph glyph-name="uni1EC9" unicode="&#x1ec9;" horiz-adv-x="239" 
d="M83 0v494h73v-494h-73zM163 703q32 0 49.5 -5.5t25 -17t7.5 -32.5v-14q0 -22 -9.5 -34t-30.5 -17t-59 -5v-26h-53v64h56q23 0 30 4t7 14v8q0 9 -5.5 12.5t-20.5 3.5h-135v45h138z" />
    <glyph glyph-name="uni1ECA" unicode="&#x1eca;" horiz-adv-x="266" 
d="M171 0h-76v700h76v-700zM92 -166v94h81v-94h-81z" />
    <glyph glyph-name="uni1ECB" unicode="&#x1ecb;" horiz-adv-x="239" 
d="M161 596h-83v96h83v-96zM156 0h-73v494h73v-494zM78 -166v94h81v-94h-81z" />
    <glyph glyph-name="uni1ECC" unicode="&#x1ecc;" 
d="M249 -6q-75 0 -117.5 37t-42.5 112v414q0 76 42.5 113t117.5 37h192q75 0 117.5 -37t42.5 -113v-414q0 -75 -42.5 -112t-117.5 -37h-192zM441 63q40 0 62 20t22 60v414q0 40 -22 60.5t-62 20.5h-192q-40 0 -62 -20.5t-22 -60.5v-414q0 -40 22 -60t62 -20h192zM308 -166
v94h81v-94h-81z" />
    <glyph glyph-name="uni1ECD" unicode="&#x1ecd;" horiz-adv-x="561" 
d="M223 -6q-72 0 -110.5 35t-38.5 105v226q0 70 38.5 105.5t110.5 35.5h115q72 0 111 -35.5t39 -105.5v-226q0 -70 -39 -105t-111 -35h-115zM338 58q39 0 58 18.5t19 57.5v226q0 39 -19 57.5t-58 18.5h-115q-39 0 -58 -18.5t-19 -57.5v-226q0 -39 19 -57.5t58 -18.5h115z
M241 -166v94h81v-94h-81z" />
    <glyph glyph-name="uni1ECE" unicode="&#x1ece;" 
d="M249 -6q-75 0 -117.5 37t-42.5 112v414q0 76 42.5 113t117.5 37h192q75 0 117.5 -37t42.5 -113v-414q0 -75 -42.5 -112t-117.5 -37h-192zM441 63q40 0 62 20t22 60v414q0 40 -22 60.5t-62 20.5h-192q-40 0 -62 -20.5t-22 -60.5v-414q0 -40 22 -60t62 -20h192zM388 892
q32 0 49.5 -5.5t25 -17t7.5 -32.5v-14q0 -22 -9.5 -34t-30.5 -17t-59 -5v-26h-53v64h56q23 0 30 4t7 14v8q0 9 -5.5 12.5t-20.5 3.5h-135v45h138z" />
    <glyph glyph-name="uni1ECF" unicode="&#x1ecf;" horiz-adv-x="561" 
d="M223 -6q-72 0 -110.5 35t-38.5 105v226q0 70 38.5 105.5t110.5 35.5h115q72 0 111 -35.5t39 -105.5v-226q0 -70 -39 -105t-111 -35h-115zM338 58q39 0 58 18.5t19 57.5v226q0 39 -19 57.5t-58 18.5h-115q-39 0 -58 -18.5t-19 -57.5v-226q0 -39 19 -57.5t58 -18.5h115z
M323 703q32 0 49.5 -5.5t25 -17t7.5 -32.5v-14q0 -22 -9.5 -34t-30.5 -17t-59 -5v-26h-53v64h56q23 0 30 4t7 14v8q0 9 -5.5 12.5t-20.5 3.5h-135v45h138z" />
    <glyph glyph-name="uni1ED0" unicode="&#x1ed0;" 
d="M249 -6q-75 0 -117.5 37t-42.5 112v414q0 76 42.5 113t117.5 37h192q75 0 117.5 -37t42.5 -113v-414q0 -75 -42.5 -112t-117.5 -37h-192zM441 63q40 0 62 20t22 60v414q0 40 -22 60.5t-62 20.5h-192q-40 0 -62 -20.5t-22 -60.5v-414q0 -40 22 -60t62 -20h192zM459 829
l92 126h77l-106 -126h-63zM389 869l104 -126h-67l-82 88l-82 -88h-65l103 126h89z" />
    <glyph glyph-name="uni1ED1" unicode="&#x1ed1;" horiz-adv-x="561" 
d="M223 -6q-72 0 -110.5 35t-38.5 105v226q0 70 38.5 105.5t110.5 35.5h115q72 0 111 -35.5t39 -105.5v-226q0 -70 -39 -105t-111 -35h-115zM338 58q39 0 58 18.5t19 57.5v226q0 39 -19 57.5t-58 18.5h-115q-39 0 -58 -18.5t-19 -57.5v-226q0 -39 19 -57.5t58 -18.5h115z
M395 640l92 126h77l-106 -126h-63zM325 680l104 -126h-67l-82 88l-82 -88h-65l103 126h89z" />
    <glyph glyph-name="uni1ED2" unicode="&#x1ed2;" 
d="M249 -6q-75 0 -117.5 37t-42.5 112v414q0 76 42.5 113t117.5 37h192q75 0 117.5 -37t42.5 -113v-414q0 -75 -42.5 -112t-117.5 -37h-192zM441 63q40 0 62 20t22 60v414q0 40 -22 60.5t-62 20.5h-192q-40 0 -62 -20.5t-22 -60.5v-414q0 -40 22 -60t62 -20h192zM59 955h77
l93 -126h-64zM387 869l104 -126h-66l-82 88l-82 -88h-66l103 126h89z" />
    <glyph glyph-name="uni1ED3" unicode="&#x1ed3;" horiz-adv-x="561" 
d="M223 -6q-72 0 -110.5 35t-38.5 105v226q0 70 38.5 105.5t110.5 35.5h115q72 0 111 -35.5t39 -105.5v-226q0 -70 -39 -105t-111 -35h-115zM338 58q39 0 58 18.5t19 57.5v226q0 39 -19 57.5t-58 18.5h-115q-39 0 -58 -18.5t-19 -57.5v-226q0 -39 19 -57.5t58 -18.5h115z
M-4 766h77l93 -126h-64zM324 680l104 -126h-66l-82 88l-82 -88h-66l103 126h89z" />
    <glyph glyph-name="uni1ED4" unicode="&#x1ed4;" 
d="M249 -6q-75 0 -117.5 37t-42.5 112v414q0 76 42.5 113t117.5 37h192q75 0 117.5 -37t42.5 -113v-414q0 -75 -42.5 -112t-117.5 -37h-192zM441 63q40 0 62 20t22 60v414q0 40 -22 60.5t-62 20.5h-192q-40 0 -62 -20.5t-22 -60.5v-414q0 -40 22 -60t62 -20h192zM390 869
l104 -126h-67l-82 88l-82 -88h-65l103 126h89zM544 977q32 0 49.5 -5.5t25 -17t7.5 -32.5v-14q0 -22 -9.5 -34t-30.5 -17t-59 -5v-26h-53v64h56q23 0 30 4t7 14v8q0 9 -5.5 12.5t-20.5 3.5h-135v45h138z" />
    <glyph glyph-name="uni1ED5" unicode="&#x1ed5;" horiz-adv-x="561" 
d="M223 -6q-72 0 -110.5 35t-38.5 105v226q0 70 38.5 105.5t110.5 35.5h115q72 0 111 -35.5t39 -105.5v-226q0 -70 -39 -105t-111 -35h-115zM338 58q39 0 58 18.5t19 57.5v226q0 39 -19 57.5t-58 18.5h-115q-39 0 -58 -18.5t-19 -57.5v-226q0 -39 19 -57.5t58 -18.5h115z
M324 680l104 -126h-67l-82 88l-82 -88h-65l103 126h89zM478 788q32 0 49.5 -5.5t25 -17t7.5 -32.5v-14q0 -22 -9.5 -34t-30.5 -17t-59 -5v-26h-53v64h56q23 0 30 4t7 14v8q0 9 -5.5 12.5t-20.5 3.5h-135v45h138z" />
    <glyph glyph-name="uni1ED6" unicode="&#x1ed6;" 
d="M249 -6q-75 0 -117.5 37t-42.5 112v414q0 76 42.5 113t117.5 37h192q75 0 117.5 -37t42.5 -113v-414q0 -75 -42.5 -112t-117.5 -37h-192zM441 63q40 0 62 20t22 60v414q0 40 -22 60.5t-62 20.5h-192q-40 0 -62 -20.5t-22 -60.5v-414q0 -40 22 -60t62 -20h192zM387 869
l104 -126h-67l-82 88l-82 -88h-65l103 126h89zM205 892q0 50 23 75.5t62 25.5q21 0 36 -8.5t31 -23.5q13 -11 21 -16t17 -5q18 0 26.5 12.5t8.5 40.5h51q0 -50 -22.5 -75.5t-62.5 -25.5q-21 0 -36 8.5t-31 23.5q-12 11 -20.5 16.5t-17.5 5.5q-18 0 -26.5 -12.5t-8.5 -41.5
h-51z" />
    <glyph glyph-name="uni1ED7" unicode="&#x1ed7;" horiz-adv-x="561" 
d="M223 -6q-72 0 -110.5 35t-38.5 105v226q0 70 38.5 105.5t110.5 35.5h115q72 0 111 -35.5t39 -105.5v-226q0 -70 -39 -105t-111 -35h-115zM338 58q39 0 58 18.5t19 57.5v226q0 39 -19 57.5t-58 18.5h-115q-39 0 -58 -18.5t-19 -57.5v-226q0 -39 19 -57.5t58 -18.5h115z
M324 680l104 -126h-67l-82 88l-82 -88h-65l103 126h89zM142 703q0 50 23 75.5t62 25.5q21 0 36 -8.5t31 -23.5q13 -11 21 -16t17 -5q18 0 26.5 12.5t8.5 40.5h51q0 -50 -22.5 -75.5t-62.5 -25.5q-21 0 -36 8.5t-31 23.5q-12 11 -20.5 16.5t-17.5 5.5q-18 0 -26.5 -12.5
t-8.5 -41.5h-51z" />
    <glyph glyph-name="uni1ED8" unicode="&#x1ed8;" 
d="M249 -6q-75 0 -117.5 37t-42.5 112v414q0 76 42.5 113t117.5 37h192q75 0 117.5 -37t42.5 -113v-414q0 -75 -42.5 -112t-117.5 -37h-192zM441 63q40 0 62 20t22 60v414q0 40 -22 60.5t-62 20.5h-192q-40 0 -62 -20.5t-22 -60.5v-414q0 -40 22 -60t62 -20h192zM306 -166
v94h81v-94h-81zM391 869l104 -126h-67l-82 88l-82 -88h-65l103 126h89z" />
    <glyph glyph-name="uni1ED9" unicode="&#x1ed9;" horiz-adv-x="561" 
d="M223 -6q-72 0 -110.5 35t-38.5 105v226q0 70 38.5 105.5t110.5 35.5h115q72 0 111 -35.5t39 -105.5v-226q0 -70 -39 -105t-111 -35h-115zM338 58q39 0 58 18.5t19 57.5v226q0 39 -19 57.5t-58 18.5h-115q-39 0 -58 -18.5t-19 -57.5v-226q0 -39 19 -57.5t58 -18.5h115z
M240 -166v94h81v-94h-81zM325 680l104 -126h-67l-82 88l-82 -88h-65l103 126h89z" />
    <glyph glyph-name="uni1EDA" unicode="&#x1eda;" 
d="M649 774h59v-90q0 -53 -29 -78.5t-79 -26.5q1 -7 1 -22v-414q0 -75 -42.5 -112t-117.5 -37h-192q-75 0 -117.5 37t-42.5 112v414q0 76 42.5 113t117.5 37h192q52 0 89.5 -18.5t55.5 -55.5h10q26 0 39.5 13t13.5 38v90zM525 557q0 40 -22 60.5t-62 20.5h-192
q-40 0 -62 -20.5t-22 -60.5v-414q0 -40 22 -60t62 -20h192q40 0 62 20t22 60v414zM378 743h-71l93 126h84z" />
    <glyph glyph-name="uni1EDB" unicode="&#x1edb;" horiz-adv-x="572" 
d="M528 570h59v-90q0 -50 -26.5 -76t-73.5 -29q1 -5 1 -15v-226q0 -70 -39 -105t-111 -35h-115q-72 0 -110.5 35t-38.5 105v226q0 70 38.5 105.5t110.5 35.5h115q51 0 86 -18t51 -54q26 0 39.5 13t13.5 38v90zM415 360q0 39 -19 57.5t-58 18.5h-115q-39 0 -58 -18.5
t-19 -57.5v-226q0 -39 19 -57.5t58 -18.5h115q39 0 58 18.5t19 57.5v226zM310 554h-71l93 126h84z" />
    <glyph glyph-name="uni1EDC" unicode="&#x1edc;" 
d="M649 774h59v-90q0 -53 -29 -78.5t-79 -26.5q1 -7 1 -22v-414q0 -75 -42.5 -112t-117.5 -37h-192q-75 0 -117.5 37t-42.5 112v414q0 76 42.5 113t117.5 37h192q52 0 89.5 -18.5t55.5 -55.5h10q26 0 39.5 13t13.5 38v90zM525 557q0 40 -22 60.5t-62 20.5h-192
q-40 0 -62 -20.5t-22 -60.5v-414q0 -40 22 -60t62 -20h192q40 0 62 20t22 60v414zM291 869l93 -126h-71l-106 126h84z" />
    <glyph glyph-name="uni1EDD" unicode="&#x1edd;" horiz-adv-x="572" 
d="M528 570h59v-90q0 -50 -26.5 -76t-73.5 -29q1 -5 1 -15v-226q0 -70 -39 -105t-111 -35h-115q-72 0 -110.5 35t-38.5 105v226q0 70 38.5 105.5t110.5 35.5h115q51 0 86 -18t51 -54q26 0 39.5 13t13.5 38v90zM415 360q0 39 -19 57.5t-58 18.5h-115q-39 0 -58 -18.5
t-19 -57.5v-226q0 -39 19 -57.5t58 -18.5h115q39 0 58 18.5t19 57.5v226zM223 680l93 -126h-71l-106 126h84z" />
    <glyph glyph-name="uni1EDE" unicode="&#x1ede;" 
d="M649 774h59v-90q0 -53 -29 -78.5t-79 -26.5q1 -7 1 -22v-414q0 -75 -42.5 -112t-117.5 -37h-192q-75 0 -117.5 37t-42.5 112v414q0 76 42.5 113t117.5 37h192q52 0 89.5 -18.5t55.5 -55.5h10q26 0 39.5 13t13.5 38v90zM525 557q0 40 -22 60.5t-62 20.5h-192
q-40 0 -62 -20.5t-22 -60.5v-414q0 -40 22 -60t62 -20h192q40 0 62 20t22 60v414zM389 892q32 0 49.5 -5.5t25 -17t7.5 -32.5v-14q0 -22 -9.5 -34t-30.5 -17t-59 -5v-26h-53v64h56q23 0 30 4t7 14v8q0 9 -5.5 12.5t-20.5 3.5h-135v45h138z" />
    <glyph glyph-name="uni1EDF" unicode="&#x1edf;" horiz-adv-x="572" 
d="M528 570h59v-90q0 -50 -26.5 -76t-73.5 -29q1 -5 1 -15v-226q0 -70 -39 -105t-111 -35h-115q-72 0 -110.5 35t-38.5 105v226q0 70 38.5 105.5t110.5 35.5h115q51 0 86 -18t51 -54q26 0 39.5 13t13.5 38v90zM415 360q0 39 -19 57.5t-58 18.5h-115q-39 0 -58 -18.5
t-19 -57.5v-226q0 -39 19 -57.5t58 -18.5h115q39 0 58 18.5t19 57.5v226zM321 703q32 0 49.5 -5.5t25 -17t7.5 -32.5v-14q0 -22 -9.5 -34t-30.5 -17t-59 -5v-26h-53v64h56q23 0 30 4t7 14v8q0 9 -5.5 12.5t-20.5 3.5h-135v45h138z" />
    <glyph glyph-name="uni1EE0" unicode="&#x1ee0;" 
d="M649 774h59v-90q0 -53 -29 -78.5t-79 -26.5q1 -7 1 -22v-414q0 -75 -42.5 -112t-117.5 -37h-192q-75 0 -117.5 37t-42.5 112v414q0 76 42.5 113t117.5 37h192q52 0 89.5 -18.5t55.5 -55.5h10q26 0 39.5 13t13.5 38v90zM525 557q0 40 -22 60.5t-62 20.5h-192
q-40 0 -62 -20.5t-22 -60.5v-414q0 -40 22 -60t62 -20h192q40 0 62 20t22 60v414zM208 753q0 50 23 75.5t62 25.5q21 0 36 -8.5t31 -23.5q13 -11 21 -16t17 -5q18 0 26.5 12.5t8.5 40.5h51q0 -50 -22.5 -75.5t-62.5 -25.5q-21 0 -36 8.5t-31 23.5q-12 11 -20.5 16.5
t-17.5 5.5q-18 0 -26.5 -12.5t-8.5 -41.5h-51z" />
    <glyph glyph-name="uni1EE1" unicode="&#x1ee1;" horiz-adv-x="572" 
d="M528 570h59v-90q0 -50 -26.5 -76t-73.5 -29q1 -5 1 -15v-226q0 -70 -39 -105t-111 -35h-115q-72 0 -110.5 35t-38.5 105v226q0 70 38.5 105.5t110.5 35.5h115q51 0 86 -18t51 -54q26 0 39.5 13t13.5 38v90zM415 360q0 39 -19 57.5t-58 18.5h-115q-39 0 -58 -18.5
t-19 -57.5v-226q0 -39 19 -57.5t58 -18.5h115q39 0 58 18.5t19 57.5v226zM138 579q0 50 23 75.5t62 25.5q21 0 36 -8.5t31 -23.5q13 -11 21 -16t17 -5q18 0 26.5 12.5t8.5 40.5h51q0 -50 -22.5 -75.5t-62.5 -25.5q-21 0 -36 8.5t-31 23.5q-12 11 -20.5 16.5t-17.5 5.5
q-18 0 -26.5 -12.5t-8.5 -41.5h-51z" />
    <glyph glyph-name="uni1EE2" unicode="&#x1ee2;" 
d="M649 774h59v-90q0 -53 -29 -78.5t-79 -26.5q1 -7 1 -22v-414q0 -75 -42.5 -112t-117.5 -37h-192q-75 0 -117.5 37t-42.5 112v414q0 76 42.5 113t117.5 37h192q52 0 89.5 -18.5t55.5 -55.5h10q26 0 39.5 13t13.5 38v90zM525 557q0 40 -22 60.5t-62 20.5h-192
q-40 0 -62 -20.5t-22 -60.5v-414q0 -40 22 -60t62 -20h192q40 0 62 20t22 60v414zM304 -166v94h81v-94h-81z" />
    <glyph glyph-name="uni1EE3" unicode="&#x1ee3;" horiz-adv-x="572" 
d="M528 570h59v-90q0 -50 -26.5 -76t-73.5 -29q1 -5 1 -15v-226q0 -70 -39 -105t-111 -35h-115q-72 0 -110.5 35t-38.5 105v226q0 70 38.5 105.5t110.5 35.5h115q51 0 86 -18t51 -54q26 0 39.5 13t13.5 38v90zM415 360q0 39 -19 57.5t-58 18.5h-115q-39 0 -58 -18.5
t-19 -57.5v-226q0 -39 19 -57.5t58 -18.5h115q39 0 58 18.5t19 57.5v226zM240 -166v94h81v-94h-81z" />
    <glyph glyph-name="uni1EE4" unicode="&#x1ee4;" horiz-adv-x="680" 
d="M253 -6q-75 0 -117.5 37t-42.5 112v557h74v-557q0 -40 23 -60t63 -20h174q40 0 63 20t23 60v557h74v-557q0 -75 -42.5 -112t-117.5 -37h-174zM299 -166v94h81v-94h-81z" />
    <glyph glyph-name="uni1EE5" unicode="&#x1ee5;" horiz-adv-x="547" 
d="M233 0q-73 0 -114 35.5t-41 105.5v353h72v-346q0 -84 88 -84h157v430h72v-494h-234zM240 -166v94h81v-94h-81z" />
    <glyph glyph-name="uni1EE6" unicode="&#x1ee6;" horiz-adv-x="680" 
d="M253 -6q-75 0 -117.5 37t-42.5 112v557h74v-557q0 -40 23 -60t63 -20h174q40 0 63 20t23 60v557h74v-557q0 -75 -42.5 -112t-117.5 -37h-174zM379 892q32 0 49.5 -5.5t25 -17t7.5 -32.5v-14q0 -22 -9.5 -34t-30.5 -17t-59 -5v-26h-53v64h56q23 0 30 4t7 14v8
q0 9 -5.5 12.5t-20.5 3.5h-135v45h138z" />
    <glyph glyph-name="uni1EE7" unicode="&#x1ee7;" horiz-adv-x="547" 
d="M233 0q-73 0 -114 35.5t-41 105.5v353h72v-346q0 -84 88 -84h157v430h72v-494h-234zM318 703q32 0 49.5 -5.5t25 -17t7.5 -32.5v-14q0 -22 -9.5 -34t-30.5 -17t-59 -5v-26h-53v64h56q23 0 30 4t7 14v8q0 9 -5.5 12.5t-20.5 3.5h-135v45h138z" />
    <glyph glyph-name="uni1EE8" unicode="&#x1ee8;" horiz-adv-x="680" 
d="M658 774h59v-90q0 -53 -30 -79t-82 -26h-18v-436q0 -75 -42.5 -112t-117.5 -37h-174q-75 0 -117.5 37t-42.5 112v557h74v-557q0 -40 23 -60t63 -20h174q40 0 63 20t23 60v557h74v-67h18q26 0 39.5 13t13.5 38v90zM365 743h-71l93 126h84z" />
    <glyph glyph-name="uni1EE9" unicode="&#x1ee9;" horiz-adv-x="574" 
d="M530 570h59v-90q0 -53 -30 -79t-82 -26h-10v-375h-234q-73 0 -114 35.5t-41 105.5v353h72v-346q0 -84 88 -84h157v430h72v-65h10q26 0 39.5 13t13.5 38v90zM306 554h-71l93 126h84z" />
    <glyph glyph-name="uni1EEA" unicode="&#x1eea;" horiz-adv-x="680" 
d="M658 774h59v-90q0 -53 -30 -79t-82 -26h-18v-436q0 -75 -42.5 -112t-117.5 -37h-174q-75 0 -117.5 37t-42.5 112v557h74v-557q0 -40 23 -60t63 -20h174q40 0 63 20t23 60v557h74v-67h18q26 0 39.5 13t13.5 38v90zM279 869l93 -126h-71l-106 126h84z" />
    <glyph glyph-name="uni1EEB" unicode="&#x1eeb;" horiz-adv-x="574" 
d="M530 570h59v-90q0 -53 -30 -79t-82 -26h-10v-375h-234q-73 0 -114 35.5t-41 105.5v353h72v-346q0 -84 88 -84h157v430h72v-65h10q26 0 39.5 13t13.5 38v90zM217 680l93 -126h-71l-106 126h84z" />
    <glyph glyph-name="uni1EEC" unicode="&#x1eec;" horiz-adv-x="680" 
d="M658 774h59v-90q0 -53 -30 -79t-82 -26h-18v-436q0 -75 -42.5 -112t-117.5 -37h-174q-75 0 -117.5 37t-42.5 112v557h74v-557q0 -40 23 -60t63 -20h174q40 0 63 20t23 60v557h74v-67h18q26 0 39.5 13t13.5 38v90zM380 892q32 0 49.5 -5.5t25 -17t7.5 -32.5v-14
q0 -22 -9.5 -34t-30.5 -17t-59 -5v-26h-53v64h56q23 0 30 4t7 14v8q0 9 -5.5 12.5t-20.5 3.5h-135v45h138z" />
    <glyph glyph-name="uni1EED" unicode="&#x1eed;" horiz-adv-x="574" 
d="M530 570h59v-90q0 -53 -30 -79t-82 -26h-10v-375h-234q-73 0 -114 35.5t-41 105.5v353h72v-346q0 -84 88 -84h157v430h72v-65h10q26 0 39.5 13t13.5 38v90zM317 701q32 0 49.5 -5.5t25 -17t7.5 -32.5v-14q0 -22 -9.5 -34t-30.5 -17t-59 -5v-26h-53v64h56q23 0 30 4t7 14
v8q0 9 -5.5 12.5t-20.5 3.5h-135v45h138z" />
    <glyph glyph-name="uni1EEE" unicode="&#x1eee;" horiz-adv-x="680" 
d="M658 774h59v-90q0 -53 -30 -79t-82 -26h-18v-436q0 -75 -42.5 -112t-117.5 -37h-174q-75 0 -117.5 37t-42.5 112v557h74v-557q0 -40 23 -60t63 -20h174q40 0 63 20t23 60v557h74v-67h18q26 0 39.5 13t13.5 38v90zM196 753q0 50 23 75.5t62 25.5q21 0 36 -8.5t31 -23.5
q13 -11 21 -16t17 -5q18 0 26.5 12.5t8.5 40.5h51q0 -50 -22.5 -75.5t-62.5 -25.5q-21 0 -36 8.5t-31 23.5q-12 11 -20.5 16.5t-17.5 5.5q-18 0 -26.5 -12.5t-8.5 -41.5h-51z" />
    <glyph glyph-name="uni1EEF" unicode="&#x1eef;" horiz-adv-x="574" 
d="M530 570h59v-90q0 -53 -30 -79t-82 -26h-10v-375h-234q-73 0 -114 35.5t-41 105.5v353h72v-346q0 -84 88 -84h157v430h72v-65h10q26 0 39.5 13t13.5 38v90zM135 579q0 50 23 75.5t62 25.5q21 0 36 -8.5t31 -23.5q13 -11 21 -16t17 -5q18 0 26.5 12.5t8.5 40.5h51
q0 -50 -22.5 -75.5t-62.5 -25.5q-21 0 -36 8.5t-31 23.5q-12 11 -20.5 16.5t-17.5 5.5q-18 0 -26.5 -12.5t-8.5 -41.5h-51z" />
    <glyph glyph-name="uni1EF0" unicode="&#x1ef0;" horiz-adv-x="680" 
d="M658 774h59v-90q0 -53 -30 -79t-82 -26h-18v-436q0 -75 -42.5 -112t-117.5 -37h-174q-75 0 -117.5 37t-42.5 112v557h74v-557q0 -40 23 -60t63 -20h174q40 0 63 20t23 60v557h74v-67h18q26 0 39.5 13t13.5 38v90zM293 -166v94h81v-94h-81z" />
    <glyph glyph-name="uni1EF1" unicode="&#x1ef1;" horiz-adv-x="574" 
d="M530 570h59v-90q0 -53 -30 -79t-82 -26h-10v-375h-234q-73 0 -114 35.5t-41 105.5v353h72v-346q0 -84 88 -84h157v430h72v-65h10q26 0 39.5 13t13.5 38v90zM239 -166v94h81v-94h-81z" />
    <glyph glyph-name="Ygrave" unicode="&#x1ef2;" horiz-adv-x="568" 
d="M320 0h-74v304l-229 396h87l181 -328l185 328h80l-230 -396v-304zM231 869l93 -126h-71l-106 126h84z" />
    <glyph glyph-name="ygrave" unicode="&#x1ef3;" horiz-adv-x="468" 
d="M46 -186v62h49q37 0 57.5 15.5t32.5 50.5l30 82h-30l-170 470h77l144 -414l142 414h75l-162 -454l-36 -98q-18 -51 -40.5 -79t-51 -38.5t-68.5 -10.5h-49zM183 680l93 -126h-71l-106 126h84z" />
    <glyph glyph-name="uni1EF4" unicode="&#x1ef4;" horiz-adv-x="568" 
d="M320 0h-74v304l-229 396h87l181 -328l185 328h80l-230 -396v-304zM242 -166v94h81v-94h-81z" />
    <glyph glyph-name="uni1EF5" unicode="&#x1ef5;" horiz-adv-x="468" 
d="M46 -186v62h49q37 0 57.5 15.5t32.5 50.5l30 82h-30l-170 470h77l144 -414l142 414h75l-162 -454l-36 -98q-18 -51 -40.5 -79t-51 -38.5t-68.5 -10.5h-49zM336 -166v94h81v-94h-81z" />
    <glyph glyph-name="uni1EF6" unicode="&#x1ef6;" horiz-adv-x="568" 
d="M320 0h-74v304l-229 396h87l181 -328l185 328h80l-230 -396v-304zM333 892q32 0 49.5 -5.5t25 -17t7.5 -32.5v-14q0 -22 -9.5 -34t-30.5 -17t-59 -5v-26h-53v64h56q23 0 30 4t7 14v8q0 9 -5.5 12.5t-20.5 3.5h-135v45h138z" />
    <glyph glyph-name="uni1EF7" unicode="&#x1ef7;" horiz-adv-x="468" 
d="M46 -186v62h49q37 0 57.5 15.5t32.5 50.5l30 82h-30l-170 470h77l144 -414l142 414h75l-162 -454l-36 -98q-18 -51 -40.5 -79t-51 -38.5t-68.5 -10.5h-49zM279 703q32 0 49.5 -5.5t25 -17t7.5 -32.5v-14q0 -22 -9.5 -34t-30.5 -17t-59 -5v-26h-53v64h56q23 0 30 4t7 14v8
q0 9 -5.5 12.5t-20.5 3.5h-135v45h138z" />
    <glyph glyph-name="uni1EF8" unicode="&#x1ef8;" horiz-adv-x="568" 
d="M320 0h-74v304l-229 396h87l181 -328l185 328h80l-230 -396v-304zM146 753q0 50 23 75.5t62 25.5q21 0 36 -8.5t31 -23.5q13 -11 21 -16t17 -5q18 0 26.5 12.5t8.5 40.5h51q0 -50 -22.5 -75.5t-62.5 -25.5q-21 0 -36 8.5t-31 23.5q-12 11 -20.5 16.5t-17.5 5.5
q-18 0 -26.5 -12.5t-8.5 -41.5h-51z" />
    <glyph glyph-name="uni1EF9" unicode="&#x1ef9;" horiz-adv-x="468" 
d="M46 -186v62h49q37 0 57.5 15.5t32.5 50.5l30 82h-30l-170 470h77l144 -414l142 414h75l-162 -454l-36 -98q-18 -51 -40.5 -79t-51 -38.5t-68.5 -10.5h-49zM97 579q0 50 23 75.5t62 25.5q21 0 36 -8.5t31 -23.5q13 -11 21 -16t17 -5q18 0 26.5 12.5t8.5 40.5h51
q0 -50 -22.5 -75.5t-62.5 -25.5q-21 0 -36 8.5t-31 23.5q-12 11 -20.5 16.5t-17.5 5.5q-18 0 -26.5 -12.5t-8.5 -41.5h-51z" />
    <glyph glyph-name="uni1F06" unicode="&#x1f06;" horiz-adv-x="585" 
d="M148 735q0 50 23 75.5t62 25.5q21 0 36 -8.5t31 -23.5q13 -11 21 -16t17 -5q18 0 26.5 12.5t8.5 40.5h51q0 -50 -22.5 -75.5t-62.5 -25.5q-21 0 -36 8.5t-31 23.5q-12 11 -20.5 16.5t-17.5 5.5q-18 0 -26.5 -12.5t-8.5 -41.5h-51zM252 615v78h70v-80l-79 -81h-42zM542 -2
q-43 0 -67.5 9t-34 26.5t-9.5 46.5q-13 -40 -40.5 -63t-78.5 -23h-66q-58 0 -92.5 15.5t-50.5 50t-16 92.5v197q0 152 155 152h67q45 0 69.5 -17t39.5 -54v59h66v-366q0 -26 4.5 -40t17 -20.5t36.5 -6.5v-58zM320 54q51 0 73.5 27t22.5 81v184q-10 49 -31.5 72.5t-64.5 23.5
h-75q-48 0 -69 -22t-21 -71v-196q0 -53 21 -76t70 -23h74z" />
    <glyph glyph-name="uni2010" unicode="&#x2010;" horiz-adv-x="380" 
d="M50 279h280v-56h-280v56z" />
    <glyph glyph-name="endash" unicode="&#x2013;" horiz-adv-x="580" 
d="M50 279h480v-56h-480v56z" />
    <glyph glyph-name="emdash" unicode="&#x2014;" horiz-adv-x="862" 
d="M50 279h762v-57h-762v57z" />
    <glyph glyph-name="quoteleft" unicode="&#x2018;" horiz-adv-x="251" 
d="M165 581v-100h-75v105l84 114h43z" />
    <glyph glyph-name="quoteright" unicode="&#x2019;" horiz-adv-x="251" 
d="M86 600v100h75v-104l-85 -115h-42z" />
    <glyph glyph-name="quotesinglbase" unicode="&#x201a;" horiz-adv-x="271" 
d="M98 6v111h75v-116l-84 -126h-43z" />
    <glyph glyph-name="quotedblleft" unicode="&#x201c;" horiz-adv-x="401" 
d="M165 581v-100h-75v105l84 114h43zM316 581v-100h-75v105l84 114h43z" />
    <glyph glyph-name="quotedblright" unicode="&#x201d;" horiz-adv-x="401" 
d="M85 600v100h76v-104l-85 -115h-42zM236 600v100h75v-104l-84 -115h-43z" />
    <glyph glyph-name="quotedblbase" unicode="&#x201e;" horiz-adv-x="401" 
d="M85 6v111h75v-116l-84 -126h-43zM236 6v111h75v-116l-84 -126h-43z" />
    <glyph glyph-name="dagger" unicode="&#x2020;" horiz-adv-x="348" 
d="M205 -150h-61v604h-120v56h120v260h61v-260h119v-56h-119v-604z" />
    <glyph glyph-name="daggerdbl" unicode="&#x2021;" horiz-adv-x="348" 
d="M205 -150h-61v262h-120v57h120v285h-120v56h120v260h61v-260h119v-56h-119v-285h119v-57h-119v-262z" />
    <glyph glyph-name="bullet" unicode="&#x2022;" horiz-adv-x="356" 
d="M125.5 206q-18.5 8 -26 26.5t-7.5 52.5t7.5 52t26 26t52.5 8t52.5 -8t26 -26t7.5 -52t-7.5 -52.5t-26 -26.5t-52.5 -8t-52.5 8z" />
    <glyph glyph-name="ellipsis" unicode="&#x2026;" horiz-adv-x="809" 
d="M79 0v117h112v-117h-112zM349 0v117h112v-117h-112zM619 0v117h112v-117h-112z" />
    <glyph glyph-name="perthousand" unicode="&#x2030;" horiz-adv-x="1042" 
d="M157 379q-38 0 -60.5 8.5t-34 29.5t-11.5 60v124q0 39 11.5 60.5t34 30t60.5 8.5h50q37 0 59.5 -8.5t34 -30t11.5 -60.5v-124q0 -39 -11.5 -60t-34 -29.5t-59.5 -8.5h-50zM172 0h-65l429 700h65zM207 430q44 0 44 47v124q0 25 -11.5 36t-32.5 11h-50q-21 0 -32.5 -11
t-11.5 -36v-124q0 -47 44 -47h50zM506 -5q-38 0 -60.5 8.5t-34 29.5t-11.5 60v125q0 39 11.5 60t34 29.5t60.5 8.5h50q37 0 59.5 -8.5t34 -29.5t11.5 -60v-125q0 -39 -11.5 -60t-34 -29.5t-59.5 -8.5h-50zM835 -5q-38 0 -60.5 8.5t-34 29.5t-11.5 60v125q0 39 11.5 60
t34 29.5t60.5 8.5h50q38 0 60.5 -8.5t34 -29.5t11.5 -60v-125q0 -39 -11.5 -60t-34 -29.5t-60.5 -8.5h-50zM556 46q44 0 44 47v125q0 47 -44 47h-50q-44 0 -44 -47v-125q0 -47 44 -47h50zM885 46q45 0 45 47v125q0 47 -45 47h-50q-44 0 -44 -47v-125q0 -47 44 -47h50z" />
    <glyph glyph-name="guilsinglleft" unicode="&#x2039;" horiz-adv-x="255" 
d="M58 304l160 160v-76l-123 -123l123 -123v-76l-160 160v78z" />
    <glyph glyph-name="guilsinglright" unicode="&#x203a;" horiz-adv-x="255" 
d="M36 388v76l160 -160v-78l-160 -160v76l124 123z" />
    <glyph glyph-name="fraction" unicode="&#x2044;" horiz-adv-x="260" 
d="M-44 0h-62l410 700h62z" />
    <glyph glyph-name="dong" unicode="&#x20ab;" horiz-adv-x="543" 
d="M461 625h65v-55h-65v-570h-234q-72 0 -112.5 35.5t-40.5 105.5v212q0 70 40.5 105.5t112.5 35.5h161v76h-136v55h136v75h73v-75zM388 65v365h-161q-38 0 -59.5 -20t-21.5 -58v-210q0 -38 21.5 -57.5t59.5 -19.5h161zM472 -140h-397v55h397v-55z" />
    <glyph glyph-name="Euro" unicode="&#x20ac;" horiz-adv-x="574" 
d="M271 631q-40 0 -62.5 -20t-22.5 -60v-94h241v-51h-241v-112h241v-51h-241v-93q0 -41 22.5 -61t62.5 -20h261v-69h-261q-76 0 -118.5 37t-42.5 113v93h-79v51h79v112h-79v51h79v94q0 75 42.5 112t118.5 37h261v-41l-28 -28h-233z" />
    <glyph glyph-name="uni20BD" unicode="&#x20bd;" horiz-adv-x="586" 
d="M540 471q0 -63 -17.5 -101t-57.5 -56.5t-108 -18.5h-172v-81h270v-69h-270v-145h-76v145h-89v69h89v81h-89v69h89v336h248q69 0 108 -15t57 -51t18 -103v-60zM465 531q0 40 -11.5 62t-35 30t-61.5 8h-172v-267h172q40 0 63.5 11t34 34t10.5 62v60z" />
    <glyph glyph-name="uni2116" unicode="&#x2116;" horiz-adv-x="993" 
d="M168 0h-73v700h121l298 -621v621h72v-700h-109l-309 628v-628zM787 379q-38 0 -60.5 8.5t-34 29.5t-11.5 60v124q0 39 11.5 60.5t34 30t60.5 8.5h50q38 0 60.5 -8.5t34 -30t11.5 -60.5v-124q0 -39 -11.5 -60t-34 -29.5t-60.5 -8.5h-50zM837 430q44 0 44 47v124
q0 25 -11.5 36t-32.5 11h-50q-21 0 -32.5 -11t-11.5 -36v-124q0 -47 44 -47h50zM933 276h-242v51h242v-51z" />
    <glyph glyph-name="trademark" unicode="&#x2122;" horiz-adv-x="763" 
d="M48 780h273v-49h-107v-277h-58v277h-108v49zM701 780v-326h-58v264l-81 -181h-57l-80 178v-261h-58v326h81l86 -191l86 191h81z" />
    <glyph glyph-name="Omega" unicode="&#x2126;" horiz-adv-x="656" 
d="M593 67v-67h-221v87q57 6 89.5 41.5t32.5 104.5v326q0 41 -22.5 60.5t-61.5 19.5h-164q-39 0 -61.5 -19.5t-22.5 -60.5v-326q0 -69 32.5 -104.5t89.5 -41.5v-87h-221v67h122q-47 21 -72 62t-25 104v326q0 75 42.5 111t115.5 36h164q73 0 115.5 -36t42.5 -111v-326
q0 -63 -25 -104t-72 -62h122z" />
    <glyph glyph-name="partialdiff" unicode="&#x2202;" horiz-adv-x="529" 
d="M121 700q169 0 261.5 -77.5t92.5 -244.5v-243q0 -71 -39 -106t-111 -35h-115q-71 0 -110 35t-39 106v142q0 71 39 106.5t110 35.5h191q-6 73 -35 120t-89 71.5t-156 24.5v65zM325 59q78 0 78 76v219h-193q-77 0 -77 -77v-142q0 -76 77 -76h115z" />
    <glyph glyph-name="Delta" unicode="&#x2206;" horiz-adv-x="639" 
d="M371 700l251 -700h-605l253 700h101zM320 640l-202 -574h402z" />
    <glyph glyph-name="product" unicode="&#x220f;" horiz-adv-x="602" 
d="M73 -180v880h456v-880h-70v814h-316v-814h-70z" />
    <glyph glyph-name="summation" unicode="&#x2211;" horiz-adv-x="599" 
d="M411 267l-265 -378h397v-66h-487v56l272 388l-259 377v56h469v-66h-380z" />
    <glyph glyph-name="minus" unicode="&#x2212;" horiz-adv-x="600" 
d="M88 229v68h424v-68h-424z" />
    <glyph glyph-name="uni2215" unicode="&#x2215;" horiz-adv-x="511" 
d="M143 0h-74l299 700h74z" />
    <glyph glyph-name="uni2219" unicode="&#x2219;" horiz-adv-x="494" 
d="M191 277v117h112v-117h-112z" />
    <glyph glyph-name="radical" unicode="&#x221a;" horiz-adv-x="680" 
d="M354 -87l243 787h71l-270 -880h-73l-166 339l-104 -49l-26 54l164 78z" />
    <glyph glyph-name="infinity" unicode="&#x221e;" horiz-adv-x="736" 
d="M172 159q-70 0 -106 42t-36 112v58q0 68 36 109.5t106 41.5h60q38 0 62.5 -7.5t42.5 -30t28 -67.5h6q10 45 28 67.5t42.5 30t62.5 7.5h60q70 0 106 -41.5t36 -109.5v-58q0 -70 -36 -112t-106 -42h-60q-38 0 -62.5 7.5t-42.5 31t-28 69.5h-6q-10 -46 -28 -69.5t-42.5 -31
t-62.5 -7.5h-60zM232 221q39 0 59 9.5t29.5 34t18.5 77.5q-9 53 -18.5 77.5t-29.5 34t-59 9.5h-52q-42 0 -63 -25.5t-21 -66.5v-58q0 -42 21 -67t63 -25h52zM556 221q42 0 63 25t21 67v58q0 41 -21 66.5t-63 25.5h-52q-39 0 -59 -9.5t-29.5 -34t-18.5 -77.5
q9 -53 18.5 -77.5t29.5 -34t59 -9.5h52z" />
    <glyph glyph-name="integral" unicode="&#x222b;" horiz-adv-x="357" 
d="M39 -175v56h47q23 0 35 7t17 22t5 41v642q0 63 30.5 91.5t91.5 28.5h53v-56h-47q-23 0 -35 -7t-17 -22t-5 -41v-642q0 -63 -30.5 -91.5t-91.5 -28.5h-53z" />
    <glyph glyph-name="approxequal" unicode="&#x2248;" horiz-adv-x="600" 
d="M510 327q-28 -18 -52.5 -26.5t-48.5 -8.5q-47 0 -109 35q-63 36 -109 36q-24 0 -49 -9t-52 -27v64q27 18 51.5 26.5t49.5 8.5t51.5 -8.5t57.5 -26.5q33 -18 59 -27t50 -9t49 9t52 27v-64zM510 130q-28 -18 -52.5 -26.5t-48.5 -8.5q-47 0 -109 35q-32 18 -58.5 27t-50.5 9
t-49 -9t-52 -27v65q27 18 51.5 26.5t49.5 8.5t51.5 -8.5t57.5 -26.5q33 -18 59 -27t50 -9t49 9t52 27v-65z" />
    <glyph glyph-name="notequal" unicode="&#x2260;" horiz-adv-x="600" 
d="M514 391v-64h-138l-80 -135h218v-64h-256l-75 -128h-72l75 128h-100v64h138l80 135h-218v64h256l75 128h72l-75 -128h100z" />
    <glyph glyph-name="lessequal" unicode="&#x2264;" horiz-adv-x="600" 
d="M90 356l422 170v-65l-354 -142l354 -143v-65l-422 170v75zM512 0h-423v64h423v-64z" />
    <glyph glyph-name="greaterequal" unicode="&#x2265;" horiz-adv-x="600" 
d="M511 281l-422 -170v65l354 143l-354 142v65l422 -170v-75zM89 0v64h423v-64h-423z" />
    <glyph glyph-name="uni2421" unicode="&#x2421;" horiz-adv-x="933" 
d="M318.5 761.5q21.5 -18.5 21.5 -56.5v-211l-66 -65h-196v351h181q38 0 59.5 -18.5zM632 582h-149v-104h161v-49h-220v351h215v-49h-156v-100h149v-49zM776 780v-302h135v-49h-193v351h58zM281 520v174q0 18 -10 27.5t-28 9.5h-107v-253h104z" />
    <glyph glyph-name="lozenge" unicode="&#x25ca;" horiz-adv-x="580" 
d="M338 700l170 -390l-170 -390h-93l-173 390l173 390h93zM147 310l145 -334l142 334l-142 334z" />
    <glyph glyph-name="uniFEFF" unicode="&#xfeff;" horiz-adv-x="0" 
 />
    <glyph glyph-name="f_t" horiz-adv-x="573" 
d="M557 436h-113v-319q0 -23 4 -34t13.5 -15.5t29.5 -4.5h55v-63h-64q-44 0 -67 9t-33 33.5t-10 74.5v319h-209v-436h-73v436h-78v58h78v90q0 116 121 116h89v-58h-82q-29 0 -42 -15t-13 -50v-83h209v124h72v-124h113v-58z" />
    <glyph glyph-name="t_f" horiz-adv-x="573" 
d="M520 642q-29 0 -42 -15t-13 -50v-83h97v-58h-97v-436h-72v436h-220v-319q0 -22 4 -33.5t14 -16t29 -4.5h55v-63h-61q-45 0 -69 9t-34 33.5t-10 74.5v319h-92v58h92v124h72v-124h220v90q0 116 121 116h85v-58h-79z" />
    <glyph glyph-name="t_t" horiz-adv-x="594" 
d="M578 436h-113v-319q0 -22 4 -33.5t14 -16t29 -4.5h55v-63h-61q-45 0 -69 9t-34 33.5t-10 74.5v319h-220v-319q0 -22 4 -33.5t14 -16t29 -4.5h55v-63h-61q-45 0 -69 9t-34 33.5t-10 74.5v319h-92v58h92v124h72v-124h220v124h72v-124h113v-58z" />
    <glyph glyph-name="zero.ss02" horiz-adv-x="602" 
d="M366 706q72 0 114.5 -37.5t42.5 -114.5v-408q0 -77 -42.5 -114.5t-114.5 -37.5h-130q-72 0 -114 37.5t-42 114.5v408q0 77 42 114.5t114 37.5h130zM236 641q-37 0 -60 -22t-23 -65v-8l296 -308v316q0 43 -22.5 65t-60.5 22h-130zM366 60q38 0 60.5 22t22.5 64v9l-296 308
v-317q0 -42 23 -64t60 -22h130z" />
    <glyph glyph-name="one.ss02" horiz-adv-x="602" 
d="M376 0h-72v628l-175 -72v70l175 74h72v-700z" />
    <glyph glyph-name="two.ss02" horiz-adv-x="602" 
d="M76 161q0 69 17.5 109t59 62.5t118.5 38.5q79 16 114.5 30t46.5 32t11 53v66q0 79 -86 79h-258v69h258q77 0 120 -35.5t43 -112.5v-66q0 -59 -16.5 -89t-58.5 -48t-132 -37q-72 -16 -105.5 -31.5t-45 -41.5t-11.5 -76v-96h374v-67h-449v161z" />
    <glyph glyph-name="three.ss02" horiz-adv-x="602" 
d="M83 0v69h269l95 94v90q0 44 -23 61t-71 17h-235v69h235q44 0 63.5 23t19.5 74v57q0 43 -21 61t-64 18h-262v67h262q83 0 121.5 -32.5t38.5 -105.5v-65q0 -46 -20 -77t-55 -48q44 -11 65 -40t21 -79v-117l-137 -136h-302z" />
    <glyph glyph-name="four.ss02" horiz-adv-x="602" 
d="M460 0h-74v177h-340v77l304 446h110v-454h102v-69h-102v-177zM386 631l-264 -385h264v385z" />
    <glyph glyph-name="five.ss02" horiz-adv-x="602" 
d="M83 0v69h276l94 94v98q0 39 -21 59.5t-57 20.5h-285v359h421v-39l-28 -28h-324v-223h216q71 0 112.5 -37t41.5 -112v-125l-137 -136h-309z" />
    <glyph glyph-name="six.ss02" horiz-adv-x="602" 
d="M386 424q72 0 112.5 -35.5t40.5 -105.5v-148q0 -70 -40.5 -105.5t-112.5 -35.5h-169q-72 0 -112.5 35.5t-40.5 105.5v148q0 61 29 98l223 319h83l-193 -276h180zM386 59q39 0 60 19.5t21 57.5v146q0 38 -21 57.5t-60 19.5h-169q-38 0 -59.5 -19.5t-21.5 -57.5v-146
q0 -38 21.5 -57.5t59.5 -19.5h169z" />
    <glyph glyph-name="seven.ss02" horiz-adv-x="602" 
d="M266 0h-81l259 633h-386v67h462v-67z" />
    <glyph glyph-name="eight.ss02" horiz-adv-x="602" 
d="M525.5 324q19.5 -31 19.5 -84v-97q0 -75 -40 -112t-116 -37h-175q-76 0 -116 37t-40 112v97q0 53 19.5 84t58.5 45q-55 30 -55 112v82q0 71 41.5 107t110.5 36h136q69 0 111 -36t42 -107v-82q0 -81 -55 -112q39 -14 58.5 -45zM156 481q0 -39 19.5 -61.5t59.5 -22.5h132
q41 0 60 22t19 62v82q0 35 -20.5 54.5t-56.5 19.5h-136q-36 0 -56.5 -19.5t-20.5 -54.5v-82zM389 63q80 0 80 80v97q0 48 -22 70t-73 22h-146q-50 0 -72 -22t-22 -70v-97q0 -80 80 -80h175z" />
    <glyph glyph-name="nine.ss02" horiz-adv-x="602" 
d="M539 417q0 -66 -33 -102l-220 -315h-83l194 276h-181q-72 0 -112.5 35.5t-40.5 105.5v148q0 70 40.5 105.5t112.5 35.5h169q73 0 113.5 -35.5t40.5 -105.5v-148zM385 341q38 0 59.5 19.5t21.5 57.5v146q0 38 -21.5 57.5t-59.5 19.5h-169q-38 0 -59.5 -19.5t-21.5 -57.5
v-146q0 -38 21.5 -57.5t59.5 -19.5h169z" />
    <glyph glyph-name="colon.ss01" horiz-adv-x="270" 
d="M79 105v117h112v-117h-112zM79 483v117h112v-117h-112z" />
    <glyph glyph-name="hyphen.ss01" horiz-adv-x="380" 
d="M50 388h280v-56h-280v56z" />
    <glyph glyph-name="endash.ss01" horiz-adv-x="580" 
d="M50 389h480v-57h-480v57z" />
    <glyph glyph-name="emdash.ss01" horiz-adv-x="862" 
d="M50 389h762v-57h-762v57z" />
    <glyph glyph-name="uni03020301" horiz-adv-x="0" 
d="M-186 829l92 126h77l-106 -126h-63zM-256 869l104 -126h-67l-82 88l-82 -88h-65l103 126h89z" />
    <glyph glyph-name="uni03020300" horiz-adv-x="0" 
d="M-584 955h77l93 -126h-64zM-256 869l104 -126h-66l-82 88l-82 -88h-66l103 126h89z" />
    <glyph glyph-name="uni03020309" horiz-adv-x="0" 
d="M-236 869l104 -126h-67l-82 88l-82 -88h-65l103 126h89zM-82 977q32 0 49.5 -5.5t25 -17t7.5 -32.5v-14q0 -22 -9.5 -34t-30.5 -17t-59 -5v-26h-53v64h56q23 0 30 4t7 14v8q0 9 -5.5 12.5t-20.5 3.5h-135v45h138z" />
    <glyph glyph-name="uni03020303" horiz-adv-x="0" 
d="M-232 869l104 -126h-67l-82 88l-82 -88h-65l103 126h89zM-414 892q0 50 23 75.5t62 25.5q21 0 36 -8.5t31 -23.5q13 -11 21 -16t17 -5q18 0 26.5 12.5t8.5 40.5h51q0 -50 -22.5 -75.5t-62.5 -25.5q-21 0 -36 8.5t-31 23.5q-12 11 -20.5 16.5t-17.5 5.5q-18 0 -26.5 -12.5
t-8.5 -41.5h-51z" />
    <glyph glyph-name="logo" horiz-adv-x="6279" 
d="M4376 406q3 2 2.5 6t-4.5 4h-77q-2 0 -3.5 1.5t-0.5 3.5l3 12q3 7 7 11l101 76q4 3 3.5 6.5t-4.5 3.5h-75q-3 0 -4.5 1.5t-0.5 3.5l3 10q3 6 7 10l104 79q4 3 3 6.5t-5 3.5h-63q-5 0 -8 3t-3 8q0 6 5 16t6 13q34 73 93 127t122 77v-140l-115 -433l-1 -4q0 -4 3 -7t7 -3
h50q3 0 4.5 -2t0.5 -5l-7 -27q-3 -7 -9 -7h-331q-2 0 -4 2t-1 5l7 27q1 3 3.5 5t5.5 2h48q6 0 12 4t6 10v3q0 2 3 5t4 5zM347.5 446q8.5 -7 23.5 -7h483l-149 -178h-423l-70 -261h-207l187 700h741l-150 -179h-390q-23 0 -38.5 -15t-15.5 -40q0 -13 8.5 -20zM1578 700
q36 0 58 -22t22 -55q0 -15 -4 -28l-61 -230q-8 -29 -28.5 -52.5t-48 -37.5t-56.5 -14h-131l156 -261h-226l-156 261h-295l150 178h406q19 0 33.5 11t19.5 31q2 8 2 12q0 14 -9 21t-25 7h-498l149 179h542zM1965 521q-19 0 -32.5 -11t-18.5 -30q-2 -10 -2 -14q0 -13 8 -20
t24 -7h343l-150 -178h-241q-19 0 -33 -10.5t-19 -30.5q-2 -5 -2 -15q0 -13 8 -20t24 -7h492l-48 -178h-741l188 700h741l-151 -179h-390zM2789 521q-24 0 -39 -15t-15 -41q0 -13 8 -19.5t23 -6.5h344l-150 -178h-242q-19 0 -33 -10.5t-19 -30.5q-2 -10 -2 -13
q0 -14 8.5 -21.5t24.5 -7.5h492l-48 -178h-741l188 700h740l-149 -179h-390zM3721 466q0 -13 8.5 -20t24.5 -7h483l-150 -178h-422l-70 -261h-208l187 700h741l-149 -179h-391q-19 0 -33 -11t-19 -30q-2 -10 -2 -14zM5346 700q36 0 58.5 -22t22.5 -56q0 -9 -4 -27l-62 -230
q-8 -29 -28 -52.5t-47.5 -37.5t-56.5 -14h-132l157 -261h-226l-157 261h-294l149 178h406q20 0 34 11t19 31q2 10 2 13q0 13 -9 20t-25 7h-498l150 179h541zM5734 521q-20 0 -33.5 -10.5t-18.5 -30.5q-2 -10 -2 -14q0 -13 8 -20t24 -7h343l-150 -178h-241q-19 0 -33 -10.5
t-19 -30.5q-2 -10 -2 -14q0 -14 8 -21t24 -7h492l-48 -178h-740l187 700h741l-150 -179h-390zM4249 205q1 6 6.5 10t11.5 4h152q5 0 8 -4t2 -10l-44 -167q-4 -17 -17.5 -27.5t-31.5 -10.5h-142z" />
    </font>
</defs>
</svg>
